<?xml version="1.0" encoding="UTF-8" standalone="no"?>
<!-- Created with Inkscape (http://www.inkscape.org/) -->

<svg
   xmlns:dc="http://purl.org/dc/elements/1.1/"
   xmlns:cc="http://creativecommons.org/ns#"
   xmlns:rdf="http://www.w3.org/1999/02/22-rdf-syntax-ns#"
   xmlns:svg="http://www.w3.org/2000/svg"
   xmlns="http://www.w3.org/2000/svg"
   xmlns:sodipodi="http://sodipodi.sourceforge.net/DTD/sodipodi-0.dtd"
   xmlns:inkscape="http://www.inkscape.org/namespaces/inkscape"
   id="svg2"
   version="1.1"
   inkscape:version="0.48.4 r9939"
   width="444.6"
   height="66.125"
   xml:space="preserve"
   sodipodi:docname="fhcrc-logo.eps"><metadata
     id="metadata8"><rdf:RDF><cc:Work
         rdf:about=""><dc:format>image/svg+xml</dc:format><dc:type
           rdf:resource="http://purl.org/dc/dcmitype/StillImage" /><dc:title></dc:title></cc:Work></rdf:RDF></metadata><defs
     id="defs6" /><sodipodi:namedview
     pagecolor="#ffffff"
     bordercolor="#666666"
     borderopacity="1"
     objecttolerance="10"
     gridtolerance="10"
     guidetolerance="10"
     inkscape:pageopacity="0"
     inkscape:pageshadow="2"
     inkscape:window-width="640"
     inkscape:window-height="480"
     id="namedview4"
     showgrid="false"
     inkscape:zoom="0.94242014"
     inkscape:cx="222.3"
     inkscape:cy="33.0625"
     inkscape:window-x="0"
     inkscape:window-y="0"
     inkscape:window-maximized="0"
     inkscape:current-layer="g10" /><g
     id="g10"
     inkscape:groupmode="layer"
     inkscape:label="ink_ext_XXXXXX"
     transform="matrix(1.25,0,0,-1.25,0,66.125)"><g
       id="g12"
       transform="scale(0.1,0.1)"><path
         d="m 165.215,32.9375 -1.133,1.1445 c -10.785,-8.2422 -30.66,-23.5625 -57.621,-23.5625 -44.5743,0 -78.6368,28.1055 -78.6368,91.1215 0,63.027 34.0625,91.125 78.6368,91.125 26.684,0 45.984,-16.465 53.93,-25.262 l 1.711,0.566 c 1.128,5.961 3.113,17.032 5.961,22.145 -15.333,7.094 -37.196,13.058 -61.602,13.058 C 43.7188,203.273 0,166.086 0,101.641 0,37.207 43.7188,0 103.617,0 c 28.395,0 51.949,10.5195 59.047,16.1836 l 2.551,16.7539 0,0"
         style="fill:#6ac2ee;fill-opacity:1;fill-rule:nonzero;stroke:none"
         id="path14" /><path
         d="m 296.305,92.8359 c -10.508,-0.2812 -21.289,-0.5664 -31.793,-0.5664 -9.942,0 -20.727,0.5664 -30.66,0.5664 l 30.937,72.1091 31.516,-72.1091 0,0 z M 268.77,203.273 C 239.809,136.277 210.289,70.1289 179.91,3.69922 c 3.688,0.85156 7.098,1.41797 10.5,1.41797 3.406,0 6.817,-0.56641 10.512,-1.41797 4.82,17.88278 15.605,46.83598 27.535,76.07418 11.637,0.293 22.988,0.5743 34.629,0.5743 12.496,0 24.984,-0.2813 37.191,-0.5743 10.219,-25.2617 23.844,-56.4921 29.243,-76.07418 5.109,0.85156 9.929,1.41797 15.046,1.41797 5.106,0 9.938,-0.56641 15.043,-1.41797 C 344.566,34.082 301.98,137.41 274.164,203.273 l -5.394,0 0,0"
         style="fill:#6ac2ee;fill-opacity:1;fill-rule:evenodd;stroke:none"
         id="path16" /><path
         d="m 552.301,0 c -0.285,12.7813 -0.856,75.5195 -0.856,104.477 0,22.132 2.84,78.359 4.547,95.101 -3.125,-0.851 -5.965,-1.426 -9.09,-1.426 -3.117,0 -6.527,0.575 -9.644,1.426 2.262,-43.715 2.262,-99.074 2.262,-149.8905 -34.625,34.918 -97.372,103.3355 -143.645,153.5855 l -4.535,0 c 0.844,-12.781 0.844,-40.312 0.844,-76.085 0,-37.4653 -3.688,-110.1372 -5.961,-123.48878 3.695,0.85156 7.101,1.41797 10.511,1.41797 3.407,0 6.813,-0.56641 9.93,-1.41797 -1.422,11.35158 -2.555,71.26168 -2.555,95.67188 0,30.0939 0.575,47.1289 0.852,57.6249 C 453.508,105.332 505.172,50.8281 548.32,0 l 3.981,0 0,0"
         style="fill:#6ac2ee;fill-opacity:1;fill-rule:nonzero;stroke:none"
         id="path18" /><path
         d="m 754.902,32.9375 -1.132,1.1445 c -10.782,-8.2422 -30.657,-23.5625 -57.622,-23.5625 -44.578,0 -78.636,28.1055 -78.636,91.1215 0,63.027 34.058,91.125 78.636,91.125 26.684,0 45.985,-16.465 53.934,-25.262 l 1.703,0.566 c 1.141,5.961 3.117,17.032 5.965,22.145 -15.332,7.094 -37.187,13.058 -61.602,13.058 -62.742,0 -106.46,-37.187 -106.46,-101.632 C 589.688,37.207 633.406,0 693.305,0 c 28.394,0 51.953,10.5195 59.05,16.1836 l 2.547,16.7539 0,0"
         style="fill:#6ac2ee;fill-opacity:1;fill-rule:nonzero;stroke:none"
         id="path20" /><path
         d="m 791.184,77.5 c 0,-24.4023 -1.145,-49.1016 -2.278,-73.80078 17.317,0.85156 34.352,1.41797 51.664,1.41797 17.317,0 34.356,-0.56641 51.102,-1.41797 -0.567,2.55078 -0.852,5.67578 -0.852,8.22658 0,2.5664 0.285,6.2578 0.852,8.7969 -17.879,-3.4102 -51.383,-3.6719 -76.649,-3.6719 -0.281,7.082 -0.57,20.9961 -0.57,42.5664 0,27.2578 0,34.3516 0.289,41.1678 13.621,0 49.395,-0.558 68.981,-2.5545 -0.571,2.8435 -0.848,5.6755 -0.848,8.5275 0,2.832 0.277,5.953 0.848,8.793 -16.746,-1.426 -35.485,-2.84 -68.981,-2.84 0,7.094 -0.289,22.715 -0.289,37.469 0,13.914 0.856,23.851 1.137,36.058 36.906,0 50.82,-1.988 74.664,-3.695 -0.566,2.844 -0.852,5.684 -0.852,8.52 0,2.835 0.286,5.687 0.852,8.515 -16.754,-0.851 -33.5,-1.426 -50.535,-1.426 -17.028,0 -33.781,0.575 -50.813,1.426 1.133,-24.117 2.278,-48.836 2.278,-73.234 l 0,-48.844"
         style="fill:#6ac2ee;fill-opacity:1;fill-rule:nonzero;stroke:none"
         id="path22" /><path
         d="m 929.418,77.2266 c 0,-24.4219 -1.137,-49.1211 -2.273,-73.52738 4.824,0.85156 9.371,1.41797 13.914,1.41797 4.543,0 9.082,-0.56641 13.906,-1.41797 -1.133,24.40628 -2.27,49.10548 -2.27,73.52738 l 0,20.7187 10.785,0 c 24.415,-24.6914 62.18,-76.9297 73.53,-94.24608 5.4,0.85156 11.07,1.41797 16.47,1.41797 5.68,0 11.35,-0.56641 17.03,-1.41797 -16.46,18.44918 -63.88,79.48828 -77.783,96.80478 21.573,2.84 58.193,17.605 58.193,54.223 0,33.781 -26.97,44.851 -59.049,44.851 -10.785,0 -21.574,-1.426 -32.363,-1.426 -10.785,0 -21.574,0.575 -32.363,1.426 1.136,-24.41 2.273,-49.113 2.273,-73.527 l 0,-48.8244 z m 23.277,48.8244 c 0,20.449 0.852,40.883 1.703,61.609 5.961,0.567 14.481,1.418 27.54,1.418 19.302,0 44.002,-7.39 44.002,-37.199 0,-33.77 -30.952,-43.426 -54.225,-43.426 -7.383,0 -13.906,0.281 -19.02,1.414 l 0,16.184"
         style="fill:#6ac2ee;fill-opacity:1;fill-rule:evenodd;stroke:none"
         id="path24" /><path
         d="m 1178.01,77.2266 c 0,-24.4219 -1.14,-49.1211 -2.28,-73.52738 4.83,0.85156 9.37,1.41797 13.91,1.41797 4.54,0 9.09,-0.56641 13.91,-1.41797 -1.13,24.40628 -2.27,49.10548 -2.27,73.52738 l 0,20.7187 10.79,0 c 24.41,-24.6914 62.17,-76.9297 73.53,-94.24608 5.39,0.85156 11.07,1.41797 16.46,1.41797 5.68,0 11.35,-0.56641 17.04,-1.41797 -16.47,18.44918 -63.88,79.48828 -77.79,96.80478 21.58,2.84 58.2,17.605 58.2,54.223 0,33.781 -26.98,44.851 -59.05,44.851 -10.79,0 -21.57,-1.426 -32.37,-1.426 -10.78,0 -21.57,0.575 -32.36,1.426 1.14,-24.41 2.28,-49.113 2.28,-73.527 l 0,-48.8244 z m 23.27,48.8244 c 0,20.449 0.85,40.883 1.71,61.609 5.96,0.567 14.47,1.418 27.53,1.418 19.3,0 44.01,-7.39 44.01,-37.199 0,-33.77 -30.96,-43.426 -54.23,-43.426 -7.38,0 -13.91,0.281 -19.02,1.414 l 0,16.184"
         style="fill:#6ac2ee;fill-opacity:1;fill-rule:evenodd;stroke:none"
         id="path26" /><path
         d="m 1347.63,77.5 c 0,-24.4023 -1.14,-49.1016 -2.27,-73.80078 17.32,0.85156 34.35,1.41797 51.67,1.41797 17.31,0 34.35,-0.56641 51.09,-1.41797 -0.57,2.55078 -0.84,5.67578 -0.84,8.22658 0,2.5664 0.27,6.2578 0.84,8.7969 -17.88,-3.4102 -51.38,-3.6719 -76.65,-3.6719 -0.28,7.082 -0.56,20.9961 -0.56,42.5664 0,27.2578 0,34.3516 0.28,41.1678 13.63,0 49.4,-0.558 68.99,-2.5545 -0.58,2.8435 -0.85,5.6755 -0.85,8.5275 0,2.832 0.27,5.953 0.85,8.793 -16.75,-1.426 -35.49,-2.84 -68.99,-2.84 0,7.094 -0.28,22.715 -0.28,37.469 0,13.914 0.84,23.851 1.13,36.058 36.91,0 50.82,-1.988 74.66,-3.695 -0.56,2.844 -0.85,5.684 -0.85,8.52 0,2.835 0.29,5.687 0.85,8.515 -16.74,-0.851 -33.5,-1.426 -50.53,-1.426 -17.03,0 -33.78,0.575 -50.81,1.426 1.13,-24.117 2.27,-48.836 2.27,-73.234 l 0,-48.844"
         style="fill:#6ac2ee;fill-opacity:1;fill-rule:nonzero;stroke:none"
         id="path28" /><path
         d="M 1467.7,41.4531 C 1466.56,30.6758 1465.72,25 1462.3,16.1836 1472.25,8.23047 1485.59,0 1509.15,0 c 43.72,0 69.55,29.2578 69.55,63.8867 0,62.7223 -89.42,40.5903 -89.42,93.6723 0,20.726 15.32,35.207 36.62,35.207 21.28,0 29.8,-16.172 33.78,-26.68 l 3.41,0 c 2.27,10.777 4.25,17.312 7.66,23.848 -11.36,9.082 -24.13,13.339 -42.01,13.339 -37.76,0 -61.61,-22.144 -61.61,-53.664 0,-66.7027 89.43,-44.277 89.43,-96.5113 0,-22.7071 -15.33,-41.1719 -40.6,-41.1719 -24.41,0 -38.61,16.1797 -44.85,29.5273 l -3.41,0 0,0"
         style="fill:#6ac2ee;fill-opacity:1;fill-rule:nonzero;stroke:none"
         id="path30" /><path
         d="m 1612.76,77.5 c 0,-24.4023 -1.14,-49.1016 -2.28,-73.80078 17.32,0.85156 34.35,1.41797 51.67,1.41797 17.32,0 34.35,-0.56641 51.1,-1.41797 -0.56,2.55078 -0.85,5.67578 -0.85,8.22658 0,2.5664 0.29,6.2578 0.85,8.7969 -17.88,-3.4102 -51.38,-3.6719 -76.65,-3.6719 -0.28,7.082 -0.57,20.9961 -0.57,42.5664 0,27.2578 0,34.3516 0.29,41.1678 13.63,0 49.39,-0.558 68.98,-2.5545 -0.56,2.8435 -0.85,5.6755 -0.85,8.5275 0,2.832 0.29,5.953 0.85,8.793 -16.75,-1.426 -35.48,-2.84 -68.98,-2.84 0,7.094 -0.29,22.715 -0.29,37.469 0,13.914 0.86,23.851 1.14,36.058 36.91,0 50.82,-1.988 74.66,-3.695 -0.57,2.844 -0.84,5.684 -0.84,8.52 0,2.835 0.27,5.687 0.84,8.515 -16.75,-0.851 -33.5,-1.426 -50.53,-1.426 -17.03,0 -33.79,0.575 -50.82,1.426 1.14,-24.117 2.28,-48.836 2.28,-73.234 l 0,-48.844"
         style="fill:#6ac2ee;fill-opacity:1;fill-rule:nonzero;stroke:none"
         id="path32" /><path
         d="m 1844.39,92.8359 c -10.49,-0.2812 -21.28,-0.5664 -31.79,-0.5664 -9.93,0 -20.72,0.5664 -30.66,0.5664 l 30.94,72.1091 31.51,-72.1091 0,0 z M 1816.87,203.273 C 1787.9,136.277 1758.37,70.1289 1728,3.69922 c 3.69,0.85156 7.1,1.41797 10.51,1.41797 3.4,0 6.81,-0.56641 10.5,-1.41797 4.83,17.88278 15.61,46.83598 27.54,76.07418 11.64,0.293 22.99,0.5743 34.63,0.5743 12.5,0 24.98,-0.2813 37.19,-0.5743 10.22,-25.2617 23.85,-56.4921 29.24,-76.07418 5.11,0.85156 9.94,1.41797 15.05,1.41797 5.11,0 9.94,-0.56641 15.05,-1.41797 C 1892.66,34.082 1850.08,137.41 1822.26,203.273 l -5.39,0 0,0"
         style="fill:#6ac2ee;fill-opacity:1;fill-rule:evenodd;stroke:none"
         id="path34" /><path
         d="m 1936.59,77.2266 c 0,-24.4219 -1.14,-49.1211 -2.27,-73.52738 4.82,0.85156 9.36,1.41797 13.91,1.41797 4.54,0 9.08,-0.56641 13.91,-1.41797 -1.13,24.40628 -2.28,49.10548 -2.28,73.52738 l 0,20.7187 10.79,0 c 24.42,-24.6914 62.18,-76.9297 73.54,-94.24608 5.39,0.85156 11.06,1.41797 16.45,1.41797 5.69,0 11.36,-0.56641 17.05,-1.41797 -16.47,18.44918 -63.88,79.48828 -77.8,96.80478 21.58,2.84 58.21,17.605 58.21,54.223 0,33.781 -26.98,44.851 -59.06,44.851 -10.78,0 -21.57,-1.426 -32.36,-1.426 -10.79,0 -21.57,0.575 -32.36,1.426 1.13,-24.41 2.27,-49.113 2.27,-73.527 l 0,-48.8244 z m 23.27,48.8244 c 0,20.449 0.86,40.883 1.71,61.609 5.96,0.567 14.47,1.418 27.54,1.418 19.3,0 44.01,-7.39 44.01,-37.199 0,-33.77 -30.96,-43.426 -54.23,-43.426 -7.39,0 -13.91,0.281 -19.03,1.414 l 0,16.184"
         style="fill:#6ac2ee;fill-opacity:1;fill-rule:evenodd;stroke:none"
         id="path36" /><path
         d="m 2252.71,32.9375 -1.15,1.1445 c -10.78,-8.2422 -30.65,-23.5625 -57.62,-23.5625 -44.57,0 -78.64,28.1055 -78.64,91.1215 0,63.027 34.07,91.125 78.64,91.125 26.69,0 45.99,-16.465 53.93,-25.262 l 1.71,0.566 c 1.13,5.961 3.13,17.032 5.97,22.145 -15.34,7.094 -37.2,13.058 -61.61,13.058 -62.75,0 -106.46,-37.187 -106.46,-101.632 C 2087.48,37.207 2131.19,0 2191.1,0 c 28.38,0 51.95,10.5195 59.05,16.1836 l 2.56,16.7539 0,0"
         style="fill:#6ac2ee;fill-opacity:1;fill-rule:nonzero;stroke:none"
         id="path38" /><path
         d="m 2430.92,116.125 c -19.88,-0.285 -39.46,-0.867 -59.34,-0.867 -19.87,0 -39.46,0.582 -59.33,0.867 l 0,9.926 c 0,24.414 1.14,49.117 2.27,73.527 -4.82,-0.851 -9.36,-1.426 -13.9,-1.426 -4.56,0 -9.1,0.575 -13.92,1.426 1.13,-24.41 2.27,-49.113 2.27,-73.527 l 0,-48.8244 c 0,-24.4219 -1.14,-49.1211 -2.27,-73.52738 4.82,0.85156 9.36,1.41797 13.92,1.41797 4.54,0 9.08,-0.56641 13.9,-1.41797 -1.13,24.40628 -2.27,49.10548 -2.27,73.52738 l 0,25.5464 c 19.87,0.278 39.46,0.571 59.33,0.571 19.88,0 39.46,-0.293 59.34,-0.571 l 0,-25.5464 c 0,-24.4219 -1.14,-49.1211 -2.28,-73.52738 4.83,0.85156 9.37,1.41797 13.92,1.41797 4.54,0 9.08,-0.56641 13.9,-1.41797 -1.14,24.40628 -2.27,49.10548 -2.27,73.52738 l 0,48.8244 c 0,24.414 1.13,49.117 2.27,73.527 -4.82,-0.851 -9.36,-1.426 -13.9,-1.426 -4.55,0 -9.09,0.575 -13.92,1.426 1.14,-24.41 2.28,-49.113 2.28,-73.527 l 0,-9.926"
         style="fill:#6ac2ee;fill-opacity:1;fill-rule:nonzero;stroke:none"
         id="path40" /><path
         d="m 2726.68,38.8984 c -12.21,-12.7656 -33.22,-21.2929 -51.39,-21.2929 -32.64,0 -67.27,23 -67.27,81.4726 0,60.1919 34.34,86.5859 64.71,86.5859 20.16,0 34.64,-7.664 48.84,-25.266 l 3.98,0 c 0.84,9.653 2.83,19.598 6.52,28.961 -13.07,7.95 -38.04,13.914 -57.91,13.914 -59.62,0 -112.7,-30.093 -112.7,-108.4488 C 2561.46,41.1719 2600.34,0 2666.21,0 c 23.27,0 42.86,4.55078 57.91,12.5 0.85,7.9492 3.13,16.1719 6.24,24.1211 l -3.68,2.2773 0,0"
         style="fill:#231f20;fill-opacity:1;fill-rule:nonzero;stroke:none"
         id="path42" /><path
         d="m 2759.82,82.3359 c 0,-31.8007 -0.56,-53.664 -2.27,-78.63668 6.24,0.57031 13.91,1.41797 60.18,1.41797 26.12,0 39.47,-1.14063 49.68,-1.41797 -0.56,3.40234 -1.13,6.24219 -1.13,12.20708 0,5.957 0.57,8.8007 1.13,12.7656 C 2845.56,26.1328 2823.69,25 2802.4,25 c -0.56,11.3477 -0.85,23.5547 -0.85,35.4805 0,12.207 0.29,24.4023 0.29,36.332 21.57,0 42.87,-0.8437 64.44,-2.5547 -0.86,5.9692 -1.43,8.5152 -1.43,11.6372 0,3.695 0.3,6.246 1.43,12.777 -21.57,-1.133 -39.75,-1.695 -64.44,-2.274 0,20.727 0,41.161 1.41,61.887 8.53,0 42.59,-1.984 64.16,-3.402 -0.56,4.258 -1.13,6.805 -1.13,12.777 0,5.106 0.57,8.516 1.13,11.918 -7.66,-0.851 -31.5,-1.426 -59.33,-1.426 -16.75,0 -33.78,1.145 -50.53,1.426 1.71,-24.984 2.27,-46.84 2.27,-78.637 l 0,-38.6051"
         style="fill:#231f20;fill-opacity:1;fill-rule:nonzero;stroke:none"
         id="path44" /><path
         d="m 2903.17,143.086 c 0,-57.9102 -4.26,-131.1602 -5.68,-139.38678 4.27,0.85156 8.8,1.41797 13.07,1.41797 4.25,0 8.8,-0.56641 13.34,-1.41797 -0.85,10.49998 -1.71,26.39848 -1.71,71.82028 0,21.293 0,44.8635 0.57,66.1525 43.72,-45.9962 85.17,-91.9845 124.06,-137.97278 3.4,0.85156 7.1,1.41797 11.07,1.41797 3.98,0 7.67,-0.56641 11.64,-1.41797 0,75.51558 0,113.27778 4.54,195.87878 -4.26,-0.851 -8.51,-1.426 -12.77,-1.426 -4.26,0 -8.52,0.575 -12.77,1.426 1.98,-12.765 1.98,-89.988 1.98,-135.1366 -41.73,45.1486 -82.33,90.0076 -123.21,135.1366 -4.25,-0.851 -8.51,-1.426 -12.77,-1.426 -4.27,0 -8.51,0.575 -12.77,1.426 0.28,-13.633 1.41,-30.933 1.41,-56.492 l 0,0"
         style="fill:#231f20;fill-opacity:1;fill-rule:nonzero;stroke:none"
         id="path46" /><path
         d="m 3151.2,82.3359 c 0,-31.8007 -0.57,-53.664 -2.26,-78.63668 6.24,0.57031 13.9,1.41797 23.27,1.41797 9.37,0 17.04,-0.84766 23.28,-1.41797 -1.7,24.97268 -2.27,46.83598 -2.27,78.63668 l 0,70.9691 c 0,10.789 0,21.008 0.57,24.98 11.35,0 35.2,-1.691 50.54,-3.691 -0.86,4.261 -1.43,8.242 -1.43,12.496 0,4.258 0.57,8.23 1.43,12.488 -24.14,-0.851 -36.92,-1.426 -72.12,-1.426 -35.2,0 -47.98,0.575 -73.81,1.426 0.86,-4.258 1.42,-8.23 1.42,-12.488 0,-4.254 -0.56,-8.235 -1.42,-12.496 17.03,2 40.88,3.691 51.95,3.691 0.85,-3.972 0.85,-14.191 0.85,-24.98 l 0,-70.9691"
         style="fill:#231f20;fill-opacity:1;fill-rule:nonzero;stroke:none"
         id="path48" /><path
         d="m 3269.25,82.3359 c 0,-31.8007 -0.57,-53.664 -2.27,-78.63668 6.24,0.57031 13.91,1.41797 60.19,1.41797 26.11,0 39.45,-1.14063 49.68,-1.41797 -0.57,3.40234 -1.14,6.24219 -1.14,12.20708 0,5.957 0.57,8.8007 1.14,12.7656 C 3354.98,26.1328 3333.13,25 3311.84,25 c -0.58,11.3477 -0.85,23.5547 -0.85,35.4805 0,12.207 0.27,24.4023 0.27,36.332 21.58,0 42.87,-0.8437 64.45,-2.5547 -0.86,5.9692 -1.42,8.5152 -1.42,11.6372 0,3.695 0.28,6.246 1.42,12.777 -21.58,-1.133 -39.74,-1.695 -64.45,-2.274 0,20.727 0,41.161 1.43,61.887 8.51,0 42.57,-1.984 64.16,-3.402 -0.57,4.258 -1.14,6.805 -1.14,12.777 0,5.106 0.57,8.516 1.14,11.918 -7.67,-0.851 -31.52,-1.426 -59.34,-1.426 -16.75,0 -33.79,1.145 -50.53,1.426 1.7,-24.984 2.27,-46.84 2.27,-78.637 l 0,-38.6051"
         style="fill:#231f20;fill-opacity:1;fill-rule:nonzero;stroke:none"
         id="path50" /><path
         d="m 3496.91,146.207 c 0,-26.68 -13.62,-40.594 -38.6,-40.594 -1.99,0 -3.97,0.282 -6.25,0.575 0,25.835 0.29,51.371 0.86,77.21 30.94,0 43.99,-3.687 43.99,-37.191 l 0,0 z m 8.53,-142.50778 c 8.52,0.57031 17.3,1.41797 25.83,1.41797 8.52,0 17.03,-0.84766 25.55,-1.41797 -20.73,32.08208 -42.3,64.44528 -60.47,96.52778 28.1,7.093 44,24.691 44,52.234 0,16.742 -7.1,29.227 -18.45,37.473 -9.94,7.089 -20.44,9.644 -49.12,9.644 -19.29,0 -31.5,-1.426 -41.73,-1.426 -9.36,0 -17.03,0.864 -23.28,1.426 1.71,-24.984 2.28,-46.84 2.28,-78.637 l 0,-38.6051 c 0,-31.8007 -0.57,-53.664 -2.28,-78.63668 6.25,0.57031 13.92,1.41797 23.28,1.41797 9.37,0 17.04,-0.84766 23.29,-1.41797 -1.71,24.97268 -2.28,46.83598 -2.28,78.63668 l 0,11.6329 2.56,0 50.82,-90.26958 0,0"
         style="fill:#231f20;fill-opacity:1;fill-rule:evenodd;stroke:none"
         id="path52" /><path
         d="m 26.8984,353.16 c 0,-34.058 -1.5898,-68.531 -3.1718,-102.59 6.7343,1.188 13.0703,1.981 19.414,1.981 6.3321,0 12.6758,-0.793 19.4024,-1.981 -1.5742,34.059 -3.168,68.532 -3.168,102.59 l 0,33.676 c 34.0742,0 75.664,-0.406 102.203,-3.168 -0.793,3.965 -1.582,7.918 -1.582,11.879 0,3.965 0.789,7.922 1.582,11.887 -32.883,-3.172 -68.1288,-3.965 -102.203,-3.965 0,16.636 -0.3906,31.687 -0.3906,49.922 0,16.629 0.3906,33.269 0.7851,51.886 25.7539,0 82.0005,-2.382 110.5235,-5.156 -0.797,3.965 -1.191,7.93 -1.191,11.891 0,3.957 0.394,7.922 1.191,11.875 -28.523,-1.18 -51.895,-1.977 -75.6602,-1.977 -23.7695,0 -47.1445,0.797 -70.9062,1.977 1.582,-34.059 3.1718,-68.52 3.1718,-102.586 l 0,-68.141"
         style="fill:#6ac2ee;fill-opacity:1;fill-rule:nonzero;stroke:none"
         id="path54" /><path
         d="m 212.789,353.16 c 0,-34.058 -1.59,-68.531 -3.176,-102.59 6.735,1.188 13.078,1.981 19.418,1.981 6.336,0 12.68,-0.793 19.407,-1.981 -1.583,34.059 -3.172,68.532 -3.172,102.59 l 0,28.918 15.054,0 c 34.067,-34.461 86.746,-107.351 102.594,-131.508 7.524,1.188 15.449,1.981 22.981,1.981 7.918,0 15.839,-0.793 23.757,-1.981 -22.972,25.743 -89.121,110.907 -108.531,135.075 30.106,3.964 81.207,24.558 81.207,75.656 0,47.148 -37.633,62.586 -82.394,62.586 -15.055,0 -30.106,-1.977 -45.161,-1.977 -15.05,0 -30.101,0.797 -45.16,1.977 1.586,-34.059 3.176,-68.52 3.176,-102.586 l 0,-68.141 z m 32.477,68.141 c 0,28.515 1.187,57.043 2.379,85.957 8.316,0.793 20.199,1.976 38.425,1.976 26.934,0 61.403,-10.304 61.403,-51.89 0,-47.141 -43.188,-60.61 -75.664,-60.61 -10.301,0 -19.411,0.407 -26.543,1.977 l 0,22.59"
         style="fill:#6ac2ee;fill-opacity:1;fill-rule:evenodd;stroke:none"
         id="path56" /><path
         d="m 442.473,353.563 c 0,-34.071 -1.59,-68.536 -3.18,-102.993 24.168,1.188 47.934,1.981 72.098,1.981 24.16,0 47.929,-0.793 71.304,-1.981 -0.797,3.563 -1.187,7.922 -1.187,11.485 0,3.57 0.39,8.718 1.187,12.281 -24.953,-4.758 -71.699,-5.148 -106.953,-5.148 -0.394,9.898 -0.797,29.32 -0.797,59.421 0,38.024 0,47.934 0.403,57.43 19.015,0 68.925,-0.781 96.25,-3.562 -0.785,3.953 -1.176,7.918 -1.176,11.886 0,3.957 0.391,8.317 1.176,12.282 -23.36,-1.977 -49.512,-3.965 -96.25,-3.965 0,9.91 -0.403,31.695 -0.403,52.293 0,19.406 1.192,33.269 1.594,50.304 51.488,0 70.902,-2.773 104.18,-5.156 -0.797,3.965 -1.192,7.93 -1.192,11.891 0,3.957 0.395,7.922 1.192,11.875 -23.379,-1.18 -46.742,-1.977 -70.52,-1.977 -23.761,0 -47.133,0.797 -70.906,1.977 1.59,-33.66 3.18,-68.125 3.18,-102.199 l 0,-68.125"
         style="fill:#6ac2ee;fill-opacity:1;fill-rule:nonzero;stroke:none"
         id="path58" /><path
         d="m 628.359,353.16 c 0,-34.058 -1.586,-68.531 -3.171,-102.59 17.824,1.188 35.25,1.981 53.078,1.981 17.828,0 35.254,-1.981 53.082,-1.981 62.59,0 144.187,36.442 144.187,142.207 0,81.602 -38.023,131.11 -130.722,131.11 -19.801,0 -40.004,-1.977 -59.813,-1.977 -19.805,0 -40.004,0.797 -59.812,1.977 1.585,-34.059 3.171,-68.52 3.171,-102.586 l 0,-68.141 z m 32.477,68.141 c 0,28.515 0.797,56.64 2.387,81.992 16.234,1.984 37.629,3.965 60.992,3.965 64.969,0 112.5,-22.586 112.5,-114.481 0,-104.574 -63.375,-127.55 -121.61,-127.55 -20.199,0 -40.796,1.582 -51.882,3.961 -1.59,27.328 -2.387,55.847 -2.387,83.972 l 0,68.141"
         style="fill:#6ac2ee;fill-opacity:1;fill-rule:evenodd;stroke:none"
         id="path60" /><path
         d="m 1197.75,360.293 c 0,-44.359 -0.79,-74.867 -3.17,-109.723 8.71,0.785 19.41,1.981 32.49,1.981 13.07,0 23.76,-1.196 32.48,-1.981 -2.39,34.856 -3.17,65.364 -3.17,109.723 l 0,53.879 c 0,44.363 0.78,74.863 3.17,109.715 -8.72,-0.785 -19.41,-1.977 -32.48,-1.977 -13.08,0 -23.78,1.192 -32.49,1.977 2.38,-34.453 3.17,-64.957 3.17,-108.926 -15.05,-0.406 -31.69,-0.789 -59.81,-0.789 -28.13,0 -47.14,0.383 -60.61,0.789 0,43.969 0.79,74.473 3.17,108.926 -8.71,-0.785 -19.42,-1.977 -32.48,-1.977 -13.07,0 -23.77,1.192 -32.49,1.977 2.39,-34.852 3.18,-65.352 3.18,-109.715 l 0,-53.879 c 0,-44.359 -0.79,-74.867 -3.18,-109.723 8.72,0.785 19.42,1.981 32.49,1.981 13.06,0 23.77,-1.196 32.48,-1.981 -2.38,34.856 -3.17,65.364 -3.17,109.723 l 0,22.578 c 20.2,0.797 40.4,1.582 60.21,1.582 20.2,0 40.01,-1.18 60.21,-1.582 l 0,-22.578"
         style="fill:#231f20;fill-opacity:1;fill-rule:nonzero;stroke:none"
         id="path62" /><path
         d="m 1435.43,245.414 c 76.85,0 116.86,38.031 116.86,129.938 0,68.519 2.77,125.175 5.15,148.535 -6.74,-1.18 -13.07,-1.977 -19.81,-1.977 -6.74,0 -13.47,0.797 -20.21,1.977 1.98,-36.442 3.17,-72.485 3.17,-108.926 0,-73.684 -4.35,-142.211 -67.73,-142.211 -51.5,0 -79.22,15.844 -79.22,112.508 0,45.937 0.39,87.144 5.54,138.629 -10.69,-1.18 -21.79,-1.977 -32.48,-1.977 -10.69,0 -21.79,0.797 -32.49,1.977 0.8,-13.067 1.59,-39.598 1.59,-81.59 0,-28.527 -0.79,-49.922 -0.79,-92.695 0,-74.469 52.69,-104.188 120.42,-104.188 l 0,0"
         style="fill:#231f20;fill-opacity:1;fill-rule:nonzero;stroke:none"
         id="path64" /><path
         d="m 1657.27,360.293 c 0,-44.359 -0.8,-74.867 -3.17,-109.723 8.71,0.785 19.41,1.981 32.48,1.981 13.07,0 23.77,-1.196 32.48,-1.981 -2.38,34.856 -3.17,65.364 -3.17,109.723 l 0,99.039 c 0,15.047 0,29.305 0.79,34.848 15.85,0 49.12,-2.371 70.51,-5.145 -1.18,5.942 -1.98,11.492 -1.98,17.434 0,5.945 0.8,11.476 1.98,17.418 -33.67,-1.18 -51.49,-1.977 -100.61,-1.977 -49.12,0 -66.95,0.797 -103,1.977 1.2,-5.942 1.99,-11.473 1.99,-17.418 0,-5.942 -0.79,-11.492 -1.99,-17.434 23.77,2.774 57.05,5.145 72.49,5.145 1.2,-5.543 1.2,-19.801 1.2,-34.848 l 0,-99.039"
         style="fill:#231f20;fill-opacity:1;fill-rule:nonzero;stroke:none"
         id="path66" /><path
         d="m 2027.7,299.688 c -17.04,-17.825 -46.35,-29.711 -71.7,-29.711 -45.56,0 -93.88,32.089 -93.88,113.691 0,83.98 47.93,120.816 90.31,120.816 28.13,0 48.32,-10.699 68.13,-35.261 l 5.55,0 c 1.18,13.472 3.96,27.34 9.1,40.406 -18.21,11.098 -53.07,19.414 -80.8,19.414 -83.19,0 -157.26,-41.988 -157.26,-151.316 0,-74.868 54.27,-132.313 146.17,-132.313 32.48,0 59.81,6.344 80.81,17.438 1.18,11.089 4.36,22.574 8.71,33.664 l -5.14,3.172 0,0"
         style="fill:#231f20;fill-opacity:1;fill-rule:nonzero;stroke:none"
         id="path68" /><path
         d="m 2249.54,360.293 c 0,-44.359 -0.78,-74.867 -3.16,-109.723 8.71,0.785 19.41,1.981 32.48,1.981 13.07,0 23.77,-1.196 32.49,-1.981 -2.39,34.856 -3.18,65.364 -3.18,109.723 l 0,53.879 c 0,44.363 0.79,74.863 3.18,109.715 -8.72,-0.785 -19.42,-1.977 -32.49,-1.977 -13.07,0 -23.77,1.192 -32.48,1.977 2.38,-34.453 3.16,-64.957 3.16,-108.926 -15.05,-0.406 -31.68,-0.789 -59.8,-0.789 -28.13,0 -47.14,0.383 -60.61,0.789 0,43.969 0.78,74.473 3.16,108.926 -8.71,-0.785 -19.4,-1.977 -32.48,-1.977 -13.06,0 -23.77,1.192 -32.48,1.977 2.38,-34.852 3.17,-65.352 3.17,-109.715 l 0,-53.879 c 0,-44.359 -0.79,-74.867 -3.17,-109.723 8.71,0.785 19.42,1.981 32.48,1.981 13.08,0 23.77,-1.196 32.48,-1.981 -2.38,34.856 -3.16,65.364 -3.16,109.723 l 0,22.578 c 20.2,0.797 40.4,1.582 60.21,1.582 20.2,0 40.01,-1.18 60.2,-1.582 l 0,-22.578"
         style="fill:#231f20;fill-opacity:1;fill-rule:nonzero;stroke:none"
         id="path70" /><path
         d="m 2368,360.293 c 0,-44.359 -0.8,-74.867 -3.17,-109.723 8.71,0.785 19.41,1.981 32.48,1.981 13.07,0 23.76,-1.196 32.48,-1.981 -2.38,34.856 -3.17,65.364 -3.17,109.723 l 0,53.879 c 0,44.363 0.79,74.863 3.17,109.715 -8.72,-0.785 -19.41,-1.977 -32.48,-1.977 -13.07,0 -23.77,1.192 -32.48,1.977 2.37,-34.852 3.17,-65.352 3.17,-109.715 l 0,-53.879"
         style="fill:#231f20;fill-opacity:1;fill-rule:nonzero;stroke:none"
         id="path72" /><path
         d="m 2489.47,445.063 c 0,-80.805 -5.94,-183.008 -7.92,-194.493 5.94,1.188 12.28,1.981 18.22,1.981 5.95,0 12.28,-0.793 18.62,-1.981 -1.19,14.657 -2.37,36.832 -2.37,100.215 0,29.715 0,62.59 0.79,92.301 60.99,-64.176 118.83,-128.344 173.1,-192.516 4.76,1.188 9.9,1.981 15.45,1.981 5.55,0 10.69,-0.793 16.24,-1.981 0,105.371 0,158.055 6.34,273.317 -5.94,-1.18 -11.89,-1.977 -17.83,-1.977 -5.94,0 -11.88,0.797 -17.82,1.977 2.78,-17.821 2.78,-125.567 2.78,-188.551 -58.23,62.984 -114.88,125.574 -171.93,188.551 -5.94,-1.18 -11.88,-1.977 -17.82,-1.977 -5.94,0 -11.88,0.797 -17.83,1.977 0.4,-19.012 1.98,-43.168 1.98,-78.824 l 0,0"
         style="fill:#231f20;fill-opacity:1;fill-rule:nonzero;stroke:none"
         id="path74" /><path
         d="m 2904.62,470.422 c 5.16,17.422 7.92,26.926 12.67,39.207 -15.04,11.887 -36.44,19.414 -64.97,19.414 -47.13,0 -89.12,-30.113 -89.12,-84.773 0,-89.918 118.04,-74.075 118.04,-133.887 0,-22.18 -15.44,-40.406 -46.34,-40.406 -32.09,0 -50.31,19.808 -54.67,42.777 l -7.52,0 c -2.77,-17.82 -6.34,-32.078 -11.49,-50.309 11.49,-8.707 35.25,-17.031 63.78,-17.031 62.98,0 104.97,36.449 104.97,89.531 0,89.914 -120.42,75.258 -120.42,133.883 0,19.016 17.03,35.656 41.19,35.656 24.17,0 39.62,-11.496 47.93,-34.062 l 5.95,0 0,0"
         style="fill:#231f20;fill-opacity:1;fill-rule:nonzero;stroke:none"
         id="path76" /><path
         d="m 3183.59,395.945 c 0,-86.351 -41.58,-125.968 -89.13,-125.968 -44.36,0 -83.18,29.316 -83.18,113.691 0,68.129 31.7,122.801 85.96,122.801 51.1,0 86.35,-42 86.35,-110.524 l 0,0 z m -237.26,-8.718 c 0,-99.024 67.33,-141.813 150.91,-141.813 88.34,0 151.32,63.785 151.32,142.219 0,95.465 -66.16,141.41 -150.12,141.41 -91.92,0 -152.11,-63.777 -152.11,-141.816 l 0,0"
         style="fill:#231f20;fill-opacity:1;fill-rule:evenodd;stroke:none"
         id="path78" /><path
         d="m 3288.85,445.063 c 0,-80.805 -5.95,-183.008 -7.92,-194.493 5.94,1.188 12.27,1.981 18.21,1.981 5.95,0 12.29,-0.793 18.62,-1.981 -1.19,14.657 -2.38,36.832 -2.38,100.215 0,29.715 0,62.59 0.8,92.301 61,-64.176 118.83,-128.344 173.11,-192.516 4.74,1.188 9.9,1.981 15.45,1.981 5.53,0 10.69,-0.793 16.24,-1.981 0,105.371 0,158.055 6.33,273.317 -5.94,-1.18 -11.88,-1.977 -17.83,-1.977 -5.94,0 -11.88,0.797 -17.82,1.977 2.77,-17.821 2.77,-125.567 2.77,-188.551 -58.23,62.984 -114.87,125.574 -171.92,188.551 -5.94,-1.18 -11.88,-1.977 -17.81,-1.977 -5.95,0 -11.89,0.797 -17.83,1.977 0.39,-19.012 1.98,-43.168 1.98,-78.824 l 0,0"
         style="fill:#231f20;fill-opacity:1;fill-rule:nonzero;stroke:none"
         id="path80" /></g></g></svg>