<?xml version="1.0" encoding="UTF-8" standalone="no"?>
<!-- Created with Inkscape (http://www.inkscape.org/) -->

<svg
   xmlns:dc="http://purl.org/dc/elements/1.1/"
   xmlns:cc="http://creativecommons.org/ns#"
   xmlns:rdf="http://www.w3.org/1999/02/22-rdf-syntax-ns#"
   xmlns:svg="http://www.w3.org/2000/svg"
   xmlns="http://www.w3.org/2000/svg"
   xmlns:sodipodi="http://sodipodi.sourceforge.net/DTD/sodipodi-0.dtd"
   xmlns:inkscape="http://www.inkscape.org/namespaces/inkscape"
   width="144"
   height="144"
   id="svg2"
   version="1.1"
   inkscape:version="0.48.4 r9939"
   sodipodi:docname="fhio-icon.svg"
   inkscape:export-filename="/home/matsen/re/fhcrc.io/prep/fhio-icon.png"
   inkscape:export-xdpi="90"
   inkscape:export-ydpi="90">
  <defs
     id="defs4" />
  <sodipodi:namedview
     id="base"
     pagecolor="#ffffff"
     bordercolor="#666666"
     borderopacity="1.0"
     inkscape:pageopacity="0.0"
     inkscape:pageshadow="2"
     inkscape:zoom="1.2447917"
     inkscape:cx="-90.609691"
     inkscape:cy="77.411001"
     inkscape:document-units="px"
     inkscape:current-layer="layer1"
     showgrid="false"
     inkscape:window-width="1600"
     inkscape:window-height="899"
     inkscape:window-x="0"
     inkscape:window-y="0"
     inkscape:window-maximized="1"
     fit-margin-top="0"
     fit-margin-left="0"
     fit-margin-right="0"
     fit-margin-bottom="0">
    <inkscape:grid
       type="xygrid"
       id="grid3925"
       empspacing="5"
       visible="true"
       enabled="true"
       snapvisiblegridlinesonly="true"
       originx="-1.9079487px"
       originy="-1.1046112px" />
  </sodipodi:namedview>
  <metadata
     id="metadata7">
    <rdf:RDF>
      <cc:Work
         rdf:about="">
        <dc:format>image/svg+xml</dc:format>
        <dc:type
           rdf:resource="http://purl.org/dc/dcmitype/StillImage" />
        <dc:title></dc:title>
      </cc:Work>
    </rdf:RDF>
  </metadata>
  <g
     inkscape:label="Layer 1"
     inkscape:groupmode="layer"
     id="layer1"
     transform="translate(-1.9079487,-907.25757)">
    <g
       id="g3805">
      <rect
         y="907.25757"
         x="1.9079487"
         height="144"
         width="144"
         id="rect2989-1"
         style="fill:#123054;fill-opacity:1;stroke:none" />
      <path
         transform="matrix(1.7018331,0,0,1.7018331,-274.91779,733.69955)"
         d="m 240.45457,165.70003 a 17.399027,17.399027 0 1 1 -34.79805,0 17.399027,17.399027 0 1 1 34.79805,0 z"
         sodipodi:ry="17.399027"
         sodipodi:rx="17.399027"
         sodipodi:cy="165.70003"
         sodipodi:cx="223.05554"
         id="path3165-7"
         style="fill:#89c5c6;fill-opacity:1;stroke:none"
         sodipodi:type="arc" />
      <path
         sodipodi:type="arc"
         style="fill:#123054;fill-opacity:1;stroke:none"
         id="path3935-9"
         sodipodi:cx="223.05554"
         sodipodi:cy="165.70003"
         sodipodi:rx="17.399027"
         sodipodi:ry="17.399027"
         d="m 240.45457,165.70003 a 17.399027,17.399027 0 1 1 -34.79805,0 17.399027,17.399027 0 1 1 34.79805,0 z"
         transform="matrix(0.95869931,0,0,0.95869931,-109.15766,856.83685)" />
      <path
         d="m 14.336973,915.01245 c 0,-0.94727 0.760567,-1.80093 1.802653,-1.80093 l 39.265907,0 c 1.039605,0 1.802654,0.85366 1.802654,1.80093 l 0,10.33863 c 0,0.94726 -0.763049,1.80092 -1.802654,1.80092 l -26.271934,0 0,13.65677 21.622058,0 c 0.948251,0 1.802654,0.85391 1.802654,1.80389 l 0,10.33592 c 0,0.94996 -0.854403,1.80364 -1.802654,1.80364 l -21.622058,0 0,23.04467 c 0,0.94998 -0.854416,1.80364 -1.805122,1.80364 l -11.188851,0 c -1.042086,0 -1.802653,-0.85366 -1.802653,-1.80364 l 0,-62.78444"
         style="fill:#89c5c6;fill-opacity:1;fill-rule:nonzero;stroke:none"
         id="path54-1-3"
         inkscape:connector-curvature="0" />
      <path
         d="m 76.074444,915.02243 c 0,-0.9525 0.859132,-1.81091 1.815117,-1.81091 l 11.347592,0 c 1.047859,0 1.815117,0.85841 1.815117,1.81091 l 0,24.03329 27.27391,0 0,-24.03329 c 0,-0.9525 0.76233,-1.81091 1.81017,-1.81091 l 11.34759,0 c 0.95597,0 1.81264,0.85841 1.81264,1.81091 l 0,63.13185 c 0,0.95523 -0.85667,1.81362 -1.81264,1.81362 l -11.34759,0 c -1.04784,0 -1.81017,-0.85839 -1.81017,-1.81362 l 0,-25.08092 -27.27391,0 0,25.08092 c 0,0.95523 -0.767258,1.81362 -1.815117,1.81362 l -11.347592,0 c -0.955985,0 -1.815117,-0.85839 -1.815117,-1.81362 l 0,-63.13185"
         style="fill:#89c5c6;fill-opacity:1;fill-rule:nonzero;stroke:none"
         id="path62-6-5"
         inkscape:connector-curvature="0" />
      <path
         sodipodi:nodetypes="sccssccss"
         inkscape:connector-curvature="0"
         id="path3160-8"
         d="m 46.758344,986.87428 c -1.006149,0 -1.834117,0.83103 -1.834117,1.83404 0,19.43268 0,35.14508 0,54.76138 0,1.0029 0.827968,1.8339 1.834117,1.8339 l 9.432553,0 c 1.000911,0 1.834117,-0.831 1.834117,-1.8339 0,-18.2018 0,-38.4192 0,-54.76138 0,-1.00301 -0.833206,-1.83404 -1.834117,-1.83404 z"
         style="fill:#89c5c6;fill-opacity:1;fill-rule:nonzero;stroke:none" />
      <path
         transform="matrix(2.1876371,0,0,2.1876371,482.75455,1225.8798)"
         d="m -206.46024,-86.560661 a 4.0167365,4.0167365 0 1 1 -8.03347,0 4.0167365,4.0167365 0 1 1 8.03347,0 z"
         sodipodi:ry="4.0167365"
         sodipodi:rx="4.0167365"
         sodipodi:cy="-86.560661"
         sodipodi:cx="-210.47697"
         id="path3267-2"
         style="fill:#89c5c6;fill-opacity:1;stroke:none"
         sodipodi:type="arc" />
    </g>
  </g>
</svg>
