<?xml version="1.0" encoding="UTF-8" standalone="no"?>
<!-- Created with Inkscape (http://www.inkscape.org/) -->

<svg
   xmlns:dc="http://purl.org/dc/elements/1.1/"
   xmlns:cc="http://creativecommons.org/ns#"
   xmlns:rdf="http://www.w3.org/1999/02/22-rdf-syntax-ns#"
   xmlns:svg="http://www.w3.org/2000/svg"
   xmlns="http://www.w3.org/2000/svg"
   xmlns:sodipodi="http://sodipodi.sourceforge.net/DTD/sodipodi-0.dtd"
   xmlns:inkscape="http://www.inkscape.org/namespaces/inkscape"
   width="144"
   height="144"
   id="svg2"
   version="1.1"
   inkscape:version="0.48.4 r9939"
   sodipodi:docname="fhio-icon.svg"
   inkscape:export-filename="/home/matsen/re/fhcrc.io/prep/icon.png"
   inkscape:export-xdpi="90"
   inkscape:export-ydpi="90">
  <defs
     id="defs4" />
  <sodipodi:namedview
     id="base"
     pagecolor="#ffffff"
     bordercolor="#666666"
     borderopacity="1.0"
     inkscape:pageopacity="0.0"
     inkscape:pageshadow="2"
     inkscape:zoom="1.2447917"
     inkscape:cx="-16.800596"
     inkscape:cy="88.189692"
     inkscape:document-units="px"
     inkscape:current-layer="layer1"
     showgrid="false"
     inkscape:window-width="1600"
     inkscape:window-height="899"
     inkscape:window-x="0"
     inkscape:window-y="0"
     inkscape:window-maximized="1" />
  <metadata
     id="metadata7">
    <rdf:RDF>
      <cc:Work
         rdf:about="">
        <dc:format>image/svg+xml</dc:format>
        <dc:type
           rdf:resource="http://purl.org/dc/dcmitype/StillImage" />
        <dc:title />
      </cc:Work>
    </rdf:RDF>
  </metadata>
  <g
     inkscape:label="Layer 1"
     inkscape:groupmode="layer"
     id="layer1"
     transform="translate(0,-908.36218)">
    <rect
       style="opacity:0.79591836000000005;fill:#6ac2ee;fill-opacity:1;stroke:none"
       id="rect2989"
       width="144"
       height="144"
       x="0"
       y="908.36218" />
    <path
       id="path54"
       style="fill:#ffffff;fill-opacity:1;fill-rule:nonzero;stroke:none"
       d="m 18.658015,993.58376 c 0,13.21784 -0.617007,26.59644 -1.230971,39.81464 2.613546,-0.461 5.072506,-0.7687 7.534447,-0.7687 2.457471,0 4.919412,0.3073 7.529946,0.7687 -0.610921,-13.2182 -1.22948,-26.5968 -1.22948,-39.81464 l 0,-13.06943 c 13.223991,0 29.364707,0.15833 39.664336,1.22947 -0.307681,-1.53872 -0.613964,-3.07277 -0.613964,-4.60994 0,-1.53902 0.306128,-3.07463 0.613964,-4.61334 -12.761695,1.23103 -26.440345,1.53871 -39.664336,1.53871 0,-6.45632 -0.151512,-12.2976 -0.151512,-19.37424 0,-6.45384 0.151512,-12.91171 0.304575,-20.13678 9.994899,0 31.823855,0.92459 42.89343,2.001 -0.309233,-1.53871 -0.462204,-3.07742 -0.462204,-4.61489 0,-1.53561 0.153065,-3.07431 0.462204,-4.60837 -11.069575,0.45795 -20.140097,0.76717 -29.363217,0.76717 -9.224796,0 -18.296467,-0.31047 -27.518251,-0.76717 0.613964,13.21784 1.230971,26.59216 1.230971,39.8128 l 0,26.44501"
       inkscape:connector-curvature="0" />
    <g
       id="g4037"
       transform="matrix(1.0915708,0,0,1.0915708,1.1397044,-91.940465)">
      <path
         inkscape:connector-curvature="0"
         d="m 64.056017,1016.5296 c 0,5.5449 -0.1,9.3584 -0.39625,13.7154 1.08875,-0.098 2.42625,-0.2476 4.06,-0.2476 1.63375,0 2.97,0.1495 4.06,0.2476 -0.2975,-4.357 -0.39625,-8.1705 -0.39625,-13.7154 l 0,-6.7349 c 0,-5.5453 0.0987,-9.3578 0.39625,-13.71425 -1.09,0.098 -2.42625,0.2471 -4.06,0.2471 -1.63375,0 -2.97125,-0.149 -4.06,-0.2471 0.29625,4.35645 0.39625,8.16895 0.39625,13.71425 l 0,6.7349"
         style="fill:#ffffff;fill-opacity:1;fill-rule:nonzero;stroke:none"
         id="path72" />
      <path
         inkscape:connector-curvature="0"
         d="m 113.41318,1011.4286 c 0,10.7939 -5.1975,15.746 -11.14125,15.746 -5.545,0 -10.397503,-3.6645 -10.397503,-14.2114 0,-8.5161 3.9625,-15.35005 10.745003,-15.35005 6.3875,0 10.79375,5.24995 10.79375,13.81545 l 0,0 z m -29.657503,1.0898 c 0,12.378 8.41625,17.7266 18.863753,17.7266 11.0425,0 18.915,-7.9731 18.915,-17.7774 0,-11.9331 -8.27,-17.67615 -18.765,-17.67615 -11.490003,0 -19.013753,7.97205 -19.013753,17.72695 l 0,0"
         style="fill:#ffffff;fill-opacity:1;fill-rule:evenodd;stroke:none"
         id="path78" />
      <path
         transform="translate(257.0715,1111.7163)"
         d="m -206.46024,-86.560661 c 0,2.218382 -1.79835,4.016736 -4.01673,4.016736 -2.21839,0 -4.01674,-1.798354 -4.01674,-4.016736 0,-2.218383 1.79835,-4.016737 4.01674,-4.016737 2.21838,0 4.01673,1.798354 4.01673,4.016737 z"
         sodipodi:ry="4.0167365"
         sodipodi:rx="4.0167365"
         sodipodi:cy="-86.560661"
         sodipodi:cx="-210.47697"
         id="path3267"
         style="fill:#ffffff;fill-opacity:1;stroke:none"
         sodipodi:type="arc" />
    </g>
    <path
       inkscape:connector-curvature="0"
       id="path62"
       style="fill:#ffffff;fill-opacity:1;fill-rule:nonzero;stroke:none"
       d="m 120.95245,965.08526 c 0,8.61163 -0.15329,14.5343 -0.6154,21.30106 1.69092,-0.15236 3.76816,-0.38459 6.30745,-0.38459 2.53734,0 4.61264,0.23219 6.30549,0.38459 -0.46398,-6.76676 -0.61541,-12.68943 -0.61541,-21.30106 l 0,-10.45979 c 0,-8.61242 0.15143,-14.53353 0.61541,-21.29952 -1.69285,0.15235 -3.76815,0.38381 -6.30549,0.38381 -2.53929,0 -4.61653,-0.2314 -6.30745,-0.38381 0.46204,6.68854 0.6154,12.61043 0.6154,21.14634 -2.92172,0.0787 -6.15213,0.15314 -11.6112,0.15314 -5.46101,0 -9.15151,-0.0743 -11.766516,-0.15314 0,-8.53591 0.153289,-14.4578 0.615406,-21.14634 -1.690912,0.15235 -3.770098,0.38381 -6.305499,0.38381 -2.537343,0 -4.614586,-0.2314 -6.307442,-0.38381 0.463983,6.76599 0.617349,12.6871 0.617349,21.29952 l 0,10.45979 c 0,8.61163 -0.153444,14.5343 -0.617349,21.30106 1.692856,-0.15236 3.770099,-0.38459 6.307442,-0.38459 2.535401,0 4.614587,0.23219 6.305499,0.38459 -0.462039,-6.76676 -0.615406,-12.68943 -0.615406,-21.30106 l 0,-4.38318 c 3.921526,-0.1547 7.843056,-0.30713 11.688876,-0.30713 3.92151,0 7.76732,0.22908 11.68884,0.30713 l 0,4.38318" />
  </g>
</svg>
