<?xml version="1.0" encoding="UTF-8" standalone="no"?>
<!-- Created with Inkscape (http://www.inkscape.org/) -->

<svg
   xmlns:dc="http://purl.org/dc/elements/1.1/"
   xmlns:cc="http://creativecommons.org/ns#"
   xmlns:rdf="http://www.w3.org/1999/02/22-rdf-syntax-ns#"
   xmlns:svg="http://www.w3.org/2000/svg"
   xmlns="http://www.w3.org/2000/svg"
   xmlns:sodipodi="http://sodipodi.sourceforge.net/DTD/sodipodi-0.dtd"
   xmlns:inkscape="http://www.inkscape.org/namespaces/inkscape"
   width="144"
   height="144"
   id="svg2"
   version="1.1"
   inkscape:version="0.48.4 r9939"
   sodipodi:docname="fhio-icon.svg"
   inkscape:export-filename="/home/matsen/re/fhcrc.io/prep/icon.png"
   inkscape:export-xdpi="90"
   inkscape:export-ydpi="90">
  <defs
     id="defs4" />
  <sodipodi:namedview
     id="base"
     pagecolor="#ffffff"
     bordercolor="#666666"
     borderopacity="1.0"
     inkscape:pageopacity="0.0"
     inkscape:pageshadow="2"
     inkscape:zoom="0.44010033"
     inkscape:cx="-76.153014"
     inkscape:cy="259.46002"
     inkscape:document-units="px"
     inkscape:current-layer="layer1"
     showgrid="false"
     inkscape:window-width="1600"
     inkscape:window-height="899"
     inkscape:window-x="0"
     inkscape:window-y="0"
     inkscape:window-maximized="1"
     fit-margin-top="0"
     fit-margin-left="0"
     fit-margin-right="0"
     fit-margin-bottom="0">
    <inkscape:grid
       type="xygrid"
       id="grid3925"
       empspacing="5"
       visible="true"
       enabled="true"
       snapvisiblegridlinesonly="true"
       originx="-1.9079487px"
       originy="-1.1046112px" />
  </sodipodi:namedview>
  <metadata
     id="metadata7">
    <rdf:RDF>
      <cc:Work
         rdf:about="">
        <dc:format>image/svg+xml</dc:format>
        <dc:type
           rdf:resource="http://purl.org/dc/dcmitype/StillImage" />
        <dc:title />
      </cc:Work>
    </rdf:RDF>
  </metadata>
  <g
     inkscape:label="Layer 1"
     inkscape:groupmode="layer"
     id="layer1"
     transform="translate(-1.9079487,-907.25757)">
    <path
       id="path54"
       style="fill:#ffffff;fill-opacity:1;fill-rule:nonzero;stroke:none"
       d="m 16.258033,993.58376 c 0,13.21784 -0.617007,26.59644 -1.230971,39.81464 2.613546,-0.461 5.072506,-0.7687 7.534447,-0.7687 2.457471,0 4.919412,0.3073 7.529946,0.7687 -0.610921,-13.2182 -1.22948,-26.5968 -1.22948,-39.81464 l 0,-13.06943 c 13.223991,0 29.364707,0.15833 39.664336,1.22947 -0.307681,-1.53872 -0.613964,-3.07277 -0.613964,-4.60994 0,-1.53902 0.306128,-3.07463 0.613964,-4.61334 -12.761695,1.23103 -26.440345,1.53871 -39.664336,1.53871 0,-6.45632 -0.151512,-12.2976 -0.151512,-19.37424 0,-6.45384 0.151512,-12.91171 0.304575,-20.13678 9.994899,0 31.823855,0.92459 42.89343,2.001 -0.309233,-1.53871 -0.462204,-3.07742 -0.462204,-4.61489 0,-1.53561 0.153065,-3.07431 0.462204,-4.60837 -11.069575,0.45795 -20.140097,0.76717 -29.363217,0.76717 -9.224796,0 -18.296467,-0.31047 -27.518251,-0.76717 0.613964,13.21784 1.230971,26.59216 1.230971,39.8128 l 0,26.44501"
       inkscape:connector-curvature="0" />
    <path
       id="path72"
       style="fill:#ffffff;fill-opacity:1;fill-rule:nonzero;stroke:none"
       d="m 68.6614,1017.6736 c 0,6.0526 -0.109157,10.2153 -0.432535,14.9713 1.188448,-0.107 2.648424,-0.2703 4.431778,-0.2703 1.783353,0 3.241965,0.1632 4.431777,0.2703 -0.324742,-4.756 -0.432535,-8.9187 -0.432535,-14.9713 l 0,-7.3517 c 0,-6.053 0.107738,-10.2147 0.432535,-14.97003 -1.189812,0.10697 -2.648424,0.26973 -4.431777,0.26973 -1.783354,0 -3.24333,-0.16265 -4.431778,-0.26973 0.323378,4.75533 0.432535,8.91703 0.432535,14.97003 l 0,7.3517"
       inkscape:connector-curvature="0" />
    <path
       id="path78"
       style="fill:#ffffff;fill-opacity:1;fill-rule:evenodd;stroke:none"
       d="m 120.53824,1012.9058 c 0,11.7823 -5.67344,17.1878 -12.16146,17.1878 -6.05276,0 -11.349612,-4 -11.349612,-15.5127 0,-9.2959 4.325352,-16.75584 11.728932,-16.75584 6.97241,0 11.78214,5.73084 11.78214,15.08074 l 0,0 z m -32.373266,1.1896 c 0,13.5114 9.186934,19.3498 20.591126,19.3498 12.05367,0 20.64706,-8.7032 20.64706,-19.4053 0,-13.0258 -9.02729,-19.29493 -20.48333,-19.29493 -12.542152,0 -20.754856,8.70223 -20.754856,19.35043 l 0,0"
       inkscape:connector-curvature="0" />
    <path
       sodipodi:type="arc"
       style="fill:#ffffff;fill-opacity:1;stroke:none"
       id="path3267"
       sodipodi:cx="-210.47697"
       sodipodi:cy="-86.560661"
       sodipodi:rx="4.0167365"
       sodipodi:ry="4.0167365"
       d="m -206.46024,-86.560661 c 0,2.218382 -1.79835,4.016736 -4.01673,4.016736 -2.21839,0 -4.01674,-1.798354 -4.01674,-4.016736 0,-2.218383 1.79835,-4.016737 4.01674,-4.016737 2.21838,0 4.01673,1.798354 4.01673,4.016737 z"
       transform="matrix(1.0915708,0,0,1.0915708,280.15109,1121.8767)" />
    <path
       inkscape:connector-curvature="0"
       id="path62"
       style="fill:#ffffff;fill-opacity:1;fill-rule:nonzero;stroke:none"
       d="m 118.55247,965.08526 c 0,8.61163 -0.15329,14.5343 -0.6154,21.30106 1.69092,-0.15236 3.76816,-0.38459 6.30745,-0.38459 2.53734,0 4.61264,0.23219 6.30549,0.38459 -0.46398,-6.76676 -0.61541,-12.68943 -0.61541,-21.30106 l 0,-10.45979 c 0,-8.61242 0.15143,-14.53353 0.61541,-21.29952 -1.69285,0.15235 -3.76815,0.38381 -6.30549,0.38381 -2.53929,0 -4.61653,-0.2314 -6.30745,-0.38381 0.46204,6.68854 0.6154,12.61043 0.6154,21.14634 -2.92172,0.0787 -6.15213,0.15314 -11.6112,0.15314 -5.46101,0 -9.15151,-0.0743 -11.766518,-0.15314 0,-8.53591 0.153289,-14.4578 0.615406,-21.14634 -1.690912,0.15235 -3.770098,0.38381 -6.305499,0.38381 -2.537343,0 -4.614586,-0.2314 -6.307442,-0.38381 0.463983,6.76599 0.617349,12.6871 0.617349,21.29952 l 0,10.45979 c 0,8.61163 -0.153444,14.5343 -0.617349,21.30106 1.692856,-0.15236 3.770099,-0.38459 6.307442,-0.38459 2.535401,0 4.614587,0.23219 6.305499,0.38459 -0.462039,-6.76676 -0.615406,-12.68943 -0.615406,-21.30106 l 0,-4.38318 c 3.921528,-0.1547 7.843058,-0.30713 11.688878,-0.30713 3.92151,0 7.76732,0.22908 11.68884,0.30713 l 0,4.38318" />
    <g
       id="g3938"
       transform="translate(208.87029,-19.280334)">
      <rect
         y="926.5379"
         x="-206.96234"
         height="144"
         width="144"
         id="rect2989-1"
         style="fill:#123054;fill-opacity:1;stroke:none" />
      <path
         sodipodi:nodetypes="sccssccss"
         inkscape:connector-curvature="0"
         id="path3160-8"
         d="m -158.41983,1013.0587 c -0.75114,0 -1.36926,0.6204 -1.36926,1.3692 0,14.5074 0,26.2375 0,40.8821 0,0.7487 0.61812,1.3691 1.36926,1.3691 l 7.04187,0 c 0.74723,0 1.36926,-0.6204 1.36926,-1.3691 0,-13.5886 0,-28.6819 0,-40.8821 0,-0.7488 -0.62203,-1.3692 -1.36926,-1.3692 z"
         style="fill:#ffffff;fill-opacity:1;fill-rule:nonzero;stroke:none" />
      <g
         transform="translate(-9.246862,-7.2301253)"
         id="g3930">
        <path
           sodipodi:type="arc"
           style="fill:#ffffff;fill-opacity:1;stroke:none"
           id="path3165-7"
           sodipodi:cx="223.05554"
           sodipodi:cy="165.70003"
           sodipodi:rx="17.399027"
           sodipodi:ry="17.399027"
           d="m 240.45457,165.70003 c 0,9.60921 -7.78981,17.39902 -17.39903,17.39902 -9.60922,0 -17.39902,-7.78981 -17.39902,-17.39902 0,-9.60922 7.7898,-17.39903 17.39902,-17.39903 9.60922,0 17.39903,7.78981 17.39903,17.39903 z"
           transform="matrix(1.241255,0,0,1.241255,-375.07478,836.02143)" />
        <path
           transform="matrix(0.69924032,0,0,0.69924032,-254.17539,925.83328)"
           d="m 240.45457,165.70003 c 0,9.60921 -7.78981,17.39902 -17.39903,17.39902 -9.60922,0 -17.39902,-7.78981 -17.39902,-17.39902 0,-9.60922 7.7898,-17.39903 17.39902,-17.39903 9.60922,0 17.39903,7.78981 17.39903,17.39903 z"
           sodipodi:ry="17.399027"
           sodipodi:rx="17.399027"
           sodipodi:cy="165.70003"
           sodipodi:cx="223.05554"
           id="path3935-9"
           style="fill:#123054;fill-opacity:1;stroke:none"
           sodipodi:type="arc" />
      </g>
      <g
         transform="translate(1.7615852,0)"
         id="g3934">
        <path
           inkscape:connector-curvature="0"
           id="path54-1-3"
           style="fill:#ffffff;fill-opacity:1;fill-rule:nonzero;stroke:none"
           d="m -184.08187,942.16399 c 0,-0.6909 0.55473,-1.31353 1.31479,-1.31353 l 28.63912,0 c 0.75825,0 1.31479,0.62263 1.31479,1.31353 l 0,7.54062 c 0,0.6909 -0.55654,1.31353 -1.31479,1.31353 l -19.16179,0 0,9.96075 15.77034,0 c 0.69162,0 1.31479,0.62281 1.31479,1.31569 l 0,7.53864 c 0,0.69287 -0.62317,1.31551 -1.31479,1.31551 l -15.77034,0 0,16.80794 c 0,0.69288 -0.62318,1.31551 -1.31659,1.31551 l -8.16074,0 c -0.76006,0 -1.31479,-0.62263 -1.31479,-1.31551 l 0,-45.79268" />
        <path
           inkscape:connector-curvature="0"
           id="path62-6-5"
           style="fill:#ffffff;fill-opacity:1;fill-rule:nonzero;stroke:none"
           d="m -131.10172,942.17127 c 0,-0.69472 0.62662,-1.32081 1.32388,-1.32081 l 8.27652,0 c 0.76427,0 1.32388,0.62609 1.32388,1.32081 l 0,17.52901 19.8926,0 0,-17.52901 c 0,-0.69472 0.55601,-1.32081 1.32027,-1.32081 l 8.276517,0 c 0.697257,0 1.32207,0.62609 1.32207,1.32081 l 0,46.04607 c 0,0.69671 -0.624813,1.32279 -1.32207,1.32279 l -8.276517,0 c -0.76426,0 -1.32027,-0.62608 -1.32027,-1.32279 l 0,-18.29311 -19.8926,0 0,18.29311 c 0,0.69671 -0.55961,1.32279 -1.32388,1.32279 l -8.27652,0 c -0.69726,0 -1.32388,-0.62608 -1.32388,-1.32279 l 0,-46.04607" />
      </g>
      <path
         transform="matrix(1.5955827,0,0,1.5955827,155.84505,1188.3848)"
         d="m -206.46024,-86.560661 c 0,2.218382 -1.79835,4.016736 -4.01673,4.016736 -2.21839,0 -4.01674,-1.798354 -4.01674,-4.016736 0,-2.218383 1.79835,-4.016737 4.01674,-4.016737 2.21838,0 4.01673,1.798354 4.01673,4.016737 z"
         sodipodi:ry="4.0167365"
         sodipodi:rx="4.0167365"
         sodipodi:cy="-86.560661"
         sodipodi:cx="-210.47697"
         id="path3267-2"
         style="fill:#ffffff;fill-opacity:1;stroke:none"
         sodipodi:type="arc" />
    </g>
  </g>
</svg>
