<?xml version="1.0" encoding="UTF-8" standalone="no"?>
<!-- Created with Inkscape (http://www.inkscape.org/) -->

<svg
   xmlns:dc="http://purl.org/dc/elements/1.1/"
   xmlns:cc="http://creativecommons.org/ns#"
   xmlns:rdf="http://www.w3.org/1999/02/22-rdf-syntax-ns#"
   xmlns:svg="http://www.w3.org/2000/svg"
   xmlns="http://www.w3.org/2000/svg"
   xmlns:sodipodi="http://sodipodi.sourceforge.net/DTD/sodipodi-0.dtd"
   xmlns:inkscape="http://www.inkscape.org/namespaces/inkscape"
   width="144"
   height="144"
   id="svg2"
   version="1.1"
   inkscape:version="0.48.4 r9939"
   sodipodi:docname="fio-icon.svg"
   inkscape:export-filename="/home/matsen/re/fhcrc.io/prep/icon.png"
   inkscape:export-xdpi="90"
   inkscape:export-ydpi="90">
  <defs
     id="defs4" />
  <sodipodi:namedview
     id="base"
     pagecolor="#ffffff"
     bordercolor="#666666"
     borderopacity="1.0"
     inkscape:pageopacity="0.0"
     inkscape:pageshadow="2"
     inkscape:zoom="1.2447917"
     inkscape:cx="108.92325"
     inkscape:cy="88.189692"
     inkscape:document-units="px"
     inkscape:current-layer="layer1"
     showgrid="false"
     inkscape:window-width="1600"
     inkscape:window-height="899"
     inkscape:window-x="0"
     inkscape:window-y="0"
     inkscape:window-maximized="1" />
  <metadata
     id="metadata7">
    <rdf:RDF>
      <cc:Work
         rdf:about="">
        <dc:format>image/svg+xml</dc:format>
        <dc:type
           rdf:resource="http://purl.org/dc/dcmitype/StillImage" />
        <dc:title />
      </cc:Work>
    </rdf:RDF>
  </metadata>
  <g
     inkscape:label="Layer 1"
     inkscape:groupmode="layer"
     id="layer1"
     transform="translate(0,-908.36218)">
    <rect
       style="opacity:0.79591836000000005;fill:#6ac2ee;fill-opacity:1;stroke:none"
       id="rect2989"
       width="144"
       height="144"
       x="0"
       y="908.36218" />
    <g
       id="g5261"
       transform="matrix(0.81549137,0,0,0.78487349,410.95366,265.69019)">
      <path
         inkscape:connector-curvature="0"
         d="m 23.169615,986.10557 c 0,9.45866 -0.170585,15.96383 -0.675939,23.39633 1.857231,-0.1674 4.138791,-0.4224 6.925705,-0.4224 2.786915,0 5.066342,0.255 6.925706,0.4224 -0.507487,-7.4325 -0.675939,-13.93767 -0.675939,-23.39633 l 0,-11.4886 c 0,-9.45953 0.168452,-15.96304 0.675939,-23.39452 -1.859364,0.16734 -4.138792,0.42156 -6.925706,0.42156 -2.786914,0 -5.068474,-0.25417 -6.925705,-0.42156 0.505355,7.43148 0.675939,13.93499 0.675939,23.39452 l 0,11.4886"
         style="fill:#ffffff;fill-opacity:1;fill-rule:nonzero;stroke:none"
         id="path5089" />
      <path
         inkscape:connector-curvature="0"
         d="m 105.65278,978.50351 c 0,18.41261 -8.8661,26.86019 -19.005175,26.86019 -9.458871,0 -17.736453,-6.25108 -17.736453,-24.24236 0,-14.52715 6.759387,-26.18485 18.329234,-26.18485 10.896044,0 18.412394,8.95566 18.412394,23.56702 l 0,0 z m -50.590908,1.85894 c 0,21.11485 14.356766,30.23885 32.178513,30.23885 18.836725,0 32.265935,-13.60098 32.265935,-30.32542 0,-20.35599 -14.10728,-30.15284 -32.010055,-30.15284 -19.600088,0 -32.434393,13.59917 -32.434393,30.23941 l 0,0"
         style="fill:#ffffff;fill-opacity:1;fill-rule:evenodd;stroke:none"
         id="path5095" />
    </g>
    <g
       id="g4042"
       transform="translate(3.021852,0.3500664)">
      <path
         inkscape:connector-curvature="0"
         d="m 15.636163,993.23369 c 0,13.21781 -0.617007,26.59641 -1.230971,39.81461 2.613546,-0.461 5.072506,-0.7687 7.534447,-0.7687 2.457471,0 4.919412,0.3073 7.529946,0.7687 -0.610921,-13.2182 -1.22948,-26.5968 -1.22948,-39.81461 l 0,-13.06943 c 13.223991,0 29.364707,0.15833 39.664336,1.22947 -0.307681,-1.53872 -0.613964,-3.07277 -0.613964,-4.60994 0,-1.53902 0.306128,-3.07463 0.613964,-4.61334 -12.761695,1.23103 -26.440345,1.53871 -39.664336,1.53871 0,-6.45632 -0.151512,-12.2976 -0.151512,-19.37424 0,-6.45384 0.151512,-12.91171 0.304575,-20.13678 9.994899,0 31.823855,0.92459 42.89343,2.001 -0.309233,-1.53871 -0.462204,-3.07742 -0.462204,-4.61489 0,-1.53561 0.153065,-3.07431 0.462204,-4.60837 -11.069575,0.45795 -20.140097,0.76717 -29.363217,0.76717 -9.224796,0 -18.296467,-0.31047 -27.518251,-0.76717 0.613964,13.21784 1.230971,26.59216 1.230971,39.8128 l 0,26.44501"
         style="fill:#ffffff;fill-opacity:1;fill-rule:nonzero;stroke:none"
         id="path54" />
      <g
         transform="translate(2.016736,2.8033472)"
         id="g4037">
        <path
           id="path72"
           style="fill:#ffffff;fill-opacity:1;fill-rule:nonzero;stroke:none"
           d="m 64.056017,1016.5296 c 0,5.5449 -0.1,9.3584 -0.39625,13.7154 1.08875,-0.098 2.42625,-0.2476 4.06,-0.2476 1.63375,0 2.97,0.1495 4.06,0.2476 -0.2975,-4.357 -0.39625,-8.1705 -0.39625,-13.7154 l 0,-6.7349 c 0,-5.5453 0.0987,-9.3578 0.39625,-13.71425 -1.09,0.098 -2.42625,0.2471 -4.06,0.2471 -1.63375,0 -2.97125,-0.149 -4.06,-0.2471 0.29625,4.35645 0.39625,8.16895 0.39625,13.71425 l 0,6.7349"
           inkscape:connector-curvature="0" />
        <path
           id="path78"
           style="fill:#ffffff;fill-opacity:1;fill-rule:evenodd;stroke:none"
           d="m 113.41318,1011.4286 c 0,10.7939 -5.1975,15.746 -11.14125,15.746 -5.545,0 -10.397503,-3.6645 -10.397503,-14.2114 0,-8.5161 3.9625,-15.35005 10.745003,-15.35005 6.3875,0 10.79375,5.24995 10.79375,13.81545 l 0,0 z m -29.657503,1.0898 c 0,12.378 8.41625,17.7266 18.863753,17.7266 11.0425,0 18.915,-7.9731 18.915,-17.7774 0,-11.9331 -8.27,-17.67615 -18.765,-17.67615 -11.490003,0 -19.013753,7.97205 -19.013753,17.72695 l 0,0"
           inkscape:connector-curvature="0" />
        <path
           sodipodi:type="arc"
           style="fill:#ffffff;fill-opacity:1;stroke:none"
           id="path3267"
           sodipodi:cx="-210.47697"
           sodipodi:cy="-86.560661"
           sodipodi:rx="4.0167365"
           sodipodi:ry="4.0167365"
           d="m -206.46024,-86.560661 c 0,2.218382 -1.79835,4.016736 -4.01673,4.016736 -2.21839,0 -4.01674,-1.798354 -4.01674,-4.016736 0,-2.218383 1.79835,-4.016737 4.01674,-4.016737 2.21838,0 4.01673,1.798354 4.01673,4.016737 z"
           transform="translate(257.0715,1111.7163)" />
      </g>
    </g>
  </g>
</svg>
