<?xml version="1.0" encoding="UTF-8" standalone="no"?>
<!-- Created with Inkscape (http://www.inkscape.org/) -->

<svg
   xmlns:dc="http://purl.org/dc/elements/1.1/"
   xmlns:cc="http://creativecommons.org/ns#"
   xmlns:rdf="http://www.w3.org/1999/02/22-rdf-syntax-ns#"
   xmlns:svg="http://www.w3.org/2000/svg"
   xmlns="http://www.w3.org/2000/svg"
   xmlns:sodipodi="http://sodipodi.sourceforge.net/DTD/sodipodi-0.dtd"
   xmlns:inkscape="http://www.inkscape.org/namespaces/inkscape"
   width="765"
   height="990"
   id="svg2"
   version="1.1"
   inkscape:version="0.48.4 r9939"
   sodipodi:docname="galaxy-poster.svg"
   inkscape:export-filename="/home/matsen/re/fredhutch.io/prep/galaxy-poster.png"
   inkscape:export-xdpi="90"
   inkscape:export-ydpi="90">
  <defs
     id="defs4">
    <inkscape:perspective
       sodipodi:type="inkscape:persp3d"
       inkscape:vp_x="0 : 526.18109 : 1"
       inkscape:vp_y="0 : 1000 : 0"
       inkscape:vp_z="744.09448 : 526.18109 : 1"
       inkscape:persp3d-origin="372.04724 : 350.78739 : 1"
       id="perspective10" />
    <inkscape:perspective
       id="perspective2824"
       inkscape:persp3d-origin="0.5 : 0.33333333 : 1"
       inkscape:vp_z="1 : 0.5 : 1"
       inkscape:vp_y="0 : 1000 : 0"
       inkscape:vp_x="0 : 0.5 : 1"
       sodipodi:type="inkscape:persp3d" />
    <inkscape:perspective
       id="perspective2838"
       inkscape:persp3d-origin="0.5 : 0.33333333 : 1"
       inkscape:vp_z="1 : 0.5 : 1"
       inkscape:vp_y="0 : 1000 : 0"
       inkscape:vp_x="0 : 0.5 : 1"
       sodipodi:type="inkscape:persp3d" />
    <inkscape:perspective
       id="perspective2852"
       inkscape:persp3d-origin="0.5 : 0.33333333 : 1"
       inkscape:vp_z="1 : 0.5 : 1"
       inkscape:vp_y="0 : 1000 : 0"
       inkscape:vp_x="0 : 0.5 : 1"
       sodipodi:type="inkscape:persp3d" />
    <inkscape:perspective
       id="perspective2866"
       inkscape:persp3d-origin="0.5 : 0.33333333 : 1"
       inkscape:vp_z="1 : 0.5 : 1"
       inkscape:vp_y="0 : 1000 : 0"
       inkscape:vp_x="0 : 0.5 : 1"
       sodipodi:type="inkscape:persp3d" />
    <inkscape:perspective
       id="perspective2880"
       inkscape:persp3d-origin="0.5 : 0.33333333 : 1"
       inkscape:vp_z="1 : 0.5 : 1"
       inkscape:vp_y="0 : 1000 : 0"
       inkscape:vp_x="0 : 0.5 : 1"
       sodipodi:type="inkscape:persp3d" />
    <inkscape:perspective
       id="perspective2894"
       inkscape:persp3d-origin="0.5 : 0.33333333 : 1"
       inkscape:vp_z="1 : 0.5 : 1"
       inkscape:vp_y="0 : 1000 : 0"
       inkscape:vp_x="0 : 0.5 : 1"
       sodipodi:type="inkscape:persp3d" />
  </defs>
  <sodipodi:namedview
     id="base"
     pagecolor="#ffffff"
     bordercolor="#666666"
     borderopacity="1.0"
     inkscape:pageopacity="0.0"
     inkscape:pageshadow="2"
     inkscape:zoom="1.0272727"
     inkscape:cx="341.12832"
     inkscape:cy="495"
     inkscape:document-units="px"
     inkscape:current-layer="layer1"
     showgrid="false"
     showguides="true"
     inkscape:guide-bbox="true"
     inkscape:snap-global="false"
     inkscape:snap-object-midpoints="true"
     inkscape:snap-center="true"
     inkscape:object-paths="true"
     inkscape:window-width="1920"
     inkscape:window-height="1199"
     inkscape:window-x="1600"
     inkscape:window-y="0"
     inkscape:window-maximized="1"
     fit-margin-top="0"
     fit-margin-left="0"
     fit-margin-right="0"
     fit-margin-bottom="0" />
  <metadata
     id="metadata7">
    <rdf:RDF>
      <cc:Work
         rdf:about="">
        <dc:format>image/svg+xml</dc:format>
        <dc:type
           rdf:resource="http://purl.org/dc/dcmitype/StillImage" />
        <dc:title></dc:title>
      </cc:Work>
    </rdf:RDF>
  </metadata>
  <g
     inkscape:label="Layer 1"
     inkscape:groupmode="layer"
     id="layer1"
     transform="translate(116.06091,662.62708)">
    <rect
       style="fill:#d00000;fill-opacity:1;fill-rule:nonzero;stroke:none"
       id="rect3812"
       width="766.39825"
       height="989.00452"
       x="-116.06091"
       y="-661.63159" />
    <text
       xml:space="preserve"
       style="font-size:53.10478973px;font-style:normal;font-variant:normal;font-weight:normal;font-stretch:normal;line-height:125%;letter-spacing:0px;word-spacing:0px;fill:#000000;fill-opacity:1;stroke:none;font-family:Gillius ADF;-inkscape-font-specification:Gillius ADF"
       x="263.98868"
       y="-273.61478"
       id="text2992"
       sodipodi:linespacing="125%"><tspan
         sodipodi:role="line"
         x="263.98871"
         y="-273.61478"
         style="font-size:159.31436157px;font-style:normal;font-variant:normal;font-weight:bold;font-stretch:normal;text-align:center;text-anchor:middle;fill:#ffffff;font-family:Century Gothic;-inkscape-font-specification:Century Gothic Bold"
         id="tspan3002">KEEP</tspan></text>
    <text
       sodipodi:linespacing="125%"
       id="text3014"
       y="-128.7207"
       x="264.96106"
       style="font-size:53.10478973px;font-style:normal;font-variant:normal;font-weight:normal;font-stretch:normal;line-height:125%;letter-spacing:0px;word-spacing:0px;fill:#000000;fill-opacity:1;stroke:none;font-family:Gillius ADF;-inkscape-font-specification:Gillius ADF"
       xml:space="preserve"><tspan
         id="tspan3016"
         style="font-size:159.31436157px;font-style:normal;font-variant:normal;font-weight:bold;font-stretch:normal;text-align:center;text-anchor:middle;fill:#ffffff;font-family:Century Gothic;-inkscape-font-specification:Century Gothic Bold"
         y="-128.7207"
         x="264.96106"
         sodipodi:role="line">CALM</tspan></text>
    <text
       sodipodi:linespacing="125%"
       id="text3022"
       y="93.128723"
       x="264.99997"
       style="font-size:53.10478973px;font-style:normal;font-variant:normal;font-weight:normal;font-stretch:normal;line-height:125%;letter-spacing:0px;word-spacing:0px;fill:#000000;fill-opacity:1;stroke:none;font-family:Gillius ADF;-inkscape-font-specification:Gillius ADF"
       xml:space="preserve"><tspan
         id="tspan3024"
         style="font-size:159.31436157px;font-style:normal;font-variant:normal;font-weight:bold;font-stretch:normal;text-align:center;text-anchor:middle;fill:#ffffff;font-family:Century Gothic;-inkscape-font-specification:Century Gothic Bold"
         y="93.128723"
         x="264.99997"
         sodipodi:role="line">GALAXY</tspan></text>
    <path
       inkscape:connector-curvature="0"
       style="fill:#ffffff;stroke:none"
       d="m 258.58389,-634.7393 0,2.33939 5.88067,9.93706 0,3.82028 -9.44342,-6.15968 -1.78136,0 0,16.18257 1.78136,0 9.44342,-5.42996 0,9.22879 c -6.51615,0.95424 -11.52526,6.5682 -11.52526,13.34956 0,7.45065 6.02769,13.49979 13.47833,13.49979 7.45065,0 13.49979,-6.04914 13.49979,-13.49979 0,-6.56373 -4.69111,-12.01403 -10.90285,-13.22078 l 0,-8.7137 9.40048,5.4085 1.67407,0 0,-15.32408 -1.67407,0 -9.40048,6.11675 0,-5.25825 5.88067,-9.93706 0,-2.33939 -16.31135,0 z m 5.88067,33.28804 0,8.04836 c -2.57074,-0.44859 -4.91597,-1.54553 -6.8894,-3.09057 1.44336,-2.53505 3.93364,-4.38376 6.8894,-4.95779 z m 4.55001,0.15023 c 2.96269,0.78274 5.39684,2.86388 6.65332,5.60166 -1.95087,1.27375 -4.22399,2.0958 -6.65332,2.38233 l 0,-7.98399 z m -27.85808,12.55546 c -3.38665,0 -6.13822,2.75155 -6.13822,6.13821 0,3.38666 2.75157,6.11676 6.13822,6.11676 3.38666,0 6.13823,-2.7301 6.13823,-6.11676 0,-3.38666 -2.75157,-6.13821 -6.13823,-6.13821 z m 50.54373,0 c -3.38665,0 -6.13821,2.75155 -6.13821,6.13821 0,3.38666 2.75156,6.11676 6.13821,6.11676 3.38666,0 6.13822,-2.7301 6.13822,-6.11676 0,-3.38666 -2.75156,-6.13821 -6.13822,-6.13821 z m -27.72929,1.43796 c 3.56414,0 6.83888,1.20401 9.46488,3.21935 -1.82559,1.73536 -4.30056,2.7901 -7.01818,2.7901 -3.62425,0 -6.80277,-1.89089 -8.60638,-4.74316 1.8875,-0.81252 3.97515,-1.26629 6.15968,-1.26629 z m -38.99702,2.72572 c -3.11572,0 -5.64458,2.52886 -5.64458,5.64458 0,3.11574 2.52886,5.64459 5.64458,5.64459 3.11573,0 5.64459,-2.52885 5.64459,-5.64459 0,-3.11572 -2.52886,-5.64458 -5.64459,-5.64458 z m 82.90889,0 c -3.11572,0 -5.64458,2.52886 -5.64458,5.64458 0,3.11574 2.52886,5.64459 5.64458,5.64459 3.11573,0 5.64459,-2.52885 5.64459,-5.64459 0,-3.11572 -2.52886,-5.64458 -5.64459,-5.64458 z m -97.63202,6.99671 c -2.77706,0 -5.02219,2.24512 -5.02219,5.02218 0,2.77706 2.24513,5.04364 5.02219,5.04364 2.77706,0 5.02217,-2.26658 5.02217,-5.04364 0,-2.77706 -2.24511,-5.02218 -5.02217,-5.02218 z m 112.35517,0 c -2.77706,0 -5.02219,2.24512 -5.02219,5.02218 0,2.77706 2.24513,5.04364 5.02219,5.04364 2.77706,0 5.02217,-2.26658 5.02217,-5.04364 0,-2.77706 -2.24511,-5.02218 -5.02217,-5.02218 z m -73.48694,1.97453 -2.27501,0.3434 c -19.2562,2.89927 -37.32165,10.47572 -51.68122,18.45758 -14.35957,7.98187 -24.89224,16.22423 -29.53214,21.22623 l 4.37831,4.05637 c 3.73438,-4.0258 14.17402,-12.34157 28.0727,-20.06726 13.31363,-7.40047 29.92532,-14.34608 47.3673,-17.34154 2.55364,5.72032 4.97511,10.9998 7.49035,23.93048 l 5.85921,0 c -2.90627,-14.94093 -5.96261,-22.08332 -8.77809,-28.50195 l -0.90141,-2.10331 z m 34.6187,0 -0.90142,2.10331 c -2.81547,6.41863 -5.8718,13.56102 -8.77809,28.50195 l 5.85922,0 c 2.51523,-12.93068 4.93671,-18.21016 7.49034,-23.93048 17.44199,2.99546 34.05368,9.94107 47.36732,17.34154 13.89866,7.72569 24.3383,16.04146 28.07268,20.06726 l 4.37832,-4.05637 c -4.63991,-5.002 -15.17257,-13.24436 -29.53213,-21.22623 -14.35957,-7.98186 -32.42503,-15.55831 -51.68124,-18.45758 l -2.275,-0.3434 z m -17.32008,0.40779 c -2.8448,0 -5.15095,2.30616 -5.15095,5.15095 0,2.8448 2.30615,5.15095 5.15095,5.15095 2.84479,0 5.15096,-2.30615 5.15096,-5.15095 0,-2.84479 -2.30617,-5.15095 -5.15096,-5.15095 z m -69.17301,4.12076 c -2.57387,0 -4.65733,2.08345 -4.65733,4.65732 0,2.57387 2.08346,4.65732 4.65733,4.65732 2.57386,0 4.67878,-2.08345 4.67878,-4.65732 0,-2.57387 -2.10492,-4.65732 -4.67878,-4.65732 z m 138.36749,0 c -2.57387,0 -4.67879,2.08345 -4.67879,4.65732 0,2.57387 2.10492,4.65732 4.67879,4.65732 2.57386,0 4.65731,-2.08345 4.65731,-4.65732 0,-2.57387 -2.08345,-4.65732 -4.65731,-4.65732 z m -151.60974,8.32737 c -2.43839,0 -4.39977,1.98284 -4.39977,4.42124 0,2.43839 1.96138,4.42124 4.39977,4.42124 2.4384,0 4.42124,-1.98285 4.42124,-4.42124 0,-2.4384 -1.98284,-4.42124 -4.42124,-4.42124 z m 164.85197,0 c -2.43839,0 -4.42123,1.98284 -4.42123,4.42124 0,2.43839 1.98284,4.42124 4.42123,4.42124 2.43838,0 4.39977,-1.98285 4.39977,-4.42124 0,-2.4384 -1.96139,-4.42124 -4.39977,-4.42124 z m -82.43671,0.6868 c -2.43839,0 -4.39977,1.98284 -4.39977,4.42123 0,2.43839 1.96138,4.39977 4.39977,4.39977 2.4384,0 4.42123,-1.96138 4.42123,-4.39977 0,-2.43839 -1.98283,-4.42123 -4.42123,-4.42123 z m -94.17659,8.15568 c -2.16747,0 -3.92761,1.76013 -3.92761,3.9276 0,2.16746 1.76014,3.9276 3.92761,3.9276 2.16746,0 3.92759,-1.76014 3.92759,-3.9276 0,-2.16747 -1.76013,-3.9276 -3.92759,-3.9276 z m 188.37464,0 c -2.16746,0 -3.9276,1.76013 -3.9276,3.9276 0,2.16746 1.76014,3.9276 3.9276,3.9276 2.16746,0 3.9276,-1.76014 3.9276,-3.9276 0,-2.16747 -1.76014,-3.9276 -3.9276,-3.9276 z m -157.96256,0.98726 c -5.67389,8.80465 -5.43919,20.13761 -1.97454,32.85879 -26.3539,-11.21589 -35.42566,22.58451 -15.45286,32.8588 -1.52623,-8.20339 -0.0641,-16.95554 8.84248,-17.89957 4.76342,-0.50489 10.35877,0.84251 11.03162,9.57218 0.47333,6.14112 -4.73134,20.80397 -21.09745,20.60382 -10.22679,-0.12698 -21.14707,-3.9572 -25.99085,-20.34626 -1.80556,-6.10921 -1.77467,-5.81113 4.22808,-3.32666 2.34928,0.97234 5.3259,2.99012 10.23752,7.23279 -0.34759,-6.86269 -3.66678,-24.27797 -7.10403,-29.42482 -4.58987,3.24489 -5.07977,7.06904 -13.73587,9.55073 3.07565,-5.95293 5.92878,-12.02761 10.30191,-18.62928 -9.11084,0.67972 -14.59187,2.86419 -20.60382,4.16368 1.40989,5.84692 2.84192,11.61887 4.89341,16.18258 -4.51089,8.74502 -0.73613,12.67611 3.92759,16.93377 1.8992,1.73381 10.47425,26.96201 6.13823,35.56304 -2.28602,4.53459 -0.94941,9.38346 2.21061,11.52525 3.53517,2.39607 6.71112,5.47471 9.59366,8.64931 3.69129,4.0653 2.83266,4.48523 7.36157,1.996 15.94324,-8.76293 50.70453,-14.78753 90.97871,-14.78753 40.27419,0 75.03548,6.0246 90.97871,14.78753 4.5289,2.48923 3.67027,2.0693 7.36157,-1.996 2.88253,-3.1746 6.05847,-6.25324 9.59365,-8.64931 3.16003,-2.14179 4.49663,-6.99066 2.21062,-11.52525 -4.33602,-8.60103 4.23902,-33.82923 6.13821,-35.56304 4.66373,-4.25766 8.4385,-8.18875 3.92762,-16.93377 2.05147,-4.56371 3.48352,-10.33566 4.89339,-16.18258 -6.01193,-1.29949 -11.49297,-3.48396 -20.60381,-4.16368 4.37313,6.60167 7.22625,12.67635 10.30192,18.62928 -8.6561,-2.48169 -9.14603,-6.30584 -13.73587,-9.55073 -3.43726,5.14685 -6.75645,22.56213 -7.10403,29.42482 4.91161,-4.24267 7.88823,-6.26045 10.23752,-7.23279 6.00274,-2.48447 6.03364,-2.78255 4.22807,3.32666 -4.84377,16.38906 -15.76406,20.21928 -25.99085,20.34626 -16.36611,0.20015 -21.57077,-14.4627 -21.09743,-20.60382 0.67283,-8.72967 6.26819,-10.07707 11.03162,-9.57218 8.90654,0.94403 10.36869,9.69618 8.84246,17.89957 19.97281,-10.27429 10.90103,-44.07469 -15.45285,-32.8588 3.46465,-12.72118 3.69936,-24.05414 -1.97454,-32.85879 -6.8596,6.89373 -14.89872,12.73255 -12.25497,31.37789 -4.9622,-3.55911 -9.2813,-7.14226 -13.73587,-6.11676 -6.00571,1.38259 -11.47111,3.82122 -12.51254,13.24224 -0.72717,6.57836 3.05607,12.85156 8.0913,16.91231 0.67126,-6.45529 1.86509,-12.08256 9.07855,-12.25498 8.28301,-0.198 9.82108,6.64289 9.57218,12.01889 -0.34462,7.44447 -10.41552,16.17933 -23.30806,15.21677 -12.92298,-0.96481 -24.12322,-11.97971 -23.93047,-25.32552 4.091,0.98152 9.2384,5.23413 11.6111,7.27572 0.45696,0.39321 2.05312,0.3638 2.5111,0.38633 l 0,-27.901 c -0.60012,0.0133 -1.83159,-0.15819 -2.55401,0.27901 -3.70673,2.24321 -8.11201,9.3647 -10.68824,8.73516 2.00143,-8.17955 7.46836,-18.01611 7.59766,-21.35499 l -26.52741,0 c 0.1293,3.33888 5.59623,13.17544 7.59766,21.35499 -2.57623,0.62954 -6.9815,-6.49195 -10.68824,-8.73516 -0.72243,-0.4372 -1.95389,-0.26567 -2.55401,-0.27901 l 0,27.901 c 0.45798,-0.0226 2.05414,0.007 2.51108,-0.38633 2.37273,-2.04159 7.52012,-6.2942 11.61111,-7.27572 0.19276,13.34581 -11.00749,24.36071 -23.93046,25.32552 -12.89255,0.96256 -22.96343,-7.7723 -23.30807,-15.21677 -0.24889,-5.376 1.28919,-12.21689 9.57219,-12.01889 7.21347,0.17242 8.40729,5.79969 9.07855,12.25498 5.03523,-4.06075 8.81848,-10.33395 8.09129,-16.91231 -1.04142,-9.42102 -6.50682,-11.85965 -12.51252,-13.24224 -4.45459,-1.0255 -8.77368,2.55765 -13.73587,6.11676 2.64373,-18.64534 -5.39538,-24.48416 -12.25498,-31.37789 z m 63.76451,2.51109 c -1.76106,0 -3.17642,1.41536 -3.17642,3.17642 0,1.76107 1.41536,3.19788 3.17642,3.19788 1.76107,0 3.19788,-1.43681 3.19788,-3.19788 0,-1.76106 -1.43681,-3.17642 -3.19788,-3.17642 z m -103.74879,5.81628 c -1.76106,0 -3.19788,1.43683 -3.19788,3.19789 0,1.76106 1.43682,3.17643 3.19788,3.17643 1.76107,0 3.19788,-1.41537 3.19788,-3.17643 0,-1.76106 -1.43681,-3.19789 -3.19788,-3.19789 z m 207.51903,0 c -1.76106,0 -3.19789,1.43683 -3.19789,3.19789 0,1.76106 1.43683,3.17643 3.19789,3.17643 1.76106,0 3.19788,-1.41537 3.19788,-3.17643 0,-1.76106 -1.43682,-3.19789 -3.19788,-3.19789 z m -103.77024,27.77223 c 1.49013,0 2.70425,1.21412 2.70425,2.70425 0,1.49013 -1.21412,2.70425 -2.70425,2.70425 -1.49013,0 -2.68279,-1.21412 -2.68279,-2.70425 0,-1.49013 1.19266,-2.70425 2.68279,-2.70425 z m -117.6349,10.55945 c 1.0878,-0.0224 2.40032,1.75152 3.02618,4.14223 0.66761,2.55008 0.28658,4.84601 -0.83703,5.12949 -1.12361,0.28347 -2.5732,-1.54921 -3.24081,-4.0993 -0.66758,-2.55008 -0.28657,-4.84601 0.83703,-5.12949 0.0703,-0.0177 0.14212,-0.0414 0.21463,-0.0429 z m 235.31271,0 c 0.0726,10e-4 0.1444,0.0252 0.21462,0.0429 1.12361,0.28348 1.50463,2.57941 0.83703,5.12949 -0.66759,2.55009 -2.1172,4.38277 -3.2408,4.0993 -1.12361,-0.28348 -1.50462,-2.57941 -0.83704,-5.12949 0.62588,-2.39071 1.9384,-4.1646 3.02619,-4.14223 z m -117.67781,26.61327 6.33138,10.10874 -6.33138,10.13021 -6.33138,-10.13021 6.33138,-10.10874 z m -26.2484,3.49835 c 1.76106,0 3.19788,1.41536 3.19788,3.17642 0,1.76107 -1.43682,3.19788 -3.19788,3.19788 -1.76107,0 -3.17642,-1.43681 -3.17642,-3.19788 0,-1.76106 1.41535,-3.17642 3.17642,-3.17642 z m 52.53972,0 c 1.76106,0 3.17643,1.41536 3.17643,3.17642 0,1.76107 -1.41537,3.19788 -3.17643,3.19788 -1.76106,0 -3.19788,-1.43681 -3.19788,-3.19788 0,-1.76106 1.43682,-3.17642 3.19788,-3.17642 z m -76.77066,0.66533 c 6.52296,0.12826 11.84975,3.57624 12.4696,8.45615 0.7084,5.57704 -5.00925,10.90434 -12.77007,11.89012 -7.76083,0.98578 -14.61569,-2.75034 -15.32409,-8.32737 -0.70841,-5.57705 5.00924,-10.88288 12.77007,-11.86866 0.9701,-0.12322 1.92263,-0.16856 2.85449,-0.15024 z m 101.00161,0 c 0.93185,-0.0184 1.88438,0.027 2.85448,0.15024 7.76083,0.98578 13.47847,6.29161 12.77008,11.86866 -0.7084,5.57703 -7.56326,9.31315 -15.32409,8.32737 -7.76083,-0.98578 -13.47848,-6.31308 -12.77007,-11.89012 0.61985,-4.87991 5.94664,-8.32789 12.4696,-8.45615 z m -132.80875,9.01417 c 1.76106,0 3.19789,1.43682 3.19789,3.19788 0,1.76107 -1.43683,3.17642 -3.19789,3.17642 -1.76106,0 -3.19789,-1.41535 -3.19789,-3.17642 0,-1.76106 1.43683,-3.19788 3.19789,-3.19788 z m 164.61587,0 c 1.76107,0 3.19789,1.43682 3.19789,3.19788 0,1.76107 -1.43682,3.17642 -3.19789,3.17642 -1.76105,0 -3.19787,-1.41535 -3.19787,-3.17642 0,-1.76106 1.43682,-3.19788 3.19787,-3.19788 z m -106.8608,3.56275 c 1.76105,0 3.19788,1.41535 3.19788,3.17641 0,1.76107 -1.43683,3.19789 -3.19788,3.19789 -1.76107,0 -3.17643,-1.43682 -3.17643,-3.19789 0,-1.76106 1.41536,-3.17641 3.17643,-3.17641 z m 49.10575,0 c 1.76107,0 3.17642,1.41535 3.17642,3.17641 0,1.76107 -1.41535,3.19789 -3.17642,3.19789 -1.76106,0 -3.19788,-1.43682 -3.19788,-3.19789 0,-1.76106 1.43682,-3.17641 3.19788,-3.17641 z m -128.51629,3.26227 6.80356,5.53727 -1.97454,8.56345 -6.82501,-5.55873 1.99599,-8.54199 z m 207.92681,0 1.99599,8.54199 -6.825,5.55873 -1.97454,-8.56345 6.80355,-5.53727 z m -183.93195,6.05236 c 1.76107,0 3.17642,1.43683 3.17642,3.19788 0,1.76107 -1.41535,3.17643 -3.17642,3.17643 -1.76106,0 -3.19788,-1.41536 -3.19788,-3.17643 0,-1.76105 1.43682,-3.19788 3.19788,-3.19788 z m 159.93711,0 c 1.76105,0 3.19787,1.43683 3.19787,3.19788 0,1.76107 -1.43682,3.17643 -3.19787,3.17643 -1.76107,0 -3.17643,-1.41536 -3.17643,-3.17643 0,-1.76105 1.41536,-3.19788 3.17643,-3.19788 z m -79.96856,7.68351 c -49.71614,0 -90.01291,10.17133 -90.01291,15.9465 0,5.28507 40.29677,14.33682 90.01291,14.33682 49.71615,0 90.0129,-9.05175 90.0129,-14.33682 0,-5.77517 -40.29675,-15.9465 -90.0129,-15.9465 z"
       id="path2902" />
    <text
       sodipodi:linespacing="125%"
       id="text3026"
       y="-52.671825"
       x="267.21054"
       style="font-size:21.58344269px;font-style:normal;font-variant:normal;font-weight:normal;font-stretch:normal;line-height:125%;letter-spacing:0px;word-spacing:0px;fill:#000000;fill-opacity:1;stroke:none;font-family:Gillius ADF;-inkscape-font-specification:Gillius ADF"
       xml:space="preserve"><tspan
         id="tspan3028"
         style="font-size:64.75032043px;font-style:normal;font-variant:normal;font-weight:bold;font-stretch:normal;text-align:center;text-anchor:middle;fill:#ffffff;font-family:Gillius ADF No2;-inkscape-font-specification:Gillius ADF No2 Bold"
         y="-52.671825"
         x="267.21054"
         sodipodi:role="line">AND USE</tspan></text>
    <g
       id="g3795"
       transform="matrix(1.1063498,0,0,1.1063498,40.557692,-30.816031)">
      <path
         transform="matrix(1.3928695,0,0,1.3928695,197.64932,31.980622)"
         d="m 240.45457,165.70003 c 0,9.60921 -7.78981,17.39902 -17.39903,17.39902 -9.60922,0 -17.39902,-7.78981 -17.39902,-17.39902 0,-9.60922 7.7898,-17.39903 17.39902,-17.39903 9.60922,0 17.39903,7.78981 17.39903,17.39903 z"
         sodipodi:ry="17.399027"
         sodipodi:rx="17.399027"
         sodipodi:cy="165.70003"
         sodipodi:cx="223.05554"
         id="path3165-7"
         style="fill:#1b334b;fill-opacity:1;stroke:none"
         sodipodi:type="arc" />
      <path
         sodipodi:type="arc"
         style="fill:#d00000;fill-opacity:1;stroke:none"
         id="path3935-9"
         sodipodi:cx="223.05554"
         sodipodi:cy="165.70003"
         sodipodi:rx="17.399027"
         sodipodi:ry="17.399027"
         d="m 240.45457,165.70003 c 0,9.60921 -7.78981,17.39902 -17.39903,17.39902 -9.60922,0 -17.39902,-7.78981 -17.39902,-17.39902 0,-9.60922 7.7898,-17.39903 17.39902,-17.39903 9.60922,0 17.39903,7.78981 17.39903,17.39903 z"
         transform="matrix(0.78464981,0,0,0.78464981,333.3161,132.76265)" />
      <path
         d="m 434.39059,180.37661 c 0,-0.77529 0.62249,-1.47397 1.47539,-1.47397 l 32.13727,0 c 0.85087,0 1.47539,0.69868 1.47539,1.47397 l 0,8.46168 c 0,0.77529 -0.62452,1.47397 -1.47539,1.47397 l -21.50232,0 0,11.17741 17.69662,0 c 0.7761,0 1.47539,0.69889 1.47539,1.4764 l 0,8.45946 c 0,0.7775 -0.69929,1.47619 -1.47539,1.47619 l -17.69662,0 0,18.86097 c 0,0.77751 -0.6993,1.47619 -1.47741,1.47619 l -9.15754,0 c -0.8529,0 -1.47539,-0.69868 -1.47539,-1.47619 l 0,-51.38608"
         style="fill:#1b334b;fill-opacity:1;fill-rule:nonzero;stroke:none"
         id="path54-1-3"
         inkscape:connector-curvature="0" />
      <path
         d="m 484.91978,180.38478 c 0,-0.77958 0.70315,-1.48214 1.48558,-1.48214 l 9.28747,0 c 0.85762,0 1.48558,0.70256 1.48558,1.48214 l 0,19.6701 22.3224,0 0,-19.6701 c 0,-0.77958 0.62393,-1.48214 1.48154,-1.48214 l 9.28746,0 c 0.78242,0 1.48356,0.70256 1.48356,1.48214 l 0,51.67042 c 0,0.78181 -0.70114,1.48436 -1.48356,1.48436 l -9.28746,0 c -0.85761,0 -1.48154,-0.70255 -1.48154,-1.48436 l 0,-20.52754 -22.3224,0 0,20.52754 c 0,0.78181 -0.62796,1.48436 -1.48558,1.48436 l -9.28747,0 c -0.78243,0 -1.48558,-0.70255 -1.48558,-1.48436 l 0,-51.67042"
         style="fill:#1b334b;fill-opacity:1;fill-rule:nonzero;stroke:none"
         id="path62-6-5"
         inkscape:connector-curvature="0" />
      <path
         sodipodi:nodetypes="sccssccss"
         inkscape:connector-curvature="0"
         id="path3160-8"
         d="m 460.92594,239.1921 c -0.82348,0 -1.50114,0.68016 -1.50114,1.50108 0,15.90472 0,28.76457 0,44.81958 0,0.82083 0.67766,1.50096 1.50114,1.50096 l 7.7201,0 c 0.8192,0 1.50114,-0.68013 1.50114,-1.50096 0,-14.89731 0,-31.44429 0,-44.81958 0,-0.82092 -0.68194,-1.50108 -1.50114,-1.50108 z"
         style="fill:#1b334b;fill-opacity:1;fill-rule:nonzero;stroke:none" />
      <path
         transform="matrix(1.790477,0,0,1.790477,817.76811,434.80676)"
         d="m -206.46024,-86.560661 c 0,2.218382 -1.79835,4.016736 -4.01673,4.016736 -2.21839,0 -4.01674,-1.798354 -4.01674,-4.016736 0,-2.218383 1.79835,-4.016737 4.01674,-4.016737 2.21838,0 4.01673,1.798354 4.01673,4.016737 z"
         sodipodi:ry="4.0167365"
         sodipodi:rx="4.0167365"
         sodipodi:cy="-86.560661"
         sodipodi:cx="-210.47697"
         id="path3267-2"
         style="fill:#1b334b;fill-opacity:1;stroke:none"
         sodipodi:type="arc" />
    </g>
    <flowRoot
       xml:space="preserve"
       id="flowRoot3056"
       style="font-size:48px;font-style:normal;font-variant:normal;font-weight:normal;font-stretch:normal;line-height:125%;letter-spacing:0px;word-spacing:0px;fill:#ffffff;fill-opacity:1;stroke:none;font-family:'2CA19B_0_0';-inkscape-font-specification:'2CA19B_0_0'"
       transform="matrix(1.1063498,0,0,1.1063498,25.348183,-289.27802)"><flowRegion
         id="flowRegion3058"><rect
           id="rect3060"
           width="499.48907"
           height="143.47031"
           x="-108.04552"
           y="401.18149"
           style="fill:#ffffff;fill-opacity:1" /></flowRegion><flowPara
         style="font-size:21px;fill:#ffffff;fill-opacity:1"
         id="flowPara3064">Have a <flowSpan
   style="font-style:normal;fill:#ffffff;fill-opacity:1;-inkscape-font-specification:'2CA19B_0_0 Italic'"
   id="flowSpan3099">ton</flowSpan> of data to analyze? Fred Hutch computing power is now available to process data through complex pipelines <flowSpan
   style="font-style:italic;fill:#ffffff;fill-opacity:1"
   id="flowSpan3017">via a web interface</flowSpan>. Come learn how. </flowPara><flowPara
         style="font-size:21px;fill:#ffffff;fill-opacity:1"
         id="flowPara3070"><flowSpan
   style="font-style:normal;font-variant:normal;font-weight:bold;font-stretch:normal;fill:#ffffff;fill-opacity:1;font-family:'2CA19B_1_0';-inkscape-font-specification:'2CA19B_1_0 Bold'"
   id="flowSpan3074">Rollout and Galaxy 101:</flowSpan> 2:30pm Thursday April 2.</flowPara><flowPara
         style="font-size:21px;fill:#ffffff;fill-opacity:1"
         id="flowPara3078">Registration required. Details at http://fredhutch.io/.</flowPara><flowPara
         style="font-size:21px;fill:#ffffff;fill-opacity:1"
         id="flowPara3072" /></flowRoot>    <text
       xml:space="preserve"
       style="font-size:23.23334503px;font-style:normal;font-variant:normal;font-weight:normal;font-stretch:normal;line-height:125%;letter-spacing:0px;word-spacing:0px;fill:#1b334b;fill-opacity:1;stroke:none;font-family:'2CA19B_1_0';-inkscape-font-specification:'2CA19B_1_0'"
       x="514.19006"
       y="318.4584"
       id="text3080"
       sodipodi:linespacing="125%"><tspan
         sodipodi:role="line"
         id="tspan3082"
         x="514.19006"
         y="318.4584">fredhutch.io</tspan></text>
    <text
       xml:space="preserve"
       style="font-size:26.16743279px;font-style:normal;font-variant:normal;font-weight:normal;font-stretch:normal;line-height:125%;letter-spacing:0px;word-spacing:0px;fill:#000000;fill-opacity:1;stroke:none;font-family:'2CA19B_1_0';-inkscape-font-specification:'2CA19B_1_0'"
       x="524.02063"
       y="-21.675335"
       id="text3803"
       sodipodi:linespacing="125%"
       transform="matrix(0.84650206,0.53238545,-0.53238545,0.84650206,0,0)"><tspan
         sodipodi:role="line"
         id="tspan3805"
         x="524.02063"
         y="-21.675335"
         style="font-style:normal;font-variant:normal;font-weight:normal;font-stretch:normal;text-align:center;text-anchor:middle;font-family:Stamp Act;-inkscape-font-specification:Stamp Act">FREE</tspan><tspan
         sodipodi:role="line"
         x="524.02063"
         y="11.033957"
         id="tspan3807"
         style="font-style:normal;font-variant:normal;font-weight:normal;font-stretch:normal;text-align:center;text-anchor:middle;font-family:Stamp Act;-inkscape-font-specification:Stamp Act">PIZZA</tspan></text>
    <g
       id="g3836"
       transform="matrix(0.94108689,-0.33816484,0.33816484,0.94108689,66.306602,51.696581)">
      <rect
         transform="matrix(0.99121883,0.13223175,-0.13223175,0.99121883,0,0)"
         y="-233.95702"
         x="-126.02129"
         height="111.77805"
         width="732.3111"
         id="rect3041"
         style="fill:#f8ff0f;fill-opacity:1;stroke:#000000;stroke-width:1;stroke-opacity:1" />
      <text
         xml:space="preserve"
         style="font-size:38.54332733px;font-style:normal;font-variant:normal;font-weight:normal;font-stretch:normal;line-height:125%;letter-spacing:0px;word-spacing:0px;fill:#000000;fill-opacity:1;stroke:none;font-family:'2CA19B_1_0';-inkscape-font-specification:'2CA19B_1_0'"
         x="242.69936"
         y="-181.70041"
         id="text3021"
         sodipodi:linespacing="125%"
         transform="matrix(0.99145651,0.1304377,-0.1304377,0.99145651,0,0)"><tspan
           id="tspan3031"
           sodipodi:role="line"
           x="242.69937"
           y="-181.70041"
           style="font-style:normal;font-variant:normal;font-weight:normal;font-stretch:normal;text-align:center;text-anchor:middle;font-family:Stamp Act;-inkscape-font-specification:Stamp Act">SECOND SESSION ADDED</tspan><tspan
           sodipodi:role="line"
           x="242.69936"
           y="-133.52126"
           style="font-style:normal;font-variant:normal;font-weight:normal;font-stretch:normal;text-align:center;text-anchor:middle;font-family:Stamp Act;-inkscape-font-specification:Stamp Act"
           id="tspan3816">2:30 April 2nd</tspan></text>
    </g>
  </g>
</svg>
