<?xml version="1.0" encoding="UTF-8" standalone="no"?>
<!-- Created with Inkscape (http://www.inkscape.org/) -->

<svg
   xmlns:dc="http://purl.org/dc/elements/1.1/"
   xmlns:cc="http://creativecommons.org/ns#"
   xmlns:rdf="http://www.w3.org/1999/02/22-rdf-syntax-ns#"
   xmlns:svg="http://www.w3.org/2000/svg"
   xmlns="http://www.w3.org/2000/svg"
   xmlns:sodipodi="http://sodipodi.sourceforge.net/DTD/sodipodi-0.dtd"
   xmlns:inkscape="http://www.inkscape.org/namespaces/inkscape"
   width="765"
   height="990"
   id="svg2"
   version="1.1"
   inkscape:version="0.48.4 r9939"
   sodipodi:docname="galaxy-ngs-poster.svg"
   inkscape:export-filename="/home/matsen/galaxy-poster.png"
   inkscape:export-xdpi="90"
   inkscape:export-ydpi="90">
  <defs
     id="defs4">
    <inkscape:perspective
       sodipodi:type="inkscape:persp3d"
       inkscape:vp_x="0 : 526.18109 : 1"
       inkscape:vp_y="0 : 1000 : 0"
       inkscape:vp_z="744.09448 : 526.18109 : 1"
       inkscape:persp3d-origin="372.04724 : 350.78739 : 1"
       id="perspective10" />
    <inkscape:perspective
       id="perspective2824"
       inkscape:persp3d-origin="0.5 : 0.33333333 : 1"
       inkscape:vp_z="1 : 0.5 : 1"
       inkscape:vp_y="0 : 1000 : 0"
       inkscape:vp_x="0 : 0.5 : 1"
       sodipodi:type="inkscape:persp3d" />
    <inkscape:perspective
       id="perspective2838"
       inkscape:persp3d-origin="0.5 : 0.33333333 : 1"
       inkscape:vp_z="1 : 0.5 : 1"
       inkscape:vp_y="0 : 1000 : 0"
       inkscape:vp_x="0 : 0.5 : 1"
       sodipodi:type="inkscape:persp3d" />
    <inkscape:perspective
       id="perspective2852"
       inkscape:persp3d-origin="0.5 : 0.33333333 : 1"
       inkscape:vp_z="1 : 0.5 : 1"
       inkscape:vp_y="0 : 1000 : 0"
       inkscape:vp_x="0 : 0.5 : 1"
       sodipodi:type="inkscape:persp3d" />
    <inkscape:perspective
       id="perspective2866"
       inkscape:persp3d-origin="0.5 : 0.33333333 : 1"
       inkscape:vp_z="1 : 0.5 : 1"
       inkscape:vp_y="0 : 1000 : 0"
       inkscape:vp_x="0 : 0.5 : 1"
       sodipodi:type="inkscape:persp3d" />
    <inkscape:perspective
       id="perspective2880"
       inkscape:persp3d-origin="0.5 : 0.33333333 : 1"
       inkscape:vp_z="1 : 0.5 : 1"
       inkscape:vp_y="0 : 1000 : 0"
       inkscape:vp_x="0 : 0.5 : 1"
       sodipodi:type="inkscape:persp3d" />
    <inkscape:perspective
       id="perspective2894"
       inkscape:persp3d-origin="0.5 : 0.33333333 : 1"
       inkscape:vp_z="1 : 0.5 : 1"
       inkscape:vp_y="0 : 1000 : 0"
       inkscape:vp_x="0 : 0.5 : 1"
       sodipodi:type="inkscape:persp3d" />
  </defs>
  <sodipodi:namedview
     id="base"
     pagecolor="#ffffff"
     bordercolor="#666666"
     borderopacity="1.0"
     inkscape:pageopacity="0.0"
     inkscape:pageshadow="2"
     inkscape:zoom="0.56800405"
     inkscape:cx="518.89328"
     inkscape:cy="557.41614"
     inkscape:document-units="px"
     inkscape:current-layer="layer1"
     showgrid="false"
     showguides="true"
     inkscape:guide-bbox="true"
     inkscape:snap-global="false"
     inkscape:snap-object-midpoints="true"
     inkscape:snap-center="true"
     inkscape:object-paths="true"
     inkscape:window-width="1920"
     inkscape:window-height="1199"
     inkscape:window-x="1600"
     inkscape:window-y="0"
     inkscape:window-maximized="1"
     fit-margin-top="0"
     fit-margin-left="0"
     fit-margin-right="0"
     fit-margin-bottom="0" />
  <metadata
     id="metadata7">
    <rdf:RDF>
      <cc:Work
         rdf:about="">
        <dc:format>image/svg+xml</dc:format>
        <dc:type
           rdf:resource="http://purl.org/dc/dcmitype/StillImage" />
        <dc:title></dc:title>
      </cc:Work>
    </rdf:RDF>
  </metadata>
  <g
     inkscape:label="Layer 1"
     inkscape:groupmode="layer"
     id="layer1"
     transform="translate(116.06091,662.62708)">
    <path
       style="fill:#ffeded;fill-opacity:1;stroke:#333333;stroke-width:0.99999994"
       d="m 412.67512,-399.99532 c -10.26401,2.38426 -54.48686,10.25642 -74.2753,6.22448 -19.78844,-4.03194 -48.10915,-30.47298 -53.68379,-42.18337 -8.33665,-21.36905 -6.73948,-14.97363 -25.16011,-15.63584 -45.61498,-7.48856 -59.80438,-54.84957 -24.28796,-77.84855 12.81171,-8.05398 17.0617,-8.25947 20.11883,-23.58365 3.05714,-15.32418 24.83548,-29.32827 44.87196,-31.17452 20.03648,-1.84625 14.72273,-3.37785 17.33614,-18.3544 2.61341,-14.97655 18.34805,-27.00978 35.50742,-35.23743 17.15937,-8.22765 40.3712,-9.07466 59.49923,-0.7589 19.12803,8.31576 30.54662,23.2182 38.09637,31.76229 7.54975,8.54409 3.25999,6.2876 13.31421,3.62587 10.05422,-2.66173 37.57063,-2.68449 48.54487,1.42146 10.97424,4.10595 27.09184,18.8912 32.3972,27.75139 5.30536,8.86019 -1.0041,7.67524 16.48427,5.83208 17.48837,-1.84316 46.81848,10.22102 57.29005,25.23795 10.47157,15.01693 11.43129,18.25287 6.85731,36.47462 -4.57398,18.22175 -40.44526,41.63835 -60.60362,41.63835 -20.15836,0 -15.41527,2.33713 -15.41527,11.55561 0,9.21848 -11.96557,31.08943 -26.06441,43.25412 -69.82609,48.01844 -95.68518,7.80781 -110.8274,9.99844 z"
       id="path3319"
       inkscape:connector-curvature="0"
       sodipodi:nodetypes="czccczzzzzzzzzzzzzzcc" />
    <g
       id="g3795"
       transform="matrix(1.1063498,0,0,1.1063498,40.557692,-30.816031)">
      <path
         transform="matrix(1.3928695,0,0,1.3928695,197.64932,31.980622)"
         d="m 240.45457,165.70003 c 0,9.60921 -7.78981,17.39902 -17.39903,17.39902 -9.60922,0 -17.39902,-7.78981 -17.39902,-17.39902 0,-9.60922 7.7898,-17.39903 17.39902,-17.39903 9.60922,0 17.39903,7.78981 17.39903,17.39903 z"
         sodipodi:ry="17.399027"
         sodipodi:rx="17.399027"
         sodipodi:cy="165.70003"
         sodipodi:cx="223.05554"
         id="path3165-7"
         style="fill:#1b334b;fill-opacity:1;stroke:none"
         sodipodi:type="arc" />
      <path
         sodipodi:type="arc"
         style="fill:#ffffff;fill-opacity:1;stroke:none"
         id="path3935-9"
         sodipodi:cx="223.05554"
         sodipodi:cy="165.70003"
         sodipodi:rx="17.399027"
         sodipodi:ry="17.399027"
         d="m 240.45457,165.70003 c 0,9.60921 -7.78981,17.39902 -17.39903,17.39902 -9.60922,0 -17.39902,-7.78981 -17.39902,-17.39902 0,-9.60922 7.7898,-17.39903 17.39902,-17.39903 9.60922,0 17.39903,7.78981 17.39903,17.39903 z"
         transform="matrix(0.78464981,0,0,0.78464981,333.3161,132.76265)" />
      <path
         d="m 434.39059,180.37661 c 0,-0.77529 0.62249,-1.47397 1.47539,-1.47397 l 32.13727,0 c 0.85087,0 1.47539,0.69868 1.47539,1.47397 l 0,8.46168 c 0,0.77529 -0.62452,1.47397 -1.47539,1.47397 l -21.50232,0 0,11.17741 17.69662,0 c 0.7761,0 1.47539,0.69889 1.47539,1.4764 l 0,8.45946 c 0,0.7775 -0.69929,1.47619 -1.47539,1.47619 l -17.69662,0 0,18.86097 c 0,0.77751 -0.6993,1.47619 -1.47741,1.47619 l -9.15754,0 c -0.8529,0 -1.47539,-0.69868 -1.47539,-1.47619 l 0,-51.38608"
         style="fill:#1b334b;fill-opacity:1;fill-rule:nonzero;stroke:none"
         id="path54-1-3"
         inkscape:connector-curvature="0" />
      <path
         d="m 484.91978,180.38478 c 0,-0.77958 0.70315,-1.48214 1.48558,-1.48214 l 9.28747,0 c 0.85762,0 1.48558,0.70256 1.48558,1.48214 l 0,19.6701 22.3224,0 0,-19.6701 c 0,-0.77958 0.62393,-1.48214 1.48154,-1.48214 l 9.28746,0 c 0.78242,0 1.48356,0.70256 1.48356,1.48214 l 0,51.67042 c 0,0.78181 -0.70114,1.48436 -1.48356,1.48436 l -9.28746,0 c -0.85761,0 -1.48154,-0.70255 -1.48154,-1.48436 l 0,-20.52754 -22.3224,0 0,20.52754 c 0,0.78181 -0.62796,1.48436 -1.48558,1.48436 l -9.28747,0 c -0.78243,0 -1.48558,-0.70255 -1.48558,-1.48436 l 0,-51.67042"
         style="fill:#1b334b;fill-opacity:1;fill-rule:nonzero;stroke:none"
         id="path62-6-5"
         inkscape:connector-curvature="0" />
      <path
         sodipodi:nodetypes="sccssccss"
         inkscape:connector-curvature="0"
         id="path3160-8"
         d="m 460.92594,239.1921 c -0.82348,0 -1.50114,0.68016 -1.50114,1.50108 0,15.90472 0,28.76457 0,44.81958 0,0.82083 0.67766,1.50096 1.50114,1.50096 l 7.7201,0 c 0.8192,0 1.50114,-0.68013 1.50114,-1.50096 0,-14.89731 0,-31.44429 0,-44.81958 0,-0.82092 -0.68194,-1.50108 -1.50114,-1.50108 z"
         style="fill:#1b334b;fill-opacity:1;fill-rule:nonzero;stroke:none" />
      <path
         transform="matrix(1.790477,0,0,1.790477,817.76811,434.80676)"
         d="m -206.46024,-86.560661 c 0,2.218382 -1.79835,4.016736 -4.01673,4.016736 -2.21839,0 -4.01674,-1.798354 -4.01674,-4.016736 0,-2.218383 1.79835,-4.016737 4.01674,-4.016737 2.21838,0 4.01673,1.798354 4.01673,4.016737 z"
         sodipodi:ry="4.0167365"
         sodipodi:rx="4.0167365"
         sodipodi:cy="-86.560661"
         sodipodi:cx="-210.47697"
         id="path3267-2"
         style="fill:#1b334b;fill-opacity:1;stroke:none"
         sodipodi:type="arc" />
    </g>
    <flowRoot
       xml:space="preserve"
       id="flowRoot3056"
       style="font-size:48px;font-style:normal;font-variant:normal;font-weight:normal;font-stretch:normal;line-height:125%;letter-spacing:0px;word-spacing:0px;fill:#000000;fill-opacity:1;stroke:none;font-family:'2CA19B_0_0';-inkscape-font-specification:'2CA19B_0_0'"
       transform="matrix(1.1063498,0,0,1.1063498,25.348183,-289.27802)"><flowRegion
         id="flowRegion3058"><rect
           id="rect3060"
           width="501.08035"
           height="145.06163"
           x="-108.04552"
           y="401.18149"
           style="fill:#000000;fill-opacity:1" /></flowRegion><flowPara
         style="font-size:21px;fill:#000000;fill-opacity:1"
         id="flowPara3078">RNA-seq has become a standard assay in molecular biology, and Galaxy has a comprehensive set of tools to help you learn from the results. </flowPara><flowPara
         style="font-size:21px;fill:#000000;fill-opacity:1"
         id="flowPara3839"><flowSpan
   style="font-style:normal;font-variant:normal;font-weight:bold;font-stretch:normal;fill:#000000;fill-opacity:1;font-family:'2CA19B_1_0';-inkscape-font-specification:'2CA19B_1_0 Bold'"
   id="flowSpan3845">Class for Hutch employees:  </flowSpan>1-3pm Friday November 20.  </flowPara><flowPara
         style="font-size:21px;fill:#000000;fill-opacity:1"
         id="flowPara3841">Registration required. Details at http://fredhutch.io/.</flowPara><flowPara
         style="font-size:21px;fill:#000000;fill-opacity:1"
         id="flowPara3072" /></flowRoot>    <text
       xml:space="preserve"
       style="font-size:23.23334503px;font-style:normal;font-variant:normal;font-weight:normal;font-stretch:normal;line-height:125%;letter-spacing:0px;word-spacing:0px;fill:#1b334b;fill-opacity:1;stroke:none;font-family:'2CA19B_1_0';-inkscape-font-specification:'2CA19B_1_0'"
       x="514.19006"
       y="318.4584"
       id="text3080"
       sodipodi:linespacing="125%"><tspan
         sodipodi:role="line"
         id="tspan3082"
         x="514.19006"
         y="318.4584">fredhutch.io</tspan></text>
    <g
       transform="matrix(0.07104731,0.01681218,-0.01681218,0.07104731,563.60102,-447.10518)"
       id="layer1-0">
      <path
         inkscape:connector-curvature="0"
         d="M 297.29747,550.86823 C 283.52243,535.43191 249.1268,505.33855 220.86277,483.99412 137.11867,420.75228 125.72108,411.5999 91.719238,380.29088 29.03471,322.57071 2.413622,264.58086 2.5048478,185.95124 2.5493594,147.56739 5.1656152,132.77929 15.914734,110.15398 34.151433,71.768267 61.014996,43.244667 95.360052,25.799457 119.68545,13.443675 131.6827,7.9542046 172.30448,7.7296236 c 42.49329,-0.234834 51.43863,4.7197234 76.43471,18.4518354 30.42451,16.714318 61.7399,52.435708 68.21323,77.810591 l 3.9981,15.6724 9.85963,-21.584508 c 55.71617,-121.972928 233.59836,-120.148052 295.50229,3.031588 19.63767,39.07605 21.79364,122.51317 4.38012,169.51287 -22.71527,61.30937 -65.38001,108.05053 -164.00634,179.67658 -64.68082,46.97364 -137.88474,118.04586 -142.98067,128.02803 -5.91548,11.58753 -0.28216,1.8159 -26.40808,-27.46078 z"
         id="path2417"
         style="fill:#ff0000" />
      <g
         transform="translate(129.28571,-64.285714)"
         id="g2221" />
    </g>
    <path
       style="fill:#29abe2;fill-opacity:1;stroke:none"
       d=""
       id="path3325"
       inkscape:connector-curvature="0"
       transform="translate(-116.06091,-662.62708)" />
    <g
       id="g3816"
       transform="matrix(0.14744804,0,0,0.14744804,269.00081,-334.07185)">
      <path
         sodipodi:nodetypes="ccccccccccccccccccc"
         inkscape:connector-curvature="0"
         id="path3005"
         d="m -2460.5305,1603.8496 c -48.7775,-38.3144 -21.8019,-103.6941 -28.4308,-156.0245 -0.5774,-203.155 4.7238,-408.4609 4.209,-610.25981 2.4774,-16.23849 1.458,-31.11013 -0.068,-49.31529 8.5139,-139.63912 118.9707,-88.64809 224.3038,-100.45099 221.1811,-5.00674 442.5507,-2.33824 663.6812,-6.00714 1.3507,-172.69609 -4.1403,-346.32778 -0.6114,-518.59576 24.5752,-38.41151 13.825,-117.623627 64.1296,-129.386541 61.3546,-4.743541 123.1661,-1.013514 184.7066,-2.309581 58.4937,16.09344 136.9846,-8.564091 206.1067,0.726487 216.78608,0.758038 434.67739,-6.216738 650.969,-0.401793 54.33974,12.192828 53.51436,75.974248 51.22736,120.437908 0.19636,161.67696 5.84262,325.49808 2.47214,485.7374 4.66069,57.7155 1.81164,131.80003 3.56229,195.23454 0.12926,243.02907 7.77174,486.41377 4.41761,729.26547 -263.36829,94.9639 -35.65283,53.9227 -243.02839,63.7603 -640.34471,-21.8311 -1201.70781,38.4496 -1787.64671,-22.4107 z M -2483.4431,761 c -6.8973,-2.78217 7.2121,-7.48748 0,0 z"
         style="fill:#dbdbdb;fill-opacity:1;stroke:#1a1a1a;stroke-width:6.78205013" />
      <path
         sodipodi:nodetypes="ccccccccccccccccccccccccccccccccccccccccccccccccccccccccccccccccccccccccccccccccccccccccccccccccccc"
         inkscape:connector-curvature="0"
         id="path2993"
         d="m -1430.3361,1662.4693 c -331.6493,-1.2495 -663.4168,2.8559 -994.9915,-1.9363 -37.8432,-6.5948 104.1257,-10.7634 64.0314,-17.4238 55.1924,-36.7451 -27.4165,-33.508 -48.5749,-32.1757 28.1781,-13.9487 106.936,23.2076 109.7504,-17.4355 8.7693,-31.9745 -17.5127,-29.2925 -38.5375,-29.5948 -22.9157,6.215 -53.9228,5.7 -74.8742,12.1847 -19.8412,-5.1306 -48.6753,-19.4897 -41.298,-47.8716 1.2748,-129.6108 -2.5716,-259.9999 1.8898,-389.1264 14.1206,-33.7687 60.8278,-17.3913 89.2466,-23.1412 267.1767,-1.3337 534.5541,5.0437 801.6,1.556 -0.6837,-143.67079 2.6979,-289.24498 -0.5195,-431.7295 -58.4153,7.35466 -19.3826,-73.20239 -31.4505,-108.52609 1.0012,-137.71093 -3.8129,-276.33873 -0.295,-413.6273 21.6407,-38.97874 16.5903,-109.257484 59.1477,-126.030823 62.0009,-4.894977 125.0118,-3.465443 186.8945,-1.673317 70.0994,-4.138904 26.7196,92.46758 38.9801,141.53253 1.0943,140.29103 0.6182,280.60608 2.6502,420.88146 188.0083,0.27492 376.40069,-2.30444 564.1703,-0.2553 26.07654,10.62081 4.75222,53.02015 44.97252,39.35876 78.96136,1.55432 158.72023,-2.35077 237.20668,1.34944 -87.70329,4.43214 -177.60194,-0.34212 -264.7066,4.02037 1.88515,21.53491 -10.86935,47.38657 -37.56086,38.79095 -180.82204,1.98541 -363.70284,-1.03671 -543.20844,2.87616 -0.6881,308.51154 2.8281,619.24106 4.2539,928.52796 262.0915,1.1346 525.77577,-1.2572 787.1359,0.8588 -20.61765,10.7128 -70.0329,-12.0277 -80.413,12.3503 -1.75247,14.2312 19.00164,18.1459 40.3859,21.081 47.28267,12.8808 84.93065,11.846 18.25652,14.9262 -298.04298,0.1968 -596.10552,0.1404 -894.14242,0.253 z m -150.7152,-7.4394 c 32.1421,-42.766 -15.7602,-40.3164 -45.6505,-37.2702 -235.6255,-0.514 -471.9284,-1.6879 -707.1343,-1.8228 10.2793,17.9929 -8.6894,40.9639 33.6373,35.6916 237.8928,1.1939 475.7885,0 713.6809,-0.7297 l 1.743,3.3808 3.7236,0.75 z m -757.0938,-5.1459 c 21.5677,-1.1322 -24.5411,-3.8171 0,0 z m 1234.3263,-0.6051 c 152.72066,-0.8296 306.53274,1.3624 458.5722,-1.3532 25.40076,4.8346 51.96623,-27.2182 27.186,-30.9251 -314.79525,0.089 -629.5913,-0.2612 -944.386,0.277 -18.6231,50.8464 40.9227,26.983 68.3615,32.1904 130.0887,-0.063 260.1783,-0.1253 390.2663,-0.1891 z m -1237.2569,-8.4735 c 9.2631,-6.111 -10.4074,-3.3544 0,0 z m 1741.8988,0.022 c 7.35723,-5.0965 -6.68351,-2.6003 0,0 z M -2341.3865,1625 c 9.4906,-8.9334 -8.6052,-14.361 0,0 z m 1742.0504,0 c 13.84014,7.8732 -17.29093,-31.3652 0,0 z m -1688.3584,-11.0876 c 2.1946,-6.5365 38.5845,-4.9072 70.6822,-4.9338 218.8878,-0.7746 438.8212,0.7399 657.1762,-3.0968 13.8628,-49.6551 -44.1635,-26.3242 -73.3124,-31.6646 -220.3917,-1.6347 -440.7913,-1.2025 -661.1876,-1.4782 -1.7909,13.8097 -4.7954,38.4697 6.6416,41.1734 z m 43.5148,-0.5205 c 43.0178,-1.3097 -26.721,-3.4223 0,0 z m 51.3436,0.3934 c 44.4158,-2.7803 -45.9452,-2.8642 0,0 z m 50.3967,-0.3853 c 38.1653,-2.875 -45.6729,-1.605 0,0 z m 44,-0.016 c 43.2264,-2.478 -54.2824,-2.1061 0,0 z m 42.2024,0.4475 c 51.5022,-2.915 -42.1485,-3.6827 0,0 z m 52.3498,-0.5969 c 28.4525,-6.2228 -58.0156,1.3901 0,0 z m 224.0511,0.1517 c 24.4382,2.6239 329.2292,-4.2427 200.041,-2.5947 -134.4875,1.0363 -269.263,-2.3435 -403.541,1.6832 67.7884,1.716 135.6828,0.5372 203.5,0.9115 z m -295,-0.3863 c 3.5875,-2.5549 -3.5875,-2.5549 0,0 z m 39.4167,-0.079 c 6.7357,-0.7922 -6.3201,-0.8101 0,0 z m 467.0833,0.079 c 6.2262,-2.3593 -5.9537,-2.2437 0,0 z m 39.8107,-18.1887 c 19.8729,-26.3756 -15.3877,-50.4195 -5.8107,-5.2135 2.1952,1.1659 2.0581,7.4959 5.8107,5.2135 z m -146.1974,-465.3785 c 1116.48187,497.0448 558.2409,248.5224 0,0 z m 146.1587,-13.8355 c 14.9103,-19.7038 1.886,-61.396 6.3211,-89.3032 -0.3554,-321.8166 2.4766,-644.10598 -0.5466,-965.69233 -23.44,-26.032568 -17.0292,59.96609 -16.113,53.19433 1.249,333.50508 -2.0438,667.24142 0.5656,1000.621 3.2189,0.7364 6.2986,2.7062 9.7729,1.1802 z m 683.228,-459.1585 c 21.85841,-1.79973 58.93867,5.29195 68.5,-19.28535 -32.50727,-28.89447 -82.73185,-10.45494 -122.64698,-15.49661 -94.84712,5.26711 -191.84112,0.1409 -285.21942,15.5696 26.204,18.63025 97.941,8.52815 138.6785,14.35553 66.9163,0.57941 133.78181,5.7182 200.6879,4.85683 z"
         style="fill:#333333" />
    </g>
    <path
       style="fill:#e6e6e6;stroke:#333333;stroke-width:1.60000000000000009;stroke-miterlimit:4;stroke-dasharray:none"
       d="m 289.37142,-537.49058 c 2.34114,-0.0128 4.98033,0 7.9635,0 24.03552,0 25.72821,0.19437 28.80725,3.65761 1.09594,1.2325 1.47731,2.73148 1.47731,5.74104 0,3.64636 -0.23268,4.26138 -2.4006,6.20404 l -2.42365,2.17604 -25.2987,0 c -27.83112,0 -27.38579,0.0516 -29.79986,-4.62989 -1.44685,-2.80615 -0.9908,-7.4252 0.94646,-9.60697 2.57315,-2.89803 4.34043,-3.45215 20.72829,-3.54187 z m 8.28673,0.83338 c -4.28415,-9e-5 -8.59704,0.0312 -11.91068,0.0927 -6.62729,0.12288 -1.41266,0.20805 11.58745,0.20835 8.9377,1.8e-4 14.29999,-0.0461 14.70375,-0.11571 -0.0907,-0.0284 -0.94177,-0.0595 -2.65447,-0.0927 -3.18646,-0.0616 -7.44196,-0.0925 -11.72605,-0.0927 z m -26.61443,1.38897 c -0.12778,0.0684 -0.41475,0.27948 -0.85409,0.62504 -0.71095,0.55916 -1.29263,1.14252 -1.29263,1.29636 0,0.6097 0.60472,0.23853 1.56961,-0.99542 0.5743,-0.73433 0.79007,-1.04001 0.57711,-0.92598 z m 52.51321,0 c -0.0382,0.0383 0.18695,0.3385 0.6463,0.92598 0.55752,0.713 1.13929,1.29636 1.29263,1.29636 0.60798,0 0.2148,-0.62958 -1.01564,-1.5973 -0.58575,-0.46073 -0.88511,-0.66328 -0.92329,-0.62504 z m -30.53843,0.62504 c -9.99228,0.0874 -19.03577,0.48241 -20.38203,1.18061 -4.64698,2.40995 -3.77574,9.08705 1.43105,10.99595 0.6094,0.22341 11.31401,0.43085 23.7753,0.46299 l 22.64413,0.0694 2.28523,-1.9214 c 3.46559,-2.92452 3.10365,-7.61433 -0.73865,-9.607 -1.73103,-0.8977 -16.16781,-1.29282 -29.01503,-1.18061 z m 129.35565,0.78708 5.3552,0.20834 5.35519,0.23149 0.20775,23.51976 0.18466,23.51977 -5.53985,0 -5.56295,0 0,-23.75127 z m -154.63122,3.65759 c -0.09,0.12215 -0.13857,0.70605 -0.13857,1.5973 0,1.42601 0.13731,2.00938 0.32324,1.29638 0.18576,-0.71301 0.18576,-1.87974 0,-2.59274 -0.0697,-0.26739 -0.13074,-0.37424 -0.18467,-0.30094 z m 59.09182,0 c -0.0901,0.12215 -0.13858,0.70605 -0.13858,1.5973 0,1.42601 0.13731,2.00938 0.32322,1.29638 0.18578,-0.71301 0.18578,-1.87974 0,-2.59274 -0.0697,-0.26739 -0.13074,-0.37424 -0.18464,-0.30094 z m 26.79903,-1.99084 c 0.94877,-0.006 1.93769,0.004 2.93152,0.0694 3.75669,0.24443 8.08687,1.07252 10.59494,2.014 l 4.24722,1.59732 0,5.50955 c 0,3.02644 -0.19507,5.50955 -0.43853,5.50955 -0.24346,0 -2.47158,-1.25007 -4.93978,-2.77794 -4.21501,-2.60914 -4.83105,-2.77792 -10.4334,-2.77792 -6.95133,0 -9.80414,1.45272 -12.28002,6.31978 -1.64185,3.22757 -1.99789,11.0114 -0.66936,14.53781 1.81694,4.82284 7.97526,8.40322 14.49596,8.40322 l 2.44677,0 0,-4.44468 0,-4.44468 -4.43188,0 -4.43189,0 0,-4.44467 0,-4.44469 10.34107,0 10.34106,0 0,11.43579 0,11.45895 -2.76992,0.74077 c -1.52346,0.40474 -4.2657,1.0657 -6.09384,1.48156 -4.9626,1.12892 -14.64125,0.89959 -18.46619,-0.43984 -10.09659,-3.53565 -15.3542,-12.02653 -14.61141,-23.6355 0.86635,-13.53694 9.93547,-21.5697 24.16768,-21.66782 z m -85.84476,6.92167 1.80053,2.03713 c 0.98483,1.12043 2.11283,2.03715 2.51598,2.03715 0.40308,0 0.58479,-0.0833 0.4155,-0.18519 -0.16931,-0.10183 -1.29721,-1.01858 -2.51607,-2.03715 z m 59.09181,0 -2.21593,1.85194 c -1.21879,1.01857 -2.34678,1.93529 -2.516,2.03715 -0.1693,0.10183 0.0124,0.18519 0.41549,0.18519 0.40316,0 1.55426,-0.91672 2.5391,-2.03715 z m -29.22268,4.16687 c -4.41806,-9e-5 -8.86472,0.0315 -12.28001,0.0927 -6.83065,0.1224 -1.44966,0.20807 11.95678,0.20835 9.21699,1.8e-4 14.75116,-0.0463 15.16539,-0.1157 -0.0944,-0.0283 -0.97957,-0.0596 -2.7468,-0.0927 -3.28793,-0.0613 -7.67734,-0.0925 -12.09536,-0.0926 z m 97.38603,0.27779 c 10.16454,0 12.63935,0.78278 15.81169,5.04657 1.42433,1.91435 1.57745,3.23272 1.80046,15.74157 l 0.23082,13.65814 -5.58603,0 c -5.10608,0 -5.6091,-0.13032 -5.6091,-1.48157 0,-0.81485 -0.0831,-1.48303 -0.18466,-1.48156 -0.10165,8.3e-4 -1.81012,0.83509 -3.80869,1.85196 -6.36093,3.23645 -12.76368,2.2716 -17.05811,-2.56959 -1.14674,-1.2928 -1.47729,-2.72641 -1.47729,-6.36608 0,-4.16216 0.24907,-4.93523 2.14673,-6.92166 2.70744,-2.83412 7.21784,-4.38382 14.58828,-5.00027 6.08514,-0.50894 6.97203,-1.21327 4.43189,-3.51871 -2.09169,-1.89839 -8.0223,-2.30566 -12.834,-0.90281 -2.26336,0.65983 -4.49438,1.20377 -4.93978,1.20377 -0.48854,0 -0.80785,-1.62406 -0.80785,-4.07429 0,-3.79732 0.13155,-4.09706 2.03127,-4.62988 1.11721,-0.31332 6.18617,-0.55559 11.26437,-0.55559 z m 62.04641,0 c 10.16423,0 12.63896,0.78309 15.81167,5.04657 1.42567,1.91578 1.56613,3.22045 1.77738,15.74157 l 0.23082,13.65814 -5.58603,0 c -5.09311,0 -5.58601,-0.13063 -5.58601,-1.48157 0,-0.81485 -0.0831,-1.48303 -0.18467,-1.48156 -0.10153,8.3e-4 -1.81008,0.83509 -3.80864,1.85196 -4.58641,2.33352 -10.09381,2.48348 -13.54957,0.37038 -6.66651,-4.07634 -7.15709,-13.32041 -0.9464,-17.75556 2.44345,-1.74488 10.49749,-3.7072 15.35003,-3.72705 3.47541,-0.0143 4.10196,-1.15426 1.77738,-3.26408 -2.09172,-1.89839 -8.02233,-2.30566 -12.83401,-0.90281 -2.2633,0.65983 -4.49438,1.20377 -4.93972,1.20377 -0.48853,0 -0.80788,-1.62406 -0.80788,-4.07429 0,-3.79732 0.13155,-4.09706 2.03127,-4.62988 1.11722,-0.31332 6.18618,-0.55559 11.26438,-0.55559 z m 29.77673,0.37039 6.1631,0 3.50857,4.90767 3.53166,4.88453 3.43932,-4.86137 3.43934,-4.86138 6.09384,-0.0462 c 3.35163,-0.0199 6.08951,0.22687 6.07077,0.53245 -0.0187,0.30556 -2.83045,4.05576 -6.23235,8.33377 -5.23669,6.58531 -6.04063,7.95667 -5.30903,9.02825 0.47527,0.69612 3.45531,4.61301 6.62475,8.70416 l 5.77069,7.45411 -6.50934,-0.0232 -6.50933,0 -3.32392,-4.79193 c -1.82815,-2.63522 -3.54023,-4.72494 -3.80865,-4.62987 -0.26842,0.0951 -2.01431,2.26864 -3.87791,4.81506 l -3.39316,4.62988 -6.39392,0 c -6.02152,0 -6.33385,-0.0757 -5.28594,-1.29636 0.61212,-0.713 3.67072,-4.55866 6.78632,-8.51897 l 5.67836,-7.19945 -6.30159,-8.07914 c -3.46159,-4.44868 -6.30159,-8.29324 -6.30159,-8.5421 0,-0.24888 2.76055,-0.43986 6.14001,-0.43986 z m 40.21014,0 5.72453,0 3.69322,10.06999 c 2.03128,5.53666 3.89863,10.18884 4.15489,10.34776 0.25626,0.15891 2.0923,-4.37194 4.06257,-10.06998 l 3.57782,-10.34777 5.72451,0 c 5.62975,0 5.70847,0.0263 5.07821,1.66676 -2.07675,5.40494 -17.30913,42.59601 -17.88912,43.68286 -0.57196,1.07183 -1.69392,1.31952 -6.20925,1.31952 -3.37451,0 -5.51679,-0.30887 -5.51679,-0.78706 0,-0.42979 0.99719,-3.14653 2.21595,-6.01886 1.21877,-2.87232 2.21594,-5.64636 2.21594,-6.18087 0,-0.53452 -2.82532,-8.19897 -6.27849,-17.0148 -3.45319,-8.81581 -6.27852,-16.16188 -6.27852,-16.34344 0,-0.18159 2.57604,-0.32633 5.72453,-0.32411 z m -242.0456,3.77335 c 7.16511,-0.005 10.25524,0.68708 9.39471,2.08345 -0.20497,0.33253 0.36505,1.2234 1.26952,1.99084 l 1.63883,1.41211 -1.408,-1.66674 c -0.77389,-0.91672 -1.09712,-1.66677 -0.7156,-1.66677 1.18916,0 3.23158,4.1777 3.23158,6.62074 0,3.22358 -1.83192,6.46492 -4.40877,7.80133 -3.03082,1.5718 -20.20031,1.53475 -23.10585,-0.0462 -2.5363,-1.38016 -4.24723,-4.62499 -4.24723,-8.05598 0,-1.97278 0.65142,-3.34955 2.53917,-5.41697 l 2.51597,-2.75475 9.97176,-0.25467 c 1.19056,-0.0287 2.3003,-0.0455 3.32391,-0.0462 z m -2.16978,0.74078 c -1.74048,-3.9e-4 -3.51396,0.0444 -4.89353,0.11571 -2.75907,0.14291 -0.68791,0.25316 4.59342,0.25464 5.28142,8.3e-4 7.53126,-0.11049 5.00898,-0.25464 -1.26108,-0.0722 -2.96838,-0.11533 -4.70887,-0.11571 z m -11.81836,1.41211 c -0.12778,0.0684 -0.41475,0.2795 -0.85409,0.62503 -0.71095,0.55919 -1.29263,1.14256 -1.29263,1.29637 8e-5,0.6097 0.60472,0.23854 1.56961,-0.99542 0.5743,-0.73434 0.79007,-1.03999 0.57711,-0.92598 z m 11.51825,0.74079 c -8.88932,0 -9.36982,0.0677 -11.10277,1.80566 -1.09444,1.09757 -1.82355,2.68018 -1.82355,3.98168 0,2.59972 2.37379,5.82851 4.63965,6.31979 0.90595,0.19639 5.19276,0.28116 9.53322,0.20834 7.22788,-0.12129 8.05096,-0.26263 9.78708,-1.89825 2.53016,-2.38387 2.57581,-6.1209 0.0924,-8.61156 -1.73294,-1.73798 -2.23648,-1.80566 -11.12595,-1.80566 z m -14.81904,4.32894 c -0.09,0.12214 -0.13857,0.70605 -0.13857,1.59729 0,1.42601 0.13731,2.00936 0.32324,1.29637 0.18576,-0.713 0.18576,-1.87972 0,-2.59273 -0.0697,-0.26737 -0.13074,-0.37425 -0.18467,-0.30093 z m 29.08425,5.00025 c -0.28033,0.0392 -0.96563,0.7213 -1.63891,1.66676 l -1.38497,1.96771 1.73125,-1.66678 c 0.95004,-0.90539 1.56548,-1.7694 1.38496,-1.94453 -0.0227,-0.0217 -0.0522,-0.0287 -0.0924,-0.0232 z m -27.93018,1.04174 c -0.0382,0.0383 0.18695,0.33851 0.64631,0.92595 0.96497,1.23397 1.56961,1.60511 1.56961,0.99543 0,-0.15382 -0.5816,-0.73718 -1.29262,-1.29636 -0.58567,-0.46072 -0.88512,-0.66327 -0.9233,-0.62502 z m 7.96357,2.75476 c -2.69289,0.01 -4.36953,0.1459 -4.01639,0.37039 0.47081,0.29934 5.00893,0.49881 10.08713,0.43984 10.28122,-0.11942 8.92012,-0.47468 -3.06998,-0.78707 -1.08256,-0.0283 -2.10314,-0.0263 -3.00076,-0.0232 z m 124.83145,-1.48155 -4.10872,0.41668 c -2.26588,0.23453 -4.92502,0.95059 -5.90919,1.5973 -2.06717,1.35838 -2.38339,4.16105 -0.64631,5.90309 1.47581,1.48009 5.67355,1.50927 8.49444,0.0462 1.93556,-1.00381 2.16978,-1.52453 2.16978,-4.56042 z m 62.0464,0.20834 -2.76992,0.0232 c -6.87911,0.10382 -11.03743,3.95506 -7.96355,7.36149 1.64068,1.81815 5.45797,1.98107 8.56369,0.3704 1.92064,-0.99608 2.16978,-1.52354 2.16978,-4.44468 z m -160.26341,5.92624 8.95611,0 c 10.03622,0 12.5669,0.74669 14.44971,4.39838 0.61625,1.19516 1.10797,3.29746 1.10797,4.65302 7e-5,2.69214 -1.89618,6.04641 -3.02379,5.34751 -0.38846,-0.24082 -0.61951,-0.0202 -0.50783,0.48613 0.11167,0.50627 -0.62326,1.33852 -1.6389,1.8751 -2.51925,1.33108 -16.5732,1.30387 -19.66651,-0.0462 -3.30323,-1.44184 -4.70887,-3.867 -4.70887,-8.07913 0,-3.12136 0.3465,-3.95873 2.51606,-6.13459 z m 18.97393,1.11117 1.80053,2.03715 c 1.67355,1.90401 2.26204,2.36346 2.26204,1.7825 0,-0.13271 -0.91401,-1.04941 -2.03129,-2.03715 z m -8.93299,1.85195 c -4.56786,0 -8.82935,0.18674 -9.48695,0.43983 -1.74898,0.67309 -3.55614,4.6093 -3.04694,6.64388 0.2411,0.96341 1.17018,2.43792 2.05435,3.26405 1.41931,1.32609 2.58889,1.50471 9.99477,1.50471 7.92178,0 8.49047,-0.11174 10.20265,-1.82879 2.31855,-2.32526 2.40991,-5.9597 0.2077,-8.31062 -1.49406,-1.59499 -2.19916,-1.71306 -9.92558,-1.71306 z m -13.3418,1.75935 c -0.0666,-8.3e-4 -0.14923,0.0277 -0.25396,0.0927 -0.40154,0.24892 -0.73864,0.75093 -0.73864,1.13431 7e-5,1.06556 0.52457,0.84351 1.01563,-0.43983 0.18925,-0.49441 0.17661,-0.78203 -0.023,-0.78709 z m 26.6606,2.56958 c -0.0901,0.12214 -0.13858,0.70605 -0.13858,1.5973 6e-5,1.426 0.13731,2.00937 0.32322,1.29636 0.1857,-0.71299 0.18578,-1.87972 0,-2.59271 -0.0697,-0.26739 -0.13074,-0.37425 -0.18464,-0.30095 z m -27.28388,4.93082 1.40809,1.66676 c 0.77394,0.91671 1.52182,1.66675 1.66195,1.66675 0.59114,0 0.15379,-0.6184 -1.40809,-1.94456 z m 23.08274,3.00942 c -0.15563,0.0123 -0.35063,0.0393 -0.554,0.0927 -0.81295,0.21324 -1.47729,0.51514 -1.47729,0.67134 0,0.58452 2.14164,0.27475 2.53917,-0.3704 0.17071,-0.27707 -0.0407,-0.43024 -0.50788,-0.39353 z m -9.48697,1.13431 c -1.3388,-6.6e-4 -2.7124,0.0407 -3.78557,0.1157 -2.14651,0.15011 -0.57711,0.27558 3.48546,0.2778 4.06262,0.003 5.81707,-0.12573 3.90101,-0.2778 -0.95802,-0.076 -2.26211,-0.11508 -3.6009,-0.1157 z"
       id="path3179"
       inkscape:connector-curvature="0"
       sodipodi:nodetypes="sscsccscssscsccsccscccssccccsccccccccccccccccsccccscccccccsssssssccccccccccccsscccccsscccscsccssscssssccsssscsssscssssscccssssssssssssscccccccsssccccccccsccccscccsccccssssssssscsscccsscsscccsssccscccccscccscsscsccccccscccccsscccssccccsssscccssscccsccccccsccccsccssccscssccccccccscccsscccsccscscccccc" />
    <path
       style="fill:#ffeded;stroke:#333333;stroke-width:0.99999994000000003;fill-opacity:1"
       d="m 266.94219,-372.47268 c -4.95171,-6.31164 -5.02892,-12.95984 -0.22139,-19.08758 11.51482,-14.67722 38.27233,-0.17567 28.92378,15.67558 -4.01486,6.80741 -7.10672,8.36854 -16.65619,8.40931 -5.52305,0.0231 -9.35377,-1.5655 -12.0462,-4.99731 z"
       id="path3321"
       inkscape:connector-curvature="0" />
    <path
       style="fill:#ffeded;stroke:#333333;stroke-width:0.99999994000000003;fill-opacity:1"
       d="m 233.53564,-344.4729 c -4.53075,-2.26369 -4.42876,-6.32225 0.21434,-8.54079 6.32199,-3.02072 11.33947,4.28776 5.77446,8.4111 -1.66332,1.23242 -3.69354,1.27645 -5.9888,0.12969 l 0,0 z"
       id="path3323"
       inkscape:connector-curvature="0" />
    <path
       style="fill:#ffeded;stroke:#333333;stroke-width:0.99999994000000003;fill-opacity:1"
       d="m 221.04537,-337.51321 c -1.33259,-1.84956 0.24978,-4.7114 2.72265,-4.84532 1.92305,0.28073 2.07675,2.37981 1.97159,3.76895 -0.11956,1.22322 0.13541,2.28 -1.82307,2.12284 -1.27483,-0.37827 -2.14661,-0.12591 -2.87117,-1.04647 z"
       id="path3327"
       inkscape:connector-curvature="0"
       sodipodi:nodetypes="ccccc" />
    <path
       inkscape:connector-curvature="0"
       id="path3337"
       d="m 248.06549,-364.60976 c 4.31784,-6.88849 12.05942,-6.73349 16.29124,0.32583 5.76191,9.61182 -8.17874,17.2404 -16.04391,8.77949 -2.35072,-2.5289 -2.4347,-5.61567 -0.24733,-9.10532 l 0,0 z"
       style="fill:#ffeded;stroke:#333333;stroke-width:0.99999994000000003;fill-opacity:1" />
    <g
       id="g3346"
       transform="matrix(0.08523324,0,0,0.08523324,369.64688,-622.26229)">
      <path
         style="fill:#ff0000"
         id="path3348"
         d="M 297.29747,550.86823 C 283.52243,535.43191 249.1268,505.33855 220.86277,483.99412 137.11867,420.75228 125.72108,411.5999 91.719238,380.29088 29.03471,322.57071 2.413622,264.58086 2.5048478,185.95124 2.5493594,147.56739 5.1656152,132.77929 15.914734,110.15398 34.151433,71.768267 61.014996,43.244667 95.360052,25.799457 119.68545,13.443675 131.6827,7.9542046 172.30448,7.7296236 c 42.49329,-0.234834 51.43863,4.7197234 76.43471,18.4518354 30.42451,16.714318 61.7399,52.435708 68.21323,77.810591 l 3.9981,15.6724 9.85963,-21.584508 c 55.71617,-121.972928 233.59836,-120.148052 295.50229,3.031588 19.63767,39.07605 21.79364,122.51317 4.38012,169.51287 -22.71527,61.30937 -65.38001,108.05053 -164.00634,179.67658 -64.68082,46.97364 -137.88474,118.04586 -142.98067,128.02803 -5.91548,11.58753 -0.28216,1.8159 -26.40808,-27.46078 z"
         inkscape:connector-curvature="0" />
      <g
         id="g3350"
         transform="translate(129.28571,-64.285714)" />
    </g>
    <g
       transform="matrix(0.08476439,0.02456577,-0.02456577,0.08476439,399.23603,-344.66371)"
       id="g3352">
      <path
         inkscape:connector-curvature="0"
         d="M 297.29747,550.86823 C 283.52243,535.43191 249.1268,505.33855 220.86277,483.99412 137.11867,420.75228 125.72108,411.5999 91.719238,380.29088 29.03471,322.57071 2.413622,264.58086 2.5048478,185.95124 2.5493594,147.56739 5.1656152,132.77929 15.914734,110.15398 34.151433,71.768267 61.014996,43.244667 95.360052,25.799457 119.68545,13.443675 131.6827,7.9542046 172.30448,7.7296236 c 42.49329,-0.234834 51.43863,4.7197234 76.43471,18.4518354 30.42451,16.714318 61.7399,52.435708 68.21323,77.810591 l 3.9981,15.6724 9.85963,-21.584508 c 55.71617,-121.972928 233.59836,-120.148052 295.50229,3.031588 19.63767,39.07605 21.79364,122.51317 4.38012,169.51287 -22.71527,61.30937 -65.38001,108.05053 -164.00634,179.67658 -64.68082,46.97364 -137.88474,118.04586 -142.98067,128.02803 -5.91548,11.58753 -0.28216,1.8159 -26.40808,-27.46078 z"
         id="path3354"
         style="fill:#ff0000" />
      <g
         transform="translate(129.28571,-64.285714)"
         id="g3356" />
    </g>
    <g
       id="g3358"
       transform="matrix(0.0728186,0.02180826,-0.02180826,0.0728186,536.48798,-649.0905)">
      <path
         style="fill:#ff0000"
         id="path3360"
         d="M 297.29747,550.86823 C 283.52243,535.43191 249.1268,505.33855 220.86277,483.99412 137.11867,420.75228 125.72108,411.5999 91.719238,380.29088 29.03471,322.57071 2.413622,264.58086 2.5048478,185.95124 2.5493594,147.56739 5.1656152,132.77929 15.914734,110.15398 34.151433,71.768267 61.014996,43.244667 95.360052,25.799457 119.68545,13.443675 131.6827,7.9542046 172.30448,7.7296236 c 42.49329,-0.234834 51.43863,4.7197234 76.43471,18.4518354 30.42451,16.714318 61.7399,52.435708 68.21323,77.810591 l 3.9981,15.6724 9.85963,-21.584508 c 55.71617,-121.972928 233.59836,-120.148052 295.50229,3.031588 19.63767,39.07605 21.79364,122.51317 4.38012,169.51287 -22.71527,61.30937 -65.38001,108.05053 -164.00634,179.67658 -64.68082,46.97364 -137.88474,118.04586 -142.98067,128.02803 -5.91548,11.58753 -0.28216,1.8159 -26.40808,-27.46078 z"
         inkscape:connector-curvature="0" />
      <g
         id="g3362"
         transform="translate(129.28571,-64.285714)" />
    </g>
    <g
       transform="matrix(0.05970082,-0.01674956,0.01674956,0.05970082,355.51323,-412.60453)"
       id="g3364">
      <path
         inkscape:connector-curvature="0"
         d="M 297.29747,550.86823 C 283.52243,535.43191 249.1268,505.33855 220.86277,483.99412 137.11867,420.75228 125.72108,411.5999 91.719238,380.29088 29.03471,322.57071 2.413622,264.58086 2.5048478,185.95124 2.5493594,147.56739 5.1656152,132.77929 15.914734,110.15398 34.151433,71.768267 61.014996,43.244667 95.360052,25.799457 119.68545,13.443675 131.6827,7.9542046 172.30448,7.7296236 c 42.49329,-0.234834 51.43863,4.7197234 76.43471,18.4518354 30.42451,16.714318 61.7399,52.435708 68.21323,77.810591 l 3.9981,15.6724 9.85963,-21.584508 c 55.71617,-121.972928 233.59836,-120.148052 295.50229,3.031588 19.63767,39.07605 21.79364,122.51317 4.38012,169.51287 -22.71527,61.30937 -65.38001,108.05053 -164.00634,179.67658 -64.68082,46.97364 -137.88474,118.04586 -142.98067,128.02803 -5.91548,11.58753 -0.28216,1.8159 -26.40808,-27.46078 z"
         id="path3366"
         style="fill:#ff0000" />
      <g
         transform="translate(129.28571,-64.285714)"
         id="g3368" />
    </g>
    <g
       id="g3370"
       transform="matrix(0.03866153,0.01824392,-0.01824392,0.03866153,200.39438,-421.64755)">
      <path
         style="fill:#ff0000"
         id="path3372"
         d="M 297.29747,550.86823 C 283.52243,535.43191 249.1268,505.33855 220.86277,483.99412 137.11867,420.75228 125.72108,411.5999 91.719238,380.29088 29.03471,322.57071 2.413622,264.58086 2.5048478,185.95124 2.5493594,147.56739 5.1656152,132.77929 15.914734,110.15398 34.151433,71.768267 61.014996,43.244667 95.360052,25.799457 119.68545,13.443675 131.6827,7.9542046 172.30448,7.7296236 c 42.49329,-0.234834 51.43863,4.7197234 76.43471,18.4518354 30.42451,16.714318 61.7399,52.435708 68.21323,77.810591 l 3.9981,15.6724 9.85963,-21.584508 c 55.71617,-121.972928 233.59836,-120.148052 295.50229,3.031588 19.63767,39.07605 21.79364,122.51317 4.38012,169.51287 -22.71527,61.30937 -65.38001,108.05053 -164.00634,179.67658 -64.68082,46.97364 -137.88474,118.04586 -142.98067,128.02803 -5.91548,11.58753 -0.28216,1.8159 -26.40808,-27.46078 z"
         inkscape:connector-curvature="0" />
      <g
         id="g3374"
         transform="translate(129.28571,-64.285714)" />
    </g>
    <g
       transform="matrix(0.07576024,0,0,0.07576024,226.1273,-633.4394)"
       id="g3376">
      <path
         inkscape:connector-curvature="0"
         d="M 409.89358,536.77831 C 390.81013,528.78747 346.80221,516.45975 312.09824,509.38338 209.27314,488.41668 195.04363,485.07121 150.86702,471.47682 69.424663,446.41469 20.407067,405.56398 -13.404118,334.57505 -29.909412,299.92108 -33.923143,285.44964 -33.976623,260.40078 -34.067422,217.90335 -22.12288,180.58613 1.3477819,150.04032 17.971249,128.40585 26.430439,118.2811 62.987754,100.56833 101.22936,82.039595 111.43666,82.654313 139.91055,84.270541 c 34.6576,1.967214 78.31212,20.700999 95.09109,40.807089 l 10.36322,12.41824 -0.40745,-23.7263 c -2.30255,-134.076042 158.99193,-209.105985 267.94641,-124.641542 34.56343,26.794499 72.4746,101.152712 77.02126,151.067942 5.93097,65.11257 -12.41868,125.67911 -70.53726,232.82235 -38.11513,70.26641 -73.53313,165.95152 -73.82848,177.15532 -0.34286,13.00562 0.52815,1.76016 -35.66576,-13.39533 z"
         id="path3378"
         style="fill:#ff0000" />
      <g
         transform="translate(129.28571,-64.285714)"
         id="g3380" />
    </g>
    <flowRoot
       transform="matrix(1.1063498,0,0,1.1063498,17.878794,-1087.2573)"
       style="font-size:48px;font-style:normal;font-variant:normal;font-weight:normal;font-stretch:normal;line-height:125%;letter-spacing:0px;word-spacing:0px;fill:#000000;fill-opacity:1;stroke:none;font-family:'2CA19B_0_0';-inkscape-font-specification:'2CA19B_0_0'"
       id="flowRoot3414"
       xml:space="preserve"><flowRegion
         id="flowRegion3416"><rect
           style="fill:#000000;fill-opacity:1"
           y="401.18149"
           x="-108.04552"
           height="143.47031"
           width="499.48907"
           id="rect3418" /></flowRegion><flowPara
         id="flowPara3432"
         style="font-size:21px;fill:#000000;fill-opacity:1" /></flowRoot>    <text
       xml:space="preserve"
       style="font-size:47.81473923px;font-style:normal;font-variant:normal;font-weight:normal;font-stretch:normal;text-align:start;line-height:100%;letter-spacing:0px;word-spacing:0px;writing-mode:lr-tb;text-anchor:start;fill:#000000;fill-opacity:1;stroke:none;font-family:'2CA19B_0_0';-inkscape-font-specification:'2CA19B_0_0'"
       x="-106.0109"
       y="18.971298"
       id="text4219"
       sodipodi:linespacing="100%"><tspan
         sodipodi:role="line"
         x="-106.0109"
         y="18.971298"
         style="font-size:47.81473923px;font-style:italic;font-variant:normal;font-weight:normal;font-stretch:normal;text-align:start;line-height:100%;writing-mode:lr-tb;text-anchor:start;font-family:'2CA19B_0_0';-inkscape-font-specification:'2CA19B_0_0 Italic'"
         id="tspan4258">Upcoming workshop:</tspan><tspan
         sodipodi:role="line"
         x="-106.0109"
         y="66.786041"
         style="font-size:47.81473923px;font-style:normal;font-variant:normal;font-weight:normal;font-stretch:normal;text-align:start;line-height:100%;writing-mode:lr-tb;text-anchor:start;font-family:'2CA19B_0_0';-inkscape-font-specification:'2CA19B_0_0'"
         id="tspan3835">Analysis of RNA-seq differential </tspan><tspan
         sodipodi:role="line"
         x="-106.0109"
         y="114.60078"
         style="font-size:47.81473923px;font-style:normal;font-variant:normal;font-weight:normal;font-stretch:normal;text-align:start;line-height:100%;writing-mode:lr-tb;text-anchor:start;font-family:'2CA19B_0_0';-inkscape-font-specification:'2CA19B_0_0'"
         id="tspan4264">expression experiments using Galaxy</tspan></text>
    <path
       style="fill:#8d8dff;fill-opacity:1;stroke:none;stroke-width:1.79999994999999990;stroke-linecap:round;stroke-miterlimit:4;stroke-opacity:1;stroke-dasharray:none;stroke-dashoffset:0"
       d="m 259.49993,420.01209 c -13.44974,0.27144 -26.93386,0.34653 -40.34825,1.27228 -2.61446,0.25376 -5.32322,0.4526 -7.86059,0.97655 -0.60141,0.96923 1.0348,1.39357 1.71241,1.52673 6.018,0.98501 12.16792,0.64009 18.24476,0.97668 11.36818,0.25516 22.75109,1.14761 34.11788,0.61194 2.0867,-0.0577 4.39235,-0.80256 5.33667,-2.81275 -2.11686,-2.07209 -5.26248,-2.73424 -8.14942,-2.56136 -1.01784,-0.009 -2.03568,-0.003 -3.05346,0.01 z"
       id="path3819"
       inkscape:connector-curvature="0"
       transform="translate(-116.06091,-662.62708)" />
  </g>
</svg>
