<?xml version="1.0" encoding="UTF-8" standalone="no"?>
<!-- Created with Inkscape (http://www.inkscape.org/) -->

<svg
   xmlns:dc="http://purl.org/dc/elements/1.1/"
   xmlns:cc="http://creativecommons.org/ns#"
   xmlns:rdf="http://www.w3.org/1999/02/22-rdf-syntax-ns#"
   xmlns:svg="http://www.w3.org/2000/svg"
   xmlns="http://www.w3.org/2000/svg"
   xmlns:sodipodi="http://sodipodi.sourceforge.net/DTD/sodipodi-0.dtd"
   xmlns:inkscape="http://www.inkscape.org/namespaces/inkscape"
   width="659.30933"
   height="893.93475"
   id="svg2"
   version="1.1"
   inkscape:version="0.48.4 r9939"
   sodipodi:docname="galaxy-poster.svg"
   inkscape:export-filename="/home/matsen/re/fredhutch.io/prep/galaxy-poster.png"
   inkscape:export-xdpi="90"
   inkscape:export-ydpi="90">
  <defs
     id="defs4">
    <inkscape:perspective
       sodipodi:type="inkscape:persp3d"
       inkscape:vp_x="0 : 526.18109 : 1"
       inkscape:vp_y="0 : 1000 : 0"
       inkscape:vp_z="744.09448 : 526.18109 : 1"
       inkscape:persp3d-origin="372.04724 : 350.78739 : 1"
       id="perspective10" />
    <inkscape:perspective
       id="perspective2824"
       inkscape:persp3d-origin="0.5 : 0.33333333 : 1"
       inkscape:vp_z="1 : 0.5 : 1"
       inkscape:vp_y="0 : 1000 : 0"
       inkscape:vp_x="0 : 0.5 : 1"
       sodipodi:type="inkscape:persp3d" />
    <inkscape:perspective
       id="perspective2838"
       inkscape:persp3d-origin="0.5 : 0.33333333 : 1"
       inkscape:vp_z="1 : 0.5 : 1"
       inkscape:vp_y="0 : 1000 : 0"
       inkscape:vp_x="0 : 0.5 : 1"
       sodipodi:type="inkscape:persp3d" />
    <inkscape:perspective
       id="perspective2852"
       inkscape:persp3d-origin="0.5 : 0.33333333 : 1"
       inkscape:vp_z="1 : 0.5 : 1"
       inkscape:vp_y="0 : 1000 : 0"
       inkscape:vp_x="0 : 0.5 : 1"
       sodipodi:type="inkscape:persp3d" />
    <inkscape:perspective
       id="perspective2866"
       inkscape:persp3d-origin="0.5 : 0.33333333 : 1"
       inkscape:vp_z="1 : 0.5 : 1"
       inkscape:vp_y="0 : 1000 : 0"
       inkscape:vp_x="0 : 0.5 : 1"
       sodipodi:type="inkscape:persp3d" />
    <inkscape:perspective
       id="perspective2880"
       inkscape:persp3d-origin="0.5 : 0.33333333 : 1"
       inkscape:vp_z="1 : 0.5 : 1"
       inkscape:vp_y="0 : 1000 : 0"
       inkscape:vp_x="0 : 0.5 : 1"
       sodipodi:type="inkscape:persp3d" />
    <inkscape:perspective
       id="perspective2894"
       inkscape:persp3d-origin="0.5 : 0.33333333 : 1"
       inkscape:vp_z="1 : 0.5 : 1"
       inkscape:vp_y="0 : 1000 : 0"
       inkscape:vp_x="0 : 0.5 : 1"
       sodipodi:type="inkscape:persp3d" />
  </defs>
  <sodipodi:namedview
     id="base"
     pagecolor="#ffffff"
     bordercolor="#666666"
     borderopacity="1.0"
     inkscape:pageopacity="0.0"
     inkscape:pageshadow="2"
     inkscape:zoom="1.1360081"
     inkscape:cx="321.86742"
     inkscape:cy="327.10929"
     inkscape:document-units="px"
     inkscape:current-layer="layer1"
     showgrid="false"
     showguides="true"
     inkscape:guide-bbox="true"
     inkscape:snap-global="false"
     inkscape:snap-object-midpoints="true"
     inkscape:snap-center="true"
     inkscape:object-paths="true"
     inkscape:window-width="1600"
     inkscape:window-height="899"
     inkscape:window-x="0"
     inkscape:window-y="0"
     inkscape:window-maximized="1"
     fit-margin-top="0"
     fit-margin-left="0"
     fit-margin-right="0"
     fit-margin-bottom="0" />
  <metadata
     id="metadata7">
    <rdf:RDF>
      <cc:Work
         rdf:about="">
        <dc:format>image/svg+xml</dc:format>
        <dc:type
           rdf:resource="http://purl.org/dc/dcmitype/StillImage" />
        <dc:title></dc:title>
      </cc:Work>
    </rdf:RDF>
  </metadata>
  <g
     inkscape:label="Layer 1"
     inkscape:groupmode="layer"
     id="layer1"
     transform="translate(116.06091,566.56183)">
    <rect
       style="fill:#d00000;fill-opacity:1;fill-rule:nonzero;stroke:none"
       id="rect3812"
       width="659.30933"
       height="893.93475"
       x="-116.06091"
       y="-566.56183" />
    <text
       xml:space="preserve"
       style="font-size:48px;font-style:normal;font-variant:normal;font-weight:normal;font-stretch:normal;line-height:125%;letter-spacing:0px;word-spacing:0px;fill:#000000;fill-opacity:1;stroke:none;font-family:Gillius ADF;-inkscape-font-specification:Gillius ADF"
       x="211.37891"
       y="-212.73283"
       id="text2992"
       sodipodi:linespacing="125%"><tspan
         sodipodi:role="line"
         x="211.37891"
         y="-212.73283"
         style="font-size:144px;font-style:normal;font-variant:normal;font-weight:bold;font-stretch:normal;text-align:center;text-anchor:middle;fill:#ffffff;font-family:Century Gothic;-inkscape-font-specification:Century Gothic Bold"
         id="tspan3002">KEEP</tspan></text>
    <text
       sodipodi:linespacing="125%"
       id="text3014"
       y="-84.732826"
       x="212.25781"
       style="font-size:48px;font-style:normal;font-variant:normal;font-weight:normal;font-stretch:normal;line-height:125%;letter-spacing:0px;word-spacing:0px;fill:#000000;fill-opacity:1;stroke:none;font-family:Gillius ADF;-inkscape-font-specification:Gillius ADF"
       xml:space="preserve"><tspan
         id="tspan3016"
         style="font-size:144px;font-style:normal;font-variant:normal;font-weight:bold;font-stretch:normal;text-align:center;text-anchor:middle;fill:#ffffff;font-family:Century Gothic;-inkscape-font-specification:Century Gothic Bold"
         y="-84.732826"
         x="212.25781"
         sodipodi:role="line">CALM</tspan></text>
    <text
       sodipodi:linespacing="125%"
       id="text3022"
       y="115.64584"
       x="212.29297"
       style="font-size:48px;font-style:normal;font-variant:normal;font-weight:normal;font-stretch:normal;line-height:125%;letter-spacing:0px;word-spacing:0px;fill:#000000;fill-opacity:1;stroke:none;font-family:Gillius ADF;-inkscape-font-specification:Gillius ADF"
       xml:space="preserve"><tspan
         id="tspan3024"
         style="font-size:144px;font-style:normal;font-variant:normal;font-weight:bold;font-stretch:normal;text-align:center;text-anchor:middle;fill:#ffffff;font-family:Century Gothic;-inkscape-font-specification:Century Gothic Bold"
         y="115.64584"
         x="212.29297"
         sodipodi:role="line">GALAXY</tspan></text>
    <path
       inkscape:connector-curvature="0"
       style="fill:#ffffff;stroke:none"
       d="m 206.49365,-542.2546 0,2.11451 5.31538,8.98184 0,3.45305 -8.53565,-5.56757 -1.61013,0 0,14.627 1.61013,0 8.53565,-4.908 0,8.34166 c -5.88977,0.86251 -10.41737,5.93682 -10.41737,12.06631 0,6.73444 5.44826,12.2021 12.1827,12.2021 6.73444,0 12.2021,-5.46766 12.2021,-12.2021 0,-5.93278 -4.24017,-10.85916 -9.8548,-11.94991 l 0,-7.87608 8.49685,4.8886 1.51314,0 0,-13.85103 -1.51314,0 -8.49685,5.52877 0,-4.7528 5.31538,-8.98184 0,-2.11451 -14.74339,0 z m 5.31538,30.08817 0,7.2747 c -2.32362,-0.40547 -4.44341,-1.39697 -6.22714,-2.79349 1.30461,-2.29136 3.55551,-3.96236 6.22714,-4.48121 z m 4.11263,0.13579 c 2.6779,0.7075 4.87806,2.58858 6.01376,5.06319 -1.76334,1.15131 -3.81795,1.89434 -6.01376,2.15332 l 0,-7.21651 z m -25.18017,11.34854 c -3.0611,0 -5.54817,2.48706 -5.54817,5.54817 0,3.06111 2.48707,5.52877 5.54817,5.52877 3.06111,0 5.54818,-2.46766 5.54818,-5.52877 0,-3.06111 -2.48707,-5.54817 -5.54818,-5.54817 z m 45.68513,0 c -3.06111,0 -5.54817,2.48706 -5.54817,5.54817 0,3.06111 2.48706,5.52877 5.54817,5.52877 3.06111,0 5.54817,-2.46766 5.54817,-5.52877 0,-3.06111 -2.48706,-5.54817 -5.54817,-5.54817 z m -25.06377,1.29974 c 3.22153,0 6.18148,1.08827 8.55505,2.90988 -1.6501,1.56855 -3.88716,2.5219 -6.34354,2.5219 -3.27586,0 -6.14884,-1.70913 -7.77908,-4.28722 1.70606,-0.73441 3.59303,-1.14456 5.56757,-1.14456 z m -35.24836,2.4637 c -2.81622,0 -5.10199,2.28577 -5.10199,5.10199 0,2.81623 2.28577,5.10199 5.10199,5.10199 2.81622,0 5.10199,-2.28576 5.10199,-5.10199 0,-2.81622 -2.28577,-5.10199 -5.10199,-5.10199 z m 74.93913,0 c -2.81622,0 -5.10199,2.28577 -5.10199,5.10199 0,2.81623 2.28577,5.10199 5.10199,5.10199 2.81622,0 5.10199,-2.28576 5.10199,-5.10199 0,-2.81622 -2.28577,-5.10199 -5.10199,-5.10199 z m -88.24698,6.32414 c -2.51011,0 -4.53942,2.02931 -4.53942,4.53942 0,2.51011 2.02931,4.55881 4.53942,4.55881 2.51011,0 4.53941,-2.0487 4.53941,-4.55881 0,-2.51011 -2.0293,-4.53942 -4.53941,-4.53942 z m 101.55484,0 c -2.51011,0 -4.53942,2.02931 -4.53942,4.53942 0,2.51011 2.02931,4.55881 4.53942,4.55881 2.51011,0 4.53941,-2.0487 4.53941,-4.55881 0,-2.51011 -2.0293,-4.53942 -4.53941,-4.53942 z m -66.42288,1.78473 -2.05632,0.31039 c -17.40517,2.62057 -33.73405,9.46872 -46.71328,16.68331 -12.97923,7.2146 -22.49943,14.66465 -26.69331,19.18582 l 3.95744,3.66645 c 3.3754,-3.63882 12.81152,-11.15522 25.37416,-18.13826 12.03384,-6.68909 27.0487,-12.96704 42.81404,-15.67456 2.30817,5.17045 4.49687,9.94243 6.77033,21.63012 l 5.29598,0 c -2.6269,-13.5047 -5.38944,-19.96052 -7.93428,-25.76215 l -0.81476,-1.90112 z m 31.29092,0 -0.81477,1.90112 c -2.54483,5.80163 -5.30737,12.25745 -7.93428,25.76215 l 5.29599,0 c 2.27345,-11.68769 4.46216,-16.45967 6.77032,-21.63012 15.76535,2.70752 30.78021,8.98547 42.81405,15.67456 12.56263,6.98304 21.99874,14.49944 25.37415,18.13826 l 3.95744,-3.66645 c -4.19389,-4.52117 -13.71408,-11.97122 -26.6933,-19.18582 -12.97923,-7.21459 -29.30812,-14.06274 -46.71329,-16.68331 l -2.05631,-0.31039 z m -15.65516,0.36859 c -2.57134,0 -4.65581,2.08447 -4.65581,4.6558 0,2.57134 2.08447,4.65581 4.65581,4.65581 2.57133,0 4.65581,-2.08447 4.65581,-4.65581 0,-2.57133 -2.08448,-4.6558 -4.65581,-4.6558 z m -62.52364,3.72464 c -2.32645,0 -4.20963,1.88318 -4.20963,4.20963 0,2.32645 1.88318,4.20963 4.20963,4.20963 2.32645,0 4.22903,-1.88318 4.22903,-4.20963 0,-2.32645 -1.90258,-4.20963 -4.22903,-4.20963 z m 125.06668,0 c -2.32645,0 -4.22903,1.88318 -4.22903,4.20963 0,2.32645 1.90258,4.20963 4.22903,4.20963 2.32644,0 4.20962,-1.88318 4.20962,-4.20963 0,-2.32645 -1.88318,-4.20963 -4.20962,-4.20963 z m -137.03599,7.52689 c -2.204,0 -3.97684,1.79224 -3.97684,3.99624 0,2.204 1.77284,3.99624 3.97684,3.99624 2.204,0 3.99624,-1.79224 3.99624,-3.99624 0,-2.204 -1.79224,-3.99624 -3.99624,-3.99624 z m 149.00529,0 c -2.204,0 -3.99623,1.79224 -3.99623,3.99624 0,2.204 1.79223,3.99624 3.99623,3.99624 2.20399,0 3.97683,-1.79224 3.97683,-3.99624 0,-2.204 -1.77284,-3.99624 -3.97683,-3.99624 z m -74.51234,0.62078 c -2.204,0 -3.97684,1.79224 -3.97684,3.99623 0,2.204 1.77284,3.97684 3.97684,3.97684 2.204,0 3.99623,-1.77284 3.99623,-3.97684 0,-2.20399 -1.79223,-3.99623 -3.99623,-3.99623 z m -85.12371,7.3717 c -1.95911,0 -3.55006,1.59094 -3.55006,3.55005 0,1.95911 1.59095,3.55006 3.55006,3.55006 1.95911,0 3.55005,-1.59095 3.55005,-3.55006 0,-1.95911 -1.59094,-3.55005 -3.55005,-3.55005 z m 170.26681,0 c -1.95911,0 -3.55005,1.59094 -3.55005,3.55005 0,1.95911 1.59094,3.55006 3.55005,3.55006 1.95911,0 3.55005,-1.59095 3.55005,-3.55006 0,-1.95911 -1.59094,-3.55005 -3.55005,-3.55005 z m -142.77814,0.89236 c -5.12848,7.95829 -4.91634,18.20185 -1.78473,29.70018 -23.82059,-10.13774 -32.02031,20.41354 -13.96743,29.70019 -1.37952,-7.41482 -0.0579,-15.32566 7.99248,-16.17894 4.30553,-0.45636 9.36302,0.76152 9.97119,8.65204 0.42783,5.55079 -4.27653,18.80415 -19.06942,18.62324 -9.24373,-0.11477 -19.11428,-3.57681 -23.49244,-18.39044 -1.632,-5.52195 -1.60408,-5.25253 3.82165,-3.00688 2.12345,0.87887 4.81394,2.70269 9.25342,6.53753 -0.31418,-6.20301 -3.3143,-21.94421 -6.42114,-26.59631 -4.14866,2.93297 -4.59147,6.38951 -12.41549,8.63265 2.78,-5.3807 5.35887,-10.87144 9.31162,-16.83851 -8.23504,0.61438 -13.1892,2.58886 -18.62324,3.76344 1.27436,5.28487 2.56874,10.50198 4.42302,14.627 -4.07727,7.90439 -0.66537,11.4576 3.55005,15.30598 1.71663,1.56715 9.46739,24.37024 5.54818,32.14448 -2.06627,4.0987 -0.85815,8.48146 1.99811,10.41737 3.19535,2.16574 6.066,4.94844 8.67145,7.81788 3.33646,3.67452 2.56037,4.05408 6.65393,1.80413 14.41067,-7.92058 45.83047,-13.36605 82.23323,-13.36605 36.40276,0 67.82256,5.44547 82.23322,13.36605 4.09355,2.24995 3.31746,1.87039 6.65393,-1.80413 2.60544,-2.86944 5.47609,-5.65214 8.67144,-7.81788 2.85627,-1.93591 4.06439,-6.31867 1.99812,-10.41737 -3.91921,-7.77424 3.83154,-30.57733 5.54817,-32.14448 4.21542,-3.84838 7.62733,-7.40159 3.55006,-15.30598 1.85427,-4.12502 3.14866,-9.34213 4.42301,-14.627 -5.43403,-1.17458 -10.38819,-3.14906 -18.62323,-3.76344 3.95275,5.96707 6.53161,11.45781 9.31162,16.83851 -7.82402,-2.24314 -8.26684,-5.69968 -12.41549,-8.63265 -3.10684,4.6521 -6.10697,20.3933 -6.42114,26.59631 4.43947,-3.83484 7.12996,-5.65866 9.25342,-6.53753 5.42572,-2.24565 5.45365,-2.51507 3.82164,3.00688 -4.37815,14.81363 -14.24871,18.27567 -23.49243,18.39044 -14.79289,0.18091 -19.49725,-13.07245 -19.06941,-18.62324 0.60816,-7.89052 5.66565,-9.1084 9.97119,-8.65204 8.05039,0.85328 9.37198,8.76412 7.99247,16.17894 18.05288,-9.28665 9.85315,-39.83793 -13.96743,-29.70019 3.13162,-11.49833 3.34376,-21.74189 -1.78472,-29.70018 -6.20022,6.23106 -13.46656,11.50861 -11.07695,28.36164 -4.4852,-3.21699 -8.38911,-6.4557 -12.41549,-5.52878 -5.4284,1.24969 -10.36843,3.4539 -11.30974,11.96931 -0.65728,5.946 2.7623,11.61618 7.3135,15.28658 0.60674,-5.83476 1.68581,-10.9211 8.20586,-11.07695 7.48679,-0.17896 8.87701,6.00433 8.65205,10.86356 -0.3115,6.72885 -9.41431,14.62406 -21.06754,13.75403 -11.68073,-0.87207 -21.80434,-10.82814 -21.63011,-22.89106 3.69774,0.88717 8.35034,4.73099 10.49497,6.57633 0.41303,0.35541 1.85576,0.32883 2.26971,0.34919 l 0,-25.21897 c -0.54244,0.012 -1.65552,-0.14298 -2.30851,0.25219 -3.35041,2.02758 -7.33222,8.4645 -9.6608,7.89548 1.80903,-7.39328 6.75045,-16.28428 6.86732,-19.30221 l -23.97742,0 c 0.11687,3.01793 5.05828,11.90893 6.86732,19.30221 -2.32858,0.56902 -6.31039,-5.8679 -9.66081,-7.89548 -0.65299,-0.39517 -1.76607,-0.24013 -2.3085,-0.25219 l 0,25.21897 c 0.41395,-0.0204 1.85668,0.006 2.2697,-0.34919 2.14464,-1.84534 6.79723,-5.68916 10.49497,-6.57633 0.17423,12.06292 -9.94938,22.01899 -21.63011,22.89106 -11.65323,0.87003 -20.75603,-7.02518 -21.06754,-13.75403 -0.22496,-4.85923 1.16527,-11.04252 8.65205,-10.86356 6.52006,0.15585 7.59912,5.24219 8.20586,11.07695 4.55121,-3.6704 7.97079,-9.34058 7.3135,-15.28658 -0.94131,-8.51541 -5.88134,-10.71962 -11.30973,-11.96931 -4.02639,-0.92692 -7.9303,2.31179 -12.41549,5.52878 2.3896,-16.85303 -4.87674,-22.13058 -11.07695,-28.36164 z m 57.63504,2.26971 c -1.59178,0 -2.87108,1.2793 -2.87108,2.87108 0,1.59178 1.2793,2.89048 2.87108,2.89048 1.59178,0 2.89048,-1.2987 2.89048,-2.89048 0,-1.59178 -1.2987,-2.87108 -2.89048,-2.87108 z m -93.77576,5.25718 c -1.59178,0 -2.89048,1.29871 -2.89048,2.89048 0,1.59178 1.2987,2.87109 2.89048,2.87109 1.59178,0 2.89048,-1.27931 2.89048,-2.87109 0,-1.59177 -1.2987,-2.89048 -2.89048,-2.89048 z m 187.57091,0 c -1.59178,0 -2.89049,1.29871 -2.89049,2.89048 0,1.59178 1.29871,2.87109 2.89049,2.87109 1.59177,0 2.89048,-1.27931 2.89048,-2.87109 0,-1.59177 -1.29871,-2.89048 -2.89048,-2.89048 z m -93.79515,25.10257 c 1.34689,0 2.4443,1.09741 2.4443,2.4443 0,1.34689 -1.09741,2.4443 -2.4443,2.4443 -1.34689,0 -2.4249,-1.09741 -2.4249,-2.4443 0,-1.34689 1.07801,-2.4443 2.4249,-2.4443 z m -106.32705,9.54441 c 0.98324,-0.0202 2.16959,1.58315 2.73529,3.74405 0.60343,2.30495 0.25903,4.38018 -0.75657,4.63641 -1.0156,0.25622 -2.32585,-1.40029 -2.92928,-3.70525 -0.60341,-2.30495 -0.25903,-4.38018 0.75657,-4.63641 0.0635,-0.016 0.12845,-0.0374 0.19399,-0.0388 z m 212.69288,0 c 0.0656,0.001 0.13052,0.0228 0.19399,0.0388 1.0156,0.25623 1.35999,2.33146 0.75657,4.63641 -0.60342,2.30496 -1.91368,3.96147 -2.92928,3.70525 -1.0156,-0.25623 -1.35998,-2.33146 -0.75657,-4.63641 0.56571,-2.1609 1.75206,-3.76427 2.73529,-3.74405 z m -106.36583,24.05502 5.72276,9.13702 -5.72276,9.15643 -5.72277,-9.15643 5.72277,-9.13702 z m -23.72523,3.16207 c 1.59178,0 2.89048,1.2793 2.89048,2.87108 0,1.59178 -1.2987,2.89048 -2.89048,2.89048 -1.59178,0 -2.87108,-1.2987 -2.87108,-2.89048 0,-1.59178 1.2793,-2.87108 2.87108,-2.87108 z m 47.48925,0 c 1.59178,0 2.87109,1.2793 2.87109,2.87108 0,1.59178 -1.27931,2.89048 -2.87109,2.89048 -1.59177,0 -2.89048,-1.2987 -2.89048,-2.89048 0,-1.59178 1.29871,-2.87108 2.89048,-2.87108 z m -69.39095,0.60137 c 5.89593,0.11593 10.71067,3.23247 11.27094,7.64329 0.6403,5.04094 -4.52773,9.85614 -11.54253,10.74716 -7.0148,0.89102 -13.21073,-2.48596 -13.85103,-7.52689 -0.64031,-5.04094 4.52772,-9.83674 11.54252,-10.72776 0.87685,-0.11138 1.73782,-0.15236 2.5801,-0.1358 z m 91.29266,0 c 0.84227,-0.0166 1.70324,0.0244 2.58009,0.1358 7.0148,0.89102 12.18283,5.68682 11.54253,10.72776 -0.6403,5.04093 -6.83623,8.41791 -13.85103,7.52689 -7.01481,-0.89102 -12.18284,-5.70622 -11.54253,-10.74716 0.56027,-4.41082 5.37501,-7.52736 11.27094,-7.64329 z m -120.04228,8.14767 c 1.59177,0 2.89048,1.2987 2.89048,2.89048 0,1.59178 -1.29871,2.87108 -2.89048,2.87108 -1.59178,0 -2.89049,-1.2793 -2.89049,-2.87108 0,-1.59178 1.29871,-2.89048 2.89049,-2.89048 z m 148.79189,0 c 1.59178,0 2.89048,1.2987 2.89048,2.89048 0,1.59178 -1.2987,2.87108 -2.89048,2.87108 -1.59177,0 -2.89047,-1.2793 -2.89047,-2.87108 0,-1.59178 1.2987,-2.89048 2.89047,-2.89048 z m -96.58863,3.22027 c 1.59177,0 2.89048,1.2793 2.89048,2.87108 0,1.59178 -1.29871,2.89048 -2.89048,2.89048 -1.59178,0 -2.87109,-1.2987 -2.87109,-2.89048 0,-1.59178 1.27931,-2.87108 2.87109,-2.87108 z m 44.38538,0 c 1.59178,0 2.87108,1.2793 2.87108,2.87108 0,1.59178 -1.2793,2.89048 -2.87108,2.89048 -1.59178,0 -2.89048,-1.2987 -2.89048,-2.89048 0,-1.59178 1.2987,-2.87108 2.89048,-2.87108 z m -116.16244,2.94868 6.14955,5.00499 -1.78473,7.74028 -6.16895,-5.02439 1.80413,-7.72088 z m 187.93949,0 1.80412,7.72088 -6.16894,5.02439 -1.78473,-7.74028 6.14955,-5.00499 z m -166.25118,5.47057 c 1.59178,0 2.87108,1.29871 2.87108,2.89048 0,1.59178 -1.2793,2.87109 -2.87108,2.87109 -1.59178,0 -2.89048,-1.27931 -2.89048,-2.87109 0,-1.59177 1.2987,-2.89048 2.89048,-2.89048 z m 144.56288,0 c 1.59177,0 2.89047,1.29871 2.89047,2.89048 0,1.59178 -1.2987,2.87109 -2.89047,2.87109 -1.59178,0 -2.87109,-1.27931 -2.87109,-2.87109 0,-1.59177 1.27931,-2.89048 2.87109,-2.89048 z m -72.28144,6.94492 c -44.9371,0 -81.36027,9.19359 -81.36027,14.41361 0,4.77704 36.42317,12.95867 81.36027,12.95867 44.9371,0 81.36025,-8.18163 81.36025,-12.95867 0,-5.22002 -36.42315,-14.41361 -81.36025,-14.41361 z"
       id="path2902" />
    <text
       sodipodi:linespacing="125%"
       id="text3026"
       y="-14.527789"
       x="214.29103"
       style="font-size:19.50869751px;font-style:normal;font-variant:normal;font-weight:normal;font-stretch:normal;line-height:125%;letter-spacing:0px;word-spacing:0px;fill:#000000;fill-opacity:1;stroke:none;font-family:Gillius ADF;-inkscape-font-specification:Gillius ADF"
       xml:space="preserve"><tspan
         id="tspan3028"
         style="font-size:58.52608871px;font-style:normal;font-variant:normal;font-weight:bold;font-stretch:normal;text-align:center;text-anchor:middle;fill:#ffffff;font-family:Gillius ADF No2;-inkscape-font-specification:Gillius ADF No2 Bold"
         y="-14.527789"
         x="214.29103"
         sodipodi:role="line">AND USE</tspan></text>
    <g
       id="g3091"
       transform="translate(22,-4)">
      <path
         transform="matrix(1.3928695,0,0,1.3928695,175.64932,35.980622)"
         d="m 240.45457,165.70003 c 0,9.60921 -7.78981,17.39902 -17.39903,17.39902 -9.60922,0 -17.39902,-7.78981 -17.39902,-17.39902 0,-9.60922 7.7898,-17.39903 17.39902,-17.39903 9.60922,0 17.39903,7.78981 17.39903,17.39903 z"
         sodipodi:ry="17.399027"
         sodipodi:rx="17.399027"
         sodipodi:cy="165.70003"
         sodipodi:cx="223.05554"
         id="path3165-7"
         style="fill:#89c5c6;fill-opacity:1;stroke:none"
         sodipodi:type="arc" />
      <path
         sodipodi:type="arc"
         style="fill:#d00000;fill-opacity:1;stroke:none"
         id="path3935-9"
         sodipodi:cx="223.05554"
         sodipodi:cy="165.70003"
         sodipodi:rx="17.399027"
         sodipodi:ry="17.399027"
         d="m 240.45457,165.70003 c 0,9.60921 -7.78981,17.39902 -17.39903,17.39902 -9.60922,0 -17.39902,-7.78981 -17.39902,-17.39902 0,-9.60922 7.7898,-17.39903 17.39902,-17.39903 9.60922,0 17.39903,7.78981 17.39903,17.39903 z"
         transform="matrix(0.78464981,0,0,0.78464981,311.3161,136.76265)" />
      <path
         d="m 412.39059,184.37661 c 0,-0.77529 0.62249,-1.47397 1.47539,-1.47397 l 32.13727,0 c 0.85087,0 1.47539,0.69868 1.47539,1.47397 l 0,8.46168 c 0,0.77529 -0.62452,1.47397 -1.47539,1.47397 l -21.50232,0 0,11.17741 17.69662,0 c 0.7761,0 1.47539,0.69889 1.47539,1.4764 l 0,8.45946 c 0,0.7775 -0.69929,1.47619 -1.47539,1.47619 l -17.69662,0 0,18.86097 c 0,0.77751 -0.6993,1.47619 -1.47741,1.47619 l -9.15754,0 c -0.8529,0 -1.47539,-0.69868 -1.47539,-1.47619 l 0,-51.38608"
         style="fill:#89c5c6;fill-opacity:1;fill-rule:nonzero;stroke:none"
         id="path54-1-3"
         inkscape:connector-curvature="0" />
      <path
         d="m 462.91978,184.38478 c 0,-0.77958 0.70315,-1.48214 1.48558,-1.48214 l 9.28747,0 c 0.85762,0 1.48558,0.70256 1.48558,1.48214 l 0,19.6701 22.3224,0 0,-19.6701 c 0,-0.77958 0.62393,-1.48214 1.48154,-1.48214 l 9.28746,0 c 0.78242,0 1.48356,0.70256 1.48356,1.48214 l 0,51.67042 c 0,0.78181 -0.70114,1.48436 -1.48356,1.48436 l -9.28746,0 c -0.85761,0 -1.48154,-0.70255 -1.48154,-1.48436 l 0,-20.52754 -22.3224,0 0,20.52754 c 0,0.78181 -0.62796,1.48436 -1.48558,1.48436 l -9.28747,0 c -0.78243,0 -1.48558,-0.70255 -1.48558,-1.48436 l 0,-51.67042"
         style="fill:#89c5c6;fill-opacity:1;fill-rule:nonzero;stroke:none"
         id="path62-6-5"
         inkscape:connector-curvature="0" />
      <path
         sodipodi:nodetypes="sccssccss"
         inkscape:connector-curvature="0"
         id="path3160-8"
         d="m 438.92594,243.1921 c -0.82348,0 -1.50114,0.68016 -1.50114,1.50108 0,15.90472 0,28.76457 0,44.81958 0,0.82083 0.67766,1.50096 1.50114,1.50096 l 7.7201,0 c 0.8192,0 1.50114,-0.68013 1.50114,-1.50096 0,-14.89731 0,-31.44429 0,-44.81958 0,-0.82092 -0.68194,-1.50108 -1.50114,-1.50108 z"
         style="fill:#89c5c6;fill-opacity:1;fill-rule:nonzero;stroke:none" />
      <path
         transform="matrix(1.790477,0,0,1.790477,795.76811,438.80676)"
         d="m -206.46024,-86.560661 c 0,2.218382 -1.79835,4.016736 -4.01673,4.016736 -2.21839,0 -4.01674,-1.798354 -4.01674,-4.016736 0,-2.218383 1.79835,-4.016737 4.01674,-4.016737 2.21838,0 4.01673,1.798354 4.01673,4.016737 z"
         sodipodi:ry="4.0167365"
         sodipodi:rx="4.0167365"
         sodipodi:cy="-86.560661"
         sodipodi:cx="-210.47697"
         id="path3267-2"
         style="fill:#89c5c6;fill-opacity:1;stroke:none"
         sodipodi:type="arc" />
    </g>
    <flowRoot
       xml:space="preserve"
       id="flowRoot3056"
       style="font-size:48px;font-style:normal;font-variant:normal;font-weight:normal;font-stretch:normal;line-height:125%;letter-spacing:0px;word-spacing:0px;fill:#e6e6e6;fill-opacity:1;stroke:none;font-family:'2CA19B_0_0';-inkscape-font-specification:'2CA19B_0_0'"
       transform="translate(11.754992,-230.0014)"><flowRegion
         id="flowRegion3058"><rect
           id="rect3060"
           width="499.48907"
           height="143.47031"
           x="-108.04552"
           y="401.18149"
           style="fill:#e6e6e6" /></flowRegion><flowPara
         style="font-size:21px;fill:#e6e6e6"
         id="flowPara3064">Have a <flowSpan
   style="font-style:italic;-inkscape-font-specification:'2CA19B_0_0 Italic'"
   id="flowSpan3099">ton</flowSpan> of data to analyze? Fred Hutch computing power is now accessible via a web interface to process data through complex pipelines. Come learn how. </flowPara><flowPara
         style="font-size:21px;fill:#e6e6e6"
         id="flowPara3070"><flowSpan
   style="font-style:normal;font-variant:normal;font-weight:bold;font-stretch:normal;fill:#e6e6e6;font-family:'2CA19B_1_0';-inkscape-font-specification:'2CA19B_1_0 Bold'"
   id="flowSpan3074">Rollout and Galaxy 101:</flowSpan> 2pm Thursday March 12</flowPara><flowPara
         style="font-size:21px;fill:#e6e6e6"
         id="flowPara3078">Sign up at...</flowPara><flowPara
         style="font-size:21px;fill:#e6e6e6"
         id="flowPara3072" /></flowRoot>    <text
       xml:space="preserve"
       style="font-size:21px;font-style:normal;font-variant:normal;font-weight:normal;font-stretch:normal;line-height:125%;letter-spacing:0px;word-spacing:0px;fill:#e6e6e6;fill-opacity:1;stroke:none;font-family:'2CA19B_1_0';-inkscape-font-specification:'2CA19B_1_0'"
       x="361.75522"
       y="319.31534"
       id="text3080"
       sodipodi:linespacing="125%"><tspan
         sodipodi:role="line"
         id="tspan3082"
         x="361.75522"
         y="319.31534">http://fredhutch.io/</tspan></text>
  </g>
</svg>
