<?xml version="1.0" encoding="UTF-8" standalone="no"?>
<!-- Created with Inkscape (http://www.inkscape.org/) -->

<svg
   xmlns:dc="http://purl.org/dc/elements/1.1/"
   xmlns:cc="http://creativecommons.org/ns#"
   xmlns:rdf="http://www.w3.org/1999/02/22-rdf-syntax-ns#"
   xmlns:svg="http://www.w3.org/2000/svg"
   xmlns="http://www.w3.org/2000/svg"
   xmlns:sodipodi="http://sodipodi.sourceforge.net/DTD/sodipodi-0.dtd"
   xmlns:inkscape="http://www.inkscape.org/namespaces/inkscape"
   width="765"
   height="990"
   id="svg2"
   version="1.1"
   inkscape:version="0.91 r13725"
   sodipodi:docname="i-heart-pandas.svg"
   inkscape:export-filename="/home/matsen/galaxy-poster.png"
   inkscape:export-xdpi="90"
   inkscape:export-ydpi="90">
  <defs
     id="defs4">
    <inkscape:perspective
       sodipodi:type="inkscape:persp3d"
       inkscape:vp_x="0 : 526.18109 : 1"
       inkscape:vp_y="0 : 1000 : 0"
       inkscape:vp_z="744.09448 : 526.18109 : 1"
       inkscape:persp3d-origin="372.04724 : 350.78739 : 1"
       id="perspective10" />
    <inkscape:perspective
       id="perspective2824"
       inkscape:persp3d-origin="0.5 : 0.33333333 : 1"
       inkscape:vp_z="1 : 0.5 : 1"
       inkscape:vp_y="0 : 1000 : 0"
       inkscape:vp_x="0 : 0.5 : 1"
       sodipodi:type="inkscape:persp3d" />
    <inkscape:perspective
       id="perspective2838"
       inkscape:persp3d-origin="0.5 : 0.33333333 : 1"
       inkscape:vp_z="1 : 0.5 : 1"
       inkscape:vp_y="0 : 1000 : 0"
       inkscape:vp_x="0 : 0.5 : 1"
       sodipodi:type="inkscape:persp3d" />
    <inkscape:perspective
       id="perspective2852"
       inkscape:persp3d-origin="0.5 : 0.33333333 : 1"
       inkscape:vp_z="1 : 0.5 : 1"
       inkscape:vp_y="0 : 1000 : 0"
       inkscape:vp_x="0 : 0.5 : 1"
       sodipodi:type="inkscape:persp3d" />
    <inkscape:perspective
       id="perspective2866"
       inkscape:persp3d-origin="0.5 : 0.33333333 : 1"
       inkscape:vp_z="1 : 0.5 : 1"
       inkscape:vp_y="0 : 1000 : 0"
       inkscape:vp_x="0 : 0.5 : 1"
       sodipodi:type="inkscape:persp3d" />
    <inkscape:perspective
       id="perspective2880"
       inkscape:persp3d-origin="0.5 : 0.33333333 : 1"
       inkscape:vp_z="1 : 0.5 : 1"
       inkscape:vp_y="0 : 1000 : 0"
       inkscape:vp_x="0 : 0.5 : 1"
       sodipodi:type="inkscape:persp3d" />
    <inkscape:perspective
       id="perspective2894"
       inkscape:persp3d-origin="0.5 : 0.33333333 : 1"
       inkscape:vp_z="1 : 0.5 : 1"
       inkscape:vp_y="0 : 1000 : 0"
       inkscape:vp_x="0 : 0.5 : 1"
       sodipodi:type="inkscape:persp3d" />
  </defs>
  <sodipodi:namedview
     id="base"
     pagecolor="#ffffff"
     bordercolor="#666666"
     borderopacity="1.0"
     inkscape:pageopacity="0.0"
     inkscape:pageshadow="2"
     inkscape:zoom="0.60707071"
     inkscape:cx="9.7311472"
     inkscape:cy="466.31647"
     inkscape:document-units="px"
     inkscape:current-layer="layer1"
     showgrid="false"
     showguides="true"
     inkscape:guide-bbox="true"
     inkscape:snap-global="false"
     inkscape:snap-object-midpoints="true"
     inkscape:snap-center="true"
     inkscape:object-paths="true"
     inkscape:window-width="1280"
     inkscape:window-height="814"
     inkscape:window-x="0"
     inkscape:window-y="0"
     inkscape:window-maximized="0"
     fit-margin-top="0"
     fit-margin-left="0"
     fit-margin-right="0"
     fit-margin-bottom="0" />
  <metadata
     id="metadata7">
    <rdf:RDF>
      <cc:Work
         rdf:about="">
        <dc:format>image/svg+xml</dc:format>
        <dc:type
           rdf:resource="http://purl.org/dc/dcmitype/StillImage" />
        <dc:title />
      </cc:Work>
    </rdf:RDF>
  </metadata>
  <g
     inkscape:label="Layer 1"
     inkscape:groupmode="layer"
     id="layer1"
     transform="translate(116.06091,662.62708)">
    <flowRoot
       xml:space="preserve"
       id="flowRoot3056"
       style="font-style:normal;font-variant:normal;font-weight:normal;font-stretch:normal;font-size:48px;line-height:125%;font-family:'2CA19B_0_0';-inkscape-font-specification:'2CA19B_0_0';letter-spacing:0px;word-spacing:0px;fill:#000000;fill-opacity:1;stroke:none"
       transform="matrix(1.1063498,0,0,1.1063498,25.348183,-565.66404)"><flowRegion
         id="flowRegion3058"><rect
           id="rect3060"
           width="621.68195"
           height="299.90826"
           x="-108.04552"
           y="401.18149"
           style="fill:#000000;fill-opacity:1" /></flowRegion><flowPara
         style="font-size:21px;fill:#000000;fill-opacity:1"
         id="flowPara3394">Modern biology generates a lot of data, sometimes more than can be comfortably processed with a spreadsheet program. This workshop will get you started with the<flowSpan
   style="font-style:italic"
   id="flowSpan3388"> pandas </flowSpan>data analysis library for Python. We will be using the web-based Jupyter interactive computing environment, newly available on the Fred Hutch network. These classes will assume proficiency with computer programming in some language.</flowPara><flowPara
         style="font-size:21px;fill:#000000;fill-opacity:1"
         id="flowPara3488" /><flowPara
         style="font-size:21px;fill:#000000;fill-opacity:1"
         id="flowPara3839">1st class  9-10am Tues March 1st (Erick Matsen): Jupyter &amp; Python</flowPara><flowPara
         style="font-size:21px;fill:#000000;fill-opacity:1"
         id="flowPara3396">2st class  9-10am Tues March 8th (Jake VanderPlas): <flowSpan
   style="font-style:italic"
   id="flowSpan3381">pandas</flowSpan></flowPara><flowPara
         style="font-size:21px;fill:#000000;fill-opacity:1"
         id="flowPara3494">Registration required. Details at http://fredhutch.io/.</flowPara><flowPara
         style="font-size:21px;fill:#000000;fill-opacity:1"
         id="flowPara3072" /></flowRoot>    <g
       id="g3046"
       transform="translate(-2,-6)">
      <g
         transform="matrix(1.1063498,0,0,1.1063498,40.557692,-30.816031)"
         id="g3795">
        <path
           sodipodi:type="arc"
           style="fill:#1b334b;fill-opacity:1;stroke:none"
           id="path3165-7"
           sodipodi:cx="223.05554"
           sodipodi:cy="165.70003"
           sodipodi:rx="17.399027"
           sodipodi:ry="17.399027"
           d="m 240.45457,165.70003 a 17.399027,17.399027 0 0 1 -17.39903,17.39902 17.399027,17.399027 0 0 1 -17.39902,-17.39902 17.399027,17.399027 0 0 1 17.39902,-17.39903 17.399027,17.399027 0 0 1 17.39903,17.39903 z"
           transform="matrix(1.3928695,0,0,1.3928695,197.64932,31.980622)" />
        <path
           transform="matrix(0.78464981,0,0,0.78464981,333.3161,132.76265)"
           d="m 240.45457,165.70003 a 17.399027,17.399027 0 0 1 -17.39903,17.39902 17.399027,17.399027 0 0 1 -17.39902,-17.39902 17.399027,17.399027 0 0 1 17.39902,-17.39903 17.399027,17.399027 0 0 1 17.39903,17.39903 z"
           sodipodi:ry="17.399027"
           sodipodi:rx="17.399027"
           sodipodi:cy="165.70003"
           sodipodi:cx="223.05554"
           id="path3935-9"
           style="fill:#ffffff;fill-opacity:1;stroke:none"
           sodipodi:type="arc" />
        <path
           inkscape:connector-curvature="0"
           id="path54-1-3"
           style="fill:#1b334b;fill-opacity:1;fill-rule:nonzero;stroke:none"
           d="m 434.39059,180.37661 c 0,-0.77529 0.62249,-1.47397 1.47539,-1.47397 l 32.13727,0 c 0.85087,0 1.47539,0.69868 1.47539,1.47397 l 0,8.46168 c 0,0.77529 -0.62452,1.47397 -1.47539,1.47397 l -21.50232,0 0,11.17741 17.69662,0 c 0.7761,0 1.47539,0.69889 1.47539,1.4764 l 0,8.45946 c 0,0.7775 -0.69929,1.47619 -1.47539,1.47619 l -17.69662,0 0,18.86097 c 0,0.77751 -0.6993,1.47619 -1.47741,1.47619 l -9.15754,0 c -0.8529,0 -1.47539,-0.69868 -1.47539,-1.47619 l 0,-51.38608" />
        <path
           inkscape:connector-curvature="0"
           id="path62-6-5"
           style="fill:#1b334b;fill-opacity:1;fill-rule:nonzero;stroke:none"
           d="m 484.91978,180.38478 c 0,-0.77958 0.70315,-1.48214 1.48558,-1.48214 l 9.28747,0 c 0.85762,0 1.48558,0.70256 1.48558,1.48214 l 0,19.6701 22.3224,0 0,-19.6701 c 0,-0.77958 0.62393,-1.48214 1.48154,-1.48214 l 9.28746,0 c 0.78242,0 1.48356,0.70256 1.48356,1.48214 l 0,51.67042 c 0,0.78181 -0.70114,1.48436 -1.48356,1.48436 l -9.28746,0 c -0.85761,0 -1.48154,-0.70255 -1.48154,-1.48436 l 0,-20.52754 -22.3224,0 0,20.52754 c 0,0.78181 -0.62796,1.48436 -1.48558,1.48436 l -9.28747,0 c -0.78243,0 -1.48558,-0.70255 -1.48558,-1.48436 l 0,-51.67042" />
        <path
           style="fill:#1b334b;fill-opacity:1;fill-rule:nonzero;stroke:none"
           d="m 460.92594,239.1921 c -0.82348,0 -1.50114,0.68016 -1.50114,1.50108 0,15.90472 0,28.76457 0,44.81958 0,0.82083 0.67766,1.50096 1.50114,1.50096 l 7.7201,0 c 0.8192,0 1.50114,-0.68013 1.50114,-1.50096 0,-14.89731 0,-31.44429 0,-44.81958 0,-0.82092 -0.68194,-1.50108 -1.50114,-1.50108 z"
           id="path3160-8"
           inkscape:connector-curvature="0"
           sodipodi:nodetypes="sccssccss" />
        <path
           sodipodi:type="arc"
           style="fill:#1b334b;fill-opacity:1;stroke:none"
           id="path3267-2"
           sodipodi:cx="-210.47697"
           sodipodi:cy="-86.560661"
           sodipodi:rx="4.0167365"
           sodipodi:ry="4.0167365"
           d="m -206.46024,-86.560661 a 4.0167365,4.0167365 0 0 1 -4.01673,4.016736 4.0167365,4.0167365 0 0 1 -4.01674,-4.016736 4.0167365,4.0167365 0 0 1 4.01674,-4.016737 4.0167365,4.0167365 0 0 1 4.01673,4.016737 z"
           transform="matrix(1.790477,0,0,1.790477,817.76811,434.80676)" />
      </g>
      <text
         sodipodi:linespacing="125%"
         id="text3080"
         y="318.4584"
         x="514.19006"
         style="font-size:23.23334503px;font-style:normal;font-variant:normal;font-weight:normal;font-stretch:normal;line-height:125%;letter-spacing:0px;word-spacing:0px;fill:#1b334b;fill-opacity:1;stroke:none;font-family:'2CA19B_1_0';-inkscape-font-specification:'2CA19B_1_0'"
         xml:space="preserve"><tspan
           y="318.4584"
           x="514.19006"
           id="tspan3082"
           sodipodi:role="line">fredhutch.io</tspan></text>
    </g>
    <path
       style="fill:#29abe2;fill-opacity:1;stroke:none"
       d=""
       id="path3325"
       inkscape:connector-curvature="0"
       transform="translate(-116.06091,-662.62708)" />
    <flowRoot
       transform="matrix(1.1063498,0,0,1.1063498,17.878794,-1087.2573)"
       style="font-size:48px;font-style:normal;font-variant:normal;font-weight:normal;font-stretch:normal;line-height:125%;letter-spacing:0px;word-spacing:0px;fill:#000000;fill-opacity:1;stroke:none;font-family:'2CA19B_0_0';-inkscape-font-specification:'2CA19B_0_0'"
       id="flowRoot3414"
       xml:space="preserve"><flowRegion
         id="flowRegion3416"><rect
           style="fill:#000000;fill-opacity:1"
           y="401.18149"
           x="-108.04552"
           height="143.47031"
           width="499.48907"
           id="rect3418" /></flowRegion><flowPara
         id="flowPara3432"
         style="font-size:21px;fill:#000000;fill-opacity:1" /></flowRoot>    <text
       xml:space="preserve"
       style="font-style:normal;font-variant:normal;font-weight:normal;font-stretch:normal;font-size:47.81473923px;line-height:100%;font-family:'2CA19B_0_0';-inkscape-font-specification:'2CA19B_0_0';text-align:start;letter-spacing:0px;word-spacing:0px;writing-mode:lr-tb;text-anchor:start;fill:#000000;fill-opacity:1;stroke:none"
       x="-96.910751"
       y="-253.651"
       id="text4219"
       sodipodi:linespacing="100%"><tspan
         sodipodi:role="line"
         x="-96.910751"
         y="-253.651"
         style="font-style:italic;font-variant:normal;font-weight:normal;font-stretch:normal;font-size:47.81473923px;line-height:100%;font-family:'2CA19B_0_0';-inkscape-font-specification:'2CA19B_0_0 Italic';text-align:start;writing-mode:lr-tb;text-anchor:start"
         id="tspan4258">Upcoming workshop:</tspan><tspan
         sodipodi:role="line"
         x="-96.910751"
         y="-205.83626"
         style="font-style:normal;font-variant:normal;font-weight:normal;font-stretch:normal;font-size:47.81473923px;line-height:100%;font-family:'2CA19B_0_0';-inkscape-font-specification:'2CA19B_0_0';text-align:start;writing-mode:lr-tb;text-anchor:start"
         id="tspan4264">Making your data dance with</tspan><tspan
         sodipodi:role="line"
         x="-96.910751"
         y="-158.02153"
         style="font-style:normal;font-variant:normal;font-weight:normal;font-stretch:normal;font-size:47.81473923px;line-height:100%;font-family:'2CA19B_0_0';-inkscape-font-specification:'2CA19B_0_0';text-align:start;writing-mode:lr-tb;text-anchor:start"
         id="tspan3386">Python, Jupyter and <tspan
   style="font-style:italic"
   id="tspan3383">pandas</tspan>.</tspan></text>
    <text
       xml:space="preserve"
       style="font-style:normal;font-variant:normal;font-weight:normal;font-stretch:normal;font-size:50px;line-height:125%;font-family:Lato, Arial, Helvetica, sans-serif;-inkscape-font-specification:'Lato, Arial, Helvetica, sans-serif, Normal';text-align:start;letter-spacing:0px;word-spacing:0px;writing-mode:lr-tb;text-anchor:start;fill:#000000;fill-opacity:1;stroke:none;stroke-width:1px;stroke-linecap:butt;stroke-linejoin:miter;stroke-opacity:1"
       x="137.61629"
       y="-471.54556"
       id="text5349"
       sodipodi:linespacing="125%"><tspan
         sodipodi:role="line"
         id="tspan5351"
         x="137.61629"
         y="-471.54556" /></text>
    <path
       style="fill:#000000"
       d="m 497.55075,-381.13384 c -28.7736,-3.08883 -45.64632,-7.97814 -62.16865,-18.01491 -17.83949,-10.83692 -29.85936,-26.26872 -35.97294,-46.18411 -4.10085,-13.35885 -3.65388,-50.21142 0.79515,-65.55865 l 3.41209,-11.77027 -5.85965,-11.7148 c -10.61161,-21.21512 -9.75742,-36.11129 2.79023,-48.65894 12.02614,-12.02614 29.39825,-14.1018 47.26863,-5.64775 9.63324,4.55726 18.40279,5.05479 29.41838,1.66905 12.97229,-3.98713 37.36662,-4.62061 52.15123,-1.35426 17.34913,3.83293 26.17552,3.48381 35.72756,-1.41319 19.73063,-10.11522 41.66843,-4.83387 51.811,12.47312 3.34919,5.71498 4.02881,8.7097 4.02881,17.75301 0,9.53766 -0.69281,12.25148 -5.62145,22.01983 l -5.62146,11.14147 3.81341,12.12133 c 4.69917,14.93681 6.74937,35.03696 5.14747,50.466 -3.88515,37.42082 -22.86553,60.94861 -60.03804,74.42217 -14.98115,5.43009 -47.03053,9.75931 -61.08177,8.2509 z m 37.87914,-14.84657 c 30.22714,-5.47277 55.31459,-21.86217 63.92784,-41.76347 11.28929,-26.0844 9.51436,-60.89968 -4.55426,-89.33154 -7.06926,-14.28658 -25.75968,-33.73205 -38.32791,-39.87626 -21.50925,-10.51519 -48.27029,-13.84521 -71.04614,-8.84065 -32.98462,7.24777 -53.62083,23.86594 -68.12494,54.86051 -14.65917,31.32593 -11.18822,76.03181 7.561,97.38602 10.56334,12.03096 32.37073,23.33607 52.98811,27.46941 13.04078,2.61439 43.38729,2.66498 57.5763,0.0959 z m -36.66831,-17.44149 c -8.57571,-1.69208 -17.87766,-8.45242 -17.87766,-12.99289 0,-4.46439 4.50532,-5.19445 7.76911,-1.25896 7.0774,8.53399 28.90003,8.53399 35.97743,0 2.33561,-2.81629 7.08243,-3.32912 8.56787,-0.92565 1.57747,2.55241 -3.41979,8.7569 -9.53312,11.8361 -6.83449,3.44243 -17.28503,4.84461 -24.90363,3.3414 z m 64.69888,-20.20364 c -2.50002,-1.02231 -6.08819,-2.73961 -7.97371,-3.81623 -4.93277,-2.81657 -26.04697,-28.63103 -29.33063,-35.85996 -5.78546,-12.73665 -2.18586,-26.89921 8.68042,-34.15293 4.73514,-3.16091 7.4484,-3.78223 16.39158,-3.75358 13.31835,0.0427 19.32244,2.79202 32.00438,14.65536 11.53372,10.78923 16.18168,20.47859 16.30887,33.99824 0.16526,17.56609 -9.30699,28.94629 -25.18844,30.26203 -3.49084,0.28921 -8.39244,-0.31061 -10.89247,-1.33293 z m -7.50696,-44.21452 c 10.49642,-10.49641 -4.67986,-25.88055 -15.50166,-15.714 -2.08637,1.96005 -3.50678,5.05649 -3.50678,7.64471 0,5.47893 6.08216,11.78834 11.36374,11.78834 2.15912,0 5.59922,-1.67358 7.6447,-3.71905 z m -126.55502,40.45947 c -10.53089,-5.29091 -15.53612,-19.365 -12.19263,-34.28426 2.18567,-9.75291 3.63455,-12.23707 12.77274,-21.89936 10.06622,-10.64354 20.26357,-15.85135 31.20817,-15.93809 21.01313,-0.16655 32.94542,17.47224 24.44727,36.13887 -4.27123,9.38194 -23.84823,32.20887 -30.55967,35.63279 -7.33507,3.74209 -18.61829,3.89591 -25.67588,0.35005 z m 43.22091,-40.45947 c 2.1329,-2.1329 3.71903,-5.48384 3.71903,-7.85697 0,-5.56321 -5.48185,-11.15147 -10.93915,-11.15147 -5.47893,0 -11.78834,6.08215 -11.78834,11.36374 0,2.15912 1.67358,5.59922 3.71906,7.6447 2.04547,2.04547 5.48558,3.71905 7.64469,3.71905 2.15911,0 5.59923,-1.67358 7.64471,-3.71905 z m 27.42009,40.04029 c -7.27711,-2.18075 -10.06456,-5.7845 -10.06456,-13.01197 0,-7.60824 3.61179,-11.88451 11.99216,-14.19844 10.95122,-3.02377 22.85665,4.06879 22.85665,13.61666 0,5.78355 -5.17624,11.73303 -11.81146,13.57585 -6.42126,1.7834 -7.07834,1.78431 -12.97279,0.0179 z"
       id="path5957"
       inkscape:connector-curvature="0" />
    <text
       xml:space="preserve"
       style="font-style:normal;font-variant:normal;font-weight:normal;font-stretch:normal;font-size:267.0664978px;line-height:125%;font-family:Lato, Arial, Helvetica, sans-serif;-inkscape-font-specification:'Lato, Arial, Helvetica, sans-serif, Normal';text-align:start;letter-spacing:0px;word-spacing:0px;writing-mode:lr-tb;text-anchor:start;fill:#000000;fill-opacity:1;stroke:none;stroke-width:1px;stroke-linecap:butt;stroke-linejoin:miter;stroke-opacity:1"
       x="-102.81001"
       y="-390.51505"
       id="text5976"
       sodipodi:linespacing="125%"><tspan
         sodipodi:role="line"
         id="tspan5978"
         x="-102.81001"
         y="-390.51505"
         style="font-style:normal;font-variant:normal;font-weight:normal;font-stretch:normal;font-family:serif;-inkscape-font-specification:serif">I</tspan></text>
    <g
       transform="matrix(0.34594956,0,0,0.34594956,77.611788,-590.04373)"
       id="layer1-0">
      <path
         inkscape:connector-curvature="0"
         d="M 297.29747,550.86823 C 283.52243,535.43191 249.1268,505.33855 220.86277,483.99412 137.11867,420.75228 125.72108,411.5999 91.719238,380.29088 29.03471,322.57071 2.413622,264.58086 2.5048478,185.95124 2.5493594,147.56739 5.1656152,132.77929 15.914734,110.15398 34.151433,71.768267 61.014996,43.244667 95.360052,25.799457 119.68545,13.443675 131.6827,7.9542046 172.30448,7.7296236 c 42.49329,-0.234834 51.43863,4.7197234 76.43471,18.4518354 30.42451,16.714318 61.7399,52.435708 68.21323,77.810591 l 3.9981,15.6724 9.85963,-21.584508 c 55.71617,-121.972928 233.59836,-120.148052 295.50229,3.031588 19.63767,39.07605 21.79364,122.51317 4.38012,169.51287 -22.71527,61.30937 -65.38001,108.05053 -164.00634,179.67658 -64.68082,46.97364 -137.88474,118.04586 -142.98067,128.02803 -5.91548,11.58753 -0.28216,1.8159 -26.40808,-27.46078 z"
         id="path2417"
         style="fill:#ff0000" />
      <g
         transform="translate(129.28571,-64.285714)"
         id="g2221" />
    </g>
    <flowRoot
       style="font-style:normal;font-variant:normal;font-weight:normal;font-stretch:normal;font-size:53.10478973px;line-height:125%;font-family:'2CA19B_0_0';-inkscape-font-specification:'2CA19B_0_0';letter-spacing:0px;word-spacing:0px;fill:#000000;fill-opacity:1;stroke:none"
       id="flowRoot3404"
       xml:space="preserve"
       transform="translate(-4.9417637,419.75707)"><flowRegion
         id="flowRegion3406"><rect
           style="fill:#000000;fill-opacity:1"
           y="-197.81699"
           x="-94.18795"
           height="153.89993"
           width="590.60968"
           id="rect3408" /></flowRegion><flowPara
         style="font-size:23.23334503px;fill:#000000;fill-opacity:1"
         id="flowPara3486">Jake VanderPlas is the Director of Research in Physical Sciences at the UW eScience Institute. He is a contributor to the Scikit-Learn package and creator of the mpld3 package.</flowPara></flowRoot>  </g>
</svg>
