<?xml version="1.0" encoding="UTF-8" standalone="no"?>
<!-- Created with Inkscape (http://www.inkscape.org/) -->

<svg
   xmlns:dc="http://purl.org/dc/elements/1.1/"
   xmlns:cc="http://creativecommons.org/ns#"
   xmlns:rdf="http://www.w3.org/1999/02/22-rdf-syntax-ns#"
   xmlns:svg="http://www.w3.org/2000/svg"
   xmlns="http://www.w3.org/2000/svg"
   xmlns:sodipodi="http://sodipodi.sourceforge.net/DTD/sodipodi-0.dtd"
   xmlns:inkscape="http://www.inkscape.org/namespaces/inkscape"
   width="765"
   height="990"
   id="svg2"
   version="1.1"
   inkscape:version="0.91 r13725"
   sodipodi:docname="julia.svg"
   inkscape:export-filename="/home/matsen/Downloads/inkscape-poster.png"
   inkscape:export-xdpi="90"
   inkscape:export-ydpi="90">
  <defs
     id="defs4">
    <inkscape:perspective
       sodipodi:type="inkscape:persp3d"
       inkscape:vp_x="0 : 526.18109 : 1"
       inkscape:vp_y="0 : 1000 : 0"
       inkscape:vp_z="744.09448 : 526.18109 : 1"
       inkscape:persp3d-origin="372.04724 : 350.78739 : 1"
       id="perspective10" />
    <inkscape:perspective
       id="perspective2824"
       inkscape:persp3d-origin="0.5 : 0.33333333 : 1"
       inkscape:vp_z="1 : 0.5 : 1"
       inkscape:vp_y="0 : 1000 : 0"
       inkscape:vp_x="0 : 0.5 : 1"
       sodipodi:type="inkscape:persp3d" />
    <inkscape:perspective
       id="perspective2838"
       inkscape:persp3d-origin="0.5 : 0.33333333 : 1"
       inkscape:vp_z="1 : 0.5 : 1"
       inkscape:vp_y="0 : 1000 : 0"
       inkscape:vp_x="0 : 0.5 : 1"
       sodipodi:type="inkscape:persp3d" />
    <inkscape:perspective
       id="perspective2852"
       inkscape:persp3d-origin="0.5 : 0.33333333 : 1"
       inkscape:vp_z="1 : 0.5 : 1"
       inkscape:vp_y="0 : 1000 : 0"
       inkscape:vp_x="0 : 0.5 : 1"
       sodipodi:type="inkscape:persp3d" />
    <inkscape:perspective
       id="perspective2866"
       inkscape:persp3d-origin="0.5 : 0.33333333 : 1"
       inkscape:vp_z="1 : 0.5 : 1"
       inkscape:vp_y="0 : 1000 : 0"
       inkscape:vp_x="0 : 0.5 : 1"
       sodipodi:type="inkscape:persp3d" />
    <inkscape:perspective
       id="perspective2880"
       inkscape:persp3d-origin="0.5 : 0.33333333 : 1"
       inkscape:vp_z="1 : 0.5 : 1"
       inkscape:vp_y="0 : 1000 : 0"
       inkscape:vp_x="0 : 0.5 : 1"
       sodipodi:type="inkscape:persp3d" />
    <inkscape:perspective
       id="perspective2894"
       inkscape:persp3d-origin="0.5 : 0.33333333 : 1"
       inkscape:vp_z="1 : 0.5 : 1"
       inkscape:vp_y="0 : 1000 : 0"
       inkscape:vp_x="0 : 0.5 : 1"
       sodipodi:type="inkscape:persp3d" />
    <inkscape:path-effect
       effect="skeletal"
       id="path-effect5704"
       is_visible="true"
       pattern="m 1.7147047,-0.99805573 0,9.99999973 10.0000003,-5 z"
       copytype="single_stretched"
       prop_scale="1"
       scale_y_rel="false"
       spacing="0"
       normal_offset="0"
       tang_offset="0"
       prop_units="false"
       vertical_pattern="false"
       fuse_tolerance="0" />
    <inkscape:path-effect
       effect="skeletal"
       id="path-effect4816"
       is_visible="true"
       pattern="m 1.7147047,-0.99805573 0,9.99999973 10.0000003,-5 z"
       copytype="single_stretched"
       prop_scale="1"
       scale_y_rel="false"
       spacing="0"
       normal_offset="0"
       tang_offset="0"
       prop_units="false"
       vertical_pattern="false"
       fuse_tolerance="0" />
    <inkscape:path-effect
       effect="skeletal"
       id="path-effect5704-3"
       is_visible="true"
       pattern="m 1.7147047,-0.99805573 0,9.99999973 10.0000003,-5 z"
       copytype="single_stretched"
       prop_scale="1"
       scale_y_rel="false"
       spacing="0"
       normal_offset="0"
       tang_offset="0"
       prop_units="false"
       vertical_pattern="false"
       fuse_tolerance="0" />
    <inkscape:path-effect
       effect="skeletal"
       id="path-effect5006"
       is_visible="true"
       pattern="m 1.7147047,-0.99805573 0,9.99999973 10.0000003,-5 z"
       copytype="single_stretched"
       prop_scale="1"
       scale_y_rel="false"
       spacing="0"
       normal_offset="0"
       tang_offset="0"
       prop_units="false"
       vertical_pattern="false"
       fuse_tolerance="0" />
  </defs>
  <sodipodi:namedview
     id="base"
     pagecolor="#ffffff"
     bordercolor="#666666"
     borderopacity="1.0"
     inkscape:pageopacity="0.0"
     inkscape:pageshadow="2"
     inkscape:zoom="0.62883379"
     inkscape:cx="382.5"
     inkscape:cy="495"
     inkscape:document-units="px"
     inkscape:current-layer="layer1"
     showgrid="false"
     showguides="true"
     inkscape:guide-bbox="true"
     inkscape:snap-global="false"
     inkscape:snap-object-midpoints="true"
     inkscape:snap-center="true"
     inkscape:object-paths="true"
     inkscape:window-width="1280"
     inkscape:window-height="799"
     inkscape:window-x="0"
     inkscape:window-y="18"
     inkscape:window-maximized="0"
     fit-margin-top="0"
     fit-margin-left="0"
     fit-margin-right="0"
     fit-margin-bottom="0" />
  <metadata
     id="metadata7">
    <rdf:RDF>
      <cc:Work
         rdf:about="">
        <dc:format>image/svg+xml</dc:format>
        <dc:type
           rdf:resource="http://purl.org/dc/dcmitype/StillImage" />
        <dc:title />
      </cc:Work>
    </rdf:RDF>
  </metadata>
  <g
     inkscape:label="Layer 1"
     inkscape:groupmode="layer"
     id="layer1"
     transform="translate(116.06091,662.62708)">
    <flowRoot
       xml:space="preserve"
       id="flowRoot3056"
       style="font-style:normal;font-variant:normal;font-weight:normal;font-stretch:normal;font-size:53.10478973px;line-height:125%;font-family:'2CA19B_0_0';-inkscape-font-specification:'2CA19B_0_0';letter-spacing:0px;word-spacing:0px;fill:#000000;fill-opacity:1;stroke:none"
       transform="translate(-6.5983605,-163.06974)"><flowRegion
         id="flowRegion3058"><rect
           id="rect3060"
           width="732.18579"
           height="121.7568"
           x="-94.18795"
           y="152.56905"
           style="fill:#000000;fill-opacity:1" /></flowRegion><flowPara
         style="font-size:23.23334503px;fill:#000000;fill-opacity:1"
         id="flowPara3072">Julia is a relatively new programming language designed for technical computing. It is designed to be simple and expressive, but perform at speeds comparable to C. It has a substantial package library and an elegant foreign function interface, with which one can easily call C, R, and Python.</flowPara></flowRoot>    <g
       id="g3046"
       transform="translate(-2,-6)">
      <g
         transform="matrix(1.1063498,0,0,1.1063498,40.557692,-30.816031)"
         id="g3795">
        <path
           sodipodi:type="arc"
           style="fill:#1b334b;fill-opacity:1;stroke:none"
           id="path3165-7"
           sodipodi:cx="223.05554"
           sodipodi:cy="165.70003"
           sodipodi:rx="17.399027"
           sodipodi:ry="17.399027"
           d="m 240.45457,165.70003 a 17.399027,17.399027 0 0 1 -17.39903,17.39902 17.399027,17.399027 0 0 1 -17.39902,-17.39902 17.399027,17.399027 0 0 1 17.39902,-17.39903 17.399027,17.399027 0 0 1 17.39903,17.39903 z"
           transform="matrix(1.3928695,0,0,1.3928695,197.64932,31.980622)" />
        <path
           transform="matrix(0.78464981,0,0,0.78464981,333.3161,132.76265)"
           d="m 240.45457,165.70003 a 17.399027,17.399027 0 0 1 -17.39903,17.39902 17.399027,17.399027 0 0 1 -17.39902,-17.39902 17.399027,17.399027 0 0 1 17.39902,-17.39903 17.399027,17.399027 0 0 1 17.39903,17.39903 z"
           sodipodi:ry="17.399027"
           sodipodi:rx="17.399027"
           sodipodi:cy="165.70003"
           sodipodi:cx="223.05554"
           id="path3935-9"
           style="fill:#ffffff;fill-opacity:1;stroke:none"
           sodipodi:type="arc" />
        <path
           inkscape:connector-curvature="0"
           id="path54-1-3"
           style="fill:#1b334b;fill-opacity:1;fill-rule:nonzero;stroke:none"
           d="m 434.39059,180.37661 c 0,-0.77529 0.62249,-1.47397 1.47539,-1.47397 l 32.13727,0 c 0.85087,0 1.47539,0.69868 1.47539,1.47397 l 0,8.46168 c 0,0.77529 -0.62452,1.47397 -1.47539,1.47397 l -21.50232,0 0,11.17741 17.69662,0 c 0.7761,0 1.47539,0.69889 1.47539,1.4764 l 0,8.45946 c 0,0.7775 -0.69929,1.47619 -1.47539,1.47619 l -17.69662,0 0,18.86097 c 0,0.77751 -0.6993,1.47619 -1.47741,1.47619 l -9.15754,0 c -0.8529,0 -1.47539,-0.69868 -1.47539,-1.47619 l 0,-51.38608" />
        <path
           inkscape:connector-curvature="0"
           id="path62-6-5"
           style="fill:#1b334b;fill-opacity:1;fill-rule:nonzero;stroke:none"
           d="m 484.91978,180.38478 c 0,-0.77958 0.70315,-1.48214 1.48558,-1.48214 l 9.28747,0 c 0.85762,0 1.48558,0.70256 1.48558,1.48214 l 0,19.6701 22.3224,0 0,-19.6701 c 0,-0.77958 0.62393,-1.48214 1.48154,-1.48214 l 9.28746,0 c 0.78242,0 1.48356,0.70256 1.48356,1.48214 l 0,51.67042 c 0,0.78181 -0.70114,1.48436 -1.48356,1.48436 l -9.28746,0 c -0.85761,0 -1.48154,-0.70255 -1.48154,-1.48436 l 0,-20.52754 -22.3224,0 0,20.52754 c 0,0.78181 -0.62796,1.48436 -1.48558,1.48436 l -9.28747,0 c -0.78243,0 -1.48558,-0.70255 -1.48558,-1.48436 l 0,-51.67042" />
        <path
           style="fill:#1b334b;fill-opacity:1;fill-rule:nonzero;stroke:none"
           d="m 460.92594,239.1921 c -0.82348,0 -1.50114,0.68016 -1.50114,1.50108 0,15.90472 0,28.76457 0,44.81958 0,0.82083 0.67766,1.50096 1.50114,1.50096 l 7.7201,0 c 0.8192,0 1.50114,-0.68013 1.50114,-1.50096 0,-14.89731 0,-31.44429 0,-44.81958 0,-0.82092 -0.68194,-1.50108 -1.50114,-1.50108 z"
           id="path3160-8"
           inkscape:connector-curvature="0"
           sodipodi:nodetypes="sccssccss" />
        <path
           sodipodi:type="arc"
           style="fill:#1b334b;fill-opacity:1;stroke:none"
           id="path3267-2"
           sodipodi:cx="-210.47697"
           sodipodi:cy="-86.560661"
           sodipodi:rx="4.0167365"
           sodipodi:ry="4.0167365"
           d="m -206.46024,-86.560661 a 4.0167365,4.0167365 0 0 1 -4.01673,4.016736 4.0167365,4.0167365 0 0 1 -4.01674,-4.016736 4.0167365,4.0167365 0 0 1 4.01674,-4.016737 4.0167365,4.0167365 0 0 1 4.01673,4.016737 z"
           transform="matrix(1.790477,0,0,1.790477,817.76811,434.80676)" />
      </g>
      <text
         sodipodi:linespacing="125%"
         id="text3080"
         y="318.4584"
         x="514.19006"
         style="font-size:23.23334503px;font-style:normal;font-variant:normal;font-weight:normal;font-stretch:normal;line-height:125%;letter-spacing:0px;word-spacing:0px;fill:#1b334b;fill-opacity:1;stroke:none;font-family:'2CA19B_1_0';-inkscape-font-specification:'2CA19B_1_0'"
         xml:space="preserve"><tspan
           y="318.4584"
           x="514.19006"
           id="tspan3082"
           sodipodi:role="line">fredhutch.io</tspan></text>
    </g>
    <path
       style="fill:#29abe2;fill-opacity:1;stroke:none"
       d=""
       id="path3325"
       inkscape:connector-curvature="0"
       transform="translate(-116.06091,-662.62708)" />
    <flowRoot
       transform="matrix(1.1063498,0,0,1.1063498,17.878794,-1087.2573)"
       style="font-size:48px;font-style:normal;font-variant:normal;font-weight:normal;font-stretch:normal;line-height:125%;letter-spacing:0px;word-spacing:0px;fill:#000000;fill-opacity:1;stroke:none;font-family:'2CA19B_0_0';-inkscape-font-specification:'2CA19B_0_0'"
       id="flowRoot3414"
       xml:space="preserve"><flowRegion
         id="flowRegion3416"><rect
           style="fill:#000000;fill-opacity:1"
           y="401.18149"
           x="-108.04552"
           height="143.47031"
           width="499.48907"
           id="rect3418" /></flowRegion><flowPara
         id="flowPara3432"
         style="font-size:21px;fill:#000000;fill-opacity:1" /></flowRoot>    <text
       xml:space="preserve"
       style="font-style:normal;font-variant:normal;font-weight:normal;font-stretch:normal;font-size:47.81473923px;line-height:100%;font-family:'2CA19B_0_0';-inkscape-font-specification:'2CA19B_0_0';text-align:start;letter-spacing:0px;word-spacing:0px;writing-mode:lr-tb;text-anchor:start;fill:#000000;fill-opacity:1;stroke:none"
       x="-99.823402"
       y="-133.62245"
       id="text4219"
       sodipodi:linespacing="100%"><tspan
         sodipodi:role="line"
         x="-99.823402"
         y="-133.62245"
         style="font-style:italic;font-variant:normal;font-weight:normal;font-stretch:normal;font-size:47.81473923px;line-height:100%;font-family:'2CA19B_0_0';-inkscape-font-specification:'2CA19B_0_0 Italic';text-align:start;writing-mode:lr-tb;text-anchor:start"
         id="tspan4258">Upcoming in-depth workshop:</tspan><tspan
         sodipodi:role="line"
         x="-99.823402"
         y="-85.807709"
         style="font-style:normal;font-variant:normal;font-weight:normal;font-stretch:normal;font-size:47.81473923px;line-height:100%;font-family:'2CA19B_0_0';-inkscape-font-specification:'2CA19B_0_0';text-align:start;writing-mode:lr-tb;text-anchor:start"
         id="tspan4806">The Julia language: a fresh approach </tspan><tspan
         sodipodi:role="line"
         x="-99.823402"
         y="-37.992973"
         style="font-style:normal;font-variant:normal;font-weight:normal;font-stretch:normal;font-size:47.81473923px;line-height:100%;font-family:'2CA19B_0_0';-inkscape-font-specification:'2CA19B_0_0';text-align:start;writing-mode:lr-tb;text-anchor:start"
         id="tspan3385">to technical computing</tspan><tspan
         sodipodi:role="line"
         x="-99.823402"
         y="9.8217659"
         style="font-style:normal;font-variant:normal;font-weight:normal;font-stretch:normal;font-size:47.81473923px;line-height:100%;font-family:'2CA19B_0_0';-inkscape-font-specification:'2CA19B_0_0';text-align:start;writing-mode:lr-tb;text-anchor:start"
         id="tspan3670" /></text>
    <flowRoot
       xml:space="preserve"
       id="flowRoot5288"
       style="fill:black;stroke:none;stroke-opacity:1;stroke-width:1px;stroke-linejoin:miter;stroke-linecap:butt;fill-opacity:1;font-family:Lato;font-style:normal;font-weight:normal;font-size:40px;line-height:125%;letter-spacing:0px;word-spacing:0px;-inkscape-font-specification:'Lato, Normal';font-stretch:normal;font-variant:normal;text-anchor:start;text-align:start;writing-mode:lr"><flowRegion
         id="flowRegion5290"><rect
           id="rect5292"
           width="279.92758"
           height="186.61839"
           x="70.422035"
           y="785.77612" /></flowRegion><flowPara
         id="flowPara5294" /></flowRoot>    <g
       transform="matrix(2.3114889,0,0,2.3114891,-103.32671,-667.25046)"
       id="g3463">
      <circle
         style="fill:#6b85dd;stroke:#4266d5;stroke-width:3"
         id="circle3439"
         r="16.5"
         cy="58.665001"
         cx="50.5" />
      <circle
         style="fill:#d66661;stroke:#c93d39;stroke-width:3"
         id="circle3441"
         r="16.5"
         cy="60.249001"
         cx="212.459" />
      <circle
         style="fill:#6bab5b;stroke:#3b972e;stroke-width:3"
         id="circle3443"
         r="16.5"
         cy="23.874001"
         cx="233.834" />
      <circle
         style="fill:#aa7dc0;stroke:#945bb0;stroke-width:3"
         id="circle3445"
         r="16.5"
         cy="59.999001"
         cx="255.459" />
      <path
         style="fill:#252525"
         inkscape:connector-curvature="0"
         id="path3447"
         d="m 37.216,138.427 c 0,-15.839 0.006,-31.679 -0.018,-47.517 -10e-4,-0.827 0.169,-1.234 1.043,-1.47 7.876,-2.127 15.739,-4.308 23.606,-6.47 1.33,-0.366 1.333,-0.36 1.333,1.019 0,25.758 0.015,51.517 -0.012,77.274 -0.006,5.514 0.245,11.032 -0.272,16.543 -0.628,6.69 -2.15,13.092 -6.438,18.506 -3.781,4.771 -8.898,7.25 -14.767,8.338 -6.599,1.222 -13.251,1.552 -19.934,0.938 -4.616,-0.423 -9.045,-1.486 -12.844,-4.363 -2.863,-2.168 -4.454,-4.935 -3.745,-8.603 0.736,-3.806 3.348,-5.978 6.861,-7.127 2.262,-0.74 4.628,-0.872 6.994,-0.53 1.823,0.264 3.42,1.023 4.779,2.288 1.38,1.284 2.641,2.674 3.778,4.177 0.872,1.15 1.793,2.256 2.991,3.086 2.055,1.426 4,0.965 5.213,-1.216 0.819,-1.473 0.997,-3.106 1.173,-4.731 0.255,-2.348 0.255,-4.707 0.256,-7.062 0.005,-14.362 0.003,-28.721 0.003,-43.08 z" />
      <path
         style="fill:#252525"
         inkscape:connector-curvature="0"
         id="path3449"
         d="m 125.536,162.479 c -2.908,2.385 -5.783,4.312 -8.88,5.904 -10.348,5.323 -20.514,4.521 -30.324,-1.253 -6.71,-3.95 -11.012,-9.849 -12.52,-17.606 -0.236,-1.213 -0.363,-2.438 -0.363,-3.688 0.01,-19.797 0.017,-39.593 -0.02,-59.39 -0.002,-1.102 0.285,-1.357 1.363,-1.351 7.798,0.049 15.597,0.044 23.396,0.003 0.95,-0.005 1.177,0.25 1.175,1.183 -0.027,19.356 -0.025,38.713 -0.018,58.07 0.002,6.34 3.599,10.934 9.672,12.42 2.13,0.521 4.19,0.396 6.173,-0.6 4.26,-2.139 7.457,-5.427 10.116,-9.307 0.333,-0.487 0.224,-1 0.224,-1.51 0.007,-19.635 0.016,-39.271 -0.02,-58.904 -0.002,-1.083 0.255,-1.369 1.353,-1.361 7.838,0.052 15.677,0.045 23.515,0.004 0.916,-0.005 1.103,0.244 1.102,1.124 -0.025,27.677 -0.026,55.353 0.002,83.024 0.001,0.938 -0.278,1.099 -1.139,1.095 -7.918,-0.028 -15.837,-0.028 -23.756,-0.001 -0.815,0.003 -1.1,-0.166 -1.073,-1.037 0.067,-2.181 0.022,-4.37 0.022,-6.819 z" />
      <path
         style="fill:#252525"
         inkscape:connector-curvature="0"
         id="path3451"
         d="m 187.423,107.08 c 0,20.637 -0.011,41.273 0.026,61.91 0.003,1.119 -0.309,1.361 -1.381,1.355 -7.799,-0.052 -15.598,-0.047 -23.396,-0.008 -0.898,0.008 -1.117,-0.222 -1.115,-1.115 0.021,-39.074 0.021,-78.147 0,-117.226 0,-0.811 0.189,-1.169 1.006,-1.392 7.871,-2.149 15.73,-4.327 23.584,-6.545 1.045,-0.295 1.308,-0.17 1.306,0.985 -0.041,20.683 -0.03,41.359 -0.03,62.036 z" />
      <path
         style="fill:#252525"
         inkscape:connector-curvature="0"
         id="path3453"
         d="m 223.46,126.477 c 0,14.155 -0.011,28.312 0.021,42.467 0.002,1.027 -0.164,1.418 -1.332,1.408 -7.838,-0.061 -15.676,-0.047 -23.516,-0.01 -0.881,0.004 -1.121,-0.189 -1.119,-1.104 0.026,-26.153 0.025,-52.307 0,-78.458 0,-0.776 0.203,-1.101 0.941,-1.302 7.984,-2.172 15.972,-4.35 23.938,-6.596 1.049,-0.296 1.08,0.031 1.078,0.886 -0.017,14.236 -0.011,28.471 -0.011,42.709 z" />
      <path
         style="fill:#252525"
         inkscape:connector-curvature="0"
         id="path3455"
         d="m 277.695,163.6 c -0.786,0.646 -1.404,1.125 -2,1.635 -4.375,3.746 -9.42,5.898 -15.16,6.42 -5.792,0.527 -11.479,0.244 -16.934,-2.047 -12.08,-5.071 -15.554,-17.188 -11.938,-27.448 1.799,-5.111 5.472,-8.868 9.831,-11.94 5.681,-4.003 12.009,-6.732 18.504,-9.074 5.576,-2.014 11.186,-3.939 16.955,-5.347 0.445,-0.104 0.773,-0.243 0.757,-0.854 -0.136,-4.389 0.261,-8.79 -0.479,-13.165 -1.225,-7.209 -6.617,-10.013 -12.895,-9.348 -0.516,0.055 -1.029,0.129 -1.536,0.241 -4.877,1.081 -7.312,4.413 -7.374,10.127 -0.02,1.729 -0.229,3.418 -0.693,5.084 -0.906,3.229 -2.969,5.354 -6.168,6.266 -3.422,0.979 -6.893,0.998 -10.23,-0.305 -6.529,-2.543 -8.877,-10.164 -5.12,-16.512 2.249,-3.799 5.606,-6.4 9.461,-8.405 6.238,-3.246 12.914,-4.974 19.896,-5.537 7.565,-0.61 15.096,-0.366 22.49,1.507 4.285,1.085 8.312,2.776 11.744,5.657 4.473,3.749 6.776,8.647 6.812,14.374 0.139,21.477 0.096,42.951 0.143,64.428 0.002,0.799 -0.248,0.983 -1.021,0.98 -8.035,-0.025 -16.074,-0.023 -24.113,-10e-4 -0.716,0.002 -0.973,-0.146 -0.941,-0.915 0.05,-1.859 0.009,-3.723 0.009,-5.821 z m 0,-37.207 c -4.793,2.104 -9.25,4.373 -13.287,7.408 -2.151,1.618 -4.033,3.483 -5.732,5.581 -4.229,5.226 -1.988,13.343 1.693,16.599 1.592,1.406 3.359,1.906 5.419,1.521 1.621,-0.307 3.149,-0.857 4.549,-1.734 1.521,-0.951 2.949,-2.072 4.539,-2.887 2.31,-1.18 2.97,-2.861 2.894,-5.445 -0.209,-6.952 -0.075,-13.909 -0.075,-21.043 z" />
    </g>
    <flowRoot
       xml:space="preserve"
       id="flowRoot3056-3"
       style="font-style:normal;font-variant:normal;font-weight:normal;font-stretch:normal;font-size:53.10478973px;line-height:125%;font-family:'2CA19B_0_0';-inkscape-font-specification:'2CA19B_0_0';letter-spacing:0px;word-spacing:0px;fill:#000000;fill-opacity:1;stroke:none"
       transform="translate(-96.116084,144.35977)"><flowRegion
         id="flowRegion3058-6"><rect
           id="rect3060-7"
           width="596.12604"
           height="342.11923"
           x="-1.5805259"
           y="-6.3194327"
           style="fill:#000000;fill-opacity:1" /></flowRegion><flowPara
         style="font-size:23.23334503px;fill:#000000;fill-opacity:1"
         id="flowPara4217">This four-hour workshop will be by taught by Jeff Bezanson, co-creator of Julia, and will introduce the language, going from basics through data handling and parallelism. </flowPara><flowPara
         style="font-size:23.23334503px;fill:#000000;fill-opacity:1"
         id="flowPara3519"></flowPara><flowPara
         style="font-size:23.23334503px;fill:#000000;fill-opacity:1"
         id="flowPara3521">Workshop for FH employees: <flowSpan
   style="font-style:normal;font-variant:normal;font-weight:normal;font-stretch:normal;font-family:'2CA19B_1_0';-inkscape-font-specification:'2CA19B_1_0'"
   id="flowSpan3523">9am-2pm Weds February 15</flowSpan>.</flowPara><flowPara
         style="font-size:23.23334503px;fill:#000000;fill-opacity:1"
         id="flowPara3515">Registration required. Details at http://fredhutch.io/.</flowPara></flowRoot>  </g>
</svg>
