<?xml version="1.0" ?><svg enable-background="new -1163 1657.697 56.693 56.693" height="56.693px" id="Layer_1" version="1.1" viewBox="-1163 1657.697 56.693 56.693" width="56.693px" xml:space="preserve" xmlns="http://www.w3.org/2000/svg" xmlns:xlink="http://www.w3.org/1999/xlink"><rect height="4.1104" transform="matrix(-0.8613 -0.508 0.508 -0.8613 -2964.1831 2556.6357)" width="19.2465" x="-1142.8167" y="1680.7778"/><rect height="4.1105" transform="matrix(-0.9657 -0.2596 0.2596 -0.9657 -2672.0498 3027.386)" width="19.2462" x="-1145.7363" y="1688.085"/><rect height="4.1098" transform="matrix(-0.9958 -0.0918 0.0918 -0.9958 -2425.5647 3282.8535)" width="19.246" x="-1146.9451" y="1695.1263"/><rect height="4.111" width="19.2473" x="-1147.2625" y="1701.293"/><path d="M-1121.4579,1710.9474c0,0,0,0.9601-0.0323,0.9601v0.0156h-30.7953c0,0-0.9598,0-0.9598-0.0156h-0.0326v-20.03h3.2877  v16.8049h25.2446v-16.8049h3.2877V1710.9474z"/><rect height="4.111" transform="matrix(0.5634 0.8262 -0.8262 0.5634 892.9033 1662.7915)" width="19.247" x="-1136.5389" y="1674.2235"/><rect height="4.1108" transform="matrix(0.171 0.9853 -0.9853 0.171 720.9987 2489.031)" width="19.2461" x="-1128.3032" y="1670.9347"/></svg>