<?xml version="1.0" encoding="utf-8"?>
<svg viewBox="-435 -131.00625610351562 1600 900" width="1600" height="900" xmlns="http://www.w3.org/2000/svg">
  <defs>
    <linearGradient id="gradient-2" gradientUnits="userSpaceOnUse" x1="342.802" y1="-83.23" x2="342.802" y2="816.77" gradientTransform="matrix(0.647119, 0, 0, 0.647119, 151.939697, 60.51112)" spreadMethod="pad">
      <stop offset="0" style="stop-color: rgb(25, 55, 71);"/>
      <stop offset="0.524" style="stop-color: rgb(60, 146, 158);"/>
      <stop offset="1" style="stop-color: rgb(213, 213, 212);"/>
    </linearGradient>
  </defs>
  <rect width="1600" height="900" y="-131.006" x="-435" style="fill: url(#gradient-2); fill-rule: evenodd;"/>
  <path d="M 83.75 93.994 L 646.25 93.994 C 656.605 93.994 665 102.389 665 112.744 L 665 525.244 C 665 535.599 656.605 543.994 646.25 543.994 L 83.75 543.994 C 73.395 543.994 65 535.599 65 525.244 L 65 112.744 C 65 102.389 73.395 93.994 83.75 93.994 Z M 624.875 512.119 C 629.017 512.119 632.375 508.762 632.375 504.619 L 632.375 133.369 C 632.375 129.227 629.017 125.869 624.875 125.869 L 266.985 125.869 L 266.985 512.119 Z" style="fill: rgb(255, 255, 255);"/>
</svg>