<?xml version="1.0" encoding="utf-8"?>
<svg viewBox="-435 -131.00625610351562 1600 900" width="1600" height="900" xmlns="http://www.w3.org/2000/svg">
  <defs>
    <linearGradient id="gradient-2" gradientUnits="userSpaceOnUse" x1="342.802" y1="-83.23" x2="342.802" y2="816.77" gradientTransform="matrix(0.647119, 0, 0, 0.647119, 151.939697, 60.51112)" spreadMethod="pad">
      <stop offset="0" style="stop-color: rgb(25, 55, 71);"/>
      <stop offset="0.524" style="stop-color: rgb(60, 146, 158);"/>
      <stop offset="1" style="stop-color: rgb(213, 213, 212);"/>
    </linearGradient>
  </defs>
  <rect width="1600" height="900" y="-131.006" x="-435" style="fill: url(#gradient-2); fill-rule: evenodd;"/>
  <path d="M 83.75 93.994 L 646.25 93.994 C 656.605 93.994 665 102.389 665 112.744 L 665 525.244 C 665 535.599 656.605 543.994 646.25 543.994 L 83.75 543.994 C 73.395 543.994 65 535.599 65 525.244 L 65 112.744 C 65 102.389 73.395 93.994 83.75 93.994 Z M 96.125 133.369 L 96.125 504.619 C 96.125 508.761 99.483 512.119 103.625 512.119 L 624.875 512.119 C 629.017 512.119 632.375 508.761 632.375 504.619 L 632.375 133.369 C 632.375 129.227 629.017 125.869 624.875 125.869 L 103.625 125.869 C 99.483 125.869 96.125 129.227 96.125 133.369 Z" style="fill: rgb(255, 255, 255);"/>
  <g transform="matrix(28.671513, 0, 0, 28.671513, 3565.343018, -3387.745605)">
    <path d="M -104.623 123.283 C -104.622 123.284 -104.622 123.284 -104.621 123.285 L -104.621 135.281 C -104.622 135.282 -104.622 135.282 -104.623 135.283 L -118.619 135.283 C -118.62 135.282 -118.62 135.282 -118.621 135.281 L -118.621 123.285 C -118.62 123.284 -118.62 123.284 -118.619 123.283 L -104.623 123.283 Z M -104.621 122.283 L -118.621 122.283 C -119.171 122.283 -119.621 122.733 -119.621 123.283 L -119.621 135.283 C -119.621 135.833 -119.171 136.283 -118.621 136.283 L -104.621 136.283 C -104.071 136.283 -103.621 135.833 -103.621 135.283 L -103.621 123.283 C -103.621 122.733 -104.071 122.283 -104.621 122.283 L -104.621 122.283 Z" style="fill: rgb(255, 255, 255); visibility: hidden;"/>
    <path d="M -106.104 126.215 C -106.104 127.043 -106.776 127.715 -107.604 127.715 C -108.432 127.715 -109.104 127.043 -109.104 126.215 C -109.104 125.387 -108.432 124.715 -107.604 124.715 C -106.776 124.715 -106.104 125.387 -106.104 126.215 Z" style="fill: rgb(255, 255, 255);"/>
    <path d="M -103.907 134.283 L -119.162 134.283 L -119.162 132.283 L -114.713 126.283 L -109.628 131.283 L -108.357 131.283 L -103.907 128.283 Z" style="fill: rgb(255, 255, 255);"/>
  </g>
</svg>