<?xml version="1.0" encoding="utf-8"?>
<svg viewBox="-435 -131.00625610351562 1600 900" width="1600" height="900" xmlns="http://www.w3.org/2000/svg">
  <defs>
    <linearGradient id="gradient-2" gradientUnits="userSpaceOnUse" x1="342.802" y1="-83.23" x2="342.802" y2="816.77" gradientTransform="matrix(0.647119, 0, 0, 0.647119, 151.939697, 60.51112)" spreadMethod="pad">
      <stop offset="0" style="stop-color: rgb(25, 55, 71);"/>
      <stop offset="0.524" style="stop-color: rgb(60, 146, 158);"/>
      <stop offset="1" style="stop-color: rgb(213, 213, 212);"/>
    </linearGradient>
  </defs>
  <rect width="1600" height="900" y="-131.006" x="-435" style="fill: url(#gradient-2); fill-rule: evenodd;"/>
  <path d="M 83.75 93.994 L 646.25 93.994 C 656.605 93.994 665 102.389 665 112.744 L 665 525.244 C 665 535.599 656.605 543.994 646.25 543.994 L 83.75 543.994 C 73.395 543.994 65 535.599 65 525.244 L 65 112.744 C 65 102.389 73.395 93.994 83.75 93.994 Z M 96.125 133.369 L 96.125 504.619 C 96.125 508.761 99.483 512.119 103.625 512.119 L 624.875 512.119 C 629.017 512.119 632.375 508.761 632.375 504.619 L 632.375 133.369 C 632.375 129.227 629.017 125.869 624.875 125.869 L 103.625 125.869 C 99.483 125.869 96.125 129.227 96.125 133.369 Z" style="fill: rgb(255, 255, 255);"/>
  <path d="M 465.249 342.341 C 452.487 320.225 460.153 291.89 482.39 279.008 L 458.481 237.591 C 451.651 241.591 443.696 243.887 435.225 243.887 C 409.672 243.887 388.956 223.035 388.956 197.315 L 341.121 197.315 C 341.182 205.255 339.204 213.3 334.945 220.662 C 322.184 242.777 293.788 250.291 271.521 237.484 L 247.61 278.901 C 254.499 282.809 260.463 288.543 264.69 295.891 C 277.437 317.976 269.802 346.251 247.656 359.163 L 271.566 400.58 C 278.38 396.611 286.274 394.344 294.715 394.344 C 320.192 394.344 340.847 415.06 340.984 440.673 L 388.819 440.673 C 388.803 432.81 390.78 424.855 394.994 417.57 C 407.74 395.485 436.061 387.956 458.313 400.687 L 482.223 359.271 C 475.378 355.36 469.462 349.643 465.249 342.341 Z M 365.015 368.274 C 337.805 368.274 315.735 346.22 315.735 318.995 C 315.735 291.768 337.789 269.714 365.015 269.714 C 392.226 269.714 414.295 291.768 414.295 318.995 C 414.295 346.22 392.241 368.274 365.015 368.274 Z" style="fill: rgb(255, 255, 255);"/>
</svg>