<svg height="512" viewBox="0 0 512 512" width="512" xmlns="http://www.w3.org/2000/svg"><rect height="512" rx="64" ry="64" width="512" fill="#d0422a"/><g fill="#fff"><path d="M266.6595292 284.36341387L247.90039526 269.794908c-5.71200825-4.73875008-13.5284406-10.99280695-13.5284406-22.4395986 0-11.49537864 7.81643235-18.80468425 14.59431773-25.57042288 21.853518-17.2013135 43.68426083-35.50342606 43.68426083-74.0814977 0-39.66672395-24.95853045-60.53028198-36.9215589-70.43443663h32.25417098l33.85146835-21.26895576H219.2735469c-28.14249676 0-68.69897 6.6594546-98.39169548 31.1731104-22.38493822 19.30421926-33.29727295 45.92837253-33.29727295 69.89542468 0 40.6809774 31.24143585 81.92222354 86.39830018 81.92222354 5.21399158 0 10.90929804-.51168176 16.64408144-1.04462033-2.57662893 6.26772197-5.18210637 11.48626858-5.18210637 20.3458029 0 16.15517484 8.30533894 26.0669212 15.6237546 35.44724735-23.43411357 1.6155175-67.18973655 4.20732984-99.44846255 24.03385926-30.71457066 18.268709-40.06756662 44.85490368-40.06756662 63.62314768 0 38.62665864 36.41139547 74.60380788 111.90191595 74.60380788 89.5291245 0 136.91814346-49.53292 136.91814346-98.5738967.01518344-36.03332795-20.80130594-53.76454335-43.71310936-73.06268923zm-68.18728824-59.98975168c-44.78657822 0-65.07772075-57.895956-65.07772075-92.83303995 0-13.6028394 2.57359224-27.64296176 11.4346449-38.6114752 8.35088925-10.44468494 22.89206495-17.22408867 36.4675742-17.22408867 43.17561575 0 65.5681457 58.41826617 65.5681457 95.98815773 0 9.40006462-1.03551028 26.0562928-13.00613043 38.10283014-8.37518275 8.3493709-22.38341988 14.57761595-35.3865136 14.57761595zm.50864507 209.76826457c-55.69132124 0-91.60470004-26.6423734-91.60470004-63.68388142 0-37.0339163 33.29727294-49.56176853 44.75924803-53.70836463 21.84744462-7.3548559 49.96716624-8.37973777 54.65884765-8.37973777 5.20488152 0 7.80884062 0 11.9508817.5238285 39.59536178 28.17286365 56.7830102 42.2205777 56.7830102 68.89483632 0 32.2966846-26.5619012 56.353319-76.54728755 56.353319zM398.11770943 302.10222098v-52.4754697h52.32970873v-26.04718275h-52.32970873v-52.15965425h-25.7632525v52.15965425h-52.07159034v26.04718275h52.07159032v52.4754697"/></g></svg>