<?xml version="1.0" encoding="UTF-8" standalone="no"?>
<svg width="1140px" height="685px" viewBox="0 0 1140 685" version="1.1" xmlns="http://www.w3.org/2000/svg" xmlns:xlink="http://www.w3.org/1999/xlink" xmlns:sketch="http://www.bohemiancoding.com/sketch/ns">
    <!-- Generator: Sketch 3.4.2 (15857) - http://www.bohemiancoding.com/sketch -->
    <title>Artboard 1 Copy 10</title>
    <desc>Created with Sketch.</desc>
    <defs>
        <path id="path-1" d="M0.170642612,31.3229966 L33.6985567,31.3229966 L33.6985567,0.999670103 L0.170642612,0.999670103 L0.170642612,31.3229966 Z"></path>
        <path id="path-3" d="M0.583140893,31.6830928 L31.2181924,31.6830928 L31.2181924,0.829027491 L0.583140893,0.829027491 L0.583140893,31.6830928 Z"></path>
        <path id="path-5" d="M0.583140893,31.6830928 L31.2181924,31.6830928 L31.2181924,0.829027491 L0.583140893,0.829027491 L0.583140893,31.6830928 Z"></path>
        <path id="path-7" d="M0.389656357,35.9814055 L41.2632646,35.9814055 L41.2632646,1.32214433 L0.389656357,1.32214433 L0.389656357,35.9814055 Z"></path>
        <path id="path-9" d="M0.331879725,32.2863883 L32.5121203,32.2863883 L32.5121203,0.100773196 L0.331879725,0.100773196 L0.331879725,32.2863883 Z"></path>
        <path id="path-11" d="M0,0 L782,0 L782,169.298969 L0,169.298969 L0,0 Z"></path>
    </defs>
    <g id="Page-1" stroke="none" stroke-width="1" fill="none" fill-rule="evenodd" sketch:type="MSPage">
        <rect id="Rectangle-7" fill="#FAFAFA" sketch:type="MSShapeGroup" x="-28" y="0" width="1168" height="712"></rect>
        <g id="Artboard-1-Copy-10" sketch:type="MSArtboardGroup">
            <rect id="Rectangle-20" fill="#666666" sketch:type="MSShapeGroup" x="-22" y="0" width="1184" height="685"></rect>
            <g id="Page-1" sketch:type="MSLayerGroup" transform="translate(179.000000, 259.000000)">
                <g id="Group-9" stroke="#FFFFFF" sketch:type="MSShapeGroup">
                    <path d="M540.955353,31.2554113 C540.955353,47.5806691 527.720473,60.8155488 511.395215,60.8155488 C495.069957,60.8155488 481.835078,47.5806691 481.835078,31.2554113 C481.835078,14.9301536 495.069957,1.69527388 511.395215,1.69527388 C527.720473,1.69527388 540.955353,14.9301536 540.955353,31.2554113 L540.955353,31.2554113 Z" id="Stroke-1"></path>
                    <path d="M299.968213,31.2554113 C299.968213,47.5806691 286.733333,60.8155488 270.408076,60.8155488 C254.082818,60.8155488 240.847938,47.5806691 240.847938,31.2554113 C240.847938,14.9301536 254.082818,1.69527388 270.408076,1.69527388 C286.733333,1.69527388 299.968213,14.9301536 299.968213,31.2554113 L299.968213,31.2554113 Z" id="Stroke-3"></path>
                    <path d="M59.7920962,31.5756014 C59.7920962,47.9008591 46.5572165,61.1357388 30.2319588,61.1357388 C13.906701,61.1357388 0.671821306,47.9008591 0.671821306,31.5756014 C0.671821306,15.2503436 13.906701,2.01546392 30.2319588,2.01546392 C46.5572165,2.01546392 59.7920962,15.2503436 59.7920962,31.5756014 L59.7920962,31.5756014 Z" id="Stroke-5"></path>
                    <path d="M781.328179,30.2319588 C781.328179,46.5572165 768.093299,59.7920962 751.768041,59.7920962 C735.442784,59.7920962 722.207904,46.5572165 722.207904,30.2319588 C722.207904,13.906701 735.442784,0.671821306 751.768041,0.671821306 C768.093299,0.671821306 781.328179,13.906701 781.328179,30.2319588 L781.328179,30.2319588 Z" id="Stroke-7"></path>
                </g>
                <g id="Group-12" transform="translate(497.147766, 14.780069)">
                    <mask id="mask-2" sketch:name="Clip 11" fill="white">
                        <use xlink:href="#path-1"></use>
                    </mask>
                    <g id="Clip-11"></g>
                    <path d="M1.25442474,1.15727938 L2.34143162,2.60706976 L2.23394021,1.00141684 L3.37738007,2.50764021 C9.97197801,1.31448557 12.2534832,9.09820722 12.2534832,9.09820722 C15.6784282,12.3175749 20.8192048,11.2238498 20.8192048,11.2238498 C25.074521,10.4472244 27.3036241,13.3011213 27.3036241,13.3011213 C31.661057,13.5604443 31.867978,18.7522794 31.867978,18.7522794 C31.8169196,21.6061763 33.7383285,23.370379 33.7383285,23.370379 C29.4816687,23.4214375 28.7547581,17.9729667 28.7547581,17.9729667 C28.3906309,13.8735131 27.6126619,14.4956196 27.6126619,14.4956196 C28.4443766,17.7096127 24.3435794,20.9813825 24.3435794,20.9813825 C24.4994419,21.5013722 25.2263526,21.6518601 25.2263526,21.6518601 C27.1988199,22.7442416 26.059411,23.1594271 26.059411,23.1594271 C25.3822151,24.2504649 24.3986687,24.0422003 24.3986687,24.0422003 C24.4994419,25.291788 23.1490811,26.2215887 23.1490811,26.2215887 C22.371112,28.0919392 20.713057,29.4920148 20.713057,29.4920148 C20.4040192,29.4920148 20.2468131,29.8547983 20.2468131,29.8547983 C20.2468131,30.8423756 18.9488543,30.8423756 18.9488543,30.8423756 C18.0607065,30.8423756 17.9639643,30.5817089 17.9639643,30.5817089 C18.1157959,29.2850938 20.0358612,28.9209667 20.0358612,28.9209667 C20.8151739,28.3539495 20.2468131,28.1927124 20.2468131,28.1927124 C19.0496275,28.5057811 19.7778818,26.8436952 19.7778818,26.8436952 C19.8329711,24.8725715 21.4359368,24.4587296 21.4359368,24.4587296 C22.111789,24.3015234 22.1641911,23.9373962 22.1641911,23.9373962 C21.1282426,23.058654 20.660655,20.2517845 20.660655,20.2517845 C20.0358612,20.3539014 19.1557753,19.6820801 19.1557753,19.6820801 C15.9928405,21.344166 9.86583024,19.3192966 9.86583024,19.3192966 C9.86583024,20.8241763 9.08786117,22.8503893 9.08786117,22.8503893 C9.45198832,26.536001 8.98305704,27.8285852 8.98305704,27.8285852 C8.56787148,28.7651041 8.51681306,28.7140457 8.51681306,28.7140457 C9.29478213,29.7499942 8.20374433,29.9045131 8.20374433,29.9045131 L7.2188543,29.9045131 C5.55945567,29.7997089 6.59674777,28.9720251 6.59674777,28.9720251 C8.20374433,27.9360766 7.99682337,26.5857158 7.99682337,26.5857158 C7.94576495,25.7566883 7.73884399,21.9152141 7.73884399,21.9152141 C7.63269622,20.2517845 7.06567904,19.7331385 7.06567904,19.7331385 C6.48925636,20.5111076 3.11940069,20.8752347 3.11940069,20.8752347 C2.03105017,22.7953 4.57456564,24.6105612 4.57456564,24.6105612 C5.03812234,23.7815337 5.76637663,24.7650801 5.76637663,24.7650801 C6.48925636,26.2726471 6.02569966,26.3223619 6.02569966,26.3223619 C5.40359313,26.3747639 4.36630103,25.4422759 4.36630103,25.4422759 C2.39652096,25.0297777 1.3538543,21.4973412 1.3538543,21.4973412 C0.729060481,19.5745887 3.7441945,19.111032 3.7441945,19.111032 C6.23665155,18.1745131 5.30147629,17.3978876 5.30147629,17.3978876 C3.89736976,15.3716746 5.03812234,14.1771763 5.03812234,14.1771763 C5.61051409,13.557757 5.55945567,12.3578842 5.55945567,12.3578842 C4.51947629,10.1301247 4.57456564,7.38103196 4.57456564,7.38103196 C4.26149691,8.52044089 2.86007766,9.40321409 2.86007766,9.40321409 C2.86007766,9.40321409 3.17045911,7.43074674 2.86007766,9.61013505 C2.54835258,11.7922107 0.784149828,10.6460835 0.784149828,10.6460835 C-0.458719588,9.87080172 0.577228866,7.95208007 0.577228866,7.95208007 C0.522139519,5.82375017 1.61452096,3.38235155 1.61452096,3.38235155 L1.25442474,1.15727938 L1.25442474,1.15727938 Z" id="Stroke-10" stroke="#FFFFFF" stroke-width="0.700000048" sketch:type="MSShapeGroup" mask="url(#mask-2)"></path>
                </g>
                <g id="Group-19" transform="translate(13.436426, 14.780069)">
                    <g id="Group-15">
                        <mask id="mask-4" sketch:name="Clip 14" fill="white">
                            <use xlink:href="#path-3"></use>
                        </mask>
                        <g id="Clip-14"></g>
                        <path d="M10.4710069,13.2448227 L11.861677,14.4366337 C12.1089072,14.1531251 12.365543,13.8696165 12.6235223,13.5914825 L11.2167285,12.3835478 L12.045756,11.4134378 L13.4888282,12.6522763 C13.7091856,12.4157952 13.929543,12.1793141 14.1606495,11.9374584 L12.7592302,10.7416165 L13.5828832,9.77016289 L15.0582027,11.0399052 C15.3524605,10.7469911 15.6507491,10.4581079 15.9450069,10.1745993 L14.4911856,8.92501168 L15.3202131,7.95893265 L16.8801821,9.29720069 C17.147567,9.05668866 17.4149519,8.81483299 17.6823368,8.57297732 L16.0659347,7.18768179 L16.8949622,6.21757182 L18.6645395,7.74394983 C21.7656667,5.1668433 25.1825498,2.95252027 28.8466632,1.5564756 C27.6656014,1.07276426 25.7818144,0.779850172 23.5446495,0.779850172 C18.2601031,0.779850172 11.0380241,2.39625223 6.61878351,6.82086735 C0.204233677,13.2394481 -0.305006873,25.5472144 1.45919588,29.2946337 C1.45919588,29.2946337 5.04940893,22.4662419 11.0272749,15.4013691 L9.64197938,14.2109017 L10.4710069,13.2448227 L10.4710069,13.2448227 Z" id="Stroke-13" stroke="#FFFFFF" stroke-width="0.700000048" sketch:type="MSShapeGroup" mask="url(#mask-4)"></path>
                    </g>
                    <g id="Group-18">
                        <mask id="mask-6" sketch:name="Clip 17" fill="white">
                            <use xlink:href="#path-5"></use>
                        </mask>
                        <g id="Clip-17"></g>
                        <path d="M30.1690763,2.58489966 C30.1637017,2.58489966 25.8022378,4.25370378 20.0702584,8.94570378 L20.9207842,9.67530172 L20.0917567,10.6360062 L19.0840247,9.77607491 C18.8112653,10.0018069 18.5438804,10.2423189 18.2657464,10.4841746 L19.3406605,11.407257 L18.5170076,12.3733361 L17.319822,11.3454495 C17.0215333,11.6235835 16.7165265,11.9057485 16.4182378,12.2000062 L17.6033306,13.2238619 L16.7796777,14.1845663 L15.5099354,13.0975595 C15.2788289,13.328666 15.0530969,13.5651471 14.8273649,13.8070027 L16.0662034,14.8671368 L15.2371759,15.8318722 L13.9566845,14.7354598 C13.6987052,15.0082192 13.4420694,15.2863533 13.1894646,15.5752364 L14.4914543,16.6931471 L13.6624268,17.6592261 L12.3604371,16.5413155 C9.15853677,20.2994838 5.93110722,24.9538619 3.05436838,30.7073395 C4.24080481,31.1843326 6.08293883,31.4624667 8.27710722,31.4624667 C13.5683718,31.4624667 20.7904509,29.8460646 25.2096914,25.4214495 C31.8540041,18.7771368 32.1630419,5.79754914 30.1690763,2.58489966 L30.1690763,2.58489966 Z" id="Stroke-16" stroke="#FFFFFF" stroke-width="0.700000048" sketch:type="MSShapeGroup" mask="url(#mask-6)"></path>
                    </g>
                </g>
                <g id="Group-22" transform="translate(730.941581, 12.092784)">
                    <mask id="mask-8" sketch:name="Clip 21" fill="white">
                        <use xlink:href="#path-7"></use>
                    </mask>
                    <g id="Clip-21"></g>
                    <path d="M24.9597739,4.03751168 C24.7407601,4.03751168 24.5620557,3.85746357 24.5620557,3.63844983 L24.5620557,1.71972818 C24.5620557,1.49937079 24.7407601,1.32200997 24.9597739,1.32200997 C25.1814749,1.32200997 25.3601794,1.49937079 25.3601794,1.71972818 L25.3601794,3.63844983 C25.3601794,3.85746357 25.1814749,4.03751168 24.9597739,4.03751168 L24.9597739,4.03751168 Z M27.6793065,5.16348419 C27.5771897,5.16348419 27.4750729,5.12451856 27.3984852,5.04658729 C27.241279,4.89072474 27.241279,4.63677629 27.3984852,4.48091375 L28.7542206,3.12517835 C28.9100832,2.96931581 29.162688,2.96931581 29.3185505,3.12517835 C29.4730694,3.28238454 29.4730694,3.5336457 29.3185505,3.68950825 L27.9614715,5.04658729 C27.8835402,5.12451856 27.782767,5.16348419 27.6793065,5.16348419 L27.6793065,5.16348419 Z M22.2415849,5.16348419 C22.139468,5.16348419 22.0386948,5.12451856 21.9607636,5.04658729 L20.6036845,3.68950825 C20.4491656,3.5336457 20.4491656,3.28238454 20.6036845,3.12517835 C20.7595471,2.96931581 21.0108082,2.96931581 21.1680144,3.12517835 L22.5250935,4.48091375 C22.680956,4.63677629 22.680956,4.89072474 22.5250935,5.04658729 C22.4458186,5.12451856 22.3437017,5.16348419 22.2415849,5.16348419 L22.2415849,5.16348419 Z M21.1156124,7.8816732 L19.1968907,7.8816732 C18.9765333,7.8816732 18.7978289,7.70162509 18.7978289,7.48261134 C18.7978289,7.26225395 18.9765333,7.08489313 19.1968907,7.08489313 L21.1156124,7.08489313 C21.3359698,7.08489313 21.5146742,7.26225395 21.5146742,7.48261134 C21.5146742,7.70162509 21.3359698,7.8816732 21.1156124,7.8816732 L21.1156124,7.8816732 Z M30.7240007,7.8816732 L28.805279,7.8816732 C28.5862653,7.8816732 28.4062172,7.70162509 28.4062172,7.48261134 C28.4062172,7.26225395 28.5862653,7.08489313 28.805279,7.08489313 L30.7240007,7.08489313 C30.9430144,7.08489313 31.1230625,7.26225395 31.1230625,7.48261134 C31.1230625,7.70162509 30.9457017,7.8816732 30.7240007,7.8816732 L30.7240007,7.8816732 Z M24.9597739,5.60688625 C23.9251691,5.60688625 23.0840488,6.44800653 23.0840488,7.48261134 C23.0840488,8.51721615 23.9251691,9.35968007 24.9597739,9.35968007 C25.9957223,9.35968007 26.8368426,8.51721615 26.8368426,7.48261134 C26.8368426,6.44800653 25.9957223,5.60688625 24.9597739,5.60688625 L24.9597739,5.60688625 Z M24.9597739,10.1578038 C23.4844543,10.1578038 22.2872687,8.95658729 22.2872687,7.48261134 C22.2872687,6.00729175 23.4871416,4.80876254 24.9597739,4.80876254 C26.4350935,4.80876254 27.6349663,6.00729175 27.6349663,7.48261134 C27.6349663,8.95658729 26.4350935,10.1578038 24.9597739,10.1578038 L24.9597739,10.1578038 Z M20.8871931,11.9582849 C20.7850763,11.9582849 20.6816158,11.9179756 20.6036845,11.8400443 C20.4491656,11.6841818 20.4491656,11.431577 20.6036845,11.2770581 L21.9607636,9.91997904 C22.1152825,9.76411649 22.3678873,9.76411649 22.5250935,9.91997904 C22.680956,10.0758416 22.680956,10.3284464 22.5250935,10.4829653 L21.1680144,11.8400443 C21.0887395,11.9179756 20.9866227,11.9582849 20.8871931,11.9582849 L20.8871931,11.9582849 Z M29.0350419,11.9582849 C28.9329251,11.9582849 28.8321519,11.9179756 28.7542206,11.8400443 L27.3984852,10.4829653 C27.241279,10.3284464 27.241279,10.0758416 27.3984852,9.91997904 C27.5530041,9.76411649 27.8056089,9.76411649 27.9614715,9.91997904 L29.3185505,11.2770581 C29.4730694,11.431577 29.4730694,11.6841818 29.3185505,11.8400443 C29.2406192,11.9179756 29.1371588,11.9582849 29.0350419,11.9582849 L29.0350419,11.9582849 Z M24.9597739,13.6445564 C24.7407601,13.6445564 24.5620557,13.4671955 24.5620557,13.2468381 L24.5620557,11.3281165 C24.5620557,11.1077591 24.7407601,10.9290546 24.9597739,10.9290546 C25.1814749,10.9290546 25.3601794,11.1077591 25.3601794,11.3281165 L25.3601794,13.2468381 C25.3601794,13.4671955 25.1814749,13.6445564 24.9597739,13.6445564 L24.9597739,13.6445564 Z M7.42792509,10.4144395 C6.18505567,10.4144395 5.17463643,11.4248588 5.17463643,12.6677282 C5.17463643,13.909254 6.18505567,14.9196732 7.42792509,14.9196732 L16.8482034,14.9196732 C17.5952687,14.9196732 18.2025952,14.3110031 18.2025952,13.5652814 C18.2025952,12.8195598 17.5952687,12.2108897 16.8482034,12.2108897 C16.5902241,12.2108897 16.3416502,12.2834464 16.1266674,12.4204979 C15.9936467,12.5038038 15.8256914,12.5024601 15.6940144,12.4178107 C15.5650247,12.3331612 15.4951553,12.1786423 15.5179973,12.0241234 C15.5421828,11.856168 15.5542756,11.6868691 15.5542756,11.5189137 C15.5542756,9.64587595 14.0292412,8.12084158 12.1562034,8.12084158 C10.7091003,8.12084158 9.41920344,9.03989313 8.94489759,10.4036904 C8.9072756,10.5111818 8.8253134,10.5985186 8.72185292,10.6415151 C8.61570515,10.6845117 8.49880825,10.6818244 8.39534777,10.6334533 C8.09168454,10.4896835 7.76652302,10.4144395 7.42792509,10.4144395 L7.42792509,10.4144395 Z M16.8482034,15.7164533 L7.42792509,15.7164533 C5.74568454,15.7164533 4.3792,14.3499687 4.3792,12.6677282 C4.3792,10.9854876 5.74568454,9.61765945 7.42792509,9.61765945 C7.7436811,9.61765945 8.05137526,9.6633433 8.34697663,9.75874192 C9.02685979,8.28610962 10.5102412,7.32271787 12.1562034,7.32271787 C14.4551759,7.32271787 16.3255265,9.17828832 16.353743,11.4705426 C16.5149801,11.4329206 16.6802481,11.412766 16.8482034,11.412766 C18.0346399,11.412766 19.0007189,12.378845 19.0007189,13.5652814 C19.0007189,14.7517179 18.0346399,15.7164533 16.8482034,15.7164533 L16.8482034,15.7164533 Z M30.722657,16.4326148 C30.3894337,16.4326148 30.1193615,16.7053742 30.1193615,17.0385976 C30.1193615,17.371821 30.3894337,17.6418931 30.722657,17.6418931 L36.1146948,17.6418931 C36.7327704,17.6418931 37.2339491,17.1407144 37.2339491,16.5239825 C37.2339491,15.9072505 36.7300832,15.4060718 36.1146948,15.4060718 C35.9467395,15.4060718 35.7855024,15.4423502 35.6336708,15.5149069 C35.531554,15.563278 35.4119698,15.5659653 35.3085093,15.5229687 C35.2023615,15.4799722 35.121743,15.3926354 35.0854646,15.285144 C34.8382344,14.5716698 34.1637258,14.0919893 33.407255,14.0919893 C32.4317704,14.0919893 31.6336467,14.8887694 31.6336467,15.8682849 C31.6336467,15.9556216 31.6417086,16.0443021 31.6538014,16.1316388 C31.6766433,16.2861577 31.6067739,16.439333 31.4764405,16.5253261 C31.3447636,16.6099756 31.1768082,16.6099756 31.0451313,16.5280134 C30.948389,16.4662058 30.8368667,16.4326148 30.722657,16.4326148 L30.722657,16.4326148 Z M36.1146948,18.4413605 L30.722657,18.4413605 C29.9487189,18.4413605 29.3212378,17.8125357 29.3212378,17.0385976 C29.3212378,16.2646595 29.9487189,15.6358347 30.722657,15.6358347 C30.7629663,15.6358347 30.8046192,15.638522 30.8462722,15.6425529 C30.9604818,14.3284704 32.0662997,13.2965529 33.407255,13.2965529 C34.3679595,13.2965529 35.2359526,13.8286354 35.6793546,14.6576629 C35.8217808,14.6254155 35.9655505,14.6079481 36.1160385,14.6079481 C37.1707979,14.6079481 38.0307292,15.469223 38.0307292,16.5239825 C38.0307292,17.5814292 37.1707979,18.4413605 36.1146948,18.4413605 L36.1146948,18.4413605 Z M23.6900316,24.928467 C23.7491519,24.928467 23.8096158,24.9324979 23.8741107,24.9405598 C24.5002481,25.0198347 24.7837567,25.4954842 25.0121759,25.8784223 C25.2741863,26.3177935 25.4340797,26.5475564 25.8801691,26.5233708 C26.3289457,26.5032162 26.4713718,26.2318003 26.6823237,25.7588381 C26.85431,25.3732127 27.0692928,24.890845 27.6201863,24.8048519 C28.3914371,24.6839241 28.846932,25.1367316 29.1788117,25.4686113 C29.4394784,25.7306216 29.5671244,25.8434876 29.7283615,25.8246766 C29.8170419,25.8139275 29.8533203,25.7816801 29.8775058,25.7467454 C29.9849973,25.601632 29.9863409,25.2939378 29.9648426,25.1112024 L27.7048357,21.7668759 C27.6994612,21.7588141 27.6954302,21.7520959 27.6913993,21.7467213 C27.4011725,21.2536045 26.906712,20.9485976 26.3370076,20.9082883 C25.7659595,20.867979 25.2352206,21.1031165 24.880499,21.5505495 L21.5200488,25.8864842 L21.7457808,25.9388863 C21.9338907,25.9791955 22.0803478,25.8676732 22.3907292,25.5801337 C22.6930488,25.300656 23.0961416,24.928467 23.6900316,24.928467 L23.6900316,24.928467 Z M11.5435024,27.7044326 C11.6751794,27.9368828 12.0137773,28.3077282 12.8280247,28.3077282 C13.5200007,28.3077282 13.7941038,28.1129 14.1380763,27.8629825 C14.4605505,27.6332196 14.8219904,27.3698656 15.4938117,27.2462505 C16.3107464,27.0971062 16.744743,27.349711 17.0322825,27.5163227 C17.2553271,27.6439687 17.2822,27.6600924 17.4488117,27.575443 C17.6584199,27.4666079 17.8035333,27.3738966 17.9002756,27.3013399 L15.9869285,25.3879928 C15.6469869,25.0493948 15.195523,24.872034 14.7171863,24.8881577 C14.2361622,24.9056251 13.7981347,25.1138897 13.485066,25.4780168 L11.5435024,27.7044326 Z M32.4519251,27.3671784 L33.0901553,28.3117591 C33.1331519,28.2499515 33.1788357,28.1868003 33.2245196,28.1263364 L32.7099045,26.5851784 L32.4519251,27.3671784 Z M7.56632027,29.6930237 L7.18203849,31.4935048 L7.92776014,30.6362608 L7.59319313,29.5600031 L7.56766392,29.6849619 C7.56632027,29.6876491 7.56632027,29.6903364 7.56632027,29.6930237 L7.56632027,29.6930237 Z M35.5597704,31.9678107 L36.1550041,32.8492402 C36.9208804,32.4461474 37.4354955,31.5015667 37.4354955,30.440089 C37.4354955,28.9997041 36.5003203,27.8280478 35.3488186,27.8280478 C34.8449526,27.8280478 34.3706467,28.0537797 33.9998014,28.447467 C33.982334,28.4729962 33.9608357,28.4944945 33.9379938,28.5159928 C33.8036296,28.669168 33.685389,28.8478725 33.5859595,29.045388 L34.7374612,30.7531577 L34.5480076,29.0615117 C34.5224784,28.8424979 34.6810282,28.6436388 34.9000419,28.6194533 C35.1190557,28.5952677 35.3165711,28.7511302 35.3421003,28.9714876 L35.5382722,30.7249412 L36.1550041,29.9617522 C36.294743,29.789766 36.5460041,29.7642368 36.7166467,29.902632 C36.8872893,30.0396835 36.9141622,30.2922883 36.7771107,30.4642746 L35.5597704,31.9678107 Z M5.55085636,29.2146869 C4.43428935,29.2146869 3.93176701,30.4696491 3.93176701,31.3591405 C3.93176701,32.9258278 4.80244742,33.440443 5.25391134,33.6030237 L5.25391134,32.5724498 L4.59015189,31.5230649 C4.47325498,31.3362986 4.52834433,31.0917557 4.71511065,30.9721715 C4.89918969,30.8539309 5.14641993,30.9103639 5.26466048,31.0971302 L5.99022749,32.2432574 C6.03053677,32.3077522 6.05203505,32.3816526 6.05203505,32.4555529 L6.05203505,32.786089 L6.10174983,32.729656 L6.75341649,29.6715254 C6.63920687,29.5196938 6.31673265,29.2146869 5.55085636,29.2146869 L5.55085636,29.2146869 Z M5.05773952,35.1414945 L13.3372653,35.1414945 L18.752145,28.1545529 L18.4686364,27.8697007 C18.3181485,27.9933158 18.1071966,28.1330546 17.8142825,28.2835426 C17.2593581,28.5697385 16.8965746,28.3601302 16.631877,28.2056113 C16.3913649,28.0658725 16.165633,27.9341955 15.6389251,28.0322814 C15.143121,28.1236491 14.8932034,28.3023536 14.6043203,28.5119619 C14.2173512,28.7900959 13.7779801,29.1058519 12.8280247,29.1058519 C11.8995677,29.1058519 11.3244887,28.7215701 11.0033581,28.3225082 L8.68154364,30.9869515 C8.67885636,30.9896388 8.67482543,30.9923261 8.67213814,30.996357 L6.7789457,33.1690271 C6.77357113,33.1730581 6.76954021,33.1784326 6.76282199,33.1851509 L5.95932371,34.1068897 C5.95663643,34.1122643 5.95126186,34.1162952 5.94723093,34.1216698 L5.05773952,35.1414945 Z M14.3476845,35.1414945 L36.7421759,35.1414945 L35.6874165,33.5815254 C35.6793546,33.5721199 35.6739801,33.5627144 35.6672619,33.5519653 L32.809334,29.3208347 C32.8026158,29.3127729 32.794554,29.3020237 32.7878357,29.2912746 L30.6124784,26.0705632 C30.5856055,26.1216216 30.5560454,26.1726801 30.5211107,26.2197076 C30.3558426,26.4454395 30.1112997,26.5824911 29.8183856,26.6174258 C29.2607739,26.6832643 28.9047086,26.3218244 28.6144818,26.0342849 C28.2946948,25.7171852 28.098523,25.5398244 27.7438014,25.5935701 C27.6282481,25.6110375 27.542255,25.7897419 27.4119216,26.082656 C27.2009698,26.5583055 26.8811828,27.274467 25.9177911,27.3214945 C24.9664921,27.3644911 24.5996777,26.7423845 24.3269182,26.2868897 C24.1092481,25.9214189 23.9910076,25.7588381 23.7733375,25.7306216 C23.4656433,25.6929997 23.2506605,25.8717041 22.9308735,26.1673055 C22.5989938,26.473656 22.1864955,26.8539069 21.5711072,26.7168553 L20.9799045,26.5824911 L14.3476845,35.1414945 Z M37.4932722,35.9396182 L0.790330584,35.9396182 C0.569973196,35.9396182 0.389925086,35.7609137 0.389925086,35.5405564 C0.389925086,35.3215426 0.569973196,35.1414945 0.790330584,35.1414945 L3.99894914,35.1414945 L4.7607945,34.2681268 C3.99894914,33.9134052 3.1336433,33.0601921 3.1336433,31.3591405 C3.1336433,29.9335357 3.98013814,28.4179069 5.55085636,28.4179069 C6.19043024,28.4179069 6.63786323,28.5831749 6.94421375,28.782034 L7.12963643,27.9032918 C7.1699457,27.7259309 7.32177732,27.5955976 7.50316907,27.5861921 C7.68456082,27.5821612 7.84848522,27.6936835 7.90223093,27.8656698 L8.5444921,29.9295048 L10.7776261,27.3671784 C10.7776261,27.3658347 10.7803134,27.3644911 10.781657,27.3631474 L12.8831141,24.9526526 C13.3372653,24.4313192 13.9956502,24.1155632 14.6876261,24.0913777 C15.3782584,24.0645048 16.0608289,24.3332333 16.5512584,24.8236629 L18.7252722,27.0003639 C18.7319904,27.0057385 18.7373649,27.0111131 18.7427395,27.0164876 L19.2439182,27.5176663 L20.4988804,25.9012643 C20.5029113,25.8958897 20.5055986,25.8932024 20.5082859,25.8891715 L24.2530179,21.0574326 C24.7689766,20.4071096 25.5697876,20.0564189 26.3920969,20.1128519 C27.2130625,20.1706285 27.952066,20.6247797 28.3726261,21.3301921 L31.8862515,26.5314326 L32.3256227,25.1931646 C32.3793684,25.0292402 32.5312,24.9190615 32.7045299,24.9177179 C32.8778598,24.9177179 33.0296914,25.0292402 33.0847808,25.191821 L33.8614062,27.5136354 C34.2994337,27.2019103 34.8113615,27.0312677 35.3488186,27.0312677 C36.9396914,27.0312677 38.2336192,28.560333 38.2336192,30.440089 C38.2336192,31.7608897 37.5819526,32.9527007 36.6037808,33.511656 L37.7028804,35.1414945 L40.8846261,35.1414945 C41.1049835,35.1414945 41.2823443,35.3215426 41.2823443,35.5405564 C41.2823443,35.7609137 41.1049835,35.9396182 40.8846261,35.9396182 L37.4986467,35.9396182 L37.4932722,35.9396182 Z" id="Fill-20" fill="#FFFFFF" sketch:type="MSShapeGroup" mask="url(#mask-8)"></path>
                </g>
                <g id="Group-28" transform="translate(253.948454, 14.780069)">
                    <path d="M26.2956234,30.6413667 C23.2925821,30.6413667 20.8484962,28.1986244 20.8484962,25.1928959 C20.8484962,24.9080436 20.8699945,24.6312533 20.9116474,24.3584938 C21.1400667,25.2775454 21.5969052,26.1052292 22.2190117,26.7810814 L22.2190117,27.2822601 C22.2190117,27.4354354 22.3439704,27.5617378 22.4971457,27.5617378 C22.6422591,27.5617378 22.7604997,27.4502155 22.7739361,27.309133 C22.9365168,27.4421536 23.1071595,27.5657687 23.2845203,27.6799784 L23.2845203,27.9419887 C23.2845203,28.0951639 23.409479,28.2214663 23.5626543,28.2214663 C23.6983622,28.2214663 23.8112282,28.1260677 23.8367574,27.9957344 C24.0033691,28.0790402 24.1740117,28.1529405 24.3500289,28.2201227 L24.3500289,28.3894216 C24.3500289,28.5425969 24.4749876,28.6675557 24.6295065,28.6675557 C24.7799945,28.6675557 24.902266,28.5466278 24.9062969,28.3974835 C25.0729086,28.4391364 25.2422076,28.4767584 25.4155375,28.5022876 L25.4155375,28.685023 C25.4155375,28.8381983 25.5404962,28.963157 25.6950151,28.963157 C25.8481904,28.963157 25.9731491,28.8381983 25.9731491,28.685023 L25.9731491,28.5627515 C26.0806405,28.5681261 26.188132,28.5735007 26.2956234,28.5735007 C26.3574309,28.5735007 26.4192385,28.5708134 26.481046,28.5681261 L26.481046,28.685023 C26.481046,28.8381983 26.6046612,28.963157 26.7605237,28.963157 C26.913699,28.963157 27.0386577,28.8381983 27.0386577,28.685023 L27.0386577,28.5210986 C27.210644,28.4982567 27.379943,28.4673529 27.5465546,28.4297309 L27.5465546,28.4767584 C27.5465546,28.6312773 27.6701698,28.7548924 27.8260323,28.7548924 C27.9792076,28.7548924 28.10551,28.6312773 28.10551,28.4767584 L28.10551,28.2698375 C28.2801835,28.2066863 28.4508261,28.1395041 28.6174378,28.0615729 C28.6416234,28.1919062 28.7544893,28.2899921 28.8915409,28.2899921 C29.0447162,28.2899921 29.1710186,28.1650333 29.1710186,28.0118581 L29.1710186,27.7686588 C29.3658467,27.6490746 29.5526131,27.5187412 29.7326612,27.3749715 C29.7837196,27.4461845 29.8643381,27.4891811 29.9570495,27.4891811 C30.1115684,27.4891811 30.2365271,27.365566 30.2365271,27.2123907 L30.2365271,26.9261948 C30.9271595,26.2275007 31.4350564,25.3447275 31.680943,24.3584938 C31.7225959,24.6312533 31.7440942,24.9080436 31.7440942,25.1928959 C31.7440942,28.1986244 29.3000082,30.6413667 26.2956234,30.6413667 M26.2956234,19.7457687 C28.5247265,19.7457687 30.4421045,21.090755 31.285912,23.0094766 C31.285912,23.0161948 31.2845684,23.0215694 31.2845684,23.0282876 C31.2845684,24.1797893 30.8895375,25.2426107 30.2311526,26.0891055 C30.2042797,25.9614595 30.0914137,25.8647172 29.9570495,25.8647172 C29.8025306,25.8647172 29.6789155,25.9896759 29.6789155,26.1441948 L29.6789155,26.6897137 C29.5163347,26.8375144 29.3483794,26.9732223 29.1710186,27.0995247 L29.1710186,26.9436622 C29.1710186,26.7891433 29.0447162,26.6641845 28.8915409,26.6641845 C28.737022,26.6641845 28.6120632,26.7891433 28.6120632,26.9436622 L28.6120632,27.4421536 C28.4481388,27.5294904 28.2788399,27.606078 28.10551,27.6746038 L28.10551,27.4099062 C28.10551,27.2540436 27.9792076,27.1290849 27.8260323,27.1290849 C27.6701698,27.1290849 27.5465546,27.2540436 27.5465546,27.4099062 L27.5465546,27.8559955 C27.3812866,27.8989921 27.2119876,27.9325832 27.0386577,27.959456 L27.0386577,27.6181708 C27.0386577,27.4623082 26.913699,27.3373495 26.7605237,27.3373495 C26.6046612,27.3373495 26.481046,27.4623082 26.481046,27.6181708 L26.481046,28.0118581 C26.4192385,28.0132017 26.3574309,28.0145454 26.2956234,28.0145454 C26.188132,28.0145454 26.0806405,28.0118581 25.9744928,28.0037962 L25.9744928,27.6181708 C25.9744928,27.4623082 25.8481904,27.3373495 25.6950151,27.3373495 C25.5404962,27.3373495 25.4155375,27.4623082 25.4155375,27.6181708 L25.4155375,27.9352704 C25.2422076,27.9043667 25.0729086,27.865401 24.9076405,27.8170299 L24.9076405,27.3212258 C24.9076405,27.1680505 24.7826818,27.0417481 24.6295065,27.0417481 C24.4749876,27.0417481 24.3500289,27.1680505 24.3500289,27.3212258 L24.3500289,27.6195144 C24.1753553,27.5442704 24.0060564,27.4609646 23.842132,27.3669096 L23.842132,26.8751364 C23.842132,26.7206175 23.7171732,26.5956588 23.5626543,26.5956588 C23.409479,26.5956588 23.2845203,26.7206175 23.2845203,26.8751364 L23.2845203,27.0000952 C23.1058158,26.8630436 22.9351732,26.7165866 22.7766234,26.5580368 L22.7766234,26.2154079 C22.7766234,26.0595454 22.6516646,25.9359302 22.4971457,25.9359302 C22.4219017,25.9359302 22.3533759,25.9654904 22.3036612,26.0152052 C21.6788674,25.1794595 21.308022,24.1461983 21.308022,23.0256003 C21.308022,23.0215694 21.3066784,23.0161948 21.3066784,23.0094766 C22.1491423,21.090755 24.0692076,19.7457687 26.2956234,19.7457687 M26.2956234,19.188157 C22.9835443,19.188157 20.2895409,21.8808168 20.2895409,25.1928959 C20.2895409,28.5049749 22.9835443,31.1989784 26.2956234,31.1989784 C29.609046,31.1989784 32.3030495,28.5049749 32.3030495,25.1928959 C32.3030495,21.8808168 29.609046,19.188157 26.2956234,19.188157" id="Fill-23" fill="#FFFFFF" sketch:type="MSShapeGroup"></path>
                    <g id="Group-27">
                        <mask id="mask-10" sketch:name="Clip 26" fill="white">
                            <use xlink:href="#path-9"></use>
                        </mask>
                        <g id="Clip-26"></g>
                        <path d="M31.6202103,5.65794467 L15.0651897,22.2116216 C14.6849388,22.5918725 14.0682069,22.5918725 13.6892997,22.2116216 L13.018822,21.541144 C12.9664199,21.4887419 12.8952069,21.4605254 12.8213065,21.4605254 C12.7474062,21.4605254 12.6748495,21.4887419 12.6224474,21.541144 L4.46653677,29.6983983 L2.86357113,28.0954326 L3.32444055,27.6359069 L4.13734433,28.4501543 C4.19109003,28.5039 4.26364674,28.5307729 4.33351615,28.5307729 C4.40607285,28.5307729 4.47728591,28.5039 4.53237526,28.4501543 C4.63986667,28.3399756 4.63986667,28.1639584 4.53237526,28.0537797 L3.71812784,27.2422196 L11.0221691,19.939522 C11.1296605,19.8306869 11.1296605,19.6519825 11.0221691,19.5444911 L10.3503478,18.8726698 C9.97144055,18.4951062 9.97144055,17.8770306 10.3503478,17.4981234 L26.9053684,0.943102749 C27.2856192,0.564195533 27.9023512,0.564195533 28.2812584,0.943102749 L31.6202103,4.28339828 C31.8042893,4.46479003 31.9050625,4.71067663 31.9050625,4.96999966 C31.9050625,5.22932268 31.8042893,5.47386564 31.6202103,5.65794467 L31.6202103,5.65794467 Z M4.37785636,31.4531955 C4.23677388,31.5969653 4.05000756,31.6722093 3.85114845,31.6722093 C3.65228935,31.6722093 3.46417938,31.5969653 3.32444055,31.4531955 L1.10877388,29.2388725 C0.967691409,29.09779 0.89110378,28.9110237 0.89110378,28.7121646 C0.89110378,28.5133055 0.967691409,28.3251955 1.10877388,28.1854567 C1.24985636,28.0443742 1.43662268,27.966443 1.63682543,27.966443 C1.83434089,27.966443 2.02245086,28.0443742 2.16353333,28.1854567 L4.37785636,30.4011234 C4.51893883,30.5422058 4.5968701,30.7276285 4.5968701,30.9278313 C4.5968701,31.1266904 4.51893883,31.3134567 4.37785636,31.4531955 L4.37785636,31.4531955 Z M5.02817938,3.19504777 C5.02817938,2.92631924 5.18404192,2.73820928 5.3251244,2.73820928 L8.07959175,2.73820928 C8.22067423,2.73820928 8.37788041,2.92631924 8.37788041,3.19504777 L8.37788041,21.7937488 L5.02817938,25.1434498 L5.02817938,3.19504777 Z M10.5532378,2.73820928 L13.3090488,2.73820928 C13.4501313,2.73820928 13.6073375,2.92631924 13.6073375,3.19504777 L13.6073375,13.4524155 L10.2576364,16.8021165 L10.2576364,3.19504777 C10.2576364,2.92631924 10.413499,2.73820928 10.5532378,2.73820928 L10.5532378,2.73820928 Z M15.4857498,3.19504777 C15.4857498,2.92631924 15.6416124,2.73820928 15.7826948,2.73820928 L18.5385058,2.73820928 C18.6782447,2.73820928 18.8354509,2.92631924 18.8354509,3.19504777 L18.8354509,8.22295842 L15.4857498,11.5726595 L15.4857498,3.19504777 Z M32.4640179,4.96999966 C32.4640179,4.5615323 32.3041244,4.17725052 32.0152412,3.88702371 L28.6749457,0.546728179 C28.0783684,-0.0485054983 27.1082584,-0.0485054983 26.5103375,0.546728179 L19.3930625,7.66400309 L19.3930625,3.19504777 C19.3930625,2.63609244 19.0101244,2.18059759 18.5385058,2.18059759 L15.7826948,2.18059759 C15.3110763,2.18059759 14.9267945,2.63609244 14.9267945,3.19504777 L14.9267945,12.1316148 L14.1649491,12.8934601 L14.1649491,3.19504777 C14.1649491,2.63609244 13.7806674,2.18059759 13.3090488,2.18059759 L10.5532378,2.18059759 C10.0829629,2.18059759 9.6986811,2.63609244 9.6986811,3.19504777 L9.6986811,17.3019515 C9.6986811,17.3382299 9.70674296,17.3771955 9.72017938,17.409443 C9.37486323,17.9966148 9.4527945,18.7651784 9.95531684,19.2677007 L10.4296227,19.7420065 L8.9354921,21.2347935 L8.9354921,3.19504777 C8.9354921,2.63609244 8.55121031,2.18059759 8.07959175,2.18059759 L5.3251244,2.18059759 C4.85350584,2.18059759 4.46922405,2.63609244 4.46922405,3.19504777 L4.46922405,25.6607522 C4.46922405,25.672845 4.47191134,25.6849378 4.47325498,25.6970306 L2.46450928,27.7057763 C2.23205911,27.5136354 1.9418323,27.4074876 1.63682543,27.4074876 C1.28747835,27.4074876 0.960973196,27.5445392 0.713742955,27.7917694 C0.205846048,28.2996663 0.205846048,29.1260065 0.713742955,29.6339034 L2.92940962,31.8495701 C3.17529622,32.0954567 3.50180137,32.2311646 3.85114845,32.2311646 C4.19915189,32.2311646 4.52700069,32.0954567 4.77288729,31.8495701 C5.01877388,31.6036835 5.15448179,31.2744911 5.15448179,30.9278313 C5.15448179,30.6214808 5.04967766,30.3299103 4.85619313,30.0974601 L12.8213065,22.1336904 L13.2942687,22.6079962 C13.8921897,23.2045735 14.8622997,23.2045735 15.4602206,22.6079962 L32.0152412,6.0529756 C32.3041244,5.7627488 32.4640179,5.37981065 32.4640179,4.96999966 L32.4640179,4.96999966 Z" id="Fill-25" fill="#FFFFFF" sketch:type="MSShapeGroup" mask="url(#mask-10)"></path>
                    </g>
                </g>
                <g id="Group-57">
                    <path d="M281.434141,17.0422254 L270.285938,28.1890845 C270.177103,28.2979196 270.177103,28.4752804 270.285938,28.5841155 C270.341028,28.6378612 270.412241,28.664734 270.484798,28.664734 C270.554667,28.664734 270.627224,28.6378612 270.680969,28.5841155 L281.829172,17.4359127 C281.938007,17.3284213 281.938007,17.1497168 281.829172,17.0422254 C281.720337,16.9333904 281.542976,16.9333904 281.434141,17.0422254" id="Fill-29" fill="#FFFFFF" sketch:type="MSShapeGroup"></path>
                    <path d="M259.799345,18.779421 C259.644826,18.779421 259.519868,18.9043797 259.519868,19.057555 L259.519868,34.2460911 C259.519868,34.4019536 259.644826,34.5255687 259.799345,34.5255687 C259.953864,34.5255687 260.077479,34.4019536 260.077479,34.2460911 L260.077479,19.057555 C260.077479,18.9043797 259.953864,18.779421 259.799345,18.779421" id="Fill-31" fill="#FFFFFF" sketch:type="MSShapeGroup"></path>
                    <path d="M614.322942,154.531934 L614.322942,123.964064 L629.061358,123.964064 L629.061358,130.514322 L635.611615,130.514322 L635.611615,154.531934 L614.322942,154.531934 Z M630.152396,124.735315 L634.840365,129.423284 L630.152396,129.423284 L630.152396,124.735315 Z M636.702653,129.743071 L629.833952,122.873026 L613.231904,122.873026 L613.231904,155.622971 L636.702653,155.622971 L636.702653,129.743071 Z" id="Fill-33" fill="#FFFFFF" sketch:type="MSShapeGroup"></path>
                    <path d="M645.436599,154.403347 L643.798699,151.127546 L643.798699,128.331306 L647.074499,128.331306 L647.074499,151.127546 L645.436599,154.403347 Z M647.074499,127.238924 L643.798699,127.238924 L643.798699,122.872086 L647.074499,122.872086 L647.074499,127.238924 Z M648.165537,121.781048 L642.707661,121.781048 L642.707661,151.385526 L645.436599,156.843402 L648.165537,151.385526 L648.165537,121.781048 Z" id="Fill-35" fill="#FFFFFF" sketch:type="MSShapeGroup"></path>
                    <mask id="mask-12" sketch:name="Clip 38" fill="white">
                        <use xlink:href="#path-11"></use>
                    </mask>
                    <g id="Clip-38"></g>
                    <path d="M617.598608,128.331306 L624.148866,128.331306 L624.148866,129.422344 L617.598608,129.422344 L617.598608,128.331306 Z" id="Fill-37" fill="#FFFFFF" sketch:type="MSShapeGroup" mask="url(#mask-12)"></path>
                    <path d="M617.598608,133.789182 L632.337024,133.789182 L632.337024,134.88022 L617.598608,134.88022 L617.598608,133.789182 Z" id="Fill-39" fill="#FFFFFF" sketch:type="MSShapeGroup" mask="url(#mask-12)"></path>
                    <path d="M617.598608,138.156021 L632.337024,138.156021 L632.337024,139.247058 L617.598608,139.247058 L617.598608,138.156021 Z" id="Fill-40" fill="#FFFFFF" sketch:type="MSShapeGroup" mask="url(#mask-12)"></path>
                    <path d="M617.598608,142.522859 L632.337024,142.522859 L632.337024,143.613897 L617.598608,143.613897 L617.598608,142.522859 Z" id="Fill-41" fill="#FFFFFF" sketch:type="MSShapeGroup" mask="url(#mask-12)"></path>
                    <path d="M617.598608,146.889698 L632.337024,146.889698 L632.337024,147.980735 L617.598608,147.980735 L617.598608,146.889698 Z" id="Fill-42" fill="#FFFFFF" sketch:type="MSShapeGroup" mask="url(#mask-12)"></path>
                    <path d="M661.408076,138.74682 C661.408076,155.072078 648.173196,168.306958 631.847938,168.306958 C615.52268,168.306958 602.287801,155.072078 602.287801,138.74682 C602.287801,122.421563 615.52268,109.186683 631.847938,109.186683 C648.173196,109.186683 661.408076,122.421563 661.408076,138.74682 L661.408076,138.74682 Z" id="Stroke-43" stroke="#FFFFFF" sketch:type="MSShapeGroup" mask="url(#mask-12)"></path>
                    <path d="M422.239691,138.74682 C422.239691,155.072078 409.004811,168.306958 392.679553,168.306958 C376.354296,168.306958 363.119416,155.072078 363.119416,138.74682 C363.119416,122.421563 376.354296,109.186683 392.679553,109.186683 C409.004811,109.186683 422.239691,122.421563 422.239691,138.74682 L422.239691,138.74682 Z" id="Stroke-44" stroke="#FFFFFF" sketch:type="MSShapeGroup" mask="url(#mask-12)"></path>
                    <path d="M182.063574,139.06701 C182.063574,155.392268 168.828694,168.627148 152.503436,168.627148 C136.178179,168.627148 122.943299,155.392268 122.943299,139.06701 C122.943299,122.741753 136.178179,109.506873 152.503436,109.506873 C168.828694,109.506873 182.063574,122.741753 182.063574,139.06701 L182.063574,139.06701 Z" id="Stroke-45" stroke="#FFFFFF" sketch:type="MSShapeGroup" mask="url(#mask-12)"></path>
                    <path d="M617.96287,145.115955 L622.544691,149.696433 L632.708004,136.812244" id="Stroke-46" stroke="#FFFFFF" stroke-width="1.208" sketch:type="MSShapeGroup" mask="url(#mask-12)"></path>
                    <path d="M409.66454,141.450632 L375.024089,141.450632 L375.024089,123.553313 L409.66454,123.553313 L409.66454,141.450632 Z M409.66454,146.070076 L375.024089,146.070076 L375.024089,142.606165 L409.66454,142.606165 L409.66454,146.070076 Z M373.868557,147.224265 L391.765876,147.224265 L391.765876,152.997897 L386.57001,152.997897 L386.57001,154.152086 L398.117275,154.152086 L398.117275,152.997897 L392.921409,152.997897 L392.921409,147.224265 L410.818729,147.224265 L410.818729,142.606165 L410.818729,141.450632 L410.818729,122.399124 L373.868557,122.399124 L373.868557,147.224265 Z" id="Fill-47" fill="#FFFFFF" sketch:type="MSShapeGroup" mask="url(#mask-12)"></path>
                    <path d="M169.840323,151.310685 L153.081068,153.472606 L153.081068,126.898042 L169.840323,124.737465 L169.840323,151.310685 Z M135.166281,124.737465 L151.925536,126.898042 L151.925536,153.472606 L135.166281,151.310685 L135.166281,124.737465 Z M134.010749,123.422039 L134.010749,152.326479 L152.503302,154.711444 L170.995855,152.326479 L170.995855,123.422039 L152.503302,125.808348 L134.010749,123.422039 Z" id="Fill-48" fill="#FFFFFF" sketch:type="MSShapeGroup" mask="url(#mask-12)"></path>
                    <path d="M138.116383,129.283545 L149.096631,130.439078 L148.975703,131.589236 L137.995455,130.43236 L138.116383,129.283545 Z" id="Fill-49" fill="#FFFFFF" sketch:type="MSShapeGroup" mask="url(#mask-12)"></path>
                    <path d="M148.975703,137.367705 L137.995455,136.212173 L138.116383,135.060671 L149.096631,136.218891 L148.975703,137.367705 Z" id="Fill-50" fill="#FFFFFF" sketch:type="MSShapeGroup" mask="url(#mask-12)"></path>
                    <path d="M148.975703,143.146444 L137.995455,141.990911 L138.116383,140.839409 L149.096631,141.997629 L148.975703,143.146444 Z" id="Fill-51" fill="#FFFFFF" sketch:type="MSShapeGroup" mask="url(#mask-12)"></path>
                    <path d="M148.975703,148.925182 L137.995455,147.769649 L138.116383,146.618147 L149.096631,147.776367 L148.975703,148.925182 Z" id="Fill-52" fill="#FFFFFF" sketch:type="MSShapeGroup" mask="url(#mask-12)"></path>
                    <path d="M166.890624,129.283545 L167.011552,130.43236 L156.031304,131.587892 L155.910377,130.436391 L166.890624,129.283545 Z" id="Fill-53" fill="#FFFFFF" sketch:type="MSShapeGroup" mask="url(#mask-12)"></path>
                    <path d="M166.890624,135.062284 L167.011552,136.212442 L156.031304,137.366631 L155.910377,136.215129 L166.890624,135.062284 Z" id="Fill-54" fill="#FFFFFF" sketch:type="MSShapeGroup" mask="url(#mask-12)"></path>
                    <path d="M166.891162,140.841022 L167.010746,141.99118 L156.030498,143.145369 L155.910914,141.995211 L166.891162,140.841022 Z" id="Fill-55" fill="#FFFFFF" sketch:type="MSShapeGroup" mask="url(#mask-12)"></path>
                    <path d="M156.029826,148.923838 L155.910242,147.77368 L166.889146,146.620835 L167.010074,147.770993 L156.029826,148.923838 Z" id="Fill-56" fill="#FFFFFF" sketch:type="MSShapeGroup" mask="url(#mask-12)"></path>
                </g>
            </g>
        </g>
    </g>
</svg>