<?xml version="1.0" encoding="UTF-8" standalone="no"?>
<svg width="1140px" height="685px" viewBox="0 0 1140 685" version="1.1" xmlns="http://www.w3.org/2000/svg" xmlns:xlink="http://www.w3.org/1999/xlink" xmlns:sketch="http://www.bohemiancoding.com/sketch/ns">
    <!-- Generator: Sketch 3.4.2 (15857) - http://www.bohemiancoding.com/sketch -->
    <title>Artboard 1 Copy 4</title>
    <desc>Created with Sketch.</desc>
    <defs></defs>
    <g id="Page-1" stroke="none" stroke-width="1" fill="none" fill-rule="evenodd" sketch:type="MSPage">
        <rect id="Rectangle-7" fill="#FAFAFA" sketch:type="MSShapeGroup" x="-1" y="0" width="1168" height="712"></rect>
        <g id="Artboard-1-Copy-4" sketch:type="MSArtboardGroup">
            <text id="Learn" sketch:type="MSTextLayer" font-family="Adobe Garamond Pro" font-size="114" font-weight="normal" letter-spacing="2.8499999" fill="#333333">
                <tspan x="245" y="232">Learn</tspan>
            </text>
            <text id="AT-HEADFORT,-YOUR-CH" sketch:type="MSTextLayer" font-family="Gill Sans" font-size="32" font-weight="normal" line-spacing="59" letter-spacing="0.799999893" fill="#EF4437">
                <tspan x="245" y="336">AT HEADFORT, YOUR CHILD WILL LEARN THE EDUCATIONAL FUNDAMENTALS </tspan>
                <tspan x="245" y="395">AND VALUES THAT WILL NOURISH THEM FOR THE REST OF THEIR LIVES.</tspan>
            </text>
            <text id="With-an-unwavering-c" sketch:type="MSTextLayer" font-family="Adobe Garamond Pro" font-size="34" font-weight="normal" line-spacing="59" letter-spacing="0.849999845" fill="#333333">
                <tspan x="245" y="513.64502">With an unwavering commitment to each and every child’s learning, a Headfort </tspan>
                <tspan x="245" y="579.445033">education is like no other. While we teach children the national curriculum and work </tspan>
                <tspan x="245" y="645.245047">to standardised tests, the staff at Headfort work to do more than ensure that every child </tspan>
                <tspan x="245" y="711.045061">excels at these: we educate children for a rapidly changing world, and provide with </tspan>
                <tspan x="245" y="776.845075">them with information and tools they can rely on – a He</tspan>
            </text>
            <text id="h1:-Garamond,-48px" opacity="0.5" sketch:type="MSTextLayer" font-family="Proxima Nova" font-size="12" font-weight="normal" sketch:alignment="right" line-spacing="17" letter-spacing="0.299999952" fill="#AAAAAA">
                <tspan x="80.0160009" y="197">h1: Garamond, 48px</tspan>
            </text>
            <text id="h2:-Gil-Sans,-24px" opacity="0.5" sketch:type="MSTextLayer" font-family="Proxima Nova" font-size="12" font-weight="normal" sketch:alignment="right" line-spacing="17" letter-spacing="0.299999952" fill="#AAAAAA">
                <tspan x="89.5920009" y="355">h2: Gil Sans, 24px</tspan>
            </text>
            <text id="body:-Garamond,-14px" opacity="0.5" sketch:type="MSTextLayer" font-family="Proxima Nova" font-size="12" font-weight="normal" sketch:alignment="right" line-spacing="17" letter-spacing="0.299999952" fill="#AAAAAA">
                <tspan x="66.180001" y="543">body: Garamond, 14px </tspan>
            </text>
            <path d="M216.86,230.432 L220.96,230.432 L220.96,228.792 L217.024,228.792 C216.258663,228.792 215.589003,228.669001 215.015,228.423 C214.440997,228.176999 213.976335,227.726003 213.621,227.07 C213.265665,226.413997 212.992334,225.498339 212.801,224.323 C212.609666,223.147661 212.514,221.658009 212.514,219.854 L212.514,206.652 C212.514,203.535984 211.981005,200.734346 210.915,198.247 C209.848995,195.759654 208.414009,194.078671 206.61,193.204 C207.648672,192.766664 208.536996,192.056005 209.275,191.072 C210.013004,190.087995 210.627998,188.96734 211.12,187.71 C211.612002,186.45266 211.967332,185.140673 212.186,183.774 C212.404668,182.407327 212.514,181.122673 212.514,179.92 L212.514,166.472 C212.514,163.08265 212.855663,160.773006 213.539,159.543 C214.222337,158.312994 215.383992,157.698 217.024,157.698 L220.96,157.698 L220.96,156.058 L216.86,156.058 C214.563989,156.058 212.992338,156.76866 212.145,158.19 C211.297662,159.61134 210.874,161.879984 210.874,164.996 L210.874,178.526 C210.874,180.166008 210.737335,181.778659 210.464,183.364 C210.190665,184.949341 209.794336,186.37066 209.275,187.628 C208.755664,188.88534 208.14067,189.923996 207.43,190.744 C206.71933,191.564004 205.899338,192.055999 204.97,192.22 L204.97,193.86 C207.375345,195.445341 208.960663,197.372322 209.726,199.641 C210.491337,201.909678 210.874,204.711317 210.874,208.046 L210.874,221.33 C210.874,224.446016 211.297662,226.741993 212.145,228.218 C212.992338,229.694007 214.563989,230.432 216.86,230.432 L216.86,230.432 Z" id="{" opacity="0.5" fill="#AAAAAA" sketch:type="MSShapeGroup"></path>
            <path d="M216.86,390.432 L220.96,390.432 L220.96,388.792 L217.024,388.792 C216.258663,388.792 215.589003,388.669001 215.015,388.423 C214.440997,388.176999 213.976335,387.726003 213.621,387.07 C213.265665,386.413997 212.992334,385.498339 212.801,384.323 C212.609666,383.147661 212.514,381.658009 212.514,379.854 L212.514,366.652 C212.514,363.535984 211.981005,360.734346 210.915,358.247 C209.848995,355.759654 208.414009,354.078671 206.61,353.204 C207.648672,352.766664 208.536996,352.056005 209.275,351.072 C210.013004,350.087995 210.627998,348.96734 211.12,347.71 C211.612002,346.45266 211.967332,345.140673 212.186,343.774 C212.404668,342.407327 212.514,341.122673 212.514,339.92 L212.514,326.472 C212.514,323.08265 212.855663,320.773006 213.539,319.543 C214.222337,318.312994 215.383992,317.698 217.024,317.698 L220.96,317.698 L220.96,316.058 L216.86,316.058 C214.563989,316.058 212.992338,316.76866 212.145,318.19 C211.297662,319.61134 210.874,321.879984 210.874,324.996 L210.874,338.526 C210.874,340.166008 210.737335,341.778659 210.464,343.364 C210.190665,344.949341 209.794336,346.37066 209.275,347.628 C208.755664,348.88534 208.14067,349.923996 207.43,350.744 C206.71933,351.564004 205.899338,352.055999 204.97,352.22 L204.97,353.86 C207.375345,355.445341 208.960663,357.372322 209.726,359.641 C210.491337,361.909678 210.874,364.711317 210.874,368.046 L210.874,381.33 C210.874,384.446016 211.297662,386.741993 212.145,388.218 C212.992338,389.694007 214.563989,390.432 216.86,390.432 L216.86,390.432 Z" id="{-copy" opacity="0.5" fill="#AAAAAA" sketch:type="MSShapeGroup"></path>
            <path d="M216.86,577.432 L220.96,577.432 L220.96,575.792 L217.024,575.792 C216.258663,575.792 215.589003,575.669001 215.015,575.423 C214.440997,575.176999 213.976335,574.726003 213.621,574.07 C213.265665,573.413997 212.992334,572.498339 212.801,571.323 C212.609666,570.147661 212.514,568.658009 212.514,566.854 L212.514,553.652 C212.514,550.535984 211.981005,547.734346 210.915,545.247 C209.848995,542.759654 208.414009,541.078671 206.61,540.204 C207.648672,539.766664 208.536996,539.056005 209.275,538.072 C210.013004,537.087995 210.627998,535.96734 211.12,534.71 C211.612002,533.45266 211.967332,532.140674 212.186,530.774 C212.404668,529.407326 212.514,528.122673 212.514,526.92 L212.514,513.472 C212.514,510.08265 212.855663,507.773006 213.539,506.543 C214.222337,505.312994 215.383992,504.698 217.024,504.698 L220.96,504.698 L220.96,503.058 L216.86,503.058 C214.563989,503.058 212.992338,503.76866 212.145,505.19 C211.297662,506.61134 210.874,508.879984 210.874,511.996 L210.874,525.526 C210.874,527.166008 210.737335,528.778659 210.464,530.364 C210.190665,531.949341 209.794336,533.37066 209.275,534.628 C208.755664,535.88534 208.14067,536.923996 207.43,537.744 C206.71933,538.564004 205.899338,539.055999 204.97,539.22 L204.97,540.86 C207.375345,542.445341 208.960663,544.372322 209.726,546.641 C210.491337,548.909678 210.874,551.711317 210.874,555.046 L210.874,568.33 C210.874,571.446016 211.297662,573.741993 212.145,575.218 C212.992338,576.694007 214.563989,577.432 216.86,577.432 L216.86,577.432 Z" id="{-copy-2" opacity="0.5" fill="#AAAAAA" sketch:type="MSShapeGroup"></path>
        </g>
    </g>
</svg>