<?xml version="1.0" encoding="UTF-8" standalone="no"?>
<svg width="1140px" height="685px" viewBox="0 0 1140 685" version="1.1" xmlns="http://www.w3.org/2000/svg" xmlns:xlink="http://www.w3.org/1999/xlink" xmlns:sketch="http://www.bohemiancoding.com/sketch/ns">
    <!-- Generator: Sketch 3.4.2 (15857) - http://www.bohemiancoding.com/sketch -->
    <title>Artboard 1 Copy 3</title>
    <desc>Created with Sketch.</desc>
    <defs>
        <path id="path-1" d="M0,0.018 L421.674,0.018 L421.674,124 L0,124 L0,0.018 Z"></path>
        <path id="path-3" d="M43.729,0.972 L1.23,0.972 C1.23,0.972 0.876,30.591 0.876,51.31 L0.876,51.31 C0.876,51.31 -1.133,73.157 11.725,85.081 L11.725,85.081 C24.366,96.797 41.117,104.055 43.729,105.143 L43.729,105.143 C46.342,104.055 63.087,96.797 75.719,85.081 L75.719,85.081 C88.585,73.157 86.574,51.31 86.574,51.31 L86.574,51.31 C86.574,30.591 86.215,0.972 86.215,0.972 L86.215,0.972"></path>
        <path id="path-5" d="M43.729,0.972 L1.23,0.972 C1.23,0.972 0.876,30.591 0.876,51.31 L0.876,51.31 C0.876,51.31 -1.133,73.157 11.725,85.081 L11.725,85.081 C24.366,96.797 41.117,104.055 43.729,105.143 L43.729,105.143 C46.342,104.055 63.087,96.797 75.719,85.081 L75.719,85.081 C88.585,73.157 86.574,51.31 86.574,51.31 L86.574,51.31 C86.574,30.591 86.215,0.972 86.215,0.972 L86.215,0.972"></path>
        <path id="path-7" d="M43.729,0.972 L1.23,0.972 C1.23,0.972 0.876,30.591 0.876,51.31 L0.876,51.31 C0.876,51.31 -1.133,73.157 11.725,85.081 L11.725,85.081 C24.366,96.797 41.117,104.055 43.729,105.143 L43.729,105.143 C46.342,104.055 63.087,96.797 75.719,85.081 L75.719,85.081 C88.585,73.157 86.574,51.31 86.574,51.31 L86.574,51.31 C86.574,30.591 86.215,0.972 86.215,0.972 L86.215,0.972"></path>
        <path id="path-9" d="M43.729,0.972 L1.23,0.972 C1.23,0.972 0.876,30.591 0.876,51.31 L0.876,51.31 C0.876,51.31 -1.133,73.157 11.725,85.081 L11.725,85.081 C24.366,96.797 41.117,104.055 43.729,105.143 L43.729,105.143 C46.342,104.055 63.087,96.797 75.719,85.081 L75.719,85.081 C88.585,73.157 86.574,51.31 86.574,51.31 L86.574,51.31 C86.574,30.591 86.215,0.972 86.215,0.972 L86.215,0.972"></path>
        <path id="path-11" d="M43.729,0.972 L1.23,0.972 C1.23,0.972 0.876,30.591 0.876,51.31 L0.876,51.31 C0.876,51.31 -1.133,73.157 11.725,85.081 L11.725,85.081 C24.366,96.797 41.117,104.055 43.729,105.143 L43.729,105.143 C46.342,104.055 63.087,96.797 75.719,85.081 L75.719,85.081 C88.585,73.157 86.574,51.31 86.574,51.31 L86.574,51.31 C86.574,30.591 86.215,0.972 86.215,0.972 L86.215,0.972"></path>
        <path id="path-13" d="M43.729,0.972 L1.23,0.972 C1.23,0.972 0.876,30.591 0.876,51.31 L0.876,51.31 C0.876,51.31 -1.133,73.157 11.725,85.081 L11.725,85.081 C24.366,96.797 41.117,104.055 43.729,105.143 L43.729,105.143 C46.342,104.055 63.087,96.797 75.719,85.081 L75.719,85.081 C88.585,73.157 86.574,51.31 86.574,51.31 L86.574,51.31 C86.574,30.591 86.215,0.972 86.215,0.972 L86.215,0.972"></path>
        <path id="path-15" d="M43.729,0.972 L1.23,0.972 C1.23,0.972 0.876,30.591 0.876,51.31 L0.876,51.31 C0.876,51.31 -1.133,73.157 11.725,85.081 L11.725,85.081 C24.366,96.797 41.117,104.055 43.729,105.143 L43.729,105.143 C46.342,104.055 63.087,96.797 75.719,85.081 L75.719,85.081 C88.585,73.157 86.574,51.31 86.574,51.31 L86.574,51.31 C86.574,30.591 86.215,0.972 86.215,0.972 L86.215,0.972"></path>
        <path id="path-17" d="M43.729,0.972 L1.23,0.972 C1.23,0.972 0.876,30.591 0.876,51.31 L0.876,51.31 C0.876,51.31 -1.133,73.157 11.725,85.081 L11.725,85.081 C24.366,96.797 41.117,104.055 43.729,105.143 L43.729,105.143 C46.342,104.055 63.087,96.797 75.719,85.081 L75.719,85.081 C88.585,73.157 86.574,51.31 86.574,51.31 L86.574,51.31 C86.574,30.591 86.215,0.972 86.215,0.972 L86.215,0.972"></path>
        <path id="path-19" d="M43.729,0.972 L1.23,0.972 C1.23,0.972 0.876,30.591 0.876,51.31 L0.876,51.31 C0.876,51.31 -1.133,73.157 11.725,85.081 L11.725,85.081 C24.366,96.797 41.117,104.055 43.729,105.143 L43.729,105.143 C46.342,104.055 63.087,96.797 75.719,85.081 L75.719,85.081 C88.585,73.157 86.574,51.31 86.574,51.31 L86.574,51.31 C86.574,30.591 86.215,0.972 86.215,0.972 L86.215,0.972"></path>
        <path id="path-21" d="M43.729,0.972 L1.23,0.972 C1.23,0.972 0.876,30.591 0.876,51.31 L0.876,51.31 C0.876,51.31 -1.133,73.157 11.725,85.081 L11.725,85.081 C24.366,96.797 41.117,104.055 43.729,105.143 L43.729,105.143 C46.342,104.055 63.087,96.797 75.719,85.081 L75.719,85.081 C88.585,73.157 86.574,51.31 86.574,51.31 L86.574,51.31 C86.574,30.591 86.215,0.972 86.215,0.972 L86.215,0.972"></path>
        <path id="path-23" d="M43.729,0.972 L1.23,0.972 C1.23,0.972 0.876,30.591 0.876,51.31 L0.876,51.31 C0.876,51.31 -1.133,73.157 11.725,85.081 L11.725,85.081 C24.366,96.797 41.117,104.055 43.729,105.143 L43.729,105.143 C46.342,104.055 63.087,96.797 75.719,85.081 L75.719,85.081 C88.585,73.157 86.574,51.31 86.574,51.31 L86.574,51.31 C86.574,30.591 86.215,0.972 86.215,0.972 L86.215,0.972"></path>
        <path id="path-25" d="M43.729,0.972 L1.23,0.972 C1.23,0.972 0.876,30.591 0.876,51.31 L0.876,51.31 C0.876,51.31 -1.133,73.157 11.725,85.081 L11.725,85.081 C24.366,96.797 41.117,104.055 43.729,105.143 L43.729,105.143 C46.342,104.055 63.087,96.797 75.719,85.081 L75.719,85.081 C88.585,73.157 86.574,51.31 86.574,51.31 L86.574,51.31 C86.574,30.591 86.215,0.972 86.215,0.972 L86.215,0.972"></path>
        <path id="path-27" d="M43.729,0.972 L1.23,0.972 C1.23,0.972 0.876,30.591 0.876,51.31 L0.876,51.31 C0.876,51.31 -1.133,73.157 11.725,85.081 L11.725,85.081 C24.366,96.797 41.117,104.055 43.729,105.143 L43.729,105.143 C46.342,104.055 63.087,96.797 75.719,85.081 L75.719,85.081 C88.585,73.157 86.574,51.31 86.574,51.31 L86.574,51.31 C86.574,30.591 86.215,0.972 86.215,0.972 L86.215,0.972"></path>
        <path id="path-29" d="M43.729,0.972 L1.23,0.972 C1.23,0.972 0.876,30.591 0.876,51.31 L0.876,51.31 C0.876,51.31 -1.133,73.157 11.725,85.081 L11.725,85.081 C24.366,96.797 41.117,104.055 43.729,105.143 L43.729,105.143 C46.342,104.055 63.087,96.797 75.719,85.081 L75.719,85.081 C88.585,73.157 86.574,51.31 86.574,51.31 L86.574,51.31 C86.574,30.591 86.215,0.972 86.215,0.972 L86.215,0.972"></path>
    </defs>
    <g id="Page-1" stroke="none" stroke-width="1" fill="none" fill-rule="evenodd" sketch:type="MSPage">
        <rect id="Rectangle-7-Copy" fill="#FAFAFA" sketch:type="MSShapeGroup" x="-24" y="-23" width="1168" height="712"></rect>
        <g id="Artboard-1-Copy-3" sketch:type="MSArtboardGroup">
            <g id="Page-1" sketch:type="MSLayerGroup" transform="translate(359.000000, 281.000000)">
                <g id="Group-18">
                    <path d="M130.0727,32.7964 C127.2937,32.7964 127.1777,32.9124 127.1777,34.6494 L127.1777,42.8144 C127.1777,48.8944 127.4677,49.7054 130.7097,50.0524 L132.3887,50.2264 C132.7367,50.4584 132.6207,51.5004 132.2737,51.6744 C129.1467,51.5584 127.1777,51.5004 124.9197,51.5004 C122.4287,51.5004 120.4607,51.6164 118.2017,51.6744 C117.8547,51.5004 117.7387,50.5734 118.0857,50.2264 L119.0707,50.0524 C122.3137,49.4744 122.4287,48.8944 122.4287,42.8144 L122.4287,21.9674 C122.4287,15.8884 122.0237,14.9034 119.0127,14.6714 L117.5077,14.5564 C117.1597,14.3244 117.2757,13.2814 117.6227,13.1084 C120.4607,13.1664 122.4287,13.2814 124.9197,13.2814 C127.1777,13.2814 129.1467,13.2244 131.6357,13.1084 C131.9837,13.2814 132.0997,14.3244 131.7527,14.5564 L130.6517,14.6714 C127.2937,15.0194 127.1777,15.8884 127.1777,21.9674 L127.1777,28.6274 C127.1777,30.4224 127.2937,30.4804 130.0727,30.4804 L146.6347,30.4804 C149.4137,30.4804 149.5297,30.4224 149.5297,28.6274 L149.5297,21.9674 C149.5297,15.8884 149.4137,15.0194 145.9977,14.6714 L144.8967,14.5564 C144.5497,14.3244 144.6657,13.2814 145.0127,13.1084 C147.6767,13.2244 149.6457,13.2814 152.0197,13.2814 C154.2787,13.2814 156.2467,13.2244 158.8527,13.1084 C159.1997,13.2814 159.3157,14.3244 158.9687,14.5564 L157.7527,14.6714 C154.3937,15.0194 154.2787,15.8884 154.2787,21.9674 L154.2787,42.8144 C154.2787,48.8944 154.3937,49.6474 157.7527,50.0524 L159.1417,50.2264 C159.4897,50.4584 159.3737,51.5004 159.0267,51.6744 C156.2467,51.5584 154.2787,51.5004 152.0197,51.5004 C149.6457,51.5004 147.5607,51.5584 145.0127,51.6744 C144.6657,51.5004 144.5497,50.5734 144.8967,50.2264 L145.9977,50.0524 C149.5297,49.4744 149.5297,48.8944 149.5297,42.8144 L149.5297,34.6494 C149.5297,32.9124 149.4137,32.7964 146.6347,32.7964 L130.0727,32.7964 Z" id="Fill-1" fill="#212120" sketch:type="MSShapeGroup"></path>
                    <path d="M169.0967,21.9678 C169.0967,15.9458 168.9817,15.0768 165.5647,14.6718 L164.6377,14.5558 C164.2907,14.3248 164.4067,13.2818 164.7537,13.1078 C167.2437,13.2238 169.2127,13.2818 171.5877,13.2818 L182.4737,13.2818 C186.1797,13.2818 189.5957,13.2818 190.2907,13.1078 C190.6387,14.0928 190.9857,18.2618 191.2177,20.8098 C190.9857,21.1578 190.0597,21.2728 189.7697,20.9258 C188.9017,18.2038 188.3807,16.1778 185.3687,15.4248 C184.1527,15.1348 182.2997,15.0768 179.7517,15.0768 L175.5827,15.0768 C173.8457,15.0768 173.8457,15.1928 173.8457,17.3928 L173.8457,28.9748 C173.8457,30.5958 174.0187,30.5958 175.7567,30.5958 L179.1147,30.5958 C181.5477,30.5958 183.3427,30.4798 184.0367,30.2488 C184.7317,30.0168 185.1367,29.6698 185.4267,28.2218 L185.8897,25.8478 C186.1797,25.4998 187.1637,25.4998 187.3957,25.9058 C187.3957,27.2958 187.1637,29.5538 187.1637,31.7548 C187.1637,33.8388 187.3957,36.0388 187.3957,37.3138 C187.1637,37.7188 186.1797,37.7188 185.8897,37.3708 L185.3687,35.1128 C185.1367,34.0708 184.7317,33.2018 183.5737,32.9118 C182.7627,32.6808 181.3737,32.6228 179.1147,32.6228 L175.7567,32.6228 C174.0187,32.6228 173.8457,32.6808 173.8457,34.1858 L173.8457,42.3508 C173.8457,45.4208 174.0187,47.3888 174.9457,48.3738 C175.6407,49.0688 176.8567,49.7058 181.9527,49.7058 C186.4117,49.7058 188.0907,49.4738 189.3647,48.8368 C190.4067,48.2578 191.9707,46.2308 193.4757,43.2198 C193.8817,42.9298 194.6917,43.1038 194.9237,43.6248 C194.5187,45.6518 193.0707,50.1108 192.3177,51.6748 C187.1067,51.5588 181.9527,51.5008 176.7987,51.5008 L171.5877,51.5008 C169.0967,51.5008 167.1287,51.5588 163.7117,51.6748 C163.3647,51.5008 163.2487,50.5738 163.5957,50.2268 L165.5067,50.0528 C168.8077,49.7628 169.0967,48.8948 169.0967,42.8148 L169.0967,21.9678 Z" id="Fill-3" fill="#212120" sketch:type="MSShapeGroup"></path>
                    <path d="M221.9634,38.066 C221.5584,36.792 221.3264,36.618 219.5894,36.618 L210.8454,36.618 C209.3974,36.618 209.0504,36.792 208.6444,38.008 L206.6174,44.088 C205.7494,46.694 205.3444,48.258 205.3444,48.895 C205.3444,49.589 205.6334,49.937 207.0244,50.053 L208.9344,50.227 C209.3394,50.516 209.3394,51.442 208.8184,51.674 C207.3124,51.559 205.5174,51.559 202.7974,51.501 C200.8854,51.501 198.8004,51.616 197.2374,51.674 C196.8894,51.442 196.7744,50.516 197.1214,50.227 L199.0324,50.053 C200.4224,49.937 201.6964,49.3 202.5064,47.215 C203.5494,44.552 205.1714,40.788 207.6024,34.302 L213.5094,18.667 C214.3194,16.583 214.6674,15.483 214.4934,14.556 C215.8834,14.15 216.8674,13.108 217.5044,12.356 C217.8524,12.356 218.2574,12.471 218.3734,12.877 C219.1264,15.424 220.0524,18.088 220.9214,20.636 L228.8554,43.915 C230.5334,48.895 231.2864,49.763 233.7764,50.053 L235.3404,50.227 C235.7454,50.516 235.6294,51.442 235.3404,51.674 C232.9664,51.559 230.9404,51.501 228.3334,51.501 C225.5534,51.501 223.3544,51.616 221.6744,51.674 C221.2104,51.442 221.1524,50.516 221.5584,50.227 L223.2374,50.053 C224.4534,49.937 225.2634,49.589 225.2634,49.01 C225.2634,48.374 224.9754,47.331 224.5114,45.942 L221.9634,38.066 Z M210.4974,32.912 C210.0344,34.244 210.0924,34.302 211.7144,34.302 L218.8364,34.302 C220.5164,34.302 220.6314,34.07 220.1104,32.507 L216.9844,23.068 C216.5214,21.678 215.9994,20.115 215.6514,19.42 L215.5354,19.42 C215.3624,19.71 214.7824,21.099 214.1464,22.837 L210.4974,32.912 Z" id="Fill-5" fill="#212120" sketch:type="MSShapeGroup"></path>
                    <path d="M244.7817,20.8096 C244.7817,16.7566 244.4917,15.5396 242.0597,15.1926 L240.7857,15.0186 C240.3227,14.7296 240.2647,13.8026 240.8437,13.5716 C245.7657,13.2816 250.4567,13.1076 255.3787,13.1076 C260.2427,13.1076 264.3547,13.4556 268.1177,14.8456 C275.9357,17.6836 279.8737,24.2846 279.8737,31.9276 C279.8737,39.2826 276.3417,45.5936 269.7397,49.1836 C265.9757,51.2106 261.2277,51.9636 256.7687,51.9636 C253.0627,51.9636 249.3567,51.5006 247.3297,51.5006 C244.8977,51.5006 242.8127,51.5586 240.0917,51.6746 C239.7437,51.5006 239.6277,50.5736 239.9757,50.2266 L241.3057,50.0526 C244.6657,49.5896 244.7817,48.8946 244.7817,42.8146 L244.7817,20.8096 Z M249.5307,41.4826 C249.5307,44.5516 249.7037,46.4046 250.6887,47.7946 C251.9627,49.5896 254.1627,50.1686 257.8107,50.1686 C269.0447,50.1686 274.0827,42.8146 274.0827,32.0436 C274.0827,25.6736 271.0137,14.9036 255.8417,14.9036 C252.4257,14.9036 250.5727,15.3666 250.1097,15.7136 C249.6457,16.0616 249.5307,17.5086 249.5307,20.1146 L249.5307,41.4826 Z" id="Fill-7" fill="#212120" sketch:type="MSShapeGroup"></path>
                    <path d="M291.7993,29.6119 C291.7993,31.1749 291.9733,31.1749 293.7093,31.1749 L297.6483,31.1749 C300.0223,31.1749 301.8743,31.0589 302.5703,30.8279 C303.2063,30.5959 303.6693,30.3069 304.0183,28.8009 L304.5383,26.4849 C304.8273,26.1369 305.8133,26.1369 306.0443,26.4849 C306.0443,27.8749 305.8133,30.1909 305.8133,32.3329 C305.8133,34.4179 306.0443,36.6179 306.0443,37.9499 C305.8133,38.2979 304.9443,38.2979 304.5383,37.9499 L303.9593,35.6919 C303.6693,34.6499 303.2063,33.8389 302.1073,33.4909 C301.2953,33.2599 299.8483,33.2019 297.6483,33.2019 L293.7093,33.2019 C291.9733,33.2019 291.7993,33.2599 291.7993,34.7649 L291.7993,42.8149 C291.7993,48.8949 291.9143,49.7629 295.3313,50.0529 L297.3003,50.2269 C297.6483,50.4579 297.5313,51.5009 297.1853,51.6739 C293.7683,51.5589 291.7993,51.5009 289.4833,51.5009 C286.9353,51.5009 284.9663,51.5589 282.2443,51.6739 C281.8973,51.5009 281.7813,50.5739 282.1283,50.2269 L283.5753,50.0529 C286.9353,49.6479 287.0503,48.8949 287.0503,42.8149 L287.0503,21.9679 C287.0503,15.8879 286.9353,15.0769 283.5753,14.6719 L282.6503,14.5559 C282.3023,14.3239 282.4183,13.2819 282.7663,13.1079 C285.1973,13.2239 287.1663,13.2819 289.4833,13.2819 L300.1383,13.2819 C303.8433,13.2819 307.2023,13.2819 307.9543,13.1079 C307.9543,15.7719 308.0133,18.5509 308.1283,20.7519 C307.9543,21.0989 307.1453,21.2729 306.7393,20.9249 C306.2763,18.3199 305.5803,16.1769 302.6863,15.4239 C301.4113,15.0769 299.5003,15.0769 297.0693,15.0769 L293.5363,15.0769 C291.7993,15.0769 291.7993,15.1929 291.7993,17.3929 L291.7993,29.6119 Z" id="Fill-9" fill="#212120" sketch:type="MSShapeGroup"></path>
                    <path d="M310.5591,32.7964 C310.5591,21.2144 319.2441,12.3554 331.1731,12.3554 C344.5501,12.3554 351.2681,22.0254 351.2681,32.2174 C351.2681,43.9144 342.3501,52.4274 331.1731,52.4274 C318.3191,52.4274 310.5591,43.2194 310.5591,32.7964 M345.4771,34.0134 C345.4771,24.4584 341.2491,14.1504 330.1901,14.1504 C324.1661,14.1504 316.3501,18.2614 316.3501,30.9434 C316.3501,39.5144 320.5191,50.6314 331.9261,50.6314 C338.8751,50.6314 345.4771,45.4204 345.4771,34.0134" id="Fill-11" fill="#212120" sketch:type="MSShapeGroup"></path>
                    <path d="M356.9956,22.0259 C356.9956,16.5249 356.8216,15.5399 354.4476,15.2509 L352.5946,15.0189 C352.1896,14.7299 352.1896,13.8029 352.6526,13.5709 C355.8956,13.2819 359.8916,13.1079 365.5656,13.1079 C369.1566,13.1079 372.5726,13.3979 375.2366,14.8449 C378.0166,16.2929 380.0426,18.8989 380.0426,22.9519 C380.0426,28.4539 375.6996,31.4649 372.8036,32.6229 C372.5156,32.9699 372.8036,33.5489 373.0936,34.0129 C377.7266,41.4829 380.7956,46.1149 384.7326,49.4159 C385.7176,50.2849 387.1646,50.9219 388.7286,51.0369 C389.0176,51.1529 389.0756,51.6159 388.7866,51.8479 C388.2666,52.0219 387.3386,52.1379 386.2386,52.1379 C381.3166,52.1379 378.3636,50.6899 374.2516,44.8419 C372.7466,42.6989 370.3716,38.7029 368.5766,36.0969 C367.7086,34.8229 366.7816,34.2439 364.4656,34.2439 C361.8596,34.2439 361.7436,34.3019 361.7436,35.5179 L361.7436,42.8149 C361.7436,48.8949 361.8596,49.5899 365.2186,50.0529 L366.4346,50.2269 C366.7816,50.5159 366.6656,51.5009 366.3186,51.6739 C363.7126,51.5589 361.7436,51.5009 359.4276,51.5009 C356.9956,51.5009 354.9106,51.5589 352.1896,51.6739 C351.8416,51.5009 351.7256,50.6319 352.0736,50.2269 L353.5206,50.0529 C356.8796,49.6479 356.9956,48.8949 356.9956,42.8149 L356.9956,22.0259 Z M361.7436,30.3069 C361.7436,31.3489 361.7436,31.9859 361.9176,32.2169 C362.0916,32.3909 362.9596,32.5069 365.9126,32.5069 C367.9976,32.5069 370.1986,32.2749 371.8776,31.0019 C373.4416,29.7849 374.7726,27.7589 374.7726,23.8209 C374.7726,19.2459 371.9356,14.9039 365.5076,14.9039 C361.9176,14.9039 361.7436,15.1349 361.7436,16.7559 L361.7436,30.3069 Z" id="Fill-13" fill="#212120" sketch:type="MSShapeGroup"></path>
                    <g id="Group-17">
                        <mask id="mask-2" sketch:name="Clip 16" fill="white">
                            <use xlink:href="#path-1"></use>
                        </mask>
                        <g id="Clip-16"></g>
                        <path d="M405.3442,42.8145 C405.3442,48.8945 405.4602,49.7635 408.8202,50.0525 L410.6722,50.2265 C411.0202,50.4585 410.9042,51.5005 410.5572,51.6745 C407.2552,51.5585 405.2862,51.5005 402.9702,51.5005 C400.6552,51.5005 398.6272,51.5585 394.9212,51.6745 C394.5732,51.5005 394.4582,50.5165 394.9212,50.2265 L397.0062,50.0525 C400.3072,49.7635 400.5972,48.8945 400.5972,42.8145 L400.5972,16.9305 C400.5972,15.1345 400.5972,15.0775 398.8602,15.0775 L395.6742,15.0775 C393.1852,15.0775 389.9992,15.1925 388.5512,16.5245 C387.1612,17.7985 386.5822,19.0725 385.9472,20.5205 C385.4832,20.8675 384.6722,20.5785 384.4412,20.1145 C385.3662,17.5085 386.2362,13.8025 386.6412,11.4865 C386.8152,11.3715 387.5682,11.3135 387.7402,11.4865 C388.0882,13.3395 389.9992,13.2815 392.6622,13.2815 L416.1152,13.2815 C419.2422,13.2815 419.7632,13.1665 420.6322,11.6605 C420.9212,11.5445 421.5592,11.6025 421.6742,11.8345 C421.0372,14.2085 420.6322,18.8995 420.8062,20.6365 C420.5742,21.0995 419.5902,21.0995 419.3002,20.7525 C419.1262,19.3045 418.7222,17.1615 417.8532,16.5245 C416.5212,15.5405 414.3212,15.0775 411.1352,15.0775 L407.0252,15.0775 C405.2862,15.0775 405.3442,15.1345 405.3442,17.0455 L405.3442,42.8145 Z" id="Fill-15" fill="#212120" sketch:type="MSShapeGroup" mask="url(#mask-2)"></path>
                    </g>
                </g>
                <text id="-" sketch:type="MSTextLayer" font-family="Adobe Garamond Pro" font-size="33.5163" font-weight="normal" fill="#666666">
                    <tspan x="198.9033" y="83.3649321"> </tspan>
                </text>
                <g id="Group-37" transform="translate(3.000000, 1.000000)" sketch:type="MSShapeGroup">
                    <path d="M123.1318,100.5718 C119.3018,100.5718 116.8858,99.3858 116.0188,98.8858 C115.4718,97.8828 114.8788,94.6448 114.7878,92.5018 C115.0158,92.1828 115.6998,92.0918 115.8818,92.3658 C116.5658,94.6898 118.4348,99.1588 123.7238,99.1588 C127.5538,99.1588 129.4238,96.6508 129.4238,93.9148 C129.4238,91.9088 129.0128,89.6758 125.6848,87.5328 L121.3528,84.7058 C119.0738,83.2008 116.4288,80.6018 116.4288,76.8638 C116.4288,72.5318 119.8028,69.0208 125.7298,69.0208 C127.1438,69.0208 128.7848,69.2948 129.9698,69.6138 C130.5628,69.7968 131.2008,69.8878 131.5658,69.8878 C131.9768,70.9818 132.3868,73.5348 132.3868,75.4498 C132.2048,75.7238 131.4748,75.8608 131.2468,75.5868 C130.6548,73.3978 129.4238,70.4348 125.0468,70.4348 C120.5778,70.4348 119.6208,73.3978 119.6208,75.4958 C119.6208,78.1398 121.8088,80.0548 123.4958,81.1038 L127.1438,83.3838 C130.0158,85.1608 132.8428,87.8058 132.8428,92.1378 C132.8428,97.1518 129.0588,100.5718 123.1318,100.5718" id="Fill-19" fill="#666666"></path>
                    <path d="M152.6318,82.0152 C152.9958,82.3342 153.3148,83.0642 153.3148,83.8392 C153.3148,84.6602 152.8588,85.5262 152.3118,85.5262 C152.0838,85.5262 151.8558,85.4352 151.6738,85.2072 C150.6708,83.9762 148.9838,82.7912 147.1148,82.7912 C143.9228,82.7912 140.8228,85.2982 140.8228,90.1312 C140.8228,93.6872 143.2848,97.9272 148.1628,97.9272 C150.8078,97.9272 152.1758,96.7422 153.2238,95.1922 C153.5888,95.1012 153.9988,95.4202 154.0448,95.8302 C152.4948,99.2042 149.0748,100.4802 146.4308,100.4802 C144.0138,100.4802 141.7798,99.7062 140.1838,98.1552 C138.5888,96.6052 137.5398,94.3712 137.5398,91.4082 C137.5398,86.4832 141.0048,81.2402 148.5738,81.2402 C149.6218,81.2402 151.3998,81.4682 152.6318,82.0152" id="Fill-21" fill="#666666"></path>
                    <path d="M158.8325,74.1275 C158.8325,71.4375 158.7865,71.1645 157.4185,70.3435 L156.9635,70.0695 C156.7355,69.9335 156.7355,69.2945 156.9635,69.1585 C158.1025,68.7935 160.2455,68.1095 161.8865,67.2435 C162.0695,67.2435 162.2515,67.3345 162.3435,67.5165 C162.2975,68.8845 162.2065,71.1645 162.2065,73.1705 L162.2065,82.7455 C162.2065,83.1545 162.2515,83.5205 162.3885,83.6105 C164.0305,82.3335 166.2185,81.2405 168.5435,81.2405 C172.8755,81.2405 174.4255,83.9305 174.4255,87.1225 L174.4255,94.7355 C174.4255,98.0195 174.5165,98.5205 176.1575,98.7035 L177.3885,98.8395 C177.7075,99.0665 177.6165,99.8425 177.2975,99.9795 C175.6565,99.8885 174.3345,99.8425 172.7385,99.8425 C171.0965,99.8425 169.7295,99.8885 168.4985,99.9795 C168.1785,99.8425 168.0875,99.0665 168.4065,98.8395 L169.3185,98.7035 C171.0055,98.4295 171.0515,98.0195 171.0515,94.7355 L171.0515,88.2165 C171.0515,85.2985 169.6375,83.3375 166.7195,83.3375 C165.1695,83.3375 163.9845,83.8855 163.1635,84.5675 C162.3435,85.2515 162.2065,85.4795 162.2065,87.0765 L162.2065,94.7355 C162.2065,98.0195 162.2975,98.4755 163.9385,98.7035 L164.8965,98.8395 C165.2155,99.0205 165.1245,99.8425 164.8045,99.9795 C163.4375,99.8885 162.1145,99.8425 160.5195,99.8425 C158.8775,99.8425 157.5105,99.8885 156.0515,99.9795 C155.7315,99.8425 155.6405,99.0665 155.9595,98.8395 L157.0995,98.7035 C158.7865,98.5205 158.8325,98.0195 158.8325,94.7355 L158.8325,74.1275 Z" id="Fill-23" fill="#666666"></path>
                    <path d="M199.5488,90.6783 C199.5488,96.3773 195.6278,100.4803 189.9278,100.4803 C184.6848,100.4803 180.5818,96.7883 180.5818,91.0883 C180.5818,85.3443 184.9128,81.2403 190.2928,81.2403 C195.3998,81.2403 199.5488,85.0703 199.5488,90.6783 M189.7458,82.6083 C186.7368,82.6083 184.5028,85.4803 184.5028,90.4963 C184.5028,94.6453 186.3718,99.1123 190.3848,99.1123 C194.3968,99.1123 195.6278,94.9183 195.6278,91.4083 C195.6278,87.5323 194.0768,82.6083 189.7458,82.6083" id="Fill-25" fill="#666666"></path>
                    <path d="M222.3911,90.6783 C222.3911,96.3773 218.4691,100.4803 212.7711,100.4803 C207.5281,100.4803 203.4251,96.7883 203.4251,91.0883 C203.4251,85.3443 207.7561,81.2403 213.1351,81.2403 C218.2421,81.2403 222.3911,85.0703 222.3911,90.6783 M212.5881,82.6083 C209.5801,82.6083 207.3451,85.4803 207.3451,90.4963 C207.3451,94.6453 209.2151,99.1123 213.2271,99.1123 C217.2401,99.1123 218.4691,94.9183 218.4691,91.4083 C218.4691,87.5323 216.9191,82.6083 212.5881,82.6083" id="Fill-27" fill="#666666"></path>
                    <path d="M232.0581,94.7359 C232.0581,98.0189 232.1491,98.4749 233.7891,98.7029 L234.8841,98.8399 C235.2031,99.0669 235.1131,99.8419 234.7921,99.9789 C233.2881,99.8879 231.9661,99.8419 230.3711,99.8419 C228.7291,99.8419 227.3621,99.8879 225.9941,99.9789 C225.6741,99.8419 225.5831,99.0669 225.9031,98.8399 L226.9511,98.7029 C228.6381,98.4749 228.6841,98.0189 228.6841,94.7359 L228.6841,74.1279 C228.6841,71.4379 228.6381,71.1639 227.2701,70.3429 L226.8151,70.0699 C226.5861,69.9329 226.5861,69.2949 226.8151,69.1579 C227.9531,68.7939 230.0971,68.1099 231.7391,67.2429 C231.9201,67.2429 232.1031,67.3349 232.1951,67.5169 C232.1491,68.8839 232.0581,71.1639 232.0581,73.1709 L232.0581,94.7359 Z" id="Fill-29" fill="#666666"></path>
                    <path d="M4.6567,35.9029 L90.6567,35.9029" id="Stroke-31" stroke="#212120" stroke-width="2"></path>
                    <path d="M52.0986,19.397 C49.2196,19.397 49.1256,23.385 49.1576,24.52 L48.1976,24.52 C48.1976,24.52 48.1936,24.501 48.1906,24.462 C48.1686,24.155 48.1016,22.617 48.8736,20.674 C49.2716,19.663 49.7676,18.397 49.8496,16.997 C49.9476,15.377 49.4906,13.58 47.6876,11.796 C45.8866,13.58 45.4306,15.377 45.5266,16.997 C45.6116,18.397 46.1066,19.663 46.5056,20.674 C47.2776,22.617 47.2106,24.155 47.1876,24.462 C47.1846,24.501 47.1846,24.52 47.1846,24.52 L46.2186,24.52 C46.2556,23.385 46.1596,19.397 43.2796,19.397 C41.4476,19.397 40.7986,20.801 40.9596,22.123 C41.0986,23.229 41.8086,24.279 42.8846,24.408 C42.8846,24.408 42.6036,22.514 44.1226,22.514 C45.3026,22.514 45.4766,23.894 45.4936,24.52 L45.3946,24.52 L44.2736,24.52 L44.2736,25.308 L44.2736,25.947 L46.8636,25.947 C46.8636,26.254 46.7986,26.515 46.7026,26.734 C46.3586,27.507 45.9046,27.923 46.0716,28.043 C46.4886,28.34 46.8816,28.134 46.8816,28.134 C46.8816,30.053 47.6876,30.302 47.6876,30.302 C47.6916,30.302 48.4976,29.32 48.4976,27.933 C48.4976,27.933 49.0176,27.507 48.6746,26.734 C48.5806,26.515 48.5136,26.254 48.5136,25.947 L51.1046,25.947 L51.1046,25.308 L51.1046,24.52 L49.9846,24.52 L49.8836,24.52 C49.9016,23.894 50.0766,22.514 51.2546,22.514 C52.7746,22.514 52.4926,24.408 52.4926,24.408 C53.5696,24.279 54.2796,23.229 54.4176,22.123 C54.5826,20.801 53.9316,19.397 52.0986,19.397" id="Fill-33" fill="#212120"></path>
                    <path d="M90.7226,56.1368 C90.7226,35.4188 90.3646,5.7998 90.3646,5.7998 L47.8796,5.7998 L5.3796,5.7998 C5.3796,5.7998 5.0246,35.4188 5.0246,56.1368 C5.0246,56.1368 3.0176,77.9848 15.8726,89.9078 C28.5156,101.6238 45.2656,108.8828 47.8796,109.9708 C50.4906,108.8828 67.2366,101.6238 79.8696,89.9078 C92.7356,77.9848 90.7226,56.1368 90.7226,56.1368 L90.7226,56.1368 Z M95.5276,55.9918 C95.5276,32.9638 95.1226,0.0178 95.1226,0.0178 L47.8796,0.0178 L0.6186,0.0178 C0.6186,0.0178 0.2226,32.9638 0.2226,55.9918 C0.2226,55.9918 -2.0154,80.2878 12.2856,93.5538 C26.3396,106.5828 44.9656,114.6498 47.8796,115.8608 C50.7786,114.6498 69.4066,106.5828 83.4546,93.5538 C97.7666,80.2878 95.5276,55.9918 95.5276,55.9918 L95.5276,55.9918 Z" id="Stroke-35" stroke="#212120" stroke-width="2"></path>
                </g>
                <g id="Group-80" transform="translate(7.000000, 7.000000)">
                    <g id="Group-40">
                        <mask id="mask-4" sketch:name="Clip 39" fill="white">
                            <use xlink:href="#path-3"></use>
                        </mask>
                        <g id="Clip-39"></g>
                        <path d="M8.2314,49.4122 C7.0814,50.6282 4.7054,51.5202 2.9764,51.5692 C6.7194,48.0062 7.1754,43.1782 8.0874,38.7512 L8.3554,38.7512 C9.2654,43.1782 9.7444,48.0062 13.4904,51.5692 C11.7604,51.5202 9.3834,50.6282 8.2314,49.4122 M4.5364,39.3582 C4.5364,39.9212 5.0174,40.3892 5.5924,40.3892 C6.1704,40.3892 6.6484,39.9212 6.6484,39.3582 C6.6484,38.7972 6.1704,38.3282 5.5924,38.3282 C5.0174,38.3282 4.5364,38.7972 4.5364,39.3582 M7.1754,36.1972 C7.1754,36.7572 7.6584,37.2262 8.2314,37.2262 C8.8094,37.2262 9.2894,36.7572 9.2894,36.1972 C9.2894,35.6342 8.8094,35.1652 8.2314,35.1652 C7.6584,35.1652 7.1754,35.6342 7.1754,36.1972 M9.8184,39.3582 C9.8184,39.9212 10.2954,40.3892 10.8724,40.3892 C11.4484,40.3892 11.9284,39.9212 11.9284,39.3582 C11.9284,38.7972 11.4484,38.3282 10.8724,38.3282 C10.2954,38.3282 9.8184,38.7972 9.8184,39.3582" id="Fill-38" fill="#212120" sketch:type="MSShapeGroup" mask="url(#mask-4)"></path>
                    </g>
                    <g id="Group-43">
                        <mask id="mask-6" sketch:name="Clip 42" fill="white">
                            <use xlink:href="#path-5"></use>
                        </mask>
                        <g id="Clip-42"></g>
                        <path d="M17.27,70.9136 C16.116,72.1306 13.74,73.0216 12.009,73.0676 C15.757,69.5086 16.213,64.6796 17.122,60.2506 L17.388,60.2506 C18.299,64.6796 18.778,69.5086 22.524,73.0676 C20.795,73.0216 18.419,72.1306 17.27,70.9136 M13.573,60.8596 C13.573,61.4236 14.051,61.8916 14.627,61.8916 C15.206,61.8916 15.684,61.4236 15.684,60.8596 C15.684,60.2956 15.206,59.8286 14.627,59.8286 C14.051,59.8286 13.573,60.2956 13.573,60.8596 M16.213,57.6966 C16.213,58.2596 16.694,58.7256 17.27,58.7256 C17.843,58.7256 18.325,58.2596 18.325,57.6966 C18.325,57.1346 17.843,56.6656 17.27,56.6656 C16.694,56.6656 16.213,57.1346 16.213,57.6966 M18.852,60.8596 C18.852,61.4236 19.334,61.8916 19.91,61.8916 C20.487,61.8916 20.966,61.4236 20.966,60.8596 C20.966,60.2956 20.487,59.8286 19.91,59.8286 C19.334,59.8286 18.852,60.2956 18.852,60.8596" id="Fill-41" fill="#212120" sketch:type="MSShapeGroup" mask="url(#mask-6)"></path>
                    </g>
                    <g id="Group-46">
                        <mask id="mask-8" sketch:name="Clip 45" fill="white">
                            <use xlink:href="#path-7"></use>
                        </mask>
                        <g id="Clip-45"></g>
                        <path d="M26.2451,49.4122 C25.0951,50.6282 22.7181,51.5202 20.9911,51.5692 C24.7351,48.0062 25.1921,43.1782 26.1041,38.7512 L26.3661,38.7512 C27.2801,43.1782 27.7581,48.0062 31.5031,51.5692 C29.7721,51.5202 27.3981,50.6282 26.2451,49.4122 M22.5491,39.3582 C22.5491,39.9212 23.0271,40.3892 23.6051,40.3892 C24.1831,40.3892 24.6621,39.9212 24.6621,39.3582 C24.6621,38.7972 24.1831,38.3282 23.6051,38.3282 C23.0271,38.3282 22.5491,38.7972 22.5491,39.3582 M25.1921,36.1972 C25.1921,36.7572 25.6721,37.2262 26.2451,37.2262 C26.8251,37.2262 27.3001,36.7572 27.3001,36.1972 C27.3001,35.6342 26.8251,35.1652 26.2451,35.1652 C25.6721,35.1652 25.1921,35.6342 25.1921,36.1972 M27.8321,39.3582 C27.8321,39.9212 28.3131,40.3892 28.8881,40.3892 C29.4621,40.3892 29.9431,39.9212 29.9431,39.3582 C29.9431,38.7972 29.4621,38.3282 28.8881,38.3282 C28.3131,38.3282 27.8321,38.7972 27.8321,39.3582" id="Fill-44" fill="#212120" sketch:type="MSShapeGroup" mask="url(#mask-8)"></path>
                    </g>
                    <g id="Group-49">
                        <mask id="mask-10" sketch:name="Clip 48" fill="white">
                            <use xlink:href="#path-9"></use>
                        </mask>
                        <g id="Clip-48"></g>
                        <path d="M44.3193,49.4122 C43.1673,50.6282 40.7923,51.5202 39.0633,51.5692 C42.8063,48.0062 43.2613,43.1782 44.1753,38.7512 L44.4403,38.7512 C45.3503,43.1782 45.8323,48.0062 49.5743,51.5692 C47.8433,51.5202 45.4673,50.6282 44.3193,49.4122 M40.6243,39.3582 C40.6243,39.9212 41.0993,40.3892 41.6793,40.3892 C42.2533,40.3892 42.7333,39.9212 42.7333,39.3582 C42.7333,38.7972 42.2533,38.3282 41.6793,38.3282 C41.0993,38.3282 40.6243,38.7972 40.6243,39.3582 M43.2613,36.1972 C43.2613,36.7572 43.7423,37.2262 44.3193,37.2262 C44.8953,37.2262 45.3723,36.7572 45.3723,36.1972 C45.3723,35.6342 44.8953,35.1652 44.3193,35.1652 C43.7423,35.1652 43.2613,35.6342 43.2613,36.1972 M45.9023,39.3582 C45.9023,39.9212 46.3833,40.3892 46.9583,40.3892 C47.5353,40.3892 48.0143,39.9212 48.0143,39.3582 C48.0143,38.7972 47.5353,38.3282 46.9583,38.3282 C46.3833,38.3282 45.9023,38.7972 45.9023,39.3582" id="Fill-47" fill="#212120" sketch:type="MSShapeGroup" mask="url(#mask-10)"></path>
                    </g>
                    <g id="Group-52">
                        <mask id="mask-12" sketch:name="Clip 51" fill="white">
                            <use xlink:href="#path-11"></use>
                        </mask>
                        <g id="Clip-51"></g>
                        <path d="M35.2827,70.9136 C34.1297,72.1306 31.7547,73.0216 30.0267,73.0676 C33.7717,69.5086 34.2247,64.6796 35.1367,60.2506 L35.4037,60.2506 C36.3147,64.6796 36.7947,69.5086 40.5417,73.0676 C38.8107,73.0216 36.4347,72.1306 35.2827,70.9136 M31.5877,60.8596 C31.5877,61.4236 32.0657,61.8916 32.6447,61.8916 C33.2187,61.8916 33.6997,61.4236 33.6997,60.8596 C33.6997,60.2956 33.2187,59.8286 32.6447,59.8286 C32.0657,59.8286 31.5877,60.2956 31.5877,60.8596 M34.2247,57.6966 C34.2247,58.2596 34.7057,58.7256 35.2827,58.7256 C35.8587,58.7256 36.3397,58.2596 36.3397,57.6966 C36.3397,57.1346 35.8587,56.6656 35.2827,56.6656 C34.7057,56.6656 34.2247,57.1346 34.2247,57.6966 M36.8687,60.8596 C36.8687,61.4236 37.3487,61.8916 37.9227,61.8916 C38.5007,61.8916 38.9787,61.4236 38.9787,60.8596 C38.9787,60.2956 38.5007,59.8286 37.9227,59.8286 C37.3487,59.8286 36.8687,60.2956 36.8687,60.8596" id="Fill-50" fill="#212120" sketch:type="MSShapeGroup" mask="url(#mask-12)"></path>
                    </g>
                    <g id="Group-55">
                        <mask id="mask-14" sketch:name="Clip 54" fill="white">
                            <use xlink:href="#path-13"></use>
                        </mask>
                        <g id="Clip-54"></g>
                        <path d="M53.3501,70.9136 C52.1991,72.1306 49.8261,73.0216 48.1011,73.0676 C51.8431,69.5086 52.2941,64.6796 53.2101,60.2506 L53.4731,60.2506 C54.3871,64.6796 54.8641,69.5086 58.6111,73.0676 C56.8781,73.0216 54.5051,72.1306 53.3501,70.9136 M49.6571,60.8596 C49.6571,61.4236 50.1401,61.8916 50.7151,61.8916 C51.2911,61.8916 51.7701,61.4236 51.7701,60.8596 C51.7701,60.2956 51.2911,59.8286 50.7151,59.8286 C50.1401,59.8286 49.6571,60.2956 49.6571,60.8596 M52.2941,57.6966 C52.2941,58.2596 52.7771,58.7256 53.3501,58.7256 C53.9291,58.7256 54.4111,58.2596 54.4111,57.6966 C54.4111,57.1346 53.9291,56.6656 53.3501,56.6656 C52.7771,56.6656 52.2941,57.1346 52.2941,57.6966 M54.9361,60.8596 C54.9361,61.4236 55.4171,61.8916 55.9961,61.8916 C56.5691,61.8916 57.0531,61.4236 57.0531,60.8596 C57.0531,60.2956 56.5691,59.8286 55.9961,59.8286 C55.4171,59.8286 54.9361,60.2956 54.9361,60.8596" id="Fill-53" fill="#212120" sketch:type="MSShapeGroup" mask="url(#mask-14)"></path>
                    </g>
                    <g id="Group-58">
                        <mask id="mask-16" sketch:name="Clip 57" fill="white">
                            <use xlink:href="#path-15"></use>
                        </mask>
                        <g id="Clip-57"></g>
                        <path d="M61.6758,49.4122 C60.5278,50.6282 58.1518,51.5202 56.4248,51.5692 C60.1658,48.0062 60.6238,43.1782 61.5358,38.7512 L61.7988,38.7512 C62.7118,43.1782 63.1898,48.0062 66.9378,51.5692 C65.2078,51.5202 62.8288,50.6282 61.6758,49.4122 M57.9838,39.3582 C57.9838,39.9212 58.4628,40.3892 59.0398,40.3892 C59.6158,40.3892 60.0948,39.9212 60.0948,39.3582 C60.0948,38.7972 59.6158,38.3282 59.0398,38.3282 C58.4628,38.3282 57.9838,38.7972 57.9838,39.3582 M60.6238,36.1972 C60.6238,36.7572 61.1058,37.2262 61.6758,37.2262 C62.2528,37.2262 62.7348,36.7572 62.7348,36.1972 C62.7348,35.6342 62.2528,35.1652 61.6758,35.1652 C61.1058,35.1652 60.6238,35.6342 60.6238,36.1972 M63.2598,39.3582 C63.2598,39.9212 63.7418,40.3892 64.3178,40.3892 C64.8988,40.3892 65.3738,39.9212 65.3738,39.3582 C65.3738,38.7972 64.8988,38.3282 64.3178,38.3282 C63.7418,38.3282 63.2598,38.7972 63.2598,39.3582" id="Fill-56" fill="#212120" sketch:type="MSShapeGroup" mask="url(#mask-16)"></path>
                    </g>
                    <g id="Group-61">
                        <mask id="mask-18" sketch:name="Clip 60" fill="white">
                            <use xlink:href="#path-17"></use>
                        </mask>
                        <g id="Clip-60"></g>
                        <path d="M79.7495,49.4122 C78.5975,50.6282 76.2195,51.5202 74.4935,51.5692 C78.2405,48.0062 78.6925,43.1782 79.6075,38.7512 L79.8705,38.7512 C80.7815,43.1782 81.2625,48.0062 85.0045,51.5692 C83.2775,51.5202 80.9015,50.6282 79.7495,49.4122 M76.0545,39.3582 C76.0545,39.9212 76.5325,40.3892 77.1095,40.3892 C77.6845,40.3892 78.1625,39.9212 78.1625,39.3582 C78.1625,38.7972 77.6845,38.3282 77.1095,38.3282 C76.5325,38.3282 76.0545,38.7972 76.0545,39.3582 M78.6925,36.1972 C78.6925,36.7572 79.1745,37.2262 79.7495,37.2262 C80.3285,37.2262 80.8045,36.7572 80.8045,36.1972 C80.8045,35.6342 80.3285,35.1652 79.7495,35.1652 C79.1745,35.1652 78.6925,35.6342 78.6925,36.1972 M81.3315,39.3582 C81.3315,39.9212 81.8115,40.3892 82.3915,40.3892 C82.9645,40.3892 83.4425,39.9212 83.4425,39.3582 C83.4425,38.7972 82.9645,38.3282 82.3915,38.3282 C81.8115,38.3282 81.3315,38.7972 81.3315,39.3582" id="Fill-59" fill="#212120" sketch:type="MSShapeGroup" mask="url(#mask-18)"></path>
                    </g>
                    <g id="Group-64">
                        <mask id="mask-20" sketch:name="Clip 63" fill="white">
                            <use xlink:href="#path-19"></use>
                        </mask>
                        <g id="Clip-63"></g>
                        <path d="M70.7138,70.9136 C69.5638,72.1306 67.1868,73.0216 65.4598,73.0676 C69.2018,69.5086 69.6588,64.6796 70.5728,60.2506 L70.8348,60.2506 C71.7468,64.6796 72.2258,69.5086 75.9698,73.0676 C74.2418,73.0216 71.8658,72.1306 70.7138,70.9136 M67.0178,60.8596 C67.0178,61.4236 67.4968,61.8916 68.0748,61.8916 C68.6518,61.8916 69.1328,61.4236 69.1328,60.8596 C69.1328,60.2956 68.6518,59.8286 68.0748,59.8286 C67.4968,59.8286 67.0178,60.2956 67.0178,60.8596 M69.6588,57.6966 C69.6588,58.2596 70.1358,58.7256 70.7138,58.7256 C71.2908,58.7256 71.7668,58.2596 71.7668,57.6966 C71.7668,57.1346 71.2908,56.6656 70.7138,56.6656 C70.1358,56.6656 69.6588,57.1346 69.6588,57.6966 M72.3008,60.8596 C72.3008,61.4236 72.7758,61.8916 73.3548,61.8916 C73.9318,61.8916 74.4098,61.4236 74.4098,60.8596 C74.4098,60.2956 73.9318,59.8286 73.3548,59.8286 C72.7758,59.8286 72.3008,60.2956 72.3008,60.8596" id="Fill-62" fill="#212120" sketch:type="MSShapeGroup" mask="url(#mask-20)"></path>
                    </g>
                    <g id="Group-67">
                        <mask id="mask-22" sketch:name="Clip 66" fill="white">
                            <use xlink:href="#path-21"></use>
                        </mask>
                        <g id="Clip-66"></g>
                        <path d="M-1.7417,114.8443 C-2.8927,116.0623 -5.2697,116.9533 -6.9997,117.0003 C-3.2547,113.4403 -2.7977,108.6123 -1.8867,104.1833 L-1.6227,104.1833 C-0.7097,108.6123 -0.2317,113.4403 3.5143,117.0003 C1.7853,116.9533 -0.5897,116.0623 -1.7417,114.8443 M-5.4377,104.7923 C-5.4377,105.3543 -4.9587,105.8243 -4.3827,105.8243 C-3.8047,105.8243 -3.3267,105.3543 -3.3267,104.7923 C-3.3267,104.2293 -3.8047,103.7603 -4.3827,103.7603 C-4.9587,103.7603 -5.4377,104.2293 -5.4377,104.7923 M-2.7977,101.6293 C-2.7977,102.1903 -2.3197,102.6603 -1.7417,102.6603 C-1.1667,102.6603 -0.6857,102.1903 -0.6857,101.6293 C-0.6857,101.0663 -1.1667,100.5983 -1.7417,100.5983 C-2.3197,100.5983 -2.7977,101.0663 -2.7977,101.6293 M-0.1577,104.7923 C-0.1577,105.3543 0.3223,105.8243 0.8973,105.8243 C1.4713,105.8243 1.9553,105.3543 1.9553,104.7923 C1.9553,104.2293 1.4713,103.7603 0.8973,103.7603 C0.3223,103.7603 -0.1577,104.2293 -0.1577,104.7923" id="Fill-65" fill="#212120" sketch:type="MSShapeGroup" mask="url(#mask-22)"></path>
                    </g>
                    <g id="Group-70">
                        <mask id="mask-24" sketch:name="Clip 69" fill="white">
                            <use xlink:href="#path-23"></use>
                        </mask>
                        <g id="Clip-69"></g>
                        <path d="M26.2451,94.1929 C25.0951,95.4109 22.7181,96.3009 20.9911,96.3479 C24.7351,92.7859 25.1921,87.9599 26.1041,83.5299 L26.3661,83.5299 C27.2801,87.9599 27.7581,92.7859 31.5031,96.3479 C29.7721,96.3009 27.3981,95.4109 26.2451,94.1929 M22.5491,84.1409 C22.5491,84.7019 23.0271,85.1699 23.6051,85.1699 C24.1831,85.1699 24.6621,84.7019 24.6621,84.1409 C24.6621,83.5779 24.1831,83.1109 23.6051,83.1109 C23.0271,83.1109 22.5491,83.5779 22.5491,84.1409 M25.1921,80.9759 C25.1921,81.5389 25.6721,82.0079 26.2451,82.0079 C26.8251,82.0079 27.3001,81.5389 27.3001,80.9759 C27.3001,80.4129 26.8251,79.9449 26.2451,79.9449 C25.6721,79.9449 25.1921,80.4129 25.1921,80.9759 M27.8321,84.1409 C27.8321,84.7019 28.3131,85.1699 28.8881,85.1699 C29.4621,85.1699 29.9431,84.7019 29.9431,84.1409 C29.9431,83.5779 29.4621,83.1109 28.8881,83.1109 C28.3131,83.1109 27.8321,83.5779 27.8321,84.1409" id="Fill-68" fill="#212120" sketch:type="MSShapeGroup" mask="url(#mask-24)"></path>
                    </g>
                    <g id="Group-73">
                        <mask id="mask-26" sketch:name="Clip 72" fill="white">
                            <use xlink:href="#path-25"></use>
                        </mask>
                        <g id="Clip-72"></g>
                        <path d="M44.3193,94.1929 C43.1673,95.4109 40.7923,96.3009 39.0633,96.3479 C42.8063,92.7859 43.2613,87.9599 44.1753,83.5299 L44.4403,83.5299 C45.3503,87.9599 45.8323,92.7859 49.5743,96.3479 C47.8433,96.3009 45.4673,95.4109 44.3193,94.1929 M40.6243,84.1409 C40.6243,84.7019 41.0993,85.1699 41.6793,85.1699 C42.2533,85.1699 42.7333,84.7019 42.7333,84.1409 C42.7333,83.5779 42.2533,83.1109 41.6793,83.1109 C41.0993,83.1109 40.6243,83.5779 40.6243,84.1409 M43.2613,80.9759 C43.2613,81.5389 43.7423,82.0079 44.3193,82.0079 C44.8953,82.0079 45.3723,81.5389 45.3723,80.9759 C45.3723,80.4129 44.8953,79.9449 44.3193,79.9449 C43.7423,79.9449 43.2613,80.4129 43.2613,80.9759 M45.9023,84.1409 C45.9023,84.7019 46.3833,85.1699 46.9583,85.1699 C47.5353,85.1699 48.0143,84.7019 48.0143,84.1409 C48.0143,83.5779 47.5353,83.1109 46.9583,83.1109 C46.3833,83.1109 45.9023,83.5779 45.9023,84.1409" id="Fill-71" fill="#212120" sketch:type="MSShapeGroup" mask="url(#mask-26)"></path>
                    </g>
                    <g id="Group-76">
                        <mask id="mask-28" sketch:name="Clip 75" fill="white">
                            <use xlink:href="#path-27"></use>
                        </mask>
                        <g id="Clip-75"></g>
                        <path d="M61.6758,94.1929 C60.5278,95.4109 58.1518,96.3009 56.4248,96.3479 C60.1658,92.7859 60.6238,87.9599 61.5358,83.5299 L61.7988,83.5299 C62.7118,87.9599 63.1898,92.7859 66.9378,96.3479 C65.2078,96.3009 62.8288,95.4109 61.6758,94.1929 M57.9838,84.1409 C57.9838,84.7019 58.4628,85.1699 59.0398,85.1699 C59.6158,85.1699 60.0948,84.7019 60.0948,84.1409 C60.0948,83.5779 59.6158,83.1109 59.0398,83.1109 C58.4628,83.1109 57.9838,83.5779 57.9838,84.1409 M60.6238,80.9759 C60.6238,81.5389 61.1058,82.0079 61.6758,82.0079 C62.2528,82.0079 62.7348,81.5389 62.7348,80.9759 C62.7348,80.4129 62.2528,79.9449 61.6758,79.9449 C61.1058,79.9449 60.6238,80.4129 60.6238,80.9759 M63.2598,84.1409 C63.2598,84.7019 63.7418,85.1699 64.3178,85.1699 C64.8988,85.1699 65.3738,84.7019 65.3738,84.1409 C65.3738,83.5779 64.8988,83.1109 64.3178,83.1109 C63.7418,83.1109 63.2598,83.5779 63.2598,84.1409" id="Fill-74" fill="#212120" sketch:type="MSShapeGroup" mask="url(#mask-28)"></path>
                    </g>
                    <g id="Group-79">
                        <mask id="mask-30" sketch:name="Clip 78" fill="white">
                            <use xlink:href="#path-29"></use>
                        </mask>
                        <g id="Clip-78"></g>
                        <path d="M70.7138,114.8443 C69.5638,116.0623 67.1868,116.9533 65.4598,117.0003 C69.2018,113.4403 69.6588,108.6123 70.5728,104.1833 L70.8348,104.1833 C71.7468,108.6123 72.2258,113.4403 75.9698,117.0003 C74.2418,116.9533 71.8658,116.0623 70.7138,114.8443 M67.0178,104.7923 C67.0178,105.3543 67.4968,105.8243 68.0748,105.8243 C68.6518,105.8243 69.1328,105.3543 69.1328,104.7923 C69.1328,104.2293 68.6518,103.7603 68.0748,103.7603 C67.4968,103.7603 67.0178,104.2293 67.0178,104.7923 M69.6588,101.6293 C69.6588,102.1903 70.1358,102.6603 70.7138,102.6603 C71.2908,102.6603 71.7668,102.1903 71.7668,101.6293 C71.7668,101.0663 71.2908,100.5983 70.7138,100.5983 C70.1358,100.5983 69.6588,101.0663 69.6588,101.6293 M72.3008,104.7923 C72.3008,105.3543 72.7758,105.8243 73.3548,105.8243 C73.9318,105.8243 74.4098,105.3543 74.4098,104.7923 C74.4098,104.2293 73.9318,103.7603 73.3548,103.7603 C72.7758,103.7603 72.3008,104.2293 72.3008,104.7923" id="Fill-77" fill="#212120" sketch:type="MSShapeGroup" mask="url(#mask-30)"></path>
                    </g>
                </g>
                <g id="Group-85" transform="translate(18.000000, 12.000000)" fill="#212120" sketch:type="MSShapeGroup">
                    <path d="M50.4966,15.5665 C50.5196,15.4245 50.5606,15.2815 50.5776,15.2435 C50.5966,15.2065 50.5766,15.1425 50.5346,15.1025 C50.4396,15.0115 50.3736,14.1285 50.4486,14.0185 C50.4706,13.9835 50.4706,13.8905 50.4486,13.8195 C50.4076,13.7155 50.4486,13.5745 50.5836,13.2585 C50.6836,13.0235 50.7616,12.7775 50.7566,12.7075 C50.7476,12.6365 50.7616,12.5565 50.7836,12.5265 C50.8436,12.4485 50.8956,11.7035 50.8656,11.4405 C50.8506,11.3295 50.8156,11.2085 50.7906,11.1685 C50.7176,11.0615 50.5866,8.1065 50.6506,8.0535 C50.7306,7.9815 50.9946,7.1535 51.0326,6.8545 C51.0546,6.6725 51.1066,6.5155 51.1446,6.4975 C51.1866,6.4745 51.1946,6.4195 51.1656,6.3405 C51.1416,6.2615 51.1656,6.1045 51.2326,5.9145 C51.3156,5.7015 51.3306,5.5495 51.3046,5.3795 C51.2806,5.2175 51.3046,5.0005 51.3896,4.6905 C51.4506,4.4445 51.5256,4.1695 51.5466,4.0865 C51.5696,4.0065 51.6086,3.9365 51.6346,3.9335 C51.6636,3.9275 51.6836,3.8995 51.6826,3.8635 C51.6566,3.6345 52.5286,2.4355 52.7306,2.4145 C52.8686,2.4025 53.0336,2.5795 53.0506,2.7595 C53.0716,3.0395 53.1476,2.7745 53.1696,2.3325 C53.1826,2.0775 53.2036,1.8275 53.2306,1.7745 C53.4406,1.2015 53.5926,0.9915 53.8356,0.9195 C54.0936,0.8495 54.4066,0.9915 54.5586,1.2465 C54.7676,1.5975 54.9496,2.4885 54.8976,2.9225 C54.8906,2.9985 54.8656,3.2445 54.8476,3.4695 C54.8176,3.8435 54.8206,3.8715 54.9236,3.9365 C54.9846,3.9695 55.0806,3.9935 55.1396,3.9895 C55.1936,3.9835 55.2966,4.0145 55.3536,4.0585 C55.4106,4.1045 55.4586,4.1145 55.4536,4.0835 C55.4506,4.0535 55.4916,4.0135 55.5426,3.9935 C55.6036,3.9745 55.6516,3.8625 55.6786,3.6865 C55.7386,3.3255 55.8596,3.0825 56.0736,2.9135 C56.1696,2.8355 56.2826,2.6755 56.3206,2.5565 C56.3986,2.3275 56.6866,1.9765 56.9276,1.8235 C56.9986,1.7745 57.1386,1.6475 57.2336,1.5405 C57.6256,1.0995 58.4366,0.7145 58.7856,0.8125 C58.8706,0.8375 59.0616,0.8755 59.2146,0.8975 C59.8696,1.0035 60.6426,1.6895 60.5396,2.0625 C60.5216,2.1395 60.5106,2.2565 60.5216,2.3325 C60.5216,2.4055 60.4666,2.5475 60.3836,2.6525 C60.2426,2.8355 60.2326,2.8355 59.7086,2.8865 L59.1876,2.9365 L59.1746,3.1825 C59.1666,3.3145 59.1816,3.4475 59.2006,3.4775 C59.2206,3.5065 59.2706,3.6755 59.3116,3.8505 C59.3526,4.0245 59.4086,4.2675 59.4356,4.3925 C59.4616,4.5115 59.4676,4.6565 59.4416,4.7195 C59.4106,4.7885 59.4176,4.9025 59.4556,5.0175 C59.5156,5.1985 59.2316,5.6965 59.3306,5.9145 C59.4356,6.1315 59.1816,6.4105 59.2006,6.6345 C59.2146,6.7955 59.1966,6.9735 59.1546,7.0515 C59.0186,7.3105 58.8596,8.1485 58.9116,8.3215 C58.9386,8.4105 59.0666,8.6815 59.2006,8.9085 C59.4086,9.2775 59.4486,9.3935 59.4906,9.7915 C59.5556,10.3325 59.6996,10.8245 59.8426,11.0075 C59.8986,11.0815 59.9786,11.1865 60.0166,11.2405 C60.0566,11.3035 60.1406,11.3365 60.2256,11.3295 C60.3006,11.3205 60.3676,11.3385 60.3726,11.3775 C60.3806,11.4525 60.5096,11.4935 60.6856,11.4775 C60.7576,11.4715 60.8176,11.4835 60.8196,11.5145 C60.8216,11.5455 61.2096,11.6985 61.2886,11.6925 C61.3876,11.6855 62.1396,12.1315 62.3996,12.3625 C62.6766,12.6015 63.2146,13.2835 63.2286,13.4095 C63.2316,13.4555 63.3396,13.6585 63.6266,14.1755 C63.8226,14.5225 64.2626,14.9265 64.5696,15.0405 C64.8896,15.1625 64.9506,15.2935 64.7416,15.4155 C64.6416,15.4695 64.5536,15.4845 64.3676,15.4455 C64.2306,15.4245 64.0886,15.4245 64.0426,15.4455 C64.0016,15.4665 63.8776,15.4665 63.7626,15.4365 C63.5726,15.3945 63.5486,15.4005 63.4736,15.5225 L63.3896,15.6575 L63.1486,15.5285 C62.9326,15.4155 62.9066,15.4065 62.8256,15.4895 C62.7186,15.6115 62.6616,15.6175 62.4156,15.5285 C62.3086,15.4865 62.2076,15.4695 62.1896,15.4865 C62.1636,15.5135 62.6026,16.2255 62.7356,16.3775 C62.7626,16.4075 62.8256,16.5415 62.8736,16.6795 C62.9256,16.8185 62.9936,16.9425 63.0126,16.9545 C63.0416,16.9685 63.0716,17.0225 63.0756,17.0725 C63.0876,17.1985 63.5636,17.9765 63.6756,18.0535 C63.7286,18.0885 63.7786,18.1715 63.7816,18.2435 C63.7906,18.3395 63.8336,18.3695 63.9716,18.3855 C64.0726,18.3965 64.2056,18.4365 64.2746,18.4705 C64.3796,18.5245 64.3916,18.5495 64.3496,18.7255 C64.2926,19.0175 64.1576,19.0795 63.7056,19.0375 C63.5016,19.0225 63.1766,18.9985 62.9876,18.9855 C62.7956,18.9735 62.4096,18.9025 62.1296,18.8295 C61.8506,18.7555 61.4936,18.6765 61.3436,18.6525 C61.1926,18.6275 61.0406,18.5945 61.0116,18.5735 C60.9796,18.5575 60.8236,18.5395 60.6726,18.5375 C60.5216,18.5375 60.2326,18.4785 60.0376,18.4185 C59.4746,18.2445 58.9606,18.0585 58.8056,17.9765 C58.7276,17.9355 58.5606,17.9075 58.4326,17.9145 C58.3066,17.9205 58.1416,17.8915 58.0706,17.8485 C57.5556,17.5405 57.5096,17.5255 57.4086,17.6385 C57.3266,17.7225 57.2896,17.7335 57.2116,17.6885 C57.0216,17.5785 56.9666,17.5775 56.8716,17.6765 C56.7806,17.7785 56.7676,17.7785 56.5366,17.6975 C56.3066,17.6165 56.3016,17.6165 56.1396,17.7295 C56.0146,17.8205 55.8976,17.8535 55.6676,17.8565 C55.5026,17.8585 55.3536,17.8535 55.3316,17.8345 C55.3146,17.8225 55.1656,17.8565 55.0006,17.9115 C54.8346,17.9685 54.5976,18.0495 54.4756,18.0885 C54.1716,18.1965 54.0416,18.1985 53.8486,18.1225 C53.7086,18.0635 53.6766,18.0635 53.5716,18.1525 C53.4586,18.2435 53.4326,18.2435 53.2446,18.1715 C53.1336,18.1325 53.0306,18.1175 53.0126,18.1405 C52.9946,18.1595 52.9186,18.1415 52.8456,18.1035 C52.7696,18.0635 52.6796,18.0415 52.6436,18.0585 C52.6096,18.0725 52.3546,18.0885 52.0766,18.0935 C51.6666,18.0965 51.5256,18.0725 51.3476,17.9765 C51.2226,17.9115 51.1166,17.8125 51.1136,17.7555 C51.1066,17.7065 51.0156,17.5725 50.9056,17.4625 C50.7906,17.3565 50.6626,17.1605 50.6166,17.0225 C50.5046,16.7015 50.4386,15.8945 50.4966,15.5665 M51.4486,14.5975 L51.5946,14.1645 M51.5876,12.9255 L51.5726,12.7825 M51.7796,16.9935 C51.7566,17.0175 51.7006,17.0135 51.6566,16.9815 M51.0256,11.1315 C51.0776,11.1765 51.1886,10.9905 51.1826,10.8755 C51.1736,10.8245 51.2266,10.7095 51.2946,10.6135 C51.3616,10.5205 51.4816,10.2815 51.5656,10.0845 C51.7096,9.7395 51.8296,9.5935 51.8416,9.7505 C51.8446,9.7915 51.7796,9.9735 51.6876,10.1505 C51.5326,10.4835 51.5256,10.6075 51.6726,10.5325 C51.7736,10.4835 51.7736,10.5625 51.6796,10.8505 C51.5356,11.2785 51.5166,11.7635 51.6346,11.9895 C51.6566,12.0315 51.6496,12.1445 51.6126,12.2335 C51.5256,12.4455 51.6216,12.6195 51.7736,12.5175 C51.8276,12.4845 51.8866,12.4135 51.9096,12.3625 C51.9546,12.2585 52.3506,12.2335 52.3926,12.3365 C52.4096,12.3745 52.3866,12.4055 52.3356,12.4115 C52.2406,12.4215 51.9726,12.6945 51.9036,12.8465 C51.8646,12.9355 51.8756,12.9385 52.0096,12.9015 C52.0856,12.8735 52.1776,12.8275 52.2086,12.8005 C52.2316,12.7775 52.3136,12.7435 52.3896,12.7235 C52.4766,12.7025 52.5066,12.6635 52.4946,12.6125 C52.4226,12.4165 52.4396,12.3745 52.5726,12.3805 C52.6506,12.3805 52.7436,12.4075 52.7866,12.4395 C52.8386,12.4705 52.8866,12.4605 52.9436,12.4015 C53.1176,12.2295 53.3306,12.1225 53.3586,12.1955 C53.4486,12.3955 53.9406,12.0315 54.0096,11.7195 C54.0256,11.6385 54.0666,11.6005 54.1286,11.6155 C54.2336,11.6385 54.3986,11.3655 54.4396,11.1105 C54.4516,11.0245 54.5706,10.8125 54.6986,10.6455 C54.8996,10.3965 54.9436,10.3635 54.9846,10.4405 C55.0176,10.5055 54.9666,10.6135 54.8066,10.8215 C54.6846,10.9765 54.5766,11.1765 54.5616,11.2635 C54.5106,11.7105 54.3826,11.9365 54.0636,12.1565 C53.9586,12.2295 53.8736,12.3185 53.8806,12.3575 C53.8816,12.3935 53.8306,12.4605 53.7636,12.5175 C53.5586,12.6775 53.1476,13.2295 53.1496,13.3285 C53.1696,13.5165 53.0056,13.4435 52.9686,13.2465 L52.9366,13.0535 L52.7866,13.3225 C52.6726,13.5165 52.6436,13.6095 52.6876,13.6545 C52.7316,13.6965 52.7116,13.7955 52.6066,13.9975 C52.5286,14.1505 52.4696,14.2755 52.4816,14.2725 C52.4946,14.2725 52.4766,14.3545 52.4436,14.4565 C52.3896,14.6365 52.2986,14.7075 52.2896,14.5835 C52.2776,14.4625 51.9726,14.8705 51.8716,15.1475 C51.8116,15.3065 51.7656,15.3885 51.7616,15.3365 C51.7526,15.2855 51.7186,15.2435 51.6746,15.2485 C51.5786,15.2555 51.4216,15.8245 51.4736,15.9695 C51.5126,16.0705 51.5416,16.0455 51.7956,15.7265 C51.9886,15.4845 52.0916,15.3845 52.1226,15.4305 C52.1756,15.4995 52.5156,15.0915 52.4696,15.2275 C52.4206,15.3685 52.3206,15.6115 52.2476,15.7745 C52.1196,16.0435 52.0896,16.2135 52.1306,16.4705 C52.1516,16.6085 52.2476,16.5785 52.2936,16.4175 C52.3136,16.3405 52.3666,16.1695 52.4206,16.0405 C52.4696,15.9095 52.5066,15.7745 52.5026,15.7345 C52.5006,15.6905 52.5196,15.6605 52.5496,15.6575 C52.5796,15.6525 52.5996,15.6185 52.5976,15.5745 C52.5896,15.5365 52.6216,15.4695 52.6646,15.4305 C52.8216,15.2715 52.8096,15.5135 52.6296,15.9635 C52.4696,16.3845 52.4556,16.4495 52.5026,16.7885 C52.5286,16.9925 52.5756,17.1525 52.6066,17.1465 C52.6376,17.1465 52.7016,17.0395 52.7466,16.9095 C52.8456,16.6505 52.9926,16.4355 53.0686,16.4255 C53.0976,16.4255 53.1896,16.3535 53.2676,16.2715 C53.4336,16.1025 53.5666,16.0665 53.5806,16.1845 C53.5866,16.2585 53.1916,16.6875 53.1086,16.6965 C53.0126,16.7015 52.8866,16.9025 52.8936,17.0225 C52.9076,17.1785 52.9436,17.1785 53.0576,17.0135 C53.0576,17.0135 53.8186,16.9925 53.8006,17.0955 C53.7616,17.3745 54.1026,17.1645 54.2946,16.7935 C54.4096,16.5645 54.4536,16.5265 54.5196,16.5705 C54.5706,16.6035 54.5946,16.6725 54.5766,16.7445 C54.5526,16.8585 54.2866,17.1855 54.0596,17.3755 C53.9486,17.4725 53.9486,17.4835 54.0456,17.5085 C54.1046,17.5255 54.1946,17.5085 54.2486,17.4695 C54.3026,17.4265 54.4396,17.3875 54.5586,17.3755 C54.7466,17.3565 54.7916,17.3225 54.9556,17.0955 C55.0486,16.9485 55.1536,16.8325 55.1836,16.8275 C55.2066,16.8255 55.2236,16.9095 55.2136,17.0175 C55.2056,17.1985 55.2136,17.2155 55.3196,17.1855 C55.3996,17.1705 55.4846,17.0455 55.5956,16.8075 C55.7946,16.3605 55.9376,16.3665 55.8386,16.8085 C55.8166,16.9045 55.8286,16.9275 55.8826,16.9025 C56.0146,16.8345 56.1096,16.5265 56.1156,16.1725 C56.1156,15.7915 56.1556,15.6715 56.2526,15.7205 C56.3286,15.7605 56.3346,16.2945 56.2606,16.4755 C56.2116,16.5985 56.2686,16.6655 56.3456,16.5705 C56.4316,16.4675 56.5446,15.8925 56.5216,15.6665 C56.5156,15.5605 56.6396,15.1665 56.6536,14.9675 C56.6786,14.5455 56.6866,14.5165 56.7966,14.5005 C56.9246,14.4925 56.9596,14.6505 56.8696,14.8405 C56.8216,14.9465 56.8276,15.2275 56.9136,16.2715 C56.9176,16.3665 57.0086,17.3275 57.1376,17.2685 C57.1766,17.2445 57.5556,17.2035 57.6446,17.2175 C57.7186,17.2285 57.7566,17.2085 57.7496,17.1605 C57.7436,17.1115 57.7636,17.0355 57.7906,16.9815 C57.8246,16.9095 57.8246,16.5845 57.9416,16.5785 C57.9536,16.5705 57.9356,16.4815 57.9106,16.3675 C57.8626,16.1565 57.9396,16.0005 58.0196,16.1565 C58.0406,16.1985 58.1036,16.2345 58.1586,16.2255 C58.2306,16.2205 58.2676,16.2575 58.2716,16.3535 C58.2786,16.4255 58.3306,16.5025 58.3776,16.5245 C58.4276,16.5475 58.4986,16.6725 58.5386,16.8125 C58.6246,17.1255 58.7786,17.3835 59.0326,17.6645 C59.2616,17.9145 59.3986,17.7125 59.4906,17.8085 C59.5806,17.8995 59.6996,17.9205 59.6376,17.8345 C59.6176,17.8125 59.6236,17.7725 59.6566,17.7505 C59.6786,17.7295 59.7776,17.8035 59.8756,17.9145 C60.0546,18.1265 60.1276,18.1665 60.1136,18.0315 C60.1066,17.9115 60.2026,17.9265 60.3176,18.0725 C60.3976,18.1715 60.4316,18.1835 60.4896,18.1265 C60.5356,18.0785 60.5766,18.0725 60.6426,18.1225 C60.7186,18.1715 60.7466,18.1715 60.7696,18.1175 C60.7916,18.0725 60.8366,18.0835 60.9026,18.1525 C61.0166,18.2565 61.1176,18.2745 61.1086,18.1835 C61.1086,18.1525 61.0096,18.0045 60.8896,17.8535 C60.7696,17.7005 58.7646,15.8485 58.7716,15.4895 C58.7786,15.2375 58.7646,15.2065 58.5976,15.0795 C58.4256,14.9385 58.3306,14.6885 58.4436,14.6805 C58.4766,14.6735 58.5756,14.7605 58.6616,14.8705 C58.8446,15.1025 58.9736,15.1255 59.3946,14.9925 C59.7866,14.8675 60.1436,14.9425 60.3006,15.1855 C60.3456,15.2505 60.4956,15.4065 60.6366,15.5285 C60.7696,15.6525 60.8896,15.7775 60.8896,15.8115 C60.8976,15.8375 60.9266,15.8625 60.9666,15.8615 C61.0006,15.8585 61.1246,15.9635 61.2436,16.0975 C61.4786,16.3565 61.6356,16.5115 61.9976,16.8525 C62.1296,16.9765 62.3636,17.2035 62.5126,17.3505 C63.0096,17.8345 63.0806,17.8995 63.1666,17.8855 C63.2246,17.8815 63.1586,17.7205 62.8926,17.2205 C62.6996,16.8565 62.4846,16.4635 62.4156,16.3535 C62.3496,16.2385 62.2456,16.0475 62.1806,15.9275 C62.1146,15.8115 62.0156,15.7075 61.9596,15.6965 C61.9006,15.6885 61.5866,15.1865 61.3726,15.0405 C61.3336,15.0115 61.2516,14.9425 61.1946,14.8945 C61.0456,14.7575 60.6286,14.5315 60.5396,14.5395 C60.4966,14.5425 60.4156,14.5005 60.3516,14.4415 C60.1506,14.2565 59.6146,14.1355 59.1666,14.1755 C58.8266,14.2065 58.4436,14.0585 58.4276,13.8825 C58.4156,13.7805 58.5466,13.7805 58.7966,13.8845 C59.0946,14.0075 59.2206,13.9925 59.1636,13.8265 C59.1406,13.7565 59.1416,13.6775 59.1666,13.6585 C59.2506,13.5985 59.1546,13.4825 58.9426,13.4025 C58.7786,13.3485 58.7206,13.3485 58.6246,13.4095 C58.5086,13.4905 58.3896,13.4735 58.3796,13.3695 C58.3686,13.2755 58.5096,13.1485 58.6296,13.1355 C58.7146,13.1275 58.7406,13.1045 58.7086,13.0415 C58.6546,12.9305 58.7406,12.7435 58.8636,12.7345 C58.9206,12.7295 58.9796,12.6985 58.9936,12.6685 C59.0356,12.5845 59.2146,12.5785 59.4046,12.6565 C59.5616,12.7235 60.6286,13.7665 60.9546,13.7355 C61.1426,13.7225 61.1036,13.6325 60.7696,13.3535 C60.5426,13.1665 60.4746,13.0765 60.4896,12.9845 C60.5026,12.9115 60.4706,12.8415 60.4156,12.8055 C60.2366,12.6785 59.9676,12.3125 59.9566,12.1645 C59.9336,11.9865 59.8466,11.8735 59.6636,11.7945 C59.5616,11.7585 59.5416,11.7105 59.5556,11.6155 C59.5616,11.5455 59.5156,11.3035 59.4486,11.0725 C59.3806,10.8395 59.2936,10.3735 59.2526,10.0345 C59.1806,9.3835 59.1356,9.2775 58.7086,8.6685 C58.6376,8.5705 58.5796,8.4455 58.5756,8.3835 C58.5606,8.2425 58.6846,7.4975 58.8356,6.7875 C58.8636,6.6435 58.8816,6.3945 58.8636,6.2335 C58.8446,6.0175 58.8586,5.9345 58.9206,5.9045 C58.9936,5.8675 59.0006,5.8105 58.9506,5.5615 C58.8836,5.2175 58.9206,4.6645 58.9796,4.6175 C59.0166,4.5895 59.0436,4.4895 59.0436,4.3865 C59.0436,4.2845 59.0556,4.1525 59.0736,4.0985 C59.0946,4.0405 59.0616,3.8325 59.0026,3.6285 C58.9206,3.3285 58.9116,3.2185 58.9506,3.0245 C58.9936,2.7965 58.9886,2.7905 58.8356,2.6955 C58.7466,2.6435 58.5796,2.5215 58.4626,2.4305 C58.2036,2.2085 57.8916,2.0505 57.7436,2.0625 C57.6786,2.0685 57.6006,2.0505 57.5716,2.0205 C57.4796,1.9475 57.1566,2.1275 56.8696,2.4175 C56.7426,2.5475 56.6186,2.6575 56.5926,2.6575 C56.4646,2.6675 56.0986,3.4385 56.0546,3.7845 C56.0386,3.8765 56.0146,3.9775 55.9866,3.9965 C55.9036,4.0585 55.9376,4.5575 55.9446,5.0115 L55.9516,5.4645 L56.2316,5.5725 C56.3756,5.6305 56.5726,5.7365 56.6616,5.7975 C56.8826,5.9695 57.0836,6.2005 57.1796,6.3135 C57.2506,6.3905 57.3096,6.4775 57.3116,6.5075 C57.3196,6.5815 57.1386,6.5975 57.0576,6.5265 C56.9646,6.4505 56.7846,6.4075 56.5706,6.3055 C56.3456,6.1935 56.2496,6.2005 56.2566,6.3225 C56.2606,6.3715 56.2056,6.5205 56.1286,6.6465 C55.7866,7.2115 55.8026,7.3255 56.2116,7.4815 C56.4316,7.5725 56.4406,7.5725 56.7216,7.4525 C56.9296,7.3675 57.0376,7.2815 57.1156,7.1435 C57.3096,6.7865 57.6126,6.9235 57.5796,7.3615 C57.5606,7.6315 57.4106,7.8505 57.0766,8.1145 C56.8586,8.2805 56.7686,8.3135 56.4586,8.3505 C56.2606,8.3735 56.0386,8.3745 55.9766,8.3595 C55.8326,8.3215 55.7496,8.4455 55.7426,8.3735 C55.7296,8.2425 55.6106,8.1745 55.4936,8.2335 C55.4016,8.2765 55.1536,8.8195 55.1266,9.0235 C55.0446,9.7315 54.5586,10.2495 54.5126,10.4835 C54.4536,10.7665 54.1316,11.1905 53.9126,11.2635 C53.8256,11.2915 53.6646,11.3855 53.5546,11.4775 C53.2306,11.7365 52.9806,11.8285 52.7866,11.7705 C52.6926,11.7405 52.5356,11.7365 52.4256,11.7675 C52.2476,11.8135 52.2086,11.8005 51.9726,11.6005 C51.8216,11.4775 52.0416,11.3365 52.0276,11.1865 C52.0226,11.1315 52.0486,11.0615 52.0856,11.0365 C52.1286,11.0075 52.1756,10.8635 52.2016,10.7095 C52.2266,10.5585 52.2736,10.3435 52.3056,10.2375 C52.3436,10.1285 52.3866,9.9915 52.3986,9.9315 C52.4696,9.7025 52.5066,9.3655 52.5156,9.0495 C52.5156,8.8705 52.5356,8.6705 52.5566,8.6105 C52.5726,8.5485 52.5876,8.3405 52.5876,8.1425 C52.5846,7.5675 52.6216,7.1585 52.6896,7.0635 C52.7436,6.9875 52.7366,6.9625 52.6526,6.9165 C52.5776,6.8695 52.5476,6.7735 52.5196,6.4915 C52.5026,6.2955 52.5066,6.0865 52.5316,6.0265 C52.5566,5.9715 52.5696,5.7085 52.5636,5.4465 C52.5246,4.3295 52.5316,4.0935 52.5896,3.9835 C52.6296,3.9215 52.6556,3.8175 52.6506,3.7585 C52.6436,3.6985 52.6796,3.5105 52.7246,3.3405 C52.7766,3.1725 52.8216,2.9645 52.8296,2.8755 L52.8386,2.7135 L52.6676,2.8355 C52.5726,2.9055 52.3926,3.1175 52.2676,3.3035 C52.0226,3.6735 52.1586,3.8715 52.0486,3.8905 C51.9976,3.8965 51.9316,3.9595 51.9096,4.0315 C51.8866,4.0995 51.8146,4.2725 51.7566,4.4095 C51.6346,4.7095 51.6316,4.9105 51.7486,4.8975 C51.8546,4.8935 51.8566,4.9665 51.7616,5.0655 C51.7096,5.1195 51.6976,5.1895 51.7296,5.2885 C51.7656,5.4025 51.7526,5.4485 51.6726,5.5065 C51.5526,5.5825 51.5386,5.7155 51.6476,5.7375 C51.6876,5.7455 51.6636,5.8265 51.5786,5.9675 C51.4486,6.1755 51.4616,6.2885 51.6056,6.2725 C51.7096,6.2655 51.7096,6.3155 51.6086,6.4485 C51.5676,6.5075 51.4736,6.5595 51.4066,6.5675 C51.2446,6.5785 51.2446,6.7425 51.4026,6.7705 C51.5256,6.7865 51.5526,6.8545 51.4676,6.9165 C51.4366,6.9385 51.4336,7.0015 51.4616,7.0565 C51.4846,7.1195 51.4616,7.2185 51.4026,7.3075 C51.3476,7.3915 51.3056,7.5065 51.3156,7.5625 C51.3206,7.6205 51.2626,7.7275 51.1866,7.8085 C51.0386,7.9635 51.0696,8.0325 51.2916,8.0195 C51.4906,8.0005 51.5256,8.0905 51.3616,8.1915 C51.2806,8.2365 51.2186,8.2965 51.2216,8.3215 C51.2226,8.3505 51.1486,8.4025 51.0516,8.4465 C50.8956,8.5135 50.8796,8.5405 50.8976,8.7275 C50.9256,8.9585 50.9346,8.9585 51.1996,8.6385 C51.3616,8.4505 51.5946,8.3925 51.5186,8.5525 C51.4996,8.6105 51.4316,8.7055 51.3776,8.7675 C51.3206,8.8305 51.2736,8.9145 51.2766,8.9555 C51.2806,8.9935 51.2326,9.1525 51.1736,9.2975 C51.0696,9.5455 51.0406,9.7005 51.1016,9.6935 C51.1206,9.6935 51.2096,9.5985 51.3046,9.4855 C51.4846,9.2665 51.3306,9.6375 51.2296,9.8725 C51.1596,10.0435 51.1596,10.0985 51.2216,10.1795 C51.2846,10.2635 51.2736,10.3155 51.1596,10.5205 C50.9786,10.8575 50.9306,11.0555 51.0256,11.1315 M55.5726,11.1315 C55.6126,10.9025 55.6786,10.7955 55.7796,10.7895 C55.8786,10.7785 55.8876,10.9115 55.7946,11.0035 C55.7546,11.0455 55.7266,11.1295 55.7316,11.1905 C55.7496,11.3005 55.7546,11.2965 55.8026,11.1685 C56.0016,10.6195 56.2696,10.3085 56.5726,10.2815 C56.7276,10.2635 56.8016,10.2245 56.8746,10.1065 C56.9366,10.0115 57.0056,9.9645 57.0596,9.9815 C57.1156,9.9935 57.2066,9.9635 57.2756,9.9055 C57.3416,9.8535 57.4506,9.8155 57.5116,9.8305 C57.5826,9.8405 57.6626,9.8035 57.7226,9.7315 C57.8016,9.6375 57.8116,9.5545 57.7726,9.2655 C57.7246,8.9245 57.7286,8.9045 57.8916,8.7315 C58.0226,8.5885 58.0746,8.7635 57.9796,8.8845 L57.8466,9.0445 L57.9746,9.0535 C58.0746,9.0595 58.0956,9.0805 58.0746,9.1765 C58.0036,9.5245 58.0036,9.5455 58.1596,9.5365 C58.3846,9.5165 58.7206,9.7655 58.9116,10.0885 C59.0876,10.3815 59.1356,10.5585 59.0556,10.6135 C59.0356,10.6315 58.9566,10.5055 58.8886,10.3335 C58.7716,10.0455 58.4876,9.7235 58.3616,9.7315 C58.2886,9.7395 58.3176,9.8155 58.4326,9.9195 C58.5546,10.0345 58.6956,10.4545 58.7716,10.9115 C58.8306,11.2785 58.8176,11.4305 58.7206,11.4405 C58.6656,11.4455 58.6656,11.5345 58.7126,11.8005 C58.7676,12.1315 58.7646,12.1645 58.6416,12.2975 C58.5756,12.3775 58.5176,12.4995 58.5246,12.5625 C58.5386,12.7075 58.4486,12.6335 58.3866,12.4465 C58.3506,12.3415 58.3686,12.2815 58.4696,12.1725 C58.5926,12.0495 58.5956,12.0205 58.5296,11.6745 C58.4696,11.3365 58.4706,11.3155 58.5756,11.2785 C58.6616,11.2405 58.6756,11.2085 58.6366,11.1105 C58.6086,11.0455 58.5676,10.8855 58.5386,10.7495 C58.4726,10.4405 58.3306,10.1865 58.2086,10.1645 C58.1276,10.1505 57.9606,10.1725 57.8226,10.2125 C57.8116,10.2175 57.9856,10.4165 57.9416,10.4355 C57.8926,10.4545 57.8946,10.4885 57.9536,10.5745 C58.0036,10.6455 58.0136,10.7225 57.9856,10.7895 C57.9606,10.8425 57.9286,11.0415 57.9066,11.2305 C57.8916,11.4225 57.8506,11.5985 57.8186,11.6215 C57.7136,11.7035 57.6606,12.0625 57.6976,12.4455 C57.7396,12.9255 57.8376,13.1545 57.9796,13.1045 C58.0356,13.0835 58.0806,13.0865 58.0826,13.1165 C58.0936,13.1925 57.8986,13.4225 57.8146,13.4315 C57.6316,13.4495 57.2416,12.7135 57.2896,12.4285 C57.2986,12.3515 57.2816,12.2775 57.2506,12.2595 C57.1046,12.1885 57.1796,12.1445 57.1676,12.0415 C57.1596,11.9665 57.1266,11.9135 57.0836,11.9165 C56.9776,11.9285 56.7076,11.6525 56.6476,11.4895 C56.6216,11.4155 56.6316,11.2305 56.6636,11.0785 C56.7426,10.7335 56.7376,10.6415 56.6396,10.6555 C56.5076,10.6645 56.3756,10.9575 56.3666,11.2635 C56.3566,11.4225 56.3286,11.5535 56.3016,11.5575 C56.2746,11.5575 56.2466,11.5305 56.2426,11.4935 C56.2156,11.3285 56.2156,11.0035 56.2436,10.8505 C56.2696,10.7035 56.2656,10.6885 56.2056,10.7495 C56.0986,10.8575 55.9376,11.2465 55.8326,11.6455 C55.7566,11.9285 55.7496,12.0845 55.7966,12.4135 C55.8406,12.7495 55.8386,12.8235 55.7716,12.8275 C55.7046,12.8315 55.6786,12.7135 55.6106,12.0825 C55.5696,11.6655 55.5496,11.2405 55.5726,11.1315 M52.5496,17.4265 C52.5066,17.3835 52.4646,17.3505 52.4516,17.3525 M52.7436,10.1105 C52.7696,10.1285 52.8066,10.1105 52.8246,10.0775 C52.8386,10.0505 53.5166,10.4485 53.5656,10.4435 C53.7086,10.4335 53.6016,9.4815 53.6766,9.4435 C53.7396,9.4135 53.7946,9.1035 53.8306,8.5705 C53.8356,8.4945 53.8666,8.2165 53.8966,7.9535 C53.9266,7.6845 53.8486,7.2535 53.9856,7.0945 C54.0666,7.0075 54.1316,6.8585 54.1326,6.7735 C54.1346,6.6725 54.1816,6.5905 54.2536,6.5515 C54.3936,6.4735 54.4006,6.1455 54.2636,6.2125 C54.2196,6.2335 54.1856,6.2265 54.1816,6.2005 C54.1716,6.1005 54.0256,6.1615 54.0096,6.2695 C53.9956,6.3505 53.9476,6.3865 53.8336,6.3945 C53.7476,6.4035 53.6516,6.4405 53.6216,6.4745 C53.5926,6.5075 53.5166,6.5745 53.4536,6.6115 C53.2936,6.7125 52.9826,7.3855 53.0006,7.5865 C53.0056,7.6315 52.9826,7.6825 52.9526,7.7065 C52.9216,7.7275 52.9136,7.8085 52.9366,7.8805 C52.9686,7.9775 52.9506,8.0225 52.8716,8.0535 C52.7976,8.0765 52.7786,8.1175 52.8066,8.1995 C52.8306,8.2575 52.8296,8.4815 52.8026,8.6975 C52.7786,8.9085 52.7626,9.1405 52.7706,9.2195 C52.7786,9.2915 52.7626,9.3795 52.7366,9.4095 C52.7146,9.4435 52.6926,9.5655 52.6926,9.6825 C52.6896,9.8035 52.6896,9.9405 52.6896,9.9935 C52.6896,10.0435 52.7126,10.0985 52.7436,10.1105 M52.8306,6.8695 C52.8686,6.8695 52.9946,6.7335 53.1216,6.5745 C53.2606,6.3975 53.4086,6.2655 53.5046,6.2355 C53.5926,6.2145 53.8186,6.1455 54.0046,6.0835 C54.4236,5.9525 55.2646,5.8585 55.6786,5.9015 C56.1616,5.9525 56.3346,5.9525 56.3286,5.9015 C56.3246,5.8695 56.2376,5.8185 56.1316,5.7805 C56.0226,5.7415 55.9166,5.6835 55.8976,5.6575 C55.8776,5.6275 55.8136,5.6255 55.7646,5.6455 C55.7136,5.6665 55.5256,5.6605 55.3476,5.6305 C55.1586,5.6025 54.7916,5.6025 54.4536,5.6305 C53.8646,5.6835 53.7156,5.7365 53.3916,6.0125 C53.3196,6.0735 53.2186,6.1245 53.1696,6.1315 C53.0576,6.1425 52.8216,6.3585 52.7866,6.4835 C52.7366,6.6345 52.7696,6.8755 52.8306,6.8695 M52.8866,3.9265 C52.9136,3.9215 52.9366,3.8965 52.9346,3.8695 M53.2496,5.7375 C53.2606,5.7525 53.3426,5.7115 53.4236,5.6515 C53.5186,5.5825 53.7546,5.5085 54.0176,5.4645 C54.4626,5.3845 54.4626,5.3845 54.4626,5.2235 C54.4626,5.1285 54.4856,5.0345 54.5116,5.0025 C54.5366,4.9705 54.5456,4.8715 54.5406,4.7705 C54.5286,4.6745 54.5456,4.5795 54.5766,4.5595 C54.6026,4.5385 54.6116,4.3805 54.5976,4.2115 C54.5846,4.0415 54.5876,3.8085 54.6096,3.6865 C54.6666,3.3335 54.6686,2.1575 54.6116,2.1085 C54.5846,2.0825 54.5526,1.9965 54.5456,1.9155 C54.5216,1.6415 54.2946,1.2975 54.0936,1.2345 C53.9126,1.1795 53.9036,1.1835 53.7546,1.3855 C53.6676,1.5085 53.5946,1.6195 53.5946,1.6445 C53.6016,1.6705 53.5616,1.8005 53.5166,1.9355 C53.4666,2.0695 53.4236,2.2745 53.4176,2.3925 C53.4086,2.5975 53.3676,3.0285 53.3306,3.3995 C53.3196,3.5065 53.2896,3.6285 53.2686,3.6675 C53.2506,3.7075 53.2686,3.8395 53.3196,3.9615 C53.3916,4.1495 53.3916,4.2215 53.3196,4.4755 C53.2606,4.7095 53.2526,4.7915 53.3096,4.8665 C53.3656,4.9425 53.3576,4.9935 53.2506,5.1535 C53.1496,5.3085 53.1336,5.3795 53.1726,5.5325 C53.1996,5.6335 53.2356,5.7245 53.2496,5.7375 M55.2856,5.0465 L55.2896,4.7795 M55.1086,7.4455 C55.2766,7.6995 55.7206,8.0145 55.9266,8.0295 C56.0316,8.0385 56.1996,8.0605 56.2946,8.0725 C56.6216,8.1215 57.2116,7.8195 57.3266,7.5455 C57.4136,7.3265 57.4086,7.2805 57.2986,7.4215 C57.1386,7.6385 56.9546,7.7455 56.6616,7.7745 C56.3246,7.8115 56.1556,7.7745 55.8986,7.5915 C55.7046,7.4595 55.5596,7.2535 55.4846,7.0185 C55.4336,6.8695 55.5596,6.3715 55.6606,6.3255 C55.7166,6.3015 55.5256,6.0595 55.5336,6.0955 C55.5346,6.1425 55.4586,6.2125 55.3566,6.2555 C54.9966,6.4105 54.8586,7.0755 55.1086,7.4455 M57.6786,1.6855 C57.7396,1.6815 58.4326,2.0625 58.5926,2.1845 C58.9636,2.4895 59.1566,2.5975 59.3236,2.6085 C59.4246,2.6115 59.5276,2.6385 59.5456,2.6615 C59.5596,2.6825 59.6566,2.6675 59.7536,2.6325 C59.8526,2.5975 59.9566,2.5675 59.9786,2.5745 C60.0016,2.5795 60.0746,2.5455 60.1406,2.4935 C60.2326,2.4185 60.2466,2.3525 60.2266,2.1335 C60.1986,1.8395 60.0546,1.6075 59.8276,1.4885 C59.7536,1.4485 59.5806,1.3605 59.4486,1.2835 C59.3166,1.2085 59.0906,1.1365 58.9506,1.1305 C58.5826,1.1025 58.1256,1.1445 58.1276,1.2045 C58.1326,1.2345 58.0746,1.2795 58.0136,1.3035 C57.7726,1.4045 57.5096,1.7075 57.6786,1.6855 M58.1216,1.5405 C58.2166,1.5295 58.6066,1.6415 58.9706,1.7675 C59.3276,1.8905 59.6236,2.1155 59.6406,2.2795 C59.6566,2.4065 59.4656,2.4185 59.3176,2.2985 C59.2526,2.2445 59.1666,2.2005 59.1316,2.2045 C59.0976,2.2085 59.0016,2.1705 58.9206,2.1215 C58.8056,2.0505 58.6336,1.9255 58.4626,1.8445 C58.2886,1.7675 58.1346,1.6645 58.1216,1.6195 C58.1086,1.5735 58.1086,1.5405 58.1216,1.5405 M58.4766,1.2885 C58.4876,1.2885 58.6846,1.3025 58.9226,1.3275 C59.3826,1.3745 59.6596,1.4765 59.7956,1.6605 C59.9186,1.8235 59.8136,1.9255 59.6146,1.8235 C59.2826,1.6645 58.8836,1.5295 58.6906,1.5145 C58.5336,1.5035 58.4776,1.4735 58.4726,1.3955 C58.4696,1.3345 58.4696,1.2885 58.4766,1.2885 M59.0146,15.6965 C59.0186,15.6435 59.0146,15.5745 58.9936,15.5365 M59.3236,15.3225 C59.3276,15.3885 59.3046,15.4995 59.2626,15.5605 M60.7276,16.4895 C60.7006,16.4815 60.6726,16.4205 60.6696,16.3465 M60.8176,12.0865 C60.9526,12.2255 61.1286,12.3955 61.2156,12.4605 C61.4036,12.6065 61.9686,13.3025 61.9716,13.3925 C61.9766,13.4235 62.3086,14.1285 62.3496,14.0805 C62.3636,14.0595 62.6086,14.3365 62.8356,14.5425 C63.2386,14.9095 63.8816,15.0495 63.9396,15.0375 C64.0126,15.0115 63.9616,14.9315 63.6816,14.6045 C63.4956,14.3795 63.2566,14.0365 63.1526,13.8335 C62.8116,13.1545 62.6476,12.9035 62.3676,12.6785 C62.1296,12.4935 61.8136,12.2745 61.4786,12.0575 C61.2156,11.8835 61.1676,11.9755 60.7826,11.8175 C60.4966,11.6985 60.5026,11.7525 60.8176,12.0865 M62.6836,18.2815 C62.6426,18.2615 62.6316,18.2665 62.6616,18.2955" id="Fill-81"></path>
                    <path d="M0.9595,15.3555 C0.9835,15.2135 1.0245,15.0705 1.0405,15.0325 C1.0595,14.9955 1.0405,14.9315 0.9975,14.8925 C0.9035,14.8005 0.8375,13.9175 0.9115,13.8085 C0.9345,13.7725 0.9345,13.6795 0.9115,13.6085 C0.8715,13.5045 0.9115,13.3635 1.0465,13.0475 C1.1465,12.8125 1.2255,12.5665 1.2195,12.4975 C1.2105,12.4265 1.2255,12.3455 1.2465,12.3165 C1.3075,12.2375 1.3595,11.4935 1.3295,11.2295 C1.3135,11.1185 1.2795,10.9975 1.2545,10.9585 C1.1805,10.8505 1.0505,7.8955 1.1145,7.8415 C1.1945,7.7705 1.4585,6.9425 1.4965,6.6435 C1.5175,6.4625 1.5705,6.3045 1.6075,6.2865 C1.6505,6.2635 1.6585,6.2085 1.6295,6.1295 C1.6045,6.0505 1.6295,5.8945 1.6965,5.7035 C1.7785,5.4905 1.7945,5.3385 1.7685,5.1695 C1.7445,5.0065 1.7685,4.7895 1.8525,4.4795 C1.9135,4.2345 1.9895,3.9585 2.0095,3.8755 C2.0335,3.7955 2.0715,3.7255 2.0985,3.7235 C2.1265,3.7165 2.1475,3.6895 2.1455,3.6525 C2.1205,3.4235 2.9925,2.2245 3.1945,2.2035 C3.3315,2.1915 3.4965,2.3695 3.5145,2.5485 C3.5355,2.8295 3.6115,2.5635 3.6335,2.1215 C3.6455,1.8665 3.6675,1.6165 3.6935,1.5635 C3.9045,0.9905 4.0555,0.7805 4.2985,0.7095 C4.5575,0.6385 4.8705,0.7805 5.0225,1.0355 C5.2305,1.3865 5.4135,2.2775 5.3615,2.7125 C5.3525,2.7875 5.3295,3.0335 5.3115,3.2585 C5.2815,3.6325 5.2845,3.6605 5.3865,3.7255 C5.4485,3.7585 5.5445,3.7825 5.6025,3.7785 C5.6565,3.7735 5.7595,3.8025 5.8175,3.8485 C5.8745,3.8945 5.9225,3.9035 5.9165,3.8725 C5.9135,3.8425 5.9555,3.8015 6.0065,3.7825 C6.0665,3.7645 6.1155,3.6515 6.1425,3.4755 C6.2025,3.1155 6.3235,2.8715 6.5375,2.7025 C6.6325,2.6255 6.7465,2.4645 6.7845,2.3455 C6.8625,2.1175 7.1505,1.7655 7.3905,1.6125 C7.4625,1.5635 7.6025,1.4375 7.6965,1.3295 C8.0895,0.8885 8.9005,0.5045 9.2495,0.6015 C9.3335,0.6265 9.5255,0.6655 9.6785,0.6865 C10.3335,0.7935 11.1055,1.4785 11.0025,1.8515 C10.9845,1.9285 10.9725,2.0455 10.9845,2.1215 C10.9845,2.1935 10.9295,2.3365 10.8475,2.4415 C10.7055,2.6255 10.6955,2.6255 10.1715,2.6755 L9.6505,2.7255 L9.6385,2.9705 C9.6295,3.1035 9.6455,3.2375 9.6635,3.2675 C9.6835,3.2955 9.7335,3.4645 9.7755,3.6395 C9.8165,3.8145 9.8715,4.0565 9.8985,4.1825 C9.9265,4.3005 9.9305,4.4455 9.9055,4.5095 C9.8735,4.5775 9.8805,4.6925 9.9195,4.8075 C9.9795,4.9875 9.6945,5.4865 9.7935,5.7035 C9.8985,5.9195 9.6455,6.1995 9.6635,6.4235 C9.6785,6.5845 9.6605,6.7635 9.6175,6.8405 C9.4825,7.1005 9.3235,7.9375 9.3745,8.1105 C9.4025,8.1995 9.5305,8.4695 9.6635,8.6975 C9.8715,9.0665 9.9125,9.1835 9.9535,9.5805 C10.0175,10.1215 10.1625,10.6145 10.3065,10.7975 C10.3615,10.8705 10.4415,10.9755 10.4805,11.0285 C10.5195,11.0935 10.6045,11.1255 10.6895,11.1185 C10.7645,11.1095 10.8305,11.1275 10.8355,11.1665 C10.8445,11.2425 10.9725,11.2825 11.1495,11.2665 C11.2205,11.2605 11.2795,11.2725 11.2825,11.3025 C11.2845,11.3335 11.6745,11.4875 11.7515,11.4815 C11.8505,11.4755 12.6015,11.9215 12.8635,12.1515 C13.1405,12.3905 13.6785,13.0735 13.6925,13.1985 C13.6945,13.2455 13.8025,13.4485 14.0905,13.9645 C14.2855,14.3125 14.7255,14.7155 15.0325,14.8295 C15.3525,14.9515 15.4145,15.0835 15.2065,15.2035 C15.1055,15.2585 15.0165,15.2735 14.8315,15.2345 C14.6935,15.2135 14.5515,15.2135 14.5055,15.2345 C14.4635,15.2555 14.3405,15.2555 14.2265,15.2255 C14.0355,15.1845 14.0135,15.1895 13.9365,15.3125 L13.8525,15.4465 L13.6125,15.3175 C13.3965,15.2035 13.3695,15.1965 13.2885,15.2795 C13.1815,15.4005 13.1245,15.4065 12.8785,15.3175 C12.7705,15.2755 12.6705,15.2585 12.6515,15.2755 C12.6265,15.3025 13.0665,16.0155 13.1995,16.1665 C13.2255,16.1965 13.2885,16.3315 13.3375,16.4685 C13.3905,16.6075 13.4565,16.7315 13.4775,16.7435 C13.5045,16.7575 13.5345,16.8115 13.5385,16.8615 C13.5495,16.9875 14.0265,17.7665 14.1395,17.8425 C14.1915,17.8775 14.2415,17.9605 14.2445,18.0325 C14.2535,18.1285 14.2965,18.1585 14.4345,18.1745 C14.5355,18.1865 14.6675,18.2255 14.7385,18.2595 C14.8425,18.3145 14.8535,18.3385 14.8125,18.5135 C14.7545,18.8075 14.6195,18.8675 14.1685,18.8265 C13.9645,18.8125 13.6395,18.7875 13.4515,18.7755 C13.2595,18.7625 12.8715,18.6915 12.5925,18.6185 C12.3135,18.5445 11.9555,18.4655 11.8075,18.4425 C11.6555,18.4165 11.5045,18.3845 11.4745,18.3625 C11.4425,18.3465 11.2875,18.3285 11.1355,18.3265 C10.9845,18.3265 10.6955,18.2685 10.5015,18.2085 C9.9375,18.0345 9.4235,17.8475 9.2695,17.7665 C9.1915,17.7255 9.0245,17.6965 8.8955,17.7045 C8.7705,17.7105 8.6045,17.6815 8.5345,17.6385 C8.0185,17.3295 7.9735,17.3155 7.8715,17.4265 C7.7895,17.5105 7.7525,17.5225 7.6745,17.4775 C7.4845,17.3675 7.4305,17.3665 7.3355,17.4655 C7.2445,17.5675 7.2305,17.5675 6.9995,17.4865 C6.7705,17.4055 6.7645,17.4055 6.6025,17.5195 C6.4775,17.6105 6.3615,17.6425 6.1305,17.6445 C5.9655,17.6475 5.8175,17.6425 5.7955,17.6245 C5.7785,17.6115 5.6295,17.6445 5.4645,17.7005 C5.2985,17.7575 5.0615,17.8385 4.9385,17.8775 C4.6355,17.9855 4.5045,17.9875 4.3125,17.9125 C4.1725,17.8535 4.1405,17.8535 4.0355,17.9425 C3.9225,18.0325 3.8955,18.0325 3.7075,17.9605 C3.5975,17.9215 3.4945,17.9065 3.4765,17.9295 C3.4575,17.9485 3.3825,17.9315 3.3095,17.8925 C3.2335,17.8525 3.1435,17.8305 3.1075,17.8475 C3.0735,17.8625 2.8185,17.8775 2.5405,17.8825 C2.1305,17.8855 1.9895,17.8625 1.8115,17.7665 C1.6865,17.7005 1.5805,17.6025 1.5775,17.5445 C1.5705,17.4955 1.4785,17.3605 1.3685,17.2515 C1.2545,17.1455 1.1265,16.9495 1.0795,16.8115 C0.9675,16.4915 0.9025,15.6845 0.9595,15.3555 M1.9115,14.3865 L2.0585,13.9545 M2.0515,12.7155 L2.0365,12.5715 M2.2435,16.7825 C2.2195,16.8075 2.1635,16.8015 2.1205,16.7705 M1.4885,10.9215 C1.5405,10.9655 1.6525,10.7795 1.6455,10.6655 C1.6365,10.6145 1.6885,10.4995 1.7575,10.4025 C1.8245,10.3105 1.9445,10.0705 2.0295,9.8735 C2.1735,9.5285 2.2925,9.3825 2.3055,9.5395 C2.3085,9.5805 2.2435,9.7635 2.1505,9.9405 C1.9965,10.2725 1.9895,10.3975 2.1365,10.3215 C2.2375,10.2725 2.2375,10.3515 2.1435,10.6385 C1.9995,11.0675 1.9795,11.5525 2.0985,11.7785 C2.1205,11.8215 2.1125,11.9345 2.0765,12.0235 C1.9895,12.2345 2.0855,12.4085 2.2375,12.3065 C2.2905,12.2745 2.3505,12.2025 2.3735,12.1515 C2.4175,12.0475 2.8145,12.0235 2.8565,12.1255 C2.8735,12.1635 2.8495,12.1945 2.7995,12.2005 C2.7045,12.2105 2.4365,12.4845 2.3675,12.6355 C2.3285,12.7245 2.3385,12.7275 2.4735,12.6905 C2.5495,12.6625 2.6415,12.6165 2.6715,12.5895 C2.6955,12.5665 2.7775,12.5325 2.8525,12.5135 C2.9395,12.4915 2.9705,12.4525 2.9585,12.4015 C2.8865,12.2065 2.9035,12.1635 3.0365,12.1695 C3.1145,12.1695 3.2065,12.1965 3.2495,12.2295 C3.3015,12.2595 3.3505,12.2495 3.4075,12.1905 C3.5815,12.0195 3.7945,11.9115 3.8225,11.9855 C3.9115,12.1845 4.4035,11.8215 4.4725,11.5085 C4.4885,11.4275 4.5295,11.3905 4.5915,11.4045 C4.6975,11.4275 4.8615,11.1555 4.9035,10.9005 C4.9145,10.8135 5.0335,10.6025 5.1625,10.4355 C5.3635,10.1855 5.4075,10.1535 5.4485,10.2295 C5.4805,10.2945 5.4305,10.4025 5.2695,10.6115 C5.1485,10.7665 5.0395,10.9655 5.0255,11.0525 C4.9745,11.5005 4.8455,11.7255 4.5275,11.9455 C4.4215,12.0195 4.3375,12.1085 4.3445,12.1475 C4.3455,12.1835 4.2935,12.2495 4.2275,12.3065 C4.0225,12.4675 3.6115,13.0185 3.6135,13.1175 C3.6335,13.3055 3.4695,13.2335 3.4325,13.0355 L3.4005,12.8425 L3.2495,13.1115 C3.1365,13.3055 3.1075,13.3995 3.1505,13.4435 C3.1955,13.4865 3.1745,13.5845 3.0705,13.7875 C2.9925,13.9405 2.9335,14.0655 2.9445,14.0615 C2.9585,14.0615 2.9395,14.1445 2.9065,14.2455 C2.8525,14.4245 2.7625,14.4965 2.7535,14.3715 C2.7405,14.2515 2.4365,14.6595 2.3345,14.9375 C2.2755,15.0955 2.2295,15.1785 2.2255,15.1255 C2.2155,15.0745 2.1815,15.0325 2.1385,15.0375 C2.0425,15.0445 1.8855,15.6135 1.9365,15.7585 C1.9755,15.8605 2.0055,15.8345 2.2595,15.5165 C2.4525,15.2735 2.5555,15.1735 2.5855,15.2195 C2.6385,15.2885 2.9795,14.8805 2.9335,15.0165 C2.8845,15.1575 2.7845,15.4005 2.7115,15.5635 C2.5835,15.8325 2.5525,16.0015 2.5945,16.2595 C2.6145,16.3975 2.7115,16.3675 2.7565,16.2065 C2.7775,16.1295 2.8305,15.9595 2.8845,15.8295 C2.9335,15.6985 2.9705,15.5635 2.9665,15.5245 C2.9645,15.4795 2.9835,15.4505 3.0135,15.4465 C3.0425,15.4415 3.0625,15.4075 3.0605,15.3635 C3.0535,15.3255 3.0855,15.2585 3.1275,15.2195 C3.2845,15.0615 3.2735,15.3025 3.0935,15.7525 C2.9335,16.1735 2.9195,16.2385 2.9665,16.5775 C2.9925,16.7815 3.0385,16.9425 3.0705,16.9355 C3.1005,16.9355 3.1645,16.8285 3.2105,16.6975 C3.3095,16.4405 3.4555,16.2245 3.5325,16.2145 C3.5615,16.2145 3.6535,16.1425 3.7315,16.0615 C3.8965,15.8925 4.0305,15.8565 4.0435,15.9745 C4.0505,16.0475 3.6555,16.4755 3.5725,16.4855 C3.4765,16.4915 3.3505,16.6925 3.3575,16.8115 C3.3705,16.9675 3.4075,16.9675 3.5205,16.8015 C3.5205,16.8015 4.2825,16.7815 4.2645,16.8845 C4.2255,17.1645 4.5665,16.9535 4.7575,16.5825 C4.8735,16.3545 4.9165,16.3155 4.9835,16.3595 C5.0335,16.3925 5.0585,16.4615 5.0395,16.5335 C5.0155,16.6475 4.7495,16.9755 4.5225,17.1655 C4.4125,17.2605 4.4125,17.2725 4.5095,17.2985 C4.5685,17.3155 4.6585,17.2985 4.7125,17.2575 C4.7665,17.2165 4.9035,17.1755 5.0225,17.1655 C5.2105,17.1455 5.2555,17.1125 5.4185,16.8845 C5.5125,16.7385 5.6165,16.6225 5.6465,16.6155 C5.6705,16.6145 5.6865,16.6975 5.6775,16.8075 C5.6695,16.9875 5.6775,17.0045 5.7835,16.9755 C5.8625,16.9595 5.9475,16.8335 6.0595,16.5955 C6.2585,16.1495 6.4015,16.1555 6.3015,16.5975 C6.2805,16.6935 6.2915,16.7165 6.3465,16.6925 C6.4775,16.6235 6.5735,16.3155 6.5785,15.9625 C6.5785,15.5805 6.6195,15.4605 6.7165,15.5095 C6.7925,15.5505 6.7975,16.0845 6.7245,16.2655 C6.6755,16.3875 6.7315,16.4545 6.8095,16.3595 C6.8955,16.2565 7.0085,15.6825 6.9855,15.4565 C6.9785,15.3505 7.1025,14.9555 7.1175,14.7575 C7.1425,14.3345 7.1505,14.3055 7.2605,14.2895 C7.3875,14.2825 7.4225,14.4395 7.3325,14.6295 C7.2855,14.7365 7.2915,15.0165 7.3775,16.0615 C7.3815,16.1555 7.4725,17.1165 7.6005,17.0585 C7.6405,17.0345 8.0185,16.9925 8.1085,17.0065 C8.1825,17.0175 8.2205,16.9975 8.2135,16.9495 C8.2065,16.9005 8.2275,16.8245 8.2545,16.7705 C8.2875,16.6975 8.2875,16.3725 8.4055,16.3675 C8.4175,16.3595 8.3985,16.2705 8.3735,16.1565 C8.3255,15.9465 8.4035,15.7895 8.4835,15.9465 C8.5045,15.9875 8.5675,16.0245 8.6215,16.0155 C8.6945,16.0095 8.7305,16.0465 8.7355,16.1425 C8.7425,16.2145 8.7935,16.2915 8.8415,16.3135 C8.8915,16.3365 8.9625,16.4615 9.0015,16.6025 C9.0885,16.9155 9.2415,17.1725 9.4965,17.4545 C9.7245,17.7045 9.8625,17.5025 9.9535,17.5975 C10.0455,17.6885 10.1625,17.7105 10.1005,17.6245 C10.0815,17.6025 10.0865,17.5615 10.1215,17.5395 C10.1425,17.5195 10.2395,17.5925 10.3385,17.7045 C10.5175,17.9165 10.5905,17.9565 10.5765,17.8205 C10.5705,17.7005 10.6655,17.7145 10.7805,17.8625 C10.8605,17.9605 10.8955,17.9735 10.9525,17.9165 C10.9985,17.8675 11.0395,17.8625 11.1055,17.9125 C11.1815,17.9605 11.2085,17.9605 11.2345,17.9065 C11.2545,17.8625 11.3005,17.8725 11.3675,17.9425 C11.4795,18.0455 11.5805,18.0635 11.5735,17.9735 C11.5735,17.9425 11.4725,17.7935 11.3535,17.6425 C11.2345,17.4905 9.2285,15.6385 9.2345,15.2795 C9.2415,15.0275 9.2285,14.9955 9.0615,14.8685 C8.8895,14.7275 8.7935,14.4785 8.9075,14.4695 C8.9395,14.4625 9.0395,14.5505 9.1255,14.6595 C9.3085,14.8925 9.4365,14.9145 9.8575,14.7815 C10.2495,14.6565 10.6065,14.7315 10.7645,14.9755 C10.8085,15.0385 10.9595,15.1965 11.0995,15.3175 C11.2345,15.4415 11.3535,15.5675 11.3535,15.6005 C11.3605,15.6265 11.3905,15.6515 11.4285,15.6505 C11.4635,15.6475 11.5895,15.7525 11.7065,15.8855 C11.9415,16.1455 12.1005,16.3015 12.4615,16.6415 C12.5925,16.7655 12.8265,16.9925 12.9755,17.1385 C13.4725,17.6245 13.5435,17.6885 13.6305,17.6755 C13.6875,17.6715 13.6215,17.5095 13.3555,17.0105 C13.1625,16.6455 12.9475,16.2525 12.8785,16.1425 C12.8125,16.0275 12.7095,15.8365 12.6435,15.7165 C12.5795,15.6005 12.4775,15.4965 12.4235,15.4855 C12.3635,15.4775 12.0495,14.9755 11.8365,14.8295 C11.7975,14.8005 11.7155,14.7315 11.6585,14.6835 C11.5095,14.5475 11.0925,14.3205 11.0025,14.3295 C10.9595,14.3325 10.8795,14.2895 10.8145,14.2315 C10.6135,14.0455 10.0775,13.9255 9.6295,13.9645 C9.2905,13.9965 8.9075,13.8475 8.8915,13.6715 C8.8795,13.5705 9.0105,13.5705 9.2605,13.6735 C9.5585,13.7965 9.6835,13.7815 9.6265,13.6155 C9.6045,13.5465 9.6045,13.4665 9.6295,13.4485 C9.7125,13.3875 9.6175,13.2715 9.4065,13.1915 C9.2415,13.1385 9.1845,13.1385 9.0885,13.1985 C8.9715,13.2795 8.8525,13.2635 8.8435,13.1585 C8.8315,13.0655 8.9735,12.9385 9.0935,12.9255 C9.1775,12.9165 9.2045,12.8935 9.1715,12.8305 C9.1185,12.7195 9.2045,12.5325 9.3265,12.5235 C9.3845,12.5195 9.4435,12.4875 9.4565,12.4575 C9.4985,12.3735 9.6785,12.3685 9.8685,12.4465 C10.0245,12.5135 11.0925,13.5565 11.4175,13.5245 C11.6055,13.5105 11.5665,13.4205 11.2345,13.1435 C11.0045,12.9555 10.9385,12.8655 10.9525,12.7745 C10.9665,12.7005 10.9345,12.6315 10.8795,12.5935 C10.7005,12.4685 10.4305,12.1015 10.4205,11.9545 C10.3955,11.7755 10.3085,11.6625 10.1275,11.5845 C10.0245,11.5475 10.0035,11.5005 10.0175,11.4045 C10.0245,11.3335 9.9795,11.0935 9.9125,10.8615 C9.8435,10.6285 9.7565,10.1625 9.7155,9.8235 C9.6435,9.1725 9.5995,9.0665 9.1715,8.4585 C9.1015,8.3605 9.0425,8.2345 9.0395,8.1735 C9.0245,8.0315 9.1475,7.2865 9.2995,6.5765 C9.3265,6.4325 9.3455,6.1835 9.3265,6.0225 C9.3085,5.8075 9.3215,5.7235 9.3845,5.6935 C9.4565,5.6565 9.4645,5.6005 9.4135,5.3515 C9.3475,5.0065 9.3845,4.4545 9.4435,4.4065 C9.4795,4.3785 9.5075,4.2785 9.5075,4.1755 C9.5075,4.0735 9.5185,3.9425 9.5375,3.8865 C9.5585,3.8305 9.5255,3.6215 9.4665,3.4175 C9.3845,3.1185 9.3745,3.0075 9.4135,2.8145 C9.4565,2.5855 9.4525,2.5795 9.2995,2.4855 C9.2095,2.4335 9.0425,2.3105 8.9255,2.2195 C8.6665,1.9985 8.3545,1.8395 8.2065,1.8515 C8.1425,1.8585 8.0645,1.8395 8.0345,1.8095 C7.9435,1.7365 7.6205,1.9165 7.3325,2.2065 C7.2055,2.3365 7.0815,2.4465 7.0565,2.4465 C6.9285,2.4575 6.5615,3.2275 6.5185,3.5735 C6.5025,3.6655 6.4775,3.7665 6.4505,3.7855 C6.3675,3.8485 6.4015,4.3455 6.4085,4.7995 L6.4155,5.2535 L6.6945,5.3615 C6.8385,5.4195 7.0355,5.5265 7.1255,5.5865 C7.3465,5.7585 7.5465,5.9895 7.6435,6.1035 C7.7135,6.1785 7.7735,6.2665 7.7755,6.2965 C7.7825,6.3705 7.6025,6.3865 7.5215,6.3155 C7.4275,6.2395 7.2475,6.1965 7.0335,6.0945 C6.8095,5.9835 6.7125,5.9895 6.7195,6.1115 C6.7245,6.1605 6.6695,6.3105 6.5915,6.4355 C6.2495,7.0005 6.2665,7.1135 6.6755,7.2705 C6.8955,7.3625 6.9045,7.3625 7.1845,7.2415 C7.3935,7.1575 7.5015,7.0715 7.5785,6.9335 C7.7735,6.5755 8.0765,6.7125 8.0425,7.1505 C8.0245,7.4205 7.8745,7.6395 7.5405,7.9035 C7.3225,8.0705 7.2325,8.1035 6.9225,8.1385 C6.7245,8.1625 6.5025,8.1635 6.4395,8.1495 C6.2965,8.1105 6.2135,8.2345 6.2055,8.1625 C6.1925,8.0315 6.0745,7.9635 5.9565,8.0225 C5.8655,8.0655 5.6165,8.6085 5.5905,8.8135 C5.5075,9.5205 5.0225,10.0395 4.9765,10.2725 C4.9165,10.5555 4.5955,10.9795 4.3765,11.0525 C4.2895,11.0805 4.1285,11.1755 4.0185,11.2665 C3.6935,11.5255 3.4445,11.6175 3.2495,11.5595 C3.1565,11.5295 2.9985,11.5255 2.8895,11.5565 C2.7115,11.6035 2.6715,11.5885 2.4365,11.3905 C2.2845,11.2665 2.5045,11.1255 2.4915,10.9755 C2.4865,10.9215 2.5115,10.8505 2.5495,10.8255 C2.5925,10.7975 2.6385,10.6525 2.6655,10.4995 C2.6885,10.3475 2.7375,10.1325 2.7695,10.0265 C2.8075,9.9175 2.8495,9.7815 2.8615,9.7205 C2.9335,9.4925 2.9705,9.1545 2.9795,8.8385 C2.9795,8.6605 2.9985,8.4595 3.0205,8.3995 C3.0365,8.3385 3.0515,8.1295 3.0515,7.9325 C3.0475,7.3575 3.0855,6.9475 3.1535,6.8535 C3.2065,6.7765 3.2005,6.7515 3.1165,6.7055 C3.0405,6.6595 3.0115,6.5635 2.9835,6.2805 C2.9665,6.0845 2.9705,5.8755 2.9955,5.8165 C3.0205,5.7605 3.0325,5.4975 3.0275,5.2355 C2.9885,4.1195 2.9955,3.8825 3.0535,3.7735 C3.0935,3.7105 3.1195,3.6075 3.1145,3.5475 C3.1075,3.4885 3.1435,3.2995 3.1875,3.1295 C3.2405,2.9625 3.2845,2.7535 3.2925,2.6645 L3.3015,2.5025 L3.1315,2.6255 C3.0365,2.6955 2.8565,2.9075 2.7315,3.0925 C2.4865,3.4625 2.6215,3.6605 2.5115,3.6805 C2.4615,3.6855 2.3955,3.7495 2.3735,3.8205 C2.3505,3.8885 2.2785,4.0615 2.2195,4.1985 C2.0985,4.4985 2.0945,4.6995 2.2115,4.6865 C2.3175,4.6825 2.3205,4.7565 2.2255,4.8545 C2.1735,4.9085 2.1615,4.9795 2.1935,5.0775 C2.2295,5.1915 2.2155,5.2385 2.1365,5.2955 C2.0165,5.3715 2.0015,5.5045 2.1115,5.5275 C2.1505,5.5345 2.1265,5.6155 2.0425,5.7565 C1.9115,5.9645 1.9255,6.0775 2.0695,6.0615 C2.1735,6.0555 2.1735,6.1045 2.0715,6.2385 C2.0305,6.2965 1.9365,6.3485 1.8705,6.3575 C1.7075,6.3675 1.7075,6.5315 1.8655,6.5605 C1.9895,6.5755 2.0165,6.6435 1.9315,6.7055 C1.9005,6.7285 1.8975,6.7905 1.9255,6.8455 C1.9485,6.9085 1.9255,7.0075 1.8655,7.0955 C1.8115,7.1795 1.7695,7.2955 1.7785,7.3515 C1.7845,7.4095 1.7265,7.5165 1.6505,7.5985 C1.5015,7.7515 1.5335,7.8215 1.7545,7.8085 C1.9545,7.7885 1.9895,7.8795 1.8245,7.9815 C1.7445,8.0255 1.6825,8.0855 1.6845,8.1105 C1.6865,8.1385 1.6125,8.1915 1.5155,8.2355 C1.3595,8.3025 1.3435,8.3295 1.3615,8.5165 C1.3895,8.7475 1.3985,8.7475 1.6635,8.4285 C1.8245,8.2405 2.0585,8.1815 1.9825,8.3425 C1.9635,8.3995 1.8935,8.4955 1.8405,8.5575 C1.7845,8.6195 1.7375,8.7025 1.7395,8.7435 C1.7445,8.7835 1.6965,8.9415 1.6365,9.0865 C1.5335,9.3345 1.5035,9.4895 1.5655,9.4835 C1.5835,9.4835 1.6735,9.3875 1.7685,9.2745 C1.9485,9.0565 1.7945,9.4265 1.6925,9.6615 C1.6225,9.8325 1.6225,9.8885 1.6845,9.9685 C1.7475,10.0525 1.7375,10.1045 1.6225,10.3105 C1.4415,10.6465 1.3935,10.8435 1.4885,10.9215 M6.0355,10.9215 C6.0765,10.6915 6.1425,10.5845 6.2435,10.5795 C6.3425,10.5675 6.3515,10.7005 6.2585,10.7925 C6.2185,10.8345 6.1895,10.9195 6.1955,10.9795 C6.2135,11.0905 6.2185,11.0865 6.2665,10.9585 C6.4655,10.4085 6.7335,10.0975 7.0355,10.0705 C7.1915,10.0525 7.2655,10.0135 7.3385,9.8955 C7.4005,9.8015 7.4685,9.7545 7.5235,9.7715 C7.5785,9.7835 7.6705,9.7535 7.7395,9.6945 C7.8055,9.6425 7.9145,9.6045 7.9755,9.6195 C8.0465,9.6295 8.1265,9.5925 8.1855,9.5205 C8.2655,9.4265 8.2745,9.3435 8.2365,9.0555 C8.1885,8.7135 8.1925,8.6935 8.3545,8.5205 C8.4855,8.3775 8.5385,8.5515 8.4435,8.6735 L8.3095,8.8345 L8.4385,8.8425 C8.5385,8.8485 8.5595,8.8695 8.5385,8.9655 C8.4675,9.3135 8.4675,9.3345 8.6235,9.3265 C8.8475,9.3055 9.1845,9.5535 9.3745,9.8775 C9.5515,10.1715 9.5995,10.3475 9.5185,10.4025 C9.4985,10.4205 9.4205,10.2945 9.3525,10.1235 C9.2345,9.8345 8.9505,9.5125 8.8255,9.5205 C8.7515,9.5285 8.7815,9.6045 8.8955,9.7085 C9.0175,9.8235 9.1595,10.2435 9.2345,10.7005 C9.2945,11.0675 9.2805,11.2195 9.1845,11.2295 C9.1295,11.2345 9.1295,11.3235 9.1765,11.5885 C9.2315,11.9215 9.2285,11.9545 9.1045,12.0865 C9.0395,12.1665 8.9805,12.2885 8.9875,12.3505 C9.0015,12.4975 8.9125,12.4225 8.8505,12.2345 C8.8135,12.1305 8.8315,12.0705 8.9325,11.9615 C9.0565,11.8385 9.0585,11.8095 8.9935,11.4645 C8.9325,11.1255 8.9335,11.1045 9.0395,11.0675 C9.1255,11.0285 9.1385,10.9975 9.0995,10.9005 C9.0725,10.8345 9.0315,10.6745 9.0015,10.5385 C8.9365,10.2295 8.7935,9.9755 8.6725,9.9545 C8.5915,9.9405 8.4235,9.9615 8.2865,10.0015 C8.2745,10.0065 8.4495,10.2065 8.4055,10.2255 C8.3555,10.2435 8.3575,10.2775 8.4175,10.3635 C8.4675,10.4355 8.4765,10.5115 8.4495,10.5795 C8.4235,10.6325 8.3925,10.8305 8.3705,11.0205 C8.3545,11.2125 8.3145,11.3865 8.2825,11.4105 C8.1765,11.4935 8.1245,11.8515 8.1605,12.2345 C8.2035,12.7155 8.3015,12.9435 8.4435,12.8935 C8.4985,12.8725 8.5425,12.8765 8.5465,12.9055 C8.5575,12.9815 8.3625,13.2115 8.2785,13.2205 C8.0955,13.2385 7.7055,12.5025 7.7525,12.2175 C7.7625,12.1415 7.7445,12.0655 7.7135,12.0485 C7.5685,11.9785 7.6435,11.9345 7.6315,11.8305 C7.6235,11.7555 7.5905,11.7025 7.5465,11.7055 C7.4415,11.7185 7.1705,11.4425 7.1115,11.2795 C7.0845,11.2055 7.0955,11.0205 7.1275,10.8675 C7.2055,10.5225 7.2005,10.4315 7.1025,10.4445 C6.9705,10.4535 6.8385,10.7465 6.8295,11.0525 C6.8205,11.2125 6.7925,11.3425 6.7645,11.3465 C6.7385,11.3465 6.7105,11.3195 6.7055,11.2825 C6.6785,11.1175 6.6785,10.7925 6.7065,10.6385 C6.7335,10.4935 6.7295,10.4775 6.6695,10.5385 C6.5615,10.6465 6.4015,11.0355 6.2965,11.4345 C6.2205,11.7185 6.2135,11.8745 6.2605,12.2025 C6.3035,12.5385 6.3015,12.6135 6.2355,12.6165 C6.1675,12.6205 6.1425,12.5025 6.0745,11.8725 C6.0325,11.4545 6.0135,11.0285 6.0355,10.9215 M3.0135,17.2165 C2.9705,17.1725 2.9275,17.1385 2.9145,17.1415 M3.2065,9.9005 C3.2335,9.9175 3.2705,9.9005 3.2885,9.8665 C3.3015,9.8395 3.9795,10.2375 4.0295,10.2335 C4.1725,10.2225 4.0645,9.2705 4.1405,9.2325 C4.2035,9.2035 4.2585,8.8925 4.2935,8.3605 C4.2985,8.2825 4.3305,8.0055 4.3605,7.7425 C4.3905,7.4745 4.3125,7.0425 4.4495,6.8835 C4.5295,6.7965 4.5955,6.6475 4.5965,6.5635 C4.5985,6.4625 4.6435,6.3795 4.7175,6.3415 C4.8575,6.2625 4.8645,5.9355 4.7265,6.0015 C4.6835,6.0225 4.6485,6.0165 4.6435,5.9895 C4.6355,5.8885 4.4885,5.9505 4.4725,6.0585 C4.4585,6.1405 4.4115,6.1755 4.2975,6.1835 C4.2115,6.1925 4.1155,6.2295 4.0845,6.2635 C4.0555,6.2965 3.9795,6.3635 3.9175,6.4005 C3.7565,6.5015 3.4465,7.1745 3.4645,7.3765 C3.4695,7.4205 3.4465,7.4725 3.4165,7.4965 C3.3845,7.5165 3.3775,7.5985 3.4005,7.6685 C3.4325,7.7665 3.4145,7.8125 3.3345,7.8415 C3.2605,7.8655 3.2425,7.9065 3.2705,7.9885 C3.2935,8.0465 3.2925,8.2705 3.2655,8.4865 C3.2425,8.6975 3.2265,8.9285 3.2345,9.0085 C3.2425,9.0805 3.2265,9.1695 3.2005,9.1985 C3.1785,9.2325 3.1565,9.3545 3.1565,9.4705 C3.1535,9.5925 3.1535,9.7305 3.1535,9.7835 C3.1535,9.8325 3.1765,9.8885 3.2065,9.9005 M3.2935,6.6595 C3.3315,6.6595 3.4575,6.5225 3.5855,6.3635 C3.7235,6.1865 3.8725,6.0555 3.9685,6.0245 C4.0555,6.0035 4.2825,5.9355 4.4675,5.8725 C4.8875,5.7425 5.7275,5.6475 6.1425,5.6905 C6.6245,5.7425 6.7975,5.7425 6.7925,5.6905 C6.7885,5.6595 6.7015,5.6085 6.5945,5.5695 C6.4865,5.5305 6.3805,5.4725 6.3615,5.4465 C6.3405,5.4165 6.2775,5.4135 6.2285,5.4355 C6.1775,5.4565 5.9895,5.4495 5.8105,5.4195 C5.6225,5.3925 5.2555,5.3925 4.9165,5.4195 C4.3285,5.4725 4.1795,5.5265 3.8555,5.8005 C3.7835,5.8635 3.6825,5.9145 3.6335,5.9195 C3.5205,5.9325 3.2845,6.1475 3.2495,6.2725 C3.2005,6.4235 3.2335,6.6645 3.2935,6.6595 M3.3505,3.7155 C3.3775,3.7105 3.4005,3.6855 3.3985,3.6585 M3.7135,5.5275 C3.7235,5.5415 3.8065,5.5005 3.8875,5.4405 C3.9825,5.3715 4.2185,5.2975 4.4815,5.2535 C4.9265,5.1735 4.9265,5.1735 4.9265,5.0135 C4.9265,4.9185 4.9485,4.8235 4.9755,4.7915 C4.9995,4.7595 5.0095,4.6615 5.0045,4.5605 C4.9925,4.4635 5.0095,4.3685 5.0395,4.3495 C5.0655,4.3275 5.0755,4.1695 5.0615,4.0005 C5.0475,3.8315 5.0515,3.5975 5.0725,3.4755 C5.1295,3.1225 5.1325,1.9465 5.0755,1.8985 C5.0475,1.8725 5.0155,1.7855 5.0095,1.7045 C4.9855,1.4315 4.7575,1.0855 4.5575,1.0245 C4.3765,0.9685 4.3675,0.9735 4.2185,1.1745 C4.1315,1.2975 4.0585,1.4085 4.0585,1.4345 C4.0645,1.4595 4.0255,1.5895 3.9795,1.7255 C3.9295,1.8585 3.8875,2.0635 3.8815,2.1815 C3.8725,2.3865 3.8315,2.8175 3.7945,3.1885 C3.7835,3.2955 3.7535,3.4175 3.7325,3.4575 C3.7145,3.4965 3.7325,3.6285 3.7835,3.7505 C3.8555,3.9385 3.8555,4.0105 3.7835,4.2645 C3.7235,4.4985 3.7165,4.5805 3.7735,4.6555 C3.8285,4.7315 3.8205,4.7825 3.7145,4.9435 C3.6135,5.0985 3.5975,5.1695 3.6365,5.3225 C3.6635,5.4225 3.6995,5.5135 3.7135,5.5275 M5.7485,4.8355 L5.7535,4.5685 M5.5725,7.2355 C5.7405,7.4875 6.1835,7.8035 6.3895,7.8185 C6.4955,7.8285 6.6625,7.8505 6.7585,7.8615 C7.0845,7.9105 7.6745,7.6095 7.7895,7.3355 C7.8775,7.1155 7.8715,7.0695 7.7625,7.2105 C7.6025,7.4275 7.4185,7.5345 7.1255,7.5635 C6.7885,7.6005 6.6195,7.5635 6.3625,7.3805 C6.1675,7.2495 6.0235,7.0425 5.9475,6.8085 C5.8975,6.6595 6.0235,6.1605 6.1245,6.1145 C6.1805,6.0905 5.9895,5.8485 5.9965,5.8855 C5.9975,5.9325 5.9225,6.0015 5.8205,6.0445 C5.4595,6.1995 5.3225,6.8645 5.5725,7.2355 M8.1425,1.4745 C8.2035,1.4705 8.8955,1.8515 9.0565,1.9745 C9.4275,2.2785 9.6205,2.3865 9.7865,2.3975 C9.8875,2.4005 9.9905,2.4275 10.0085,2.4505 C10.0225,2.4725 10.1215,2.4575 10.2175,2.4215 C10.3155,2.3865 10.4205,2.3565 10.4415,2.3645 C10.4645,2.3695 10.5385,2.3345 10.6045,2.2835 C10.6955,2.2085 10.7095,2.1415 10.6915,1.9225 C10.6615,1.6285 10.5175,1.3975 10.2905,1.2785 C10.2175,1.2375 10.0455,1.1495 9.9125,1.0725 C9.7795,0.9985 9.5545,0.9255 9.4135,0.9195 C9.0455,0.8925 8.5885,0.9335 8.5915,0.9945 C8.5955,1.0245 8.5385,1.0685 8.4765,1.0935 C8.2365,1.1935 7.9735,1.4965 8.1425,1.4745 M8.5845,1.3295 C8.6795,1.3185 9.0695,1.4315 9.4345,1.5575 C9.7905,1.6785 10.0865,1.9045 10.1025,2.0685 C10.1215,2.1965 9.9285,2.2085 9.7815,2.0875 C9.7155,2.0335 9.6295,1.9895 9.5945,1.9945 C9.5595,1.9985 9.4655,1.9595 9.3845,1.9115 C9.2695,1.8395 9.0975,1.7145 8.9255,1.6335 C8.7515,1.5575 8.5985,1.4535 8.5845,1.4085 C8.5715,1.3625 8.5715,1.3295 8.5845,1.3295 M8.9395,1.0775 C8.9505,1.0775 9.1475,1.0925 9.3865,1.1175 C9.8465,1.1645 10.1225,1.2665 10.2585,1.4505 C10.3825,1.6125 10.2765,1.7145 10.0775,1.6125 C9.7455,1.4535 9.3475,1.3185 9.1535,1.3035 C8.9965,1.2915 8.9415,1.2625 8.9365,1.1845 C8.9325,1.1245 8.9325,1.0775 8.9395,1.0775 M9.4775,15.4855 C9.4825,15.4335 9.4775,15.3635 9.4565,15.3255 M9.7865,15.1115 C9.7905,15.1785 9.7685,15.2885 9.7275,15.3505 M11.1905,16.2785 C11.1635,16.2705 11.1355,16.2095 11.1335,16.1355 M11.2795,11.8755 C11.4155,12.0145 11.5915,12.1845 11.6785,12.2495 C11.8665,12.3955 12.4325,13.0915 12.4345,13.1825 C12.4395,13.2125 12.7705,13.9175 12.8125,13.8695 C12.8265,13.8485 13.0715,14.1255 13.2985,14.3325 C13.7015,14.6985 14.3455,14.8395 14.4025,14.8265 C14.4755,14.8005 14.4255,14.7205 14.1455,14.3945 C13.9585,14.1685 13.7195,13.8255 13.6165,13.6225 C13.2755,12.9435 13.1105,12.6925 12.8305,12.4685 C12.5925,12.2825 12.2765,12.0635 11.9415,11.8455 C11.6785,11.6725 11.6305,11.7655 11.2455,11.6065 C10.9595,11.4875 10.9665,11.5415 11.2795,11.8755 M13.1475,18.0705 C13.1055,18.0515 13.0945,18.0555 13.1245,18.0845" id="Fill-83"></path>
                </g>
            </g>
        </g>
    </g>
</svg>