<?xml version="1.0" standalone="no"?>
<!DOCTYPE svg PUBLIC "-//W3C//DTD SVG 1.1//EN" "http://www.w3.org/Graphics/SVG/1.1/DTD/svg11.dtd" >
<svg>
<metadata>
Created by FontForge 20090622 at Wed Dec  2 22:38:05 2015
 By deploy user
&#194;&#169; Copyright SoftMaker Software GmbH and its licensors
</metadata>
<defs>
<font id="Lyon" horiz-adv-x="1091" >
  <font-face 
    font-family="Lyon"
    font-weight="400"
    font-stretch="normal"
    units-per-em="2048"
    panose-1="0 0 4 0 0 0 0 0 0 0"
    ascent="1638"
    descent="-410"
    x-height="909"
    cap-height="1366"
    bbox="-51 -477 1866 1860"
    underline-thickness="94"
    underline-position="-180"
    unicode-range="U+000D-U+FB04"
  />
<missing-glyph horiz-adv-x="748" 
d="M68 0v1365h544v-1365h-544zM136 68h408v1229h-408v-1229z" />
    <glyph glyph-name=".notdef" horiz-adv-x="748" 
d="M68 0v1365h544v-1365h-544zM136 68h408v1229h-408v-1229z" />
    <glyph glyph-name="glyph1" horiz-adv-x="0" 
 />
    <glyph glyph-name="uni000D" unicode="&#xd;" horiz-adv-x="512" 
 />
    <glyph glyph-name="space" unicode=" " horiz-adv-x="512" 
 />
    <glyph glyph-name="exclam" unicode="!" horiz-adv-x="636" 
d="M205 1245q0 143 110 144q111 0 111 -148q0 -55 -8 -131l-78 -727h-49l-78 727q-8 76 -8 135zM215 104q0 57 31 93t82 36q104 0 104 -120q0 -57 -31.5 -93t-81.5 -36q-104 0 -104 120z" />
    <glyph glyph-name="quotedbl" unicode="&#x22;" horiz-adv-x="643" 
d="M109 1284q0 109 79 109q78 0 78 -111q0 -37 -8 -84l-49 -276h-43l-49 276q-8 45 -8 86zM375 1284q0 109 80 109q78 0 77 -111q0 -39 -8 -84l-49 -276h-43l-49 276q-8 45 -8 86z" />
    <glyph glyph-name="numbersign" unicode="#" horiz-adv-x="1228" 
d="M109 481l10 107h276l39 219h-268l10 106h277l79 453h107l-80 -453h229l80 453h109l-80 -453h250l-10 -106h-258l-39 -219h250l-11 -107h-258l-84 -481h-108l84 481h-230l-84 -481h-108l86 481h-268zM502 588h231l37 219h-229z" />
    <glyph glyph-name="dollar" unicode="$" 
d="M152 299q0 68 34.5 110t89.5 42q51 0 83 -32t32 -81q0 -41 -43 -92q-12 -14 -12 -33q0 -45 61.5 -79t141.5 -34q125 0 199.5 59.5t74.5 159.5q0 80 -54 139.5t-192 127.5l-166 82q-248 123 -247 319q0 133 94 224.5t258 115.5v182h90v-182q139 -20 227 -94t88 -174
q0 -121 -112 -121q-106 0 -107 106q0 31 17 62q12 23 12 35q0 35 -53.5 63.5t-122.5 28.5q-94 0 -155.5 -51.5t-61.5 -130.5q0 -117 223 -234l137 -72q281 -147 281 -370q0 -156 -100.5 -257.5t-272.5 -119.5v-199h-90v199q-154 10 -254 96t-100 205z" />
    <glyph glyph-name="percent" unicode="%" horiz-adv-x="1503" 
d="M82 971q0 168 72.5 271.5t193.5 103.5q119 0 184.5 -100.5t65.5 -280.5q0 -164 -70.5 -262.5t-187.5 -98.5q-121 0 -189.5 98.5t-68.5 268.5zM217 1038q0 -340 150 -340q111 0 110 234q0 158 -39 252t-102 94q-119 0 -119 -240zM356 2l729 1399l62 -35l-729 -1395z
M905 346q0 168 72.5 271.5t193.5 103.5q119 0 184.5 -100.5t65.5 -280.5q0 -164 -70.5 -262t-187.5 -98q-121 0 -189.5 98t-68.5 268zM1040 414q0 -340 150 -340q111 0 110 233q0 158 -39 252t-102 94q-119 0 -119 -239z" />
    <glyph glyph-name="ampersand" unicode="&#x26;" horiz-adv-x="1585" 
d="M109 301q0 176 161 320q86 76 228 139q-59 164 -60 282q0 158 86 252.5t230 94.5q121 0 196.5 -66t75.5 -172q0 -139 -123 -236q-78 -61 -215 -120q176 -330 281 -457q190 268 190 356q0 45 -98 56v49h409v-49q-109 -16 -148.5 -51t-168.5 -228q-68 -98 -145 -182
q170 -193 329 -193q88 0 172 49l27 -36q-164 -131 -307 -132q-172 0 -338 195q-213 -195 -422 -195q-164 0 -262 88.5t-98 235.5zM295 395q0 -119 80 -199.5t198 -80.5q109 0 273 110q-205 248 -322 477q-229 -119 -229 -307zM586 1133q0 -55 11.5 -98.5t64.5 -188.5
q244 129 243 305q0 82 -42 129t-113 47q-74 0 -119 -53t-45 -141z" />
    <glyph glyph-name="quotesingle" unicode="'" horiz-adv-x="376" 
d="M109 1284q0 109 79 109q78 0 78 -111q0 -37 -8 -84l-49 -276h-43l-49 276q-8 45 -8 86z" />
    <glyph glyph-name="parenleft" unicode="(" horiz-adv-x="665" 
d="M137 553q0 508 420 862l27 -33q-147 -166 -203 -307q-80 -207 -80 -522q0 -344 96 -559q53 -119 187 -268l-27 -33q-420 354 -420 860z" />
    <glyph glyph-name="parenright" unicode=")" horiz-adv-x="665" 
d="M82 -274q147 166 203 307q80 207 80 520q0 346 -97 561q-53 118 -186 268l27 33q420 -354 419 -862q0 -508 -419 -860z" />
    <glyph glyph-name="asterisk" unicode="*" horiz-adv-x="813" 
d="M92 1133q0 33 21.5 55t52.5 22q57 0 170 -108q23 -23 37 -23q20 0 20 23q0 16 -22 63q-47 100 -47 142q0 33 24.5 56t57.5 23t54 -21.5t21 -51.5q0 -53 -55 -170q-10 -23 -10 -35q0 -20 20 -21q18 0 62 41q96 92 145 93q33 0 56.5 -23.5t23.5 -56.5q0 -80 -123 -80
q-45 0 -108 8q-8 2 -21 2q-29 0 -29 -20t60 -54q135 -74 135 -133q0 -33 -23.5 -57.5t-54.5 -24.5q-45 0 -69.5 44t-47.5 157q-8 43 -26 43q-25 0 -39 -74q-18 -100 -42 -137t-67 -37q-33 0 -56.5 22.5t-23.5 53.5q0 63 158 150q33 18 33 32q0 25 -35 25q-23 0 -49 -4
q-51 -8 -94 -8q-109 0 -109 84z" />
    <glyph glyph-name="plus" unicode="+" 
d="M129 621v124h354v355h125v-355h355v-124h-355v-355h-125v355h-354z" />
    <glyph glyph-name="comma" unicode="," horiz-adv-x="518" 
d="M100 -217q186 61 199 229q-31 -18 -55 -18q-39 0 -65.5 29.5t-26.5 76.5q0 57 36.5 96.5t90.5 39.5q59 0 96 -49.5t37 -125.5q0 -239 -299 -333z" />
    <glyph glyph-name="hyphen" unicode="-" horiz-adv-x="409" 
d="M0 438v105h410v-105h-410z" />
    <glyph glyph-name="period" unicode="." horiz-adv-x="518" 
d="M152 104q0 57 30.5 93t81.5 36q104 0 105 -120q0 -57 -32 -93t-81 -36q-47 0 -75.5 33.5t-28.5 86.5z" />
    <glyph glyph-name="slash" unicode="/" horiz-adv-x="794" 
d="M-35 -305l668 1683h106l-667 -1683h-107z" />
    <glyph glyph-name="zero" unicode="0" 
d="M92 657q0 313 128 504t339 191q205 0 330 -191q113 -172 112 -516q0 -285 -108 -459q-131 -209 -344 -209t-335 181.5t-122 498.5zM297 786q0 -326 78 -505t221 -179q225 0 225 476q0 358 -90 546q-73 154 -192 154q-115 0 -178.5 -129t-63.5 -363z" />
    <glyph glyph-name="one" unicode="1" 
d="M285 1087l321 256h60v-921q0 -324 17 -345.5t136 -27.5v-49h-487v49q113 6 135 31q16 25 16 237v588q0 193 -22 193q-19 -1 -144 -62z" />
    <glyph glyph-name="two" unicode="2" 
d="M66 66l321 335q233 244 289 342q51 92 51 189q0 119 -71.5 189.5t-190.5 70.5q-223 0 -281 -264l-65 12q20 195 131.5 303.5t290.5 108.5q170 0 280.5 -108.5t110.5 -276.5q0 -137 -88 -258q-43 -57 -82 -97q-10 -10 -193 -176l-270 -246h420q115 0 141 5t51 32h60
l-111 -227h-776z" />
    <glyph glyph-name="three" unicode="3" 
d="M86 145l47 45q117 -115 266 -114q133 0 218 93t85 239q0 170 -129 241q-59 33 -229 41l328 447h-303q-92 0 -116 -5t-44 -28h-55l71 223h686l-372 -514q133 -6 215 -57q154 -98 153 -316q0 -197 -129 -330t-317 -133q-209 0 -375 168z" />
    <glyph glyph-name="four" unicode="4" 
d="M84 395v133l600 815h100v-800h209v-148h-209v-395h-182v395h-518zM203 543h399v530z" />
    <glyph glyph-name="five" unicode="5" 
d="M115 117l37 45q133 -86 245 -86q147 0 241.5 103.5t94.5 264.5q0 143 -84 235.5t-215 92.5q-100 0 -237 -76l-17 13l90 604l502 2q45 2 70 12h49l-49 -188h-520l-50 -281q139 66 248 66q180 0 299 -125t119 -314q0 -213 -147 -366q-135 -141 -328 -142q-190 0 -348 140z
" />
    <glyph glyph-name="six" unicode="6" 
d="M115 571q0 305 143 525q76 117 192.5 186.5t235.5 69.5q84 -1 207 -54l-21 -51q-96 23 -143 23q-195 0 -319 -199q-92 -145 -101 -366q88 119 153.5 160.5t162.5 41.5q160 0 262 -120.5t102 -311.5q0 -213 -125 -355.5t-313 -142.5q-205 0 -320.5 157t-115.5 437z
M307 600q39 -494 285 -494q102 0 167.5 81t65.5 208q0 145 -81.5 253t-192.5 108q-119 0 -244 -156z" />
    <glyph glyph-name="seven" unicode="7" 
d="M127 1077l86 250h748q-117 -285 -193 -500l-102 -292q-84 -242 -158 -535h-184l419 1137h-403q-66 0 -86 -7q-41 -10 -68 -53h-59z" />
    <glyph glyph-name="eight" unicode="8" 
d="M119 328q0 236 315 354q-143 94 -197.5 170t-54.5 178q0 141 108.5 231.5t278.5 90.5q162 0 264.5 -83t102.5 -212q0 -219 -272 -307q170 -96 245.5 -187.5t75.5 -202.5q0 -166 -124 -274.5t-316 -108.5q-188 0 -307 97.5t-119 253.5zM324 346q0 -125 75.5 -197.5
t206.5 -72.5q102 0 170 57t68 143q0 152 -342 361q-100 -66 -139 -129.5t-39 -161.5zM346 1079q0 -78 58.5 -143.5t201.5 -151.5l21 13q145 88 145 245q0 100 -61.5 165t-157.5 65q-90 0 -148.5 -54.5t-58.5 -138.5z" />
    <glyph glyph-name="nine" unicode="9" 
d="M106 897q0 201 122 328t315 127q213 0 323.5 -161t110.5 -468q0 -354 -157.5 -550t-375.5 -196q-159 0 -294 109l34 49q102 -72 222 -72q213 0 319 230q53 115 59 346q-74 -98 -139 -136t-160 -38q-168 0 -273.5 120t-105.5 312zM268 973q0 -150 84 -253.5t205 -103.5
q125 1 223 140q-10 127 -26 202q-68 313 -262 314q-98 0 -161 -84t-63 -215z" />
    <glyph glyph-name="colon" unicode=":" horiz-adv-x="518" 
d="M152 104q0 57 30.5 93t81.5 36q104 0 105 -120q0 -57 -32 -93t-81 -36q-47 0 -75.5 33.5t-28.5 86.5zM152 795q0 57 30.5 93t81.5 36q104 0 105 -119q0 -57 -32 -93t-81 -36q-47 0 -75.5 32.5t-28.5 86.5z" />
    <glyph glyph-name="semicolon" unicode=";" horiz-adv-x="518" 
d="M100 -217q186 61 199 229q-31 -18 -55 -18q-39 0 -65.5 29.5t-26.5 76.5q0 57 36.5 96.5t90.5 39.5q59 0 96 -49.5t37 -125.5q0 -239 -299 -333zM154 795q0 57 30.5 93t81.5 36q106 0 107 -119q0 -57 -32 -93t-81 -36q-106 0 -106 119z" />
    <glyph glyph-name="less" unicode="&#x3c;" horiz-adv-x="1024" 
d="M88 700v15l850 545v-82l-627 -408l627 -420v-217z" />
    <glyph glyph-name="equal" unicode="=" 
d="M129 471v125h834v-125h-834zM129 784v125h834v-125h-834z" />
    <glyph glyph-name="greater" unicode="&#x3e;" horiz-adv-x="1024" 
d="M88 133v82l627 408l-627 419v218l850 -570v-14z" />
    <glyph glyph-name="question" unicode="?" horiz-adv-x="985" 
d="M117 1116q0 127 99 200t269 73q182 0 287 -84t105 -228q0 -145 -172 -329l-89 -95q-90 -96 -118.5 -152.5t-32.5 -138.5h-43q-2 117 18.5 189t79.5 160l72 104q98 143 98 238q0 106 -75.5 193t-168.5 87q-133 0 -133 -172q0 -74 -10 -96q-16 -39 -78 -39q-109 0 -108 90z
M334 102q-1 131 112 131q104 0 105 -120q0 -57 -32 -93t-81 -36q-45 0 -74.5 32.5t-29.5 85.5z" />
    <glyph glyph-name="at" unicode="@" horiz-adv-x="1501" 
d="M82 666q0 291 202.5 493.5t495.5 202.5q260 0 442.5 -168t182.5 -408t-184 -387q-129 -102 -258 -102q-115 0 -144 109q-109 -98 -215 -99q-102 0 -166.5 72t-64.5 186q0 174 120.5 318.5t266.5 144.5q131 0 192 -113l31 80h133l-162 -481q-16 -49 -16 -78q0 -57 61 -57
q94 0 189 102q119 127 119 299q0 205 -154 347.5t-373 142.5q-250 0 -422 -174t-172 -428q0 -250 171 -424t419 -174q150 0 286 75.5t210 202.5h108q-82 -168 -249.5 -270.5t-362.5 -102.5q-285 0 -485.5 202t-200.5 489zM520 520q0 -141 109 -141q133 0 209 215l45 129
q25 70 24 104q0 51 -30.5 87t-75.5 36q-100 0 -190.5 -138t-90.5 -292z" />
    <glyph glyph-name="A" unicode="A" horiz-adv-x="1343" 
d="M14 0v49q68 6 94.5 40t86.5 181l458 1149h33l453 -1108q74 -182 106 -221q25 -31 96 -41v-49h-454v49q104 0 104 53q0 25 -30 105l-101 258h-489l-86 -225q-41 -106 -41 -136q0 -45 116 -55v-49h-346zM403 549h424l-213 536z" />
    <glyph glyph-name="B" unicode="B" horiz-adv-x="1232" 
d="M88 0v49q106 0 129 20.5t23 206.5v814q0 127 -4.5 160.5t-20.5 47.5q-23 18 -127 19v49h530q233 0 329.5 -82t96.5 -223q0 -238 -268 -316q152 -33 230 -90q118 -87 118 -259q0 -198 -141 -302q-127 -94 -367 -94h-528zM444 256q0 -137 20.5 -162.5t133.5 -25.5
q307 0 307 290q0 172 -110 265q-85 71 -262 71h-5q-21 0 -84 -2v-436zM444 764q170 0 244 27q143 53 143 239q0 260 -284 260q-48 0 -103 -8v-518z" />
    <glyph glyph-name="C" unicode="C" horiz-adv-x="1316" 
d="M100 657q0 315 182.5 523.5t460.5 208.5q106 0 222 -39q90 -31 129 -31q37 0 98 20l14 -446h-53q-59 217 -152.5 312t-242.5 95q-195 0 -317 -151.5t-122 -392.5q0 -258 119 -441q63 -98 168 -157.5t211 -59.5q211 0 397 236l48 -23q-193 -334 -523 -334
q-279 0 -459 191.5t-180 488.5z" />
    <glyph glyph-name="D" unicode="D" horiz-adv-x="1519" 
d="M88 0v49q106 0 129 20.5t23 206.5v814q0 127 -4.5 160.5t-20.5 47.5q-23 18 -127 19v49h549q418 0 606 -190q176 -178 176 -467q0 -317 -205.5 -513t-603.5 -196h-522zM444 383q0 -221 12.5 -261t166.5 -40q322 0 464 199q111 154 111 391q0 338 -215 508
q-149 118 -406 118h-4q-43 0 -129 -6v-909z" />
    <glyph glyph-name="E" unicode="E" horiz-adv-x="1204" 
d="M88 0v49q106 0 129 20.5t23 206.5v814q0 127 -4.5 160.5t-20.5 47.5q-23 18 -127 19v49h959l20 -297l-49 -6q-39 139 -103.5 179t-257.5 40h-213v-526h197q137 0 176 31.5t51 150.5h45v-446h-45q-18 129 -52 154.5t-189 25.5h-183v-588h289q176 0 251 49t130 203l45 -6
l-86 -330h-985z" />
    <glyph glyph-name="F" unicode="F" horiz-adv-x="1103" 
d="M88 0v49q106 0 129 20.5t23 206.5v814q0 129 -4.5 161.5t-20.5 46.5q-23 18 -127 19v49h965l12 -307l-49 -4q-41 145 -101.5 186t-234.5 41h-236v-526h197q137 0 176 30.5t51 151.5h50v-446h-50q-16 129 -51 154.5t-190 25.5h-183v-396q0 -127 4.5 -160.5t24 -50
t123.5 -16.5v-49h-508z" />
    <glyph glyph-name="G" unicode="G" horiz-adv-x="1531" 
d="M100 659q0 322 198 526t509 204q113 0 235 -33q115 -31 152 -31q33 0 84 16l16 -409h-49q-49 145 -108 223q-113 145 -324 145q-219 0 -346 -151q-147 -176 -148 -436q0 -260 154 -437.5t379 -177.5q74 0 150.5 21.5t107.5 50.5q23 20 23 123v211q0 90 -25 106.5
t-174 24.5v49h543v-49q-33 -4 -35 -4q-76 -8 -90.5 -29.5t-14.5 -128.5v-283q-143 -115 -272 -164t-289 -49q-299 0 -487.5 190.5t-188.5 491.5z" />
    <glyph glyph-name="H" unicode="H" horiz-adv-x="1562" 
d="M88 0v49q106 0 129 20.5t23 206.5v814q0 127 -4.5 160.5t-20.5 47.5q-23 18 -127 19v49h508v-49q-106 0 -129 -20.5t-23 -206.5v-347h674v347q0 127 -4 160.5t-20 47.5q-23 18 -127 19v49h508v-49q-106 0 -129 -20.5t-23 -206.5v-814q0 -127 4 -160.5t23.5 -50
t124.5 -16.5v-49h-508v49q106 0 128.5 20.5t22.5 206.5v383h-674v-383q0 -127 4.5 -160.5t24 -50t123.5 -16.5v-49h-508z" />
    <glyph glyph-name="I" unicode="I" horiz-adv-x="681" 
d="M88 0v49q106 0 129 20.5t23 206.5v814q0 127 -4.5 160.5t-20.5 47.5q-23 18 -127 19v49h508v-49q-106 0 -129 -20.5t-23 -206.5v-814q0 -127 4.5 -160.5t24 -50t123.5 -16.5v-49h-508z" />
    <glyph glyph-name="J" unicode="J" horiz-adv-x="675" 
d="M63 -295q113 61 149 132q32 64 32 202v31l-4 206v814q0 129 -4.5 161.5t-20.5 46.5q-23 18 -133 19h-16v49h552v-49h-26q-102 0 -125 -20.5t-23 -206.5v-711q0 -373 -86 -504q-82 -123 -256 -201z" />
    <glyph glyph-name="K" unicode="K" horiz-adv-x="1413" 
d="M88 0v49q106 0 129 20.5t23 206.5v814q0 127 -4.5 160.5t-20.5 47.5q-23 18 -127 19v49h508v-49q-106 0 -129 -20.5t-23 -206.5v-814q0 -127 4.5 -160.5t24 -50t123.5 -16.5v-49h-508zM453 719l397 399q121 121 121 154t-47 43q-10 0 -74 2v49h450v-49q-88 -8 -137 -37
q-57 -31 -170 -137l-364 -346l528 -582q92 -102 142.5 -134t111.5 -32v-49h-547v49q86 2 114 9.5t28 27.5q0 14 -82 107z" />
    <glyph glyph-name="L" unicode="L" horiz-adv-x="1183" 
d="M88 0v49q106 0 129 20.5t23 206.5v814q0 127 -4.5 160.5t-20.5 47.5q-23 18 -127 19v49h508v-49q-106 0 -129 -20.5t-23 -206.5v-1006h201q135 0 191 8q115 16 170 72q65 66 108 205l49 -7l-90 -362h-985z" />
    <glyph glyph-name="M" unicode="M" horiz-adv-x="1769" 
d="M82 0v49l29 2q88 6 105 33t20 158l14 927v23q0 66 -10 84q-16 33 -93 37q-12 2 -47 4v49h369l340 -823q35 -84 82 -211l39 94q10 29 26 70l349 870h358v-49q-2 0 -37 -2q-82 -4 -95 -27.5t-13 -159.5v-45l18 -936q0 -63 23.5 -78.5t128.5 -19.5v-49h-508v49q96 4 123 21
q20 12 24 47t4 178v897l-489 -1192h-13l-491 1192l-6 -956q0 -137 19.5 -160t131.5 -27v-49h-401z" />
    <glyph glyph-name="N" unicode="N" horiz-adv-x="1501" 
d="M63 1317v49h318l649 -809l115 -141q10 -10 37 -45q-2 125 -2 217v502q0 127 -4.5 160.5t-20.5 47.5q-23 18 -127 19v49h393v-49q-106 0 -128.5 -20.5t-22.5 -206.5v-1113h-27l-837 1037q-6 6 -76 102v-840q0 -127 4 -160.5t23.5 -50t123.5 -16.5v-49h-393v49
q106 0 129 20.5t23 206.5v930l-58 68q-23 27 -42 33t-77 10z" />
    <glyph glyph-name="O" unicode="O" horiz-adv-x="1566" 
d="M100 684q0 381 271 573q182 132 409 132q236 0 414 -132q270 -199 270 -585q0 -299 -193.5 -497t-488.5 -198q-299 0 -490.5 199t-191.5 508zM319 731q0 -272 140.5 -460.5t341.5 -188.5q195 0 319.5 158.5t124.5 408.5q0 283 -130 459t-339 176q-203 0 -330 -153.5
t-127 -399.5z" />
    <glyph glyph-name="P" unicode="P" horiz-adv-x="1116" 
d="M88 0v49q106 0 129 20.5t23 206.5v814q0 127 -4.5 160.5t-20.5 47.5q-23 18 -127 19v49h467q254 0 379 -90q137 -98 137 -283q0 -190 -142.5 -304t-381.5 -114h-103v-299q0 -127 4.5 -160.5t24 -50t123.5 -16.5v-49h-508zM444 659h78q178 0 254 80t76 224q0 156 -88 243
q-76 76 -246 76h-74v-623z" />
    <glyph glyph-name="Q" unicode="Q" horiz-adv-x="1566" 
d="M100 684q0 309 191.5 507t490.5 198t490.5 -199t191.5 -508q0 -385 -288 -588q128 -109 366 -170l-8 -53q-311 0 -541 137q-111 -31 -211 -31q-233 0 -411 132q-270 199 -271 575zM319 731q0 -272 140.5 -460.5t341.5 -188.5q195 0 319.5 158.5t124.5 408.5
q0 283 -130 459t-339 176q-203 0 -330 -153.5t-127 -399.5z" />
    <glyph glyph-name="R" unicode="R" horiz-adv-x="1327" 
d="M88 0v49q106 0 129 20.5t23 206.5v814q0 127 -4.5 160.5t-20.5 47.5q-23 18 -127 19v49h537q246 0 364.5 -97.5t118.5 -264.5q0 -174 -121 -281q-74 -63 -205 -98q45 -37 125 -144l232 -309q57 -76 91 -96.5t111 -26.5v-49h-307l-317 416q-80 104 -90 116
q-16 18 -32.5 28.5t-76.5 10.5h-74v-295q0 -127 4.5 -160.5t24 -50t123.5 -16.5v-49h-508zM444 643q61 -6 93 -6q164 0 258 85t94 234q0 156 -93.5 241t-263.5 85h-88v-639z" />
    <glyph glyph-name="S" unicode="S" horiz-adv-x="1101" 
d="M129 -23v488h49q86 -367 393 -367q113 0 186.5 64.5t73.5 165.5q0 80 -50 135t-195 133l-185 98q-150 80 -209 158t-59 190q0 152 110.5 249.5t280.5 97.5q76 0 170 -25q102 -27 127 -27q41 0 109 27v-354h-49q-37 127 -90 186q-92 104 -250 104q-102 0 -163 -53
t-61 -141q0 -63 42 -112.5t147 -106.5l221 -121q150 -82 214.5 -169t64.5 -210q0 -176 -125 -293t-314 -117q-88 0 -268 58q-33 10 -59 10q-35 0 -111 -68z" />
    <glyph glyph-name="T" unicode="T" horiz-adv-x="1214" 
d="M31 1016l16 350q111 -6 402 -6h428q109 0 305 6l-19 -350h-49q-12 180 -70.5 222t-283.5 42h-43v-1004q0 -188 23.5 -207.5t127.5 -19.5v-49h-508v49q106 0 129 20.5t23 206.5v1004h-35q-215 0 -291 -46q-82 -50 -106 -218h-49z" />
    <glyph glyph-name="U" unicode="U" horiz-adv-x="1458" 
d="M80 1317v49h508v-49q-106 0 -129 -20.5t-23 -206.5v-490q0 -152 4 -188q8 -113 49 -176q88 -137 312 -138q186 0 278 105q72 82 72 317v570q0 127 -4 160.5t-21 47.5q-23 18 -127 19v49h394v-49q-106 0 -129 -20.5t-23 -206.5v-570q0 -293 -96 -403q-121 -139 -416 -140
q-338 0 -444 191q-53 94 -54 352v570q0 127 -4 160.5t-20 47.5q-23 18 -127 19z" />
    <glyph glyph-name="V" unicode="V" horiz-adv-x="1341" 
d="M-2 1317v49h496v-49q-139 -6 -140 -57q0 -27 56 -162l327 -807l15 31l20 55l25 61l260 660q10 29 30 76q25 59 25 81q0 33 -24.5 45.5t-106.5 16.5v49h375v-49q-88 -8 -113 -43q-14 -18 -88 -187l-457 -1126h-30l-473 1126q-70 168 -95.5 195t-101.5 35z" />
    <glyph glyph-name="W" unicode="W" horiz-adv-x="1845" 
d="M2 1317v49h496v-49q-82 -4 -103 -10q-33 -10 -33 -41q0 -23 48 -162l196 -578l25 -80q8 -29 39 -110l32 82q4 10 21 59l16 49l158 457l-59 174q-31 88 -56 117q-35 39 -112 43v49h504v-49q-47 0 -111 -6q-45 -12 -45 -58q0 -16 39 -135l203 -620q31 -92 51 -162l13 42.5
t24 67.5l22 62l197 575q45 131 45 179q0 43 -45 53q-12 2 -80 2v49h371v-49q-80 -6 -108 -39t-77 -174l-395 -1143h-37l-244 725q-8 23 -20 66q-8 29 -33 100q-12 -41 -12 -39l-29 -80q-2 -4 -4 -14l-29 -82l-233 -676h-39l-432 1233q-27 74 -56.5 96.5t-107.5 26.5z" />
    <glyph glyph-name="X" unicode="X" horiz-adv-x="1437" 
d="M35 0v49q94 0 135 27.5t141 165.5l316 426l-310 434q-109 154 -144.5 180.5t-137.5 34.5v49h545v-49h-21l-37 -2q-63 -4 -63 -35q0 -25 80 -141l219 -316l233 340q59 86 60 105q0 39 -58 45q-6 0 -73 4v49h428v-49q-102 -10 -145.5 -42t-145.5 -173l-252 -350l305 -433
q139 -197 174 -229q43 -39 127 -41v-49h-526v49q72 2 96.5 9.5t24.5 35.5q0 31 -91 160l-239 342l-287 -401q-55 -78 -55 -103q0 -33 90 -41l25 -2v-49h-414z" />
    <glyph glyph-name="Y" unicode="Y" horiz-adv-x="1304" 
d="M-6 1317v49h528v-49l-73 -4q-51 -8 -52 -39q0 -25 60 -119l188 -297q45 -72 82 -137q16 27 94 149l178 285q55 88 56 117q0 45 -109 45h-24v49h397v-49q-72 -4 -101.5 -28.5t-119.5 -162.5l-318 -479v-371q0 -127 4 -160.5t23.5 -50t130.5 -16.5h16v-49h-553v49h27
q102 0 124.5 20.5t22.5 206.5v336l-342 514q-84 125 -121.5 156t-117.5 35z" />
    <glyph glyph-name="Z" unicode="Z" horiz-adv-x="1337" 
d="M27 0l772 1061q33 47 57 78l96 129h-475q-139 0 -184 -39t-88 -201h-49l16 338h1098l-707 -967l-219 -295h547q100 0 139 9q72 18 105.5 82.5t54.5 171.5h49l-16 -367h-1196z" />
    <glyph glyph-name="bracketleft" unicode="[" horiz-adv-x="622" 
d="M164 -287v1653h377v-82h-219v-1489h219v-82h-377z" />
    <glyph glyph-name="backslash" unicode="\" horiz-adv-x="794" 
d="M55 1378h107l667 -1683h-106z" />
    <glyph glyph-name="bracketright" unicode="]" horiz-adv-x="622" 
d="M82 -205h219v1489h-219v82h377v-1653h-377v82z" />
    <glyph glyph-name="asciicircum" unicode="^" horiz-adv-x="1024" 
d="M-51 584l569 850h12l545 -850h-82l-407 626l-420 -626h-217z" />
    <glyph glyph-name="underscore" unicode="_" horiz-adv-x="1024" 
d="M43 -180h936v-94h-936v94z" />
    <glyph glyph-name="grave" unicode="`" horiz-adv-x="1024" 
d="M227 1327q0 27 19.5 46.5t46.5 19.5q45 0 115 -86l194 -242h-86l-199 149q-90 68 -90 113z" />
    <glyph glyph-name="a" unicode="a" horiz-adv-x="946" 
d="M100 205q0 141 120 225t403 143v97q0 106 -35 153t-115 47q-154 0 -154 -120v-80q0 -63 -90 -64q-75 0 -75 84q0 113 88 177.5t237 64.5q205 0 271 -121q32 -59 32 -228v-10v-350q0 -92 5.5 -111.5t29.5 -19.5q21 0 72 37l18 -39q-125 -113 -182 -113q-61 0 -86 64
q-8 23 -16 102q-115 -102 -174.5 -134t-129.5 -32q-98 0 -158.5 62.5t-60.5 165.5zM266 254q0 -66 40 -107t108 -41q78 1 209 95v315q-188 -51 -272.5 -112.5t-84.5 -149.5z" />
    <glyph glyph-name="b" unicode="b" horiz-adv-x="1048" 
d="M37 1294l2 47q80 23 244 105h47q-6 -184 -6 -256v-430q88 100 149.5 136t144.5 36q152 0 248.5 -121t96.5 -311q0 -219 -119 -371t-289 -152q-106 0 -250 93q-31 -23 -110 -93h-31v988q0 229 -8.5 272t-42.5 53q-14 4 -76 4zM324 199q109 -137 231 -138q106 0 174 99.5
t68 253.5q0 164 -74 268t-188 104h-2q-106 0 -209 -112v-475z" />
    <glyph glyph-name="c" unicode="c" horiz-adv-x="868" 
d="M88 451q0 217 115.5 349t304.5 132q133 0 209 -55.5t76 -151.5q0 -82 -72 -82q-63 0 -79.5 16.5t-23.5 83.5q-12 127 -131 127q-106 0 -181 -102t-75 -248q0 -164 87.5 -275.5t211.5 -111.5q162 0 279 199l41 -19q-127 -336 -383 -336q-168 0 -273.5 133.5t-105.5 340.5z
" />
    <glyph glyph-name="d" unicode="d" horiz-adv-x="1062" 
d="M86 436q0 213 118 354.5t294 141.5q125 0 231 -105v138q0 227 -8 271t-43 54q-14 4 -76 4l2 47q117 37 248 105h47l-6 -256v-838q0 -180 14 -205q17 -32 71 -32h3h41v-47q-127 -29 -227 -68h-47v139q-80 -96 -134.5 -129t-138.5 -33q-168 0 -278.5 131.5t-110.5 327.5z
M252 502q0 -170 81 -283t202 -113q100 0 155 78q39 54 39 197v235q0 115 -53 168q-63 63 -156 64q-117 0 -192.5 -97.5t-75.5 -248.5z" />
    <glyph glyph-name="e" unicode="e" horiz-adv-x="929" 
d="M88 440q0 223 106.5 357.5t282.5 134.5q219 0 311 -160q41 -70 43 -217h-606q6 -178 62 -276q86 -152 241 -152q168 0 285 197l41 -21q-119 -326 -389 -326q-166 0 -271.5 129.5t-105.5 333.5zM229 618h430q-18 246 -213 246q-182 0 -217 -246z" />
    <glyph glyph-name="f" unicode="f" horiz-adv-x="585" 
d="M45 834v75h145v127q0 236 115 342q92 86 225 86q78 0 127.5 -37.5t49.5 -99.5q0 -88 -84 -88q-80 0 -82 98q-2 59 -60 60q-63 0 -94 -58q-37 -68 -37 -286v-144h201v-75h-201v-621q0 -119 21 -141q14 -16 38.5 -19.5t127.5 -3.5v-49h-478v49q98 2 114.5 22.5t16.5 141.5
v621h-145z" />
    <glyph glyph-name="g" unicode="g" horiz-adv-x="940" 
d="M41 -209q0 123 197 221q-127 27 -127 101q0 70 163 188q-172 104 -172 289q0 150 92.5 246t237.5 96q147 0 246 -105q104 104 160 105q37 0 62.5 -26.5t25.5 -65.5q0 -33 -22.5 -57.5t-53.5 -24.5q-39 0 -76 53q-8 8 -16 8q-18 0 -47 -28q69 -87 69 -204
q0 -142 -93 -236.5t-230 -94.5q-59 0 -127 18q-76 -84 -76 -104q0 -27 139 -39l228 -18q258 -20 258 -207q0 -139 -142.5 -234.5t-353.5 -95.5q-150 0 -246 60.5t-96 154.5zM207 -158q0 -76 81 -123t210 -47q121 0 204.5 55.5t83.5 133.5q0 90 -211 112l-235 23l-35 4
q-98 -88 -98 -158zM246 653q0 -102 63 -196q68 -102 168 -103q72 0 116 46t44 122q0 133 -86 244q-64 82 -148 82q-70 0 -113.5 -54.5t-43.5 -140.5z" />
    <glyph glyph-name="h" unicode="h" horiz-adv-x="1060" 
d="M49 1294l2 47q49 14 121 41l125 64h45l-6 -256v-426q102 98 166.5 133t142.5 35q145 0 213 -113q39 -63 39 -258v-332q0 -131 15.5 -153.5t109.5 -26.5v-49h-410v49q94 4 109.5 26.5t15.5 153.5v334q0 141 -35 185q-45 55 -127 55q-98 0 -239 -101v-473
q0 -131 15.5 -153.5t109.5 -26.5v-49h-410v49q94 4 109.5 26.5t15.5 153.5v736q0 229 -8 272t-43 53q-14 4 -76 4z" />
    <glyph glyph-name="i" unicode="i" horiz-adv-x="520" 
d="M57 780v54q143 43 248 106h55q-4 -166 -4 -322v-389q0 -131 15.5 -153.5t109.5 -26.5v-49h-409v49q94 4 109.5 26.5t15.5 153.5v385q0 129 -19 152q-17 14 -121 14zM160 1266q0 55 33.5 93t80.5 38q109 0 109 -119q0 -57 -32 -94t-81 -37q-47 0 -78.5 33.5t-31.5 85.5z
" />
    <glyph glyph-name="j" unicode="j" horiz-adv-x="514" 
d="M-2 -285q0 45 17.5 56.5t60.5 11.5q55 0 59 -74q4 -51 43 -51q59 0 60 90q0 45 -15 154q-18 139 -18 331v381q0 131 -21 152q-14 14 -118 14v54q121 37 243 106h60q-4 -123 -4 -322v-589q0 -270 -63.5 -361.5t-164.5 -91.5q-139 0 -139 139zM162 1266q0 55 32.5 93
t79.5 38q109 0 109 -119q0 -57 -32 -94t-79 -37t-78.5 33.5t-31.5 85.5z" />
    <glyph glyph-name="k" unicode="k" horiz-adv-x="1019" 
d="M49 1294l2 47q49 14 121 41l125 64h45l-6 -256v-692l172 161q29 23 113 115q29 33 28 55q0 27 -71 31v49h354v-49q-106 -2 -219 -110l-219 -209l327 -355q80 -86 110 -107.5t85 -29.5v-49h-377v49l16 2q41 4 41 29q0 14 -96 117l-264 280v-248q0 -131 15.5 -153.5
t109.5 -26.5v-49h-410v49q94 4 109.5 26.5t15.5 153.5v736q0 229 -8 272t-43 53q-14 4 -76 4z" />
    <glyph glyph-name="l" unicode="l" horiz-adv-x="499" 
d="M49 1294v47q84 25 118 39.5t130 65.5h45l-6 -254v-963q0 -131 15.5 -153.5t109.5 -26.5v-49h-410v49q94 4 109.5 26.5t15.5 153.5v736q0 229 -8 272t-43 53q-14 4 -76 4z" />
    <glyph glyph-name="m" unicode="m" horiz-adv-x="1591" 
d="M74 0v49q94 4 109.5 26.5t15.5 153.5l-2 457q-2 66 -20.5 80t-102.5 16v43q33 14 35 15q160 80 182 94h57v-189q98 109 162.5 149t138.5 40q102 0 168 -66q35 -35 68 -123q168 188 305 189q145 0 205 -123q35 -74 35 -219v-363q0 -131 15 -153.5t109 -26.5v-49h-409v49
q94 4 109.5 26.5t15.5 153.5v342q0 129 -36 180.5t-124 51.5q-96 0 -217 -101v-473q0 -131 15.5 -153.5t109.5 -26.5v-49h-410v49q94 4 109.5 26.5t15.5 153.5v342q0 129 -35.5 180.5t-124.5 51.5q-100 0 -215 -101v-473q0 -131 15.5 -153.5t109.5 -26.5v-49h-409z" />
    <glyph glyph-name="n" unicode="n" horiz-adv-x="1075" 
d="M74 0v49q94 4 109.5 26.5t15.5 153.5l-2 457q-2 66 -20.5 80t-102.5 16v43q33 14 35 15l84 34q47 20 112 60h53v-189q166 172 312 173q147 0 209 -111q34 -61 34 -245v-11v-322q0 -131 15.5 -153.5t109.5 -26.5v-49h-409v49q94 4 109.5 26.5t15.5 153.5v308
q0 150 -27 192q-39 59 -137 59q-68 0 -123 -24q-29 -14 -109 -68v-467q0 -131 15.5 -153.5t109.5 -26.5v-49h-409z" />
    <glyph glyph-name="o" unicode="o" horiz-adv-x="1064" 
d="M88 440q0 211 129 351.5t324 140.5q188 0 312 -135t124 -340q0 -201 -129 -340.5t-316 -139.5q-168 0 -292 111q-152 135 -152 352zM254 477q0 -180 81 -295.5t206 -115.5q119 0 194.5 102t75.5 264q0 180 -83 296t-210 116q-115 0 -189.5 -102.5t-74.5 -264.5z" />
    <glyph glyph-name="p" unicode="p" horiz-adv-x="1079" 
d="M35 -375q117 2 136 24.5t19 155.5v744q0 176 -15 210t-93 34h-35v49q14 6 35 12l84 27q37 12 127 61h57v-192q100 100 157.5 132.5t137.5 32.5q154 0 250 -117.5t96 -305.5q0 -211 -117.5 -355.5t-287.5 -144.5q-117 0 -236 100v-287q0 -133 20.5 -155.5t145.5 -24.5v-49
h-481v49zM350 209q94 -133 228 -133q109 0 177 92t68 242q0 166 -73.5 271t-192.5 105q-55 0 -97 -22t-110 -88v-467z" />
    <glyph glyph-name="q" unicode="q" horiz-adv-x="1064" 
d="M88 424q0 211 126 360.5t302 149.5q113 0 225 -86l121 70h39v-1113q0 -133 18.5 -155.5t127.5 -24.5v-49h-447v49q106 2 123.5 24.5t17.5 155.5v351q-76 -86 -137 -118t-147 -32q-164 0 -266.5 116t-102.5 302zM254 489q0 -154 80 -254t201 -100q125 0 178 88
q28 47 28 174v201q0 113 -43 172q-55 78 -163 78q-127 0 -204 -98.5t-77 -260.5z" />
    <glyph glyph-name="r" unicode="r" horiz-adv-x="755" 
d="M74 0v49q94 4 109.5 26.5t15.5 153.5l-2 457q-2 66 -20.5 80t-102.5 16v43q166 74 225 109h59v-252q102 133 154.5 176t108.5 43q98 0 98 -145q0 -84 -84 -84q-53 0 -66.5 13t-19.5 77q-4 18 -14 18q-37 0 -177 -168v-383q0 -131 20.5 -153.5t143.5 -26.5v-49h-448z" />
    <glyph glyph-name="s" unicode="s" horiz-adv-x="770" 
d="M109 688q0 109 73.5 176.5t192.5 67.5q51 0 118.5 -16.5t106.5 -16.5q19 0 37 4l14 -241h-47q-45 202 -219 202h-2q-70 0 -112 -34.5t-42 -92.5q0 -68 111 -123l139 -69q213 -106 213 -287q0 -121 -81 -201t-203 -80q-55 0 -142 27q-94 29 -131 29q-14 0 -24 -2l2 313h47
q39 -272 262 -272q74 0 120 37.5t46 99.5q0 90 -131 153l-164 80q-184 90 -184 246z" />
    <glyph glyph-name="t" unicode="t" horiz-adv-x="600" 
d="M57 834v43q176 59 238 313h51v-281h215v-75h-215v-494q0 -158 22.5 -190.5t71.5 -32.5t121 51l31 -35q-123 -145 -232 -145q-102 0 -143 78q-31 57 -31 223v545h-129z" />
    <glyph glyph-name="u" unicode="u" horiz-adv-x="1069" 
d="M39 793v49q158 45 242 92h55q-4 -63 -4 -211v-336q0 -154 39 -209q51 -72 166 -72q100 0 196 91v403q0 117 -4 131q-14 63 -88 64q-25 0 -41 -2v49l27 8l94 31q47 14 121 53h51v-606q0 -141 4 -162q10 -53 92 -53h33l-4 -45l-113.5 -37t-107.5 -43h-52v153
q-170 -164 -311 -164q-133 0 -209 99q-53 70 -53 217v307q0 133 -15.5 164t-80.5 31q-23 0 -37 -2z" />
    <glyph glyph-name="v" unicode="v" horiz-adv-x="915" 
d="M2 860v49h383v-49q-57 -2 -59 -2q-37 -8 -37 -33q0 -16 33 -102l178 -473l178 473q35 92 35 108q0 20 -51 27q-6 0 -21 2v49h279v-49q-68 -6 -91.5 -30.5t-64.5 -131.5l-293 -751h-20l-304 776q-33 84 -60.5 110.5t-84.5 26.5z" />
    <glyph glyph-name="w" unicode="w" horiz-adv-x="1417" 
d="M2 860v49h385v-49h-31q-82 0 -82 -31q0 -16 35 -104l195 -492l172 404l-43 104q-33 80 -53.5 98.5t-75.5 20.5v49h395v-49q-115 -2 -115 -41q0 -18 29 -94l184 -492l201 508q27 68 27 84q0 29 -45 33q-35 2 -68 2v49h309v-49q-45 -2 -72.5 -31.5t-66.5 -123.5l-315 -758
h-23l-223 573l-248 -573h-20l-310 758q-41 100 -64.5 126.5t-76.5 28.5z" />
    <glyph glyph-name="x" unicode="x" horiz-adv-x="972" 
d="M41 0v49q61 2 92 24.5t94 121.5l181 276l-183 256q-61 86 -92 109.5t-92 25.5v47h422v-47q-98 -4 -98 -39q0 -20 43 -80l104 -145l104 162q31 47 31 71q0 27 -69 29q-6 0 -23 2v47h336v-47q-80 -4 -115 -23.5t-84 -95.5l-137 -211l238 -337l42.5 -62.5t56 -64t73.5 -19.5
v-49h-410v49q100 2 100 39q0 16 -39 74l-157 235l-156 -235q-45 -68 -45 -78q0 -25 88 -35v-49h-305z" />
    <glyph glyph-name="y" unicode="y" horiz-adv-x="854" 
d="M2 860v49h381v-49q-59 -2 -61 -2q-39 -6 -39 -33q0 -25 32 -104l185 -455l151 455q29 86 29 102q0 29 -70 35l-24 2v49h270v-49q-47 -6 -64.5 -28.5t-54.5 -126.5l-268 -771q-68 -193 -127 -260t-162 -67q-78 0 -110.5 34.5t-32.5 120.5q0 78 78 78q49 0 64.5 -19.5
t19.5 -69.5t32 -50q47 0 95 92q14 27 96 240l-279 672q-41 100 -63.5 124.5t-77.5 30.5z" />
    <glyph glyph-name="z" unicode="z" horiz-adv-x="919" 
d="M47 0l545 834h-172q-143 0 -192.5 -33t-75.5 -144h-46v252h734l-543 -833h254q113 0 164 40t80 152h45l-17 -268h-776z" />
    <glyph glyph-name="braceleft" unicode="{" horiz-adv-x="727" 
d="M137 530v19q0 18 35 35q59 29 71.5 44t12.5 62v522q0 84 31.5 119t109.5 35h248v-82h-102q-59 0 -80 -8q-39 -14 -45 -64q-4 -24 -4 -69v-457q0 -98 -95 -147q94 -45 95 -146v-456q0 -68 6 -89q14 -43 65 -51q20 -2 58 -2h102v-82h-248q-78 0 -109.5 35t-31.5 119v522
q0 47 -12.5 62.5t-71.5 44.5q-35 16 -35 34z" />
    <glyph glyph-name="bar" unicode="|" horiz-adv-x="1024" 
d="M453 -342v1708h118v-1708h-118z" />
    <glyph glyph-name="braceright" unicode="}" horiz-adv-x="727" 
d="M82 -205h102q88 0 108.5 27t20.5 115v456q0 100 95 146q-94 49 -95 147v457q0 68 -6 88q-14 43 -65 51q-20 2 -58 2h-102v82h248q78 0 109.5 -35t31.5 -119v-522q0 -47 12.5 -62.5t71.5 -43.5q35 -16 35 -35v-19q0 -18 -35 -34q-59 -29 -71.5 -44.5t-12.5 -62.5v-522
q0 -84 -31.5 -119t-109.5 -35h-248v82z" />
    <glyph glyph-name="asciitilde" unicode="~" horiz-adv-x="1366" 
d="M256 1274q119 201 283 201q55 0 206 -52q92 -31 138 -30q110 -1 198 110l31 -20q-49 -88 -126 -143.5t-152 -55.5q-43 0 -187 47q-119 39 -178 39t-104 -35q-23 -16 -78 -82z" />
    <glyph glyph-name="uni00A0" unicode="&#xa0;" horiz-adv-x="512" 
 />
    <glyph glyph-name="exclamdown" unicode="&#xa1;" horiz-adv-x="636" 
d="M205 795q0 57 31.5 93t80.5 36q104 0 105 -119q0 -57 -31 -93t-82 -36q-104 0 -104 119zM211 -330q0 55 8 131l78 725h51l78 -725q8 -76 8 -135q0 -143 -112 -143q-111 0 -111 147z" />
    <glyph glyph-name="cent" unicode="&#xa2;" 
d="M180 678q0 195 94.5 325t253.5 154v209h93v-205q262 -18 262 -209q0 -82 -72 -82q-68 0 -86 23q-10 12 -16 78q-12 121 -127 121q-104 0 -178 -101.5t-74 -245.5q0 -160 86 -272.5t207 -112.5q162 0 278 199l41 -18q-106 -297 -321 -332v-209h-93v205q-158 16 -253 145
t-95 328z" />
    <glyph glyph-name="sterling" unicode="&#xa3;" 
d="M82 137q0 72 51 115t135 43q49 0 133 -27l43 -12q4 41 5 47q0 98 -72 256q-8 12 -17 35h-217v80h176q-98 184 -98 311q0 164 118 265.5t304 101.5q147 0 241.5 -71t94.5 -179q0 -51 -32 -86t-79 -35q-43 0 -74.5 29.5t-31.5 70.5q0 16 14 58q10 31 10 45q0 41 -43 68.5
t-108 27.5q-104 0 -171 -67.5t-67 -174.5q0 -80 54 -190q4 -8 96 -174h215v-80h-189q31 -100 31 -172q0 -98 -57 -213q147 -70 246 -70q123 0 172 189l73 -19q-25 -111 -57 -184q-68 -147 -229 -148q-119 0 -279 117q-104 -117 -221 -117q-76 0 -123 44.5t-47 115.5z
M160 137q0 -74 88 -74q76 0 145 82q-4 2 -10 7l-4 2l-6 4q-78 51 -129 51q-84 0 -84 -72z" />
    <glyph glyph-name="currency" unicode="&#xa4;" horiz-adv-x="1480" 
d="M92 563l35 80h100v14l2 66h-137l35 80h113q41 264 214 425t414 161q106 0 224 -39q92 -31 129 -31q35 0 96 20l16 -446h-53q-59 217 -152.5 312t-242.5 95q-186 0 -304 -135t-132 -362h641l-33 -80h-611l7 -80h569l-35 -80h-520q27 -111 53 -170q63 -133 178 -214
t244 -81q211 0 397 236l50 -23q-195 -334 -523 -334q-254 0 -431 165t-204 421h-139z" />
    <glyph glyph-name="yen" unicode="&#xa5;" 
d="M10 1280v47h414v-47q-70 -4 -86 -11t-16 -32q0 -23 49 -115l157 -297q29 -53 66 -137l49 98q12 27 29 60l145 276q47 90 47 113q0 27 -33 37q-6 2 -57 6l-20 2v47h327v-47q-59 -4 -83.5 -28.5t-96.5 -157.5l-168 -314h246v-80h-287l-37 -69v-111h324v-80h-324v-170
q0 -184 25 -203.5t129 -19.5h16v-47h-516v47h27q109 0 126 27.5t17 195.5v170h-325v80h325v76l-55 104h-270v80h225l-170 314q-66 121 -98.5 151.5t-100.5 34.5z" />
    <glyph glyph-name="brokenbar" unicode="&#xa6;" horiz-adv-x="1024" 
d="M453 313h118v-655h-118v655zM453 676v690h118v-690h-118z" />
    <glyph glyph-name="section" unicode="&#xa7;" horiz-adv-x="968" 
d="M102 594q0 117 82 186q57 49 181 70q-111 84 -152 143.5t-41 136.5q0 115 89 187t233 72q131 0 207.5 -64.5t76.5 -177.5q0 -78 -67 -78q-76 0 -97 33q-8 14 -8 96q0 123 -135 123q-72 0 -122 -42t-50 -105q0 -45 31 -81.5t125 -99.5l211 -143q207 -141 206 -293
q0 -123 -94 -195q-66 -49 -182 -57q131 -96 172 -155.5t41 -149.5q0 -125 -87 -203t-228 -78t-225.5 69t-84.5 183q0 57 18.5 69.5t57.5 12.5q63 0 79.5 -16.5t18.5 -79.5q2 -76 21 -107q37 -61 133 -61q76 0 124 44t48 116q0 55 -35 96t-145 121l-195 139
q-121 86 -164 145.5t-43 143.5zM213 664q0 -47 30.5 -84t121.5 -103l180 -129q215 20 215 141q0 81 -135 175l-205 143q-207 -18 -207 -143z" />
    <glyph glyph-name="dieresis" unicode="&#xa8;" horiz-adv-x="1024" 
d="M215 1223q0 51 29.5 84.5t72.5 33.5q45 0 75 -34.5t30 -85.5q0 -49 -30 -83t-75 -34q-43 0 -72.5 33.5t-29.5 85.5zM602 1223q0 51 30 84.5t75 33.5q43 0 72.5 -34.5t29.5 -85.5q0 -49 -29.5 -83t-72.5 -34q-45 0 -75 33.5t-30 85.5z" />
    <glyph glyph-name="copyright" unicode="&#xa9;" horiz-adv-x="1560" 
d="M68 682q0 295 208.5 499.5t511.5 204.5q289 0 497 -207.5t208 -496.5q0 -291 -209 -496.5t-504 -205.5t-503.5 205.5t-208.5 496.5zM143 682q0 -266 186.5 -454.5t448.5 -188.5t448.5 188.5t186.5 454.5q0 264 -185.5 454.5t-443.5 190.5q-268 0 -454.5 -187.5
t-186.5 -457.5zM406 682q0 178 108.5 297t269.5 119q59 0 131 -23q53 -16 72 -16q18 0 64 14l10 -266h-43q-35 121 -87 174t-138 53q-109 0 -177.5 -83t-68.5 -214q0 -158 80 -260t200 -102q117 0 230 133l39 -16q-117 -199 -314 -199q-164 0 -270 109.5t-106 279.5z" />
    <glyph glyph-name="ordfeminine" unicode="&#xaa;" horiz-adv-x="727" 
d="M125 942q0 82 75.5 133t248.5 84v55q0 111 -87 111q-88 0 -88 -63v-48q0 -43 -63 -43q-53 0 -53 58q0 66 56 105.5t151 39.5q143 0 180 -86q16 -37 16 -129v-205q0 -70 14 -69q10 0 41 20l7 4l18 -32q-82 -72 -121 -72q-63 0 -69 90q-109 -90 -183 -90q-63 0 -103 38
t-40 99zM242 971q0 -82 84 -82q49 0 123 53v174q-207 -51 -207 -145z" />
    <glyph glyph-name="guillemotleft" unicode="&#xab;" horiz-adv-x="933" 
d="M61 461q223 209 324 366h113q-80 -188 -258 -366q180 -181 258 -367h-113q-100 158 -324 367zM410 461q215 199 323 366h113q-80 -190 -260 -366q178 -174 260 -367h-113q-109 168 -323 367z" />
    <glyph glyph-name="logicalnot" unicode="&#xac;" horiz-adv-x="1024" 
d="M72 459v88h880v-547h-204v459h-676z" />
    <glyph glyph-name="uni00AD" unicode="&#xad;" horiz-adv-x="409" 
d="M0 438v105h410v-105h-410z" />
    <glyph glyph-name="registered" unicode="&#xae;" horiz-adv-x="1560" 
d="M68 682q0 295 208.5 499.5t511.5 204.5q289 0 497 -207.5t208 -496.5q0 -291 -209 -496.5t-504 -205.5t-503.5 205.5t-208.5 496.5zM143 682q0 -266 186.5 -454.5t448.5 -188.5t448.5 188.5t186.5 454.5q0 264 -185.5 454.5t-443.5 190.5q-268 0 -454.5 -187.5
t-186.5 -457.5zM438 307v41q70 0 79 13.5t9 107.5v455q0 106 -14 113t-74 7v41h320q287 0 286 -208q0 -166 -180 -218q16 -14 62 -71l135 -174q33 -43 51 -52.5t68 -13.5v-41h-189l-186 236q-14 20 -45 55q-18 29 -66 29h-35v-158q0 -102 11.5 -111.5t77.5 -9.5v-41h-310z
M659 680q18 -2 46 -2q92 0 145 46t53 126q0 176 -198 176h-46v-346z" />
    <glyph glyph-name="macron" unicode="&#xaf;" horiz-adv-x="1024" 
d="M43 1630v94h936v-94h-936z" />
    <glyph glyph-name="degree" unicode="&#xb0;" horiz-adv-x="854" 
d="M137 1090q0 115 86 198.5t205 83.5q121 0 206 -83t85 -202t-85 -202.5t-206 -83.5t-206 84t-85 205zM236 1090q0 -80 56 -136.5t136 -56.5q78 0 135.5 56.5t57.5 133.5q0 78 -56.5 134.5t-136.5 56.5q-78 0 -135 -56.5t-57 -131.5z" />
    <glyph glyph-name="plusminus" unicode="&#xb1;" 
d="M129 6v125h834v-125h-834zM129 621v124h354v355h125v-355h355v-124h-355v-355h-125v355h-354z" />
    <glyph glyph-name="uni00B2" unicode="&#xb2;" horiz-adv-x="710" 
d="M59 596l201 201q127 127 166 185t39 120q0 66 -42 105.5t-114 39.5q-123 0 -159 -157l-58 10q23 258 268 258q106 0 177 -66.5t71 -167.5q0 -72 -49 -140.5t-180 -180.5l-148 -127h238q72 0 85.5 3t27.5 19h57l-78 -153h-487z" />
    <glyph glyph-name="uni00B3" unicode="&#xb3;" horiz-adv-x="710" 
d="M70 641l43 41q70 -70 161 -70q78 0 127.5 51.5t49.5 133.5q0 94 -74 133q-33 18 -156 22l199 260h-164q-78 0 -94 -18h-51l51 149h444l-229 -301q100 -6 158.5 -66.5t58.5 -160.5q0 -119 -81 -199.5t-202 -80.5q-133 0 -241 106z" />
    <glyph glyph-name="acute" unicode="&#xb4;" horiz-adv-x="1024" 
d="M422 1065l194 242q70 86 115 86q27 0 46.5 -19.5t19.5 -46.5q0 -45 -90 -113l-199 -149h-86z" />
    <glyph glyph-name="mu" unicode="&#xb5;" horiz-adv-x="917" 
d="M-6 -291q0 41 14 123q57 328 58 731v373h157v-586q0 -168 51 -229q45 -53 125 -53q133 0 242 157v711h156v-694q0 -76 8 -103q16 -55 72 -55q30 -1 63 22v-32l-176 -94q-4 -2 -8 -3q-72 0 -99 132l-8 38q-111 -111 -171 -144.5t-138 -33.5q-166 0 -225 181v-56
q0 -86 32 -282q10 -61 11 -99q0 -45 -23.5 -73.5t-58.5 -28.5t-58.5 27.5t-23.5 70.5z" />
    <glyph glyph-name="paragraph" unicode="&#xb6;" horiz-adv-x="1128" 
d="M82 993q0 246 215 332q102 41 321 41h386v-49q-106 0 -129 -20.5t-23 -206.5v-1221q0 -127 4 -162t21 -47q20 -18 127 -20v-50h-267v1710h-139v-1710h-258v50q111 2 131.5 21.5t20.5 207.5v772l-52 -2q-168 -6 -263 90t-95 264z" />
    <glyph glyph-name="periodcentered" unicode="&#xb7;" horiz-adv-x="518" 
d="M152 457q0 57 30.5 93t81.5 36q104 0 105 -121q0 -57 -32 -93t-81 -36q-47 0 -75.5 33.5t-28.5 87.5z" />
    <glyph glyph-name="cedilla" unicode="&#xb8;" horiz-adv-x="1024" 
d="M322 -340l36 64q68 -37 129 -37q90 0 91 80q0 55 -72 55q-18 0 -53 -8l-17 24l72 162h70l-48 -106h31q141 0 141 -121q0 -68 -57 -111t-149 -43q-84 0 -174 41z" />
    <glyph glyph-name="uni00B9" unicode="&#xb9;" horiz-adv-x="710" 
d="M188 1194l207 158h49v-549q0 -82 2 -103q0 -68 0 -67q0 -25 13.5 -30t77.5 -9v-47h-316v47q76 2 84 14.5t8 132.5v344q0 102 -6 103q-2 0 -12 -4l-27 -10q-12 -6 -49 -23z" />
    <glyph glyph-name="ordmasculine" unicode="&#xba;" horiz-adv-x="727" 
d="M82 1081q0 127 80 210t205 83q123 0 201.5 -81t78.5 -208q0 -119 -83 -199.5t-206 -80.5q-125 0 -200.5 75.5t-75.5 200.5zM193 1128q0 -106 59 -180t143 -74q61 0 98 47.5t37 127.5q0 119 -49 196.5t-127 77.5q-72 0 -116.5 -54.5t-44.5 -140.5z" />
    <glyph glyph-name="guillemotright" unicode="&#xbb;" horiz-adv-x="933" 
d="M88 94q80 190 260 367q-178 173 -260 366h113q109 -168 323 -366q-215 -199 -323 -367h-113zM436 94q80 188 258 367q-180 180 -258 366h113q100 -158 323 -366q-223 -209 -323 -367h-113z" />
    <glyph glyph-name="onequarter" unicode="&#xbc;" horiz-adv-x="1665" 
d="M188 1194l207 158h49v-549q0 -82 2 -103q0 -68 0 -67q0 -25 13.5 -30t77.5 -9v-47h-316v47q76 2 84 14.5t8 132.5v344q0 102 -6 103q-2 0 -12 -4l-27 -10q-12 -6 -49 -23zM436 2l729 1399l62 -35l-727 -1395zM1024 231v91l371 483h75v-471h127v-103h-127v-231h-131v231
h-315zM1110 328h238v299z" />
    <glyph glyph-name="onehalf" unicode="&#xbd;" horiz-adv-x="1665" 
d="M188 1194l207 158h49v-549q0 -82 2 -103q0 -68 0 -67q0 -25 13.5 -30t77.5 -9v-47h-316v47q76 2 84 14.5t8 132.5v344q0 102 -6 103q-2 0 -12 -4l-27 -10q-12 -6 -49 -23zM436 2l729 1399l62 -35l-727 -1395zM1014 51l200 201q129 129 167 185.5t38 117.5q0 66 -42 105.5
t-113 39.5q-125 0 -160 -157l-57 10q23 258 268 258q106 0 177 -66.5t71 -164.5q0 -72 -48.5 -139.5t-181.5 -182.5l-147 -127h237q72 0 85.5 3.5t27.5 19.5h55l-75 -154h-488z" />
    <glyph glyph-name="threequarters" unicode="&#xbe;" horiz-adv-x="1665" 
d="M70 641l43 41q70 -70 161 -70q78 0 127.5 51.5t49.5 133.5q0 94 -74 133q-33 18 -156 22l199 260h-164q-78 0 -94 -18h-51l51 149h444l-229 -301q100 -6 158.5 -66.5t58.5 -160.5q0 -119 -81 -199.5t-202 -80.5q-133 0 -241 106zM436 2l729 1399l62 -35l-729 -1395z
M1024 231v91l371 483h75v-471h127v-103h-127v-231h-131v231h-315zM1110 328h238v299z" />
    <glyph glyph-name="questiondown" unicode="&#xbf;" horiz-adv-x="985" 
d="M109 -168q0 158 170 332l90 92q90 92 120 154q27 55 31 137h43q2 -113 -19.5 -184.5t-80.5 -161.5l-70 -105q-98 -147 -98 -237q0 -106 75.5 -193.5t168.5 -87.5q133 0 133 172q0 74 10 96q16 39 78 39q109 0 108 -90q0 -127 -99 -199.5t-269 -72.5q-180 0 -285.5 83
t-105.5 226zM432 795q0 57 32 93t81 36q106 0 106 -119q0 -57 -30.5 -93t-81.5 -36q-106 0 -107 119z" />
    <glyph glyph-name="Agrave" unicode="&#xc0;" horiz-adv-x="1343" 
d="M14 0v49q68 6 94.5 40t86.5 181l458 1149h33l453 -1108q74 -182 106 -221q25 -31 96 -41v-49h-454v49q104 0 104 53q0 25 -30 105l-101 258h-489l-86 -225q-41 -106 -41 -136q0 -45 116 -55v-49h-346zM305 1739q0 66 70 65q37 0 112 -69l252 -234h-94l-233 129
q-106 59 -107 109zM403 549h424l-213 536z" />
    <glyph glyph-name="Aacute" unicode="&#xc1;" horiz-adv-x="1343" 
d="M14 0v49q68 6 94.5 40t86.5 181l458 1149h33l453 -1108q74 -182 106 -221q25 -31 96 -41v-49h-454v49q104 0 104 53q0 25 -30 105l-101 258h-489l-86 -225q-41 -106 -41 -136q0 -45 116 -55v-49h-346zM403 549h424l-213 536zM618 1501l252 234q76 70 113 69q70 0 70 -65
q0 -51 -107 -109l-235 -129h-93z" />
    <glyph glyph-name="Acircumflex" unicode="&#xc2;" horiz-adv-x="1343" 
d="M14 0v49q68 6 94.5 40t86.5 181l458 1149h33l453 -1108q74 -182 106 -221q25 -31 96 -41v-49h-454v49q104 0 104 53q0 25 -30 105l-101 258h-489l-86 -225q-41 -106 -41 -136q0 -45 116 -55v-49h-346zM385 1499l244 305h100l242 -305h-80l-213 170l-213 -170h-80z
M403 549h424l-213 536z" />
    <glyph glyph-name="Atilde" unicode="&#xc3;" horiz-adv-x="1343" 
d="M14 0v49q68 6 94.5 40t86.5 181l458 1149h33l453 -1108q74 -182 106 -221q25 -31 96 -41v-49h-454v49q104 0 104 53q0 25 -30 105l-101 258h-489l-86 -225q-41 -106 -41 -136q0 -45 116 -55v-49h-346zM373 1528q14 100 64 158.5t122 58.5q39 0 100 -25l119 -47
q47 -18 68 -18q33 0 67 26.5t48 65.5h55q-8 -98 -58.5 -155.5t-123.5 -57.5q-41 0 -84 18l-115 50q-53 23 -88 22q-70 0 -119 -96h-55zM403 549h424l-213 536z" />
    <glyph glyph-name="Adieresis" unicode="&#xc4;" horiz-adv-x="1343" 
d="M14 0v49q68 6 94.5 40t86.5 181l458 1149h33l453 -1108q74 -182 106 -221q25 -31 96 -41v-49h-454v49q104 0 104 53q0 25 -30 105l-101 258h-489l-86 -225q-41 -106 -41 -136q0 -45 116 -55v-49h-346zM362 1642q0 51 31 87t78 36q45 0 76 -36.5t31 -90.5q0 -47 -31 -80.5
t-74 -33.5q-47 0 -79 33.5t-32 84.5zM403 549h424l-213 536zM778 1642q0 51 31 87t78 36q45 0 75.5 -36.5t30.5 -90.5q0 -47 -30.5 -80.5t-73.5 -33.5q-47 0 -79 33.5t-32 84.5z" />
    <glyph glyph-name="Aring" unicode="&#xc5;" horiz-adv-x="1343" 
d="M14 0v49q68 6 94.5 40t86.5 181l458 1149h33l453 -1108q74 -182 106 -221q25 -31 96 -41v-49h-454v49q104 0 104 53q0 25 -30 105l-101 258h-489l-86 -225q-41 -106 -41 -136q0 -45 116 -55v-49h-346zM403 549h424l-213 536zM483 1667q0 78 57.5 135.5t135.5 57.5
q82 0 138 -57.5t56 -139.5q0 -78 -57 -134t-137 -56t-136.5 56t-56.5 138zM573 1667q0 -43 31 -73.5t72 -30.5q43 0 73.5 30.5t30.5 71.5q0 43 -30.5 73.5t-73.5 30.5q-41 0 -72 -30.5t-31 -71.5z" />
    <glyph glyph-name="AE" unicode="&#xc6;" horiz-adv-x="1886" 
d="M-14 0v49q61 12 90.5 41t101.5 143l522 830q98 156 99 201q0 27 -24.5 38t-98.5 15v49h1050l21 -297l-49 -6q-39 139 -103.5 179t-255.5 40h-213v-526h197q137 0 176 31.5t49 150.5h45v-446h-45q-16 129 -50 154.5t-189 25.5h-183v-588h289q174 0 248 49t131 203l45 -6
l-86 -330h-983v49q106 0 129 20.5t23 206.5v189h-492l-88 -139q-100 -158 -100 -224q0 -47 106 -53v-49h-362zM481 549h441v700z" />
    <glyph glyph-name="Ccedilla" unicode="&#xc7;" horiz-adv-x="1316" 
d="M100 657q0 315 182.5 523.5t460.5 208.5q106 0 222 -39q90 -31 129 -31q37 0 98 20l14 -446h-53q-59 217 -152.5 312t-242.5 95q-195 0 -317 -151.5t-122 -392.5q0 -258 119 -441q63 -98 168 -157.5t211 -59.5q207 0 397 236l48 -23q-178 -322 -500 -334l-39 -90
q12 2 31 2q68 0 108.5 -34.5t40.5 -92.5q0 -72 -60.5 -117.5t-156.5 -45.5q-92 0 -184 45l39 65q74 -39 135 -39q94 0 94 84q0 59 -76 60q-20 0 -53 -11l-18 27l65 150q-262 23 -425 209t-163 468z" />
    <glyph glyph-name="Egrave" unicode="&#xc8;" horiz-adv-x="1204" 
d="M88 0v49q106 0 129 20.5t23 206.5v814q0 127 -4.5 160.5t-20.5 47.5q-23 18 -127 19v49h959l20 -297l-49 -6q-39 139 -103.5 179t-257.5 40h-213v-526h197q137 0 176 31.5t51 150.5h45v-446h-45q-18 129 -52 154.5t-189 25.5h-183v-588h289q176 0 251 49t130 203l45 -6
l-86 -330h-985zM276 1739q0 66 70 65q37 0 113 -69l252 -234h-95l-233 129q-106 59 -107 109z" />
    <glyph glyph-name="Eacute" unicode="&#xc9;" horiz-adv-x="1204" 
d="M88 0v49q106 0 129 20.5t23 206.5v814q0 127 -4.5 160.5t-20.5 47.5q-23 18 -127 19v49h959l20 -297l-49 -6q-39 139 -103.5 179t-257.5 40h-213v-526h197q137 0 176 31.5t51 150.5h45v-446h-45q-18 129 -52 154.5t-189 25.5h-183v-588h289q176 0 251 49t130 203l45 -6
l-86 -330h-985zM551 1501l252 234q76 70 112 69q70 0 70 -65q0 -51 -106 -109l-236 -129h-92z" />
    <glyph glyph-name="Ecircumflex" unicode="&#xca;" horiz-adv-x="1204" 
d="M88 0v49q106 0 129 20.5t23 206.5v814q0 127 -4.5 160.5t-20.5 47.5q-23 18 -127 19v49h959l20 -297l-49 -6q-39 139 -103.5 179t-257.5 40h-213v-526h197q137 0 176 31.5t51 150.5h45v-446h-45q-18 129 -52 154.5t-189 25.5h-183v-588h289q176 0 251 49t130 203l45 -6
l-86 -330h-985zM344 1499l244 305h100l242 -305h-80l-213 170l-213 -170h-80z" />
    <glyph glyph-name="Edieresis" unicode="&#xcb;" horiz-adv-x="1204" 
d="M88 0v49q106 0 129 20.5t23 206.5v814q0 127 -4.5 160.5t-20.5 47.5q-23 18 -127 19v49h959l20 -297l-49 -6q-39 139 -103.5 179t-257.5 40h-213v-526h197q137 0 176 31.5t51 150.5h45v-446h-45q-18 129 -52 154.5t-189 25.5h-183v-588h289q176 0 251 49t130 203l45 -6
l-86 -330h-985zM315 1642q0 51 31 87t78 36q45 0 75.5 -36.5t30.5 -90.5q0 -47 -30.5 -80.5t-73.5 -33.5q-47 0 -79 33.5t-32 84.5zM731 1642q0 51 31 87t78 36q45 0 75.5 -36.5t30.5 -90.5q0 -47 -30.5 -80.5t-73.5 -33.5q-47 0 -79 33.5t-32 84.5z" />
    <glyph glyph-name="Igrave" unicode="&#xcc;" horiz-adv-x="681" 
d="M-12 1739q0 66 69 65q37 0 113 -69l252 -234h-94l-234 129q-106 59 -106 109zM86 0v49q106 0 129 20.5t23 206.5v814q0 127 -4.5 160.5t-20.5 47.5q-23 18 -127 19v49h508v-49q-106 0 -129 -20.5t-23 -206.5v-814q0 -127 4.5 -160.5t23.5 -50t124 -16.5v-49h-508z" />
    <glyph glyph-name="Iacute" unicode="&#xcd;" horiz-adv-x="681" 
d="M88 0v49q106 0 129 20.5t23 206.5v814q0 127 -4.5 160.5t-20.5 47.5q-23 18 -127 19v49h508v-49q-106 0 -129 -20.5t-23 -206.5v-814q0 -127 4.5 -160.5t24 -50t123.5 -16.5v-49h-508zM297 1501l252 234q76 70 113 69q70 0 69 -65q0 -51 -106 -109l-236 -129h-92z" />
    <glyph glyph-name="Icircumflex" unicode="&#xce;" horiz-adv-x="681" 
d="M61 1499l244 305h101l241 -305h-80l-213 170l-213 -170h-80zM86 0v49q106 0 129 20.5t23 206.5v814q0 127 -4.5 160.5t-20.5 47.5q-23 18 -127 19v49h508v-49q-106 0 -129 -20.5t-23 -206.5v-814q0 -127 4.5 -160.5t23.5 -50t124 -16.5v-49h-508z" />
    <glyph glyph-name="Idieresis" unicode="&#xcf;" horiz-adv-x="681" 
d="M84 1642q0 51 31 87t78 36q45 0 75.5 -36.5t30.5 -90.5q0 -47 -30.5 -80.5t-73.5 -33.5q-47 0 -79 33.5t-32 84.5zM88 0v49q106 0 129 20.5t23 206.5v814q0 127 -4.5 160.5t-20.5 47.5q-23 18 -127 19v49h508v-49q-106 0 -129 -20.5t-23 -206.5v-814q0 -127 4.5 -160.5
t24 -50t123.5 -16.5v-49h-508zM412 1642q0 51 30.5 87t77.5 36q45 0 76 -36.5t31 -90.5q0 -47 -31 -80.5t-74 -33.5q-47 0 -78.5 33.5t-31.5 84.5z" />
    <glyph glyph-name="Eth" unicode="&#xd0;" horiz-adv-x="1519" 
d="M88 0v49q106 0 129 20.5t23 206.5v386h-152v81h152v347q0 127 -4.5 160.5t-20.5 47.5q-23 18 -127 19v49h549q418 0 606 -190q176 -178 176 -467q0 -317 -205.5 -513t-603.5 -196h-522zM444 383q0 -221 12.5 -261t166.5 -40q319 0 464 201q111 154 111 389
q0 340 -215 508q-152 119 -410 118q-43 0 -129 -6v-549h383v-81h-383v-279z" />
    <glyph glyph-name="Ntilde" unicode="&#xd1;" horiz-adv-x="1501" 
d="M63 1317v49h318l649 -809l115 -141q10 -10 37 -45q-2 125 -2 217v502q0 127 -4.5 160.5t-20.5 47.5q-23 18 -127 19v49h393v-49q-106 0 -128.5 -20.5t-22.5 -206.5v-1113h-27l-837 1037q-6 6 -76 102v-840q0 -127 4 -160.5t23.5 -50t123.5 -16.5v-49h-393v49
q106 0 129 20.5t23 206.5v930l-58 68q-23 27 -42 33t-77 10zM489 1528q14 100 64.5 158.5t122.5 58.5q39 0 100 -25l119 -47q47 -18 68 -18q33 0 66.5 26.5t47.5 65.5h56q-8 -98 -58.5 -155.5t-124.5 -57.5q-41 0 -84 18l-114 50q-53 23 -88 22q-70 0 -119 -96h-56z" />
    <glyph glyph-name="Ograve" unicode="&#xd2;" horiz-adv-x="1566" 
d="M100 684q0 381 271 573q182 132 409 132q236 0 414 -132q270 -199 270 -585q0 -299 -193.5 -497t-488.5 -198q-299 0 -490.5 199t-191.5 508zM319 731q0 -272 140.5 -460.5t341.5 -188.5q195 0 319.5 158.5t124.5 408.5q0 283 -130 459t-339 176q-203 0 -330 -153.5
t-127 -399.5zM416 1739q0 66 69 65q37 0 113 -69l252 -234h-94l-234 129q-106 59 -106 109z" />
    <glyph glyph-name="Oacute" unicode="&#xd3;" horiz-adv-x="1566" 
d="M100 684q0 381 271 573q182 132 409 132q236 0 414 -132q270 -199 270 -585q0 -299 -193.5 -497t-488.5 -198q-299 0 -490.5 199t-191.5 508zM319 731q0 -272 140.5 -460.5t341.5 -188.5q195 0 319.5 158.5t124.5 408.5q0 283 -130 459t-339 176q-203 0 -330 -153.5
t-127 -399.5zM723 1501l252 234q76 70 112 69q70 0 70 -65q0 -51 -106 -109l-236 -129h-92z" />
    <glyph glyph-name="Ocircumflex" unicode="&#xd4;" horiz-adv-x="1566" 
d="M100 684q0 381 271 573q182 132 409 132q236 0 414 -132q270 -199 270 -585q0 -299 -193.5 -497t-488.5 -198q-299 0 -490.5 199t-191.5 508zM319 731q0 -272 140.5 -460.5t341.5 -188.5q195 0 319.5 158.5t124.5 408.5q0 283 -130 459t-339 176q-203 0 -330 -153.5
t-127 -399.5zM496 1499l243 305h101l241 -305h-80l-213 170l-213 -170h-79z" />
    <glyph glyph-name="Otilde" unicode="&#xd5;" horiz-adv-x="1566" 
d="M100 684q0 381 271 573q182 132 409 132q236 0 414 -132q270 -199 270 -585q0 -299 -193.5 -497t-488.5 -198q-299 0 -490.5 199t-191.5 508zM319 731q0 -272 140.5 -460.5t341.5 -188.5q195 0 319.5 158.5t124.5 408.5q0 283 -130 459t-339 176q-203 0 -330 -153.5
t-127 -399.5zM508 1528q14 100 64.5 158.5t121.5 58.5q39 0 101 -25l118 -47q47 -18 68 -18q33 0 67 26.5t48 65.5h55q-8 -98 -58.5 -155.5t-123.5 -57.5q-41 0 -84 18l-115 50q-53 23 -88 22q-70 0 -119 -96h-55z" />
    <glyph glyph-name="Odieresis" unicode="&#xd6;" horiz-adv-x="1566" 
d="M100 684q0 381 271 573q182 132 409 132q236 0 414 -132q270 -199 270 -585q0 -299 -193.5 -497t-488.5 -198q-299 0 -490.5 199t-191.5 508zM319 731q0 -272 140.5 -460.5t341.5 -188.5q195 0 319.5 158.5t124.5 408.5q0 283 -130 459t-339 176q-203 0 -330 -153.5
t-127 -399.5zM481 1642q0 51 31 87t78 36q45 0 75.5 -36.5t30.5 -90.5q0 -47 -30.5 -80.5t-73.5 -33.5q-47 0 -79 33.5t-32 84.5zM897 1642q0 51 31 87t78 36q45 0 75.5 -36.5t30.5 -90.5q0 -47 -30.5 -80.5t-73.5 -33.5q-47 0 -79 33.5t-32 84.5z" />
    <glyph glyph-name="multiply" unicode="&#xd7;" 
d="M207 432l250 250l-250 250l88 90l250 -250l252 250l88 -90l-250 -250l250 -250l-88 -88l-250 250l-252 -250z" />
    <glyph glyph-name="Oslash" unicode="&#xd8;" horiz-adv-x="1566" 
d="M100 684q0 309 191.5 507t490.5 198q182 0 355 -93l106 158l74 -47l-107 -158q115 -106 162 -186q92 -158 92 -381q0 -371 -270 -573q-176 -131 -410 -132q-202 1 -364 99l-107 -156l-69 47l102 158q-102 94 -149 174q-96 164 -97 385zM319 731q1 -259 138 -452l592 901
q-113 104 -271 104q-205 0 -332 -153.5t-127 -399.5zM518 205q129 -123 281 -123q199 0 322.5 159.5t123.5 413.5q0 273 -133 455z" />
    <glyph glyph-name="Ugrave" unicode="&#xd9;" horiz-adv-x="1458" 
d="M80 1317v49h508v-49q-106 0 -129 -20.5t-23 -206.5v-490q0 -152 4 -188q8 -113 49 -176q88 -137 312 -138q186 0 278 105q72 82 72 317v570q0 127 -4 160.5t-21 47.5q-23 18 -127 19v49h394v-49q-106 0 -129 -20.5t-23 -206.5v-570q0 -293 -96 -403q-121 -139 -416 -140
q-338 0 -444 191q-53 94 -54 352v570q0 127 -4 160.5t-20 47.5q-23 18 -127 19zM416 1739q0 66 69 65q37 0 113 -69l252 -234h-94l-234 129q-106 59 -106 109z" />
    <glyph glyph-name="Uacute" unicode="&#xda;" horiz-adv-x="1458" 
d="M80 1317v49h508v-49q-106 0 -129 -20.5t-23 -206.5v-490q0 -152 4 -188q8 -113 49 -176q88 -137 312 -138q186 0 278 105q72 82 72 317v570q0 127 -4 160.5t-21 47.5q-23 18 -127 19v49h394v-49q-106 0 -129 -20.5t-23 -206.5v-570q0 -293 -96 -403q-121 -139 -416 -140
q-338 0 -444 191q-53 94 -54 352v570q0 127 -4 160.5t-20 47.5q-23 18 -127 19zM696 1501l252 234q76 70 113 69q70 0 69 -65q0 -51 -106 -109l-236 -129h-92z" />
    <glyph glyph-name="Ucircumflex" unicode="&#xdb;" horiz-adv-x="1458" 
d="M80 1317v49h508v-49q-106 0 -129 -20.5t-23 -206.5v-490q0 -152 4 -188q8 -113 49 -176q88 -137 312 -138q186 0 278 105q72 82 72 317v570q0 127 -4 160.5t-21 47.5q-23 18 -127 19v49h394v-49q-106 0 -129 -20.5t-23 -206.5v-570q0 -293 -96 -403q-121 -139 -416 -140
q-338 0 -444 191q-53 94 -54 352v570q0 127 -4 160.5t-20 47.5q-23 18 -127 19zM492 1499l243 305h101l241 -305h-80l-213 170l-213 -170h-79z" />
    <glyph glyph-name="Udieresis" unicode="&#xdc;" horiz-adv-x="1458" 
d="M80 1317v49h508v-49q-106 0 -129 -20.5t-23 -206.5v-490q0 -152 4 -188q8 -113 49 -176q88 -137 312 -138q186 0 278 105q72 82 72 317v570q0 127 -4 160.5t-21 47.5q-23 18 -127 19v49h394v-49q-106 0 -129 -20.5t-23 -206.5v-570q0 -293 -96 -403q-121 -139 -416 -140
q-338 0 -444 191q-53 94 -54 352v570q0 127 -4 160.5t-20 47.5q-23 18 -127 19zM469 1642q0 51 31 87t78 36q45 0 75.5 -36.5t30.5 -90.5q0 -47 -30.5 -80.5t-73.5 -33.5q-47 0 -79 33.5t-32 84.5zM885 1642q0 51 30.5 87t77.5 36q45 0 76 -36.5t31 -90.5q0 -47 -31 -80.5
t-74 -33.5q-47 0 -78.5 33.5t-31.5 84.5z" />
    <glyph glyph-name="Yacute" unicode="&#xdd;" horiz-adv-x="1304" 
d="M-6 1317v49h528v-49l-73 -4q-51 -8 -52 -39q0 -25 60 -119l188 -297q45 -72 82 -137q16 27 94 149l178 285q55 88 56 117q0 45 -109 45h-24v49h397v-49q-72 -4 -101.5 -28.5t-119.5 -162.5l-318 -479v-371q0 -127 4 -160.5t23.5 -50t130.5 -16.5h16v-49h-553v49h27
q102 0 124.5 20.5t22.5 206.5v336l-342 514q-84 125 -121.5 156t-117.5 35zM647 1501l252 234q76 70 113 69q70 0 69 -65q0 -51 -106 -109l-236 -129h-92z" />
    <glyph glyph-name="Thorn" unicode="&#xde;" horiz-adv-x="1116" 
d="M88 0v49q106 0 129 20.5t23 206.5v814q0 127 -4.5 160.5t-20.5 47.5q-23 18 -127 19v49h508v-49q-113 0 -132.5 -22.5t-19.5 -161.5h111q250 0 377 -91q137 -98 137 -282q0 -188 -142.5 -302t-379.5 -114h-103v-68q0 -127 4.5 -160.5t24 -50t123.5 -16.5v-49h-508z
M444 428h78q176 0 252 80t76 221q0 158 -86 244q-76 76 -246 76h-74v-621z" />
    <glyph glyph-name="germandbls" unicode="&#xdf;" horiz-adv-x="1089" 
d="M53 0v49q94 4 109.5 26.5t15.5 153.5v795q0 223 86 317q94 104 289 105q162 0 250 -76t88 -213q0 -219 -254 -336q145 -23 217 -78q141 -109 141 -327q0 -176 -93 -307.5t-220 -131.5q-76 0 -124 41t-48 105q0 100 92 100q41 0 66.5 -25.5t25.5 -66.5q0 -16 -9 -39.5
t-9 -34.5q0 -23 29 -22q63 0 105 76.5t42 187.5q0 223 -143 344q-103 87 -244 107v71q244 39 244 318q0 106 -51.5 173.5t-133.5 67.5q-106 0 -153 -86q-33 -63 -33 -278v-787q0 -131 15.5 -153.5t109.5 -26.5v-49h-410z" />
    <glyph glyph-name="agrave" unicode="&#xe0;" horiz-adv-x="946" 
d="M100 205q0 141 120 225t403 143v97q0 106 -35 153t-115 47q-154 0 -154 -120v-80q0 -63 -90 -64q-76 0 -75 86q0 111 88 175.5t237 64.5q205 0 271 -121q33 -61 32 -238v-350q0 -92 5.5 -111.5t29.5 -19.5q21 0 72 37l18 -39q-125 -113 -182 -113q-61 0 -86 64
q-8 23 -16 102q-115 -102 -174.5 -134t-129.5 -32q-98 0 -158.5 62.5t-60.5 165.5zM188 1327q0 27 19.5 46.5t46.5 19.5q45 0 115 -86l194 -242h-86l-198 149q-90 68 -91 113zM266 254q0 -66 40 -107t108 -41q78 1 209 95v315q-188 -51 -272.5 -112.5t-84.5 -149.5z" />
    <glyph glyph-name="aacute" unicode="&#xe1;" horiz-adv-x="946" 
d="M100 205q0 141 120 225t403 143v97q0 106 -35 153t-115 47q-154 0 -154 -120v-80q0 -63 -90 -64q-76 0 -75 86q0 111 88 175.5t237 64.5q205 0 271 -121q33 -61 32 -238v-350q0 -92 5.5 -111.5t29.5 -19.5q21 0 72 37l18 -39q-125 -113 -182 -113q-61 0 -86 64
q-8 23 -16 102q-115 -102 -174.5 -134t-129.5 -32q-98 0 -158.5 62.5t-60.5 165.5zM266 254q0 -66 40 -107t108 -41q78 1 209 95v315q-188 -51 -272.5 -112.5t-84.5 -149.5zM420 1065l194 242q70 86 115 86q27 0 46.5 -19.5t19.5 -46.5q0 -45 -90 -113l-199 -149h-86z" />
    <glyph glyph-name="acircumflex" unicode="&#xe2;" horiz-adv-x="946" 
d="M100 205q0 141 120 225t403 143v97q0 106 -35 153t-115 47q-154 0 -154 -120v-80q0 -63 -90 -64q-76 0 -75 86q0 111 88 175.5t237 64.5q205 0 271 -121q33 -61 32 -238v-350q0 -92 5.5 -111.5t29.5 -19.5q21 0 72 37l18 -39q-125 -113 -182 -113q-61 0 -86 64
q-8 23 -16 102q-115 -102 -174.5 -134t-129.5 -32q-98 0 -158.5 62.5t-60.5 165.5zM203 1065l231 328h101l231 -328h-74l-209 199l-207 -199h-73zM266 254q0 -66 40 -107t108 -41q78 1 209 95v315q-188 -51 -272.5 -112.5t-84.5 -149.5z" />
    <glyph glyph-name="atilde" unicode="&#xe3;" horiz-adv-x="946" 
d="M100 205q0 141 120 225t403 143v97q0 106 -35 153t-115 47q-154 0 -154 -120v-80q0 -63 -90 -64q-76 0 -75 86q0 111 88 175.5t237 64.5q205 0 271 -121q33 -61 32 -238v-350q0 -92 5.5 -111.5t29.5 -19.5q21 0 72 37l18 -39q-125 -113 -182 -113q-61 0 -86 64
q-8 23 -16 102q-115 -102 -174.5 -134t-129.5 -32q-98 0 -158.5 62.5t-60.5 165.5zM209 1124q37 195 176 195q37 0 90 -23l100 -43q33 -14 62 -14q64 0 115 82h49q-10 -90 -56.5 -143.5t-113.5 -53.5q-45 0 -80 17l-102 47q-41 18 -87 18q-57 0 -102 -82h-51zM266 254
q0 -66 40 -107t108 -41q78 1 209 95v315q-188 -51 -272.5 -112.5t-84.5 -149.5z" />
    <glyph glyph-name="adieresis" unicode="&#xe4;" horiz-adv-x="946" 
d="M100 205q0 141 120 225t403 143v97q0 106 -35 153t-115 47q-154 0 -154 -120v-80q0 -63 -90 -64q-76 0 -75 86q0 111 88 175.5t237 64.5q205 0 271 -121q33 -61 32 -238v-350q0 -92 5.5 -111.5t29.5 -19.5q21 0 72 37l18 -39q-125 -113 -182 -113q-61 0 -86 64
q-8 23 -16 102q-115 -102 -174.5 -134t-129.5 -32q-98 0 -158.5 62.5t-60.5 165.5zM188 1223q0 51 30 84.5t73 33.5q45 0 74.5 -34.5t29.5 -85.5q0 -49 -29.5 -83t-74.5 -34q-43 0 -73 33.5t-30 85.5zM266 254q0 -66 40 -107t108 -41q78 1 209 95v315
q-188 -51 -272.5 -112.5t-84.5 -149.5zM575 1223q0 51 30 84.5t75 33.5q43 0 72.5 -34.5t29.5 -85.5q0 -49 -29.5 -83t-72.5 -34q-45 0 -75 33.5t-30 85.5z" />
    <glyph glyph-name="aring" unicode="&#xe5;" horiz-adv-x="946" 
d="M100 205q0 141 120 225t403 143v97q0 106 -35 153t-115 47q-154 0 -154 -120v-80q0 -63 -90 -64q-76 0 -75 86q0 111 88 175.5t237 64.5q205 0 271 -121q33 -61 32 -238v-350q0 -92 5.5 -111.5t29.5 -19.5q21 0 72 37l18 -39q-125 -113 -182 -113q-61 0 -86 64
q-8 23 -16 102q-115 -102 -174.5 -134t-129.5 -32q-98 0 -158.5 62.5t-60.5 165.5zM266 254q0 -66 40 -107t108 -41q78 1 209 95v315q-188 -51 -272.5 -112.5t-84.5 -149.5zM299 1237q0 78 57.5 135.5t135.5 57.5q82 0 138 -57.5t56 -139.5q0 -78 -57.5 -134.5t-136.5 -56.5
q-80 0 -136.5 56.5t-56.5 138.5zM389 1237q0 -43 31 -73.5t72 -30.5q43 0 73.5 30.5t30.5 71.5q0 43 -30.5 73.5t-73.5 30.5q-41 0 -72 -30.5t-31 -71.5z" />
    <glyph glyph-name="ae" unicode="&#xe6;" horiz-adv-x="1466" 
d="M100 205q0 141 121 226t402 142v97q0 106 -35 153t-115 47q-154 0 -154 -120v-80q0 -63 -90 -64q-76 0 -75 86q0 109 87 174.5t234 65.5q197 0 256 -133q109 133 281 133q219 0 311 -160q41 -70 43 -217h-606q6 -178 61 -276q86 -152 242 -152q168 0 285 197l41 -21
q-119 -326 -390 -326q-193 0 -311 187q-199 -186 -360 -187q-104 0 -166 61.5t-62 166.5zM266 254q0 -66 40 -107t108 -41q82 1 209 97v315q-356 -96 -357 -264zM764 618h430q-18 246 -213 246q-182 0 -217 -246z" />
    <glyph glyph-name="ccedilla" unicode="&#xe7;" horiz-adv-x="868" 
d="M88 451q0 219 114.5 350t305.5 131q133 0 209 -55.5t76 -151.5q0 -82 -72 -82q-63 0 -79.5 16.5t-23.5 83.5q-12 127 -131 127q-106 0 -181 -102t-75 -248q0 -164 87.5 -275.5t211.5 -111.5q162 0 279 199l41 -21q-57 -156 -154.5 -245t-212.5 -89l-37 -86q12 2 29 3
q141 0 141 -121q0 -70 -57 -113t-147 -43q-88 0 -176 43l36 61q72 -37 129 -36q39 0 65 22.5t26 56.5q0 57 -72 58q-20 0 -53 -10l-15 24l62 144q-98 14 -178 88q-147 135 -148 383z" />
    <glyph glyph-name="egrave" unicode="&#xe8;" horiz-adv-x="929" 
d="M88 440q0 223 106.5 357.5t282.5 134.5q219 0 311 -160q41 -70 43 -217h-606q6 -178 62 -276q86 -152 241 -152q168 0 285 197l41 -21q-119 -326 -389 -326q-166 0 -271.5 129.5t-105.5 333.5zM176 1327q0 27 19.5 46.5t46.5 19.5q45 0 114 -86l195 -242h-86l-199 149
q-90 68 -90 113zM229 618h430q-18 246 -213 246q-182 0 -217 -246z" />
    <glyph glyph-name="eacute" unicode="&#xe9;" horiz-adv-x="929" 
d="M88 440q0 223 106.5 357.5t282.5 134.5q219 0 311 -160q41 -70 43 -217h-606q6 -178 62 -276q86 -152 241 -152q168 0 285 197l41 -21q-119 -326 -389 -326q-166 0 -271.5 129.5t-105.5 333.5zM229 618h430q-18 246 -213 246q-182 0 -217 -246zM420 1065l194 242
q70 86 115 86q27 0 46.5 -19.5t19.5 -46.5q0 -45 -90 -113l-199 -149h-86z" />
    <glyph glyph-name="ecircumflex" unicode="&#xea;" horiz-adv-x="929" 
d="M88 440q0 223 106.5 357.5t282.5 134.5q219 0 311 -160q41 -70 43 -217h-606q6 -178 62 -276q86 -152 241 -152q168 0 285 197l41 -21q-119 -326 -389 -326q-166 0 -271.5 129.5t-105.5 333.5zM211 1065l231 328h101l231 -328h-74l-208 199l-207 -199h-74zM229 618h430
q-18 246 -213 246q-182 0 -217 -246z" />
    <glyph glyph-name="edieresis" unicode="&#xeb;" horiz-adv-x="929" 
d="M88 440q0 223 106.5 357.5t282.5 134.5q219 0 311 -160q41 -70 43 -217h-606q6 -178 62 -276q86 -152 241 -152q168 0 285 197l41 -21q-119 -326 -389 -326q-166 0 -271.5 129.5t-105.5 333.5zM188 1223q0 51 30 84.5t73 33.5q45 0 74.5 -34.5t29.5 -85.5
q0 -49 -29.5 -83t-74.5 -34q-43 0 -73 33.5t-30 85.5zM229 618h430q-18 246 -213 246q-182 0 -217 -246zM575 1223q0 51 30 84.5t75 33.5q43 0 72.5 -34.5t29.5 -85.5q0 -49 -29.5 -83t-72.5 -34q-45 0 -75 33.5t-30 85.5z" />
    <glyph glyph-name="igrave" unicode="&#xec;" horiz-adv-x="520" 
d="M-18 1325q0 25 21.5 46.5t45.5 21.5q31 0 46.5 -13.5t60.5 -72.5l178 -242h-86l-182 149q-84 70 -84 111zM57 780v54q145 41 250 106h55q-4 -166 -4 -322v-389q0 -131 15.5 -153.5t109.5 -26.5v-49h-409v49q94 4 109.5 26.5t15.5 153.5v385q0 131 -19 152q-17 14 -123 14
z" />
    <glyph glyph-name="iacute" unicode="&#xed;" horiz-adv-x="520" 
d="M57 780v54q143 43 248 106h55q-4 -166 -4 -322v-389q0 -131 15.5 -153.5t109.5 -26.5v-49h-409v49q94 4 109.5 26.5t15.5 153.5v385q0 129 -19 152q-17 14 -121 14zM207 1065l178 242q39 51 43 57q29 29 64 29q68 0 67 -76q0 -33 -84 -103l-182 -149h-86z" />
    <glyph glyph-name="icircumflex" unicode="&#xee;" horiz-adv-x="520" 
d="M12 1065l213 328h103l213 -328h-70l-195 199l-194 -199h-70zM57 780v54q143 43 248 106h55q-4 -166 -4 -322v-389q0 -131 15.5 -153.5t109.5 -26.5v-49h-409v49q94 4 109.5 26.5t15.5 153.5v385q0 129 -19 152q-17 14 -121 14z" />
    <glyph glyph-name="idieresis" unicode="&#xef;" horiz-adv-x="520" 
d="M33 1223q0 51 29.5 84.5t72.5 33.5q45 0 75 -34.5t30 -85.5q0 -49 -30 -83t-75 -34q-43 0 -72.5 33.5t-29.5 85.5zM59 780v54q143 43 248 106h55q-4 -166 -4 -322v-389q0 -131 15.5 -153.5t109.5 -26.5v-49h-409v49q94 4 109.5 26.5t15.5 153.5v385q0 129 -19 152
q-17 14 -121 14zM324 1223q0 51 29.5 84.5t74.5 33.5q43 0 72.5 -34.5t29.5 -85.5q0 -49 -29.5 -83t-72.5 -34q-45 0 -74.5 33.5t-29.5 85.5z" />
    <glyph glyph-name="eth" unicode="&#xf0;" horiz-adv-x="1064" 
d="M88 440q0 207 126 348.5t310 141.5q94 0 197 -70q-80 209 -203 367l-147 -99l-49 56l151 108q-59 70 -115 117l58 55q68 -39 143 -114l148 98l57 -53l-152 -105q164 -186 264.5 -412.5t100.5 -408.5q0 -201 -115 -336q-131 -156 -330 -156q-170 0 -292 111
q-152 135 -152 352zM254 477q0 -180 81 -295.5t206 -115.5q119 0 194.5 102t75.5 264q0 180 -83 296t-210 116q-115 0 -189.5 -102.5t-74.5 -264.5z" />
    <glyph glyph-name="ntilde" unicode="&#xf1;" horiz-adv-x="1075" 
d="M74 0v49q94 4 109.5 26.5t15.5 153.5l-2 457q-2 66 -20.5 80t-102.5 16v43q33 14 35 15l84 34q47 20 112 60h53v-189q166 172 312 173q147 0 209 -111q35 -63 34 -256v-322q0 -131 15.5 -153.5t109.5 -26.5v-49h-409v49q94 4 109.5 26.5t15.5 153.5v308q0 150 -27 192
q-39 59 -137 59q-68 0 -123 -24q-29 -14 -109 -68v-467q0 -131 15.5 -153.5t109.5 -26.5v-49h-409zM281 1124q37 195 176 195q37 0 90 -23l100 -43q33 -14 62 -14q63 0 114 82h49q-10 -90 -56 -143.5t-114 -53.5q-45 0 -79 17l-103 47q-41 18 -86 18q-57 0 -102 -82h-51z
" />
    <glyph glyph-name="ograve" unicode="&#xf2;" horiz-adv-x="1064" 
d="M88 440q0 211 129 351.5t324 140.5q188 0 312 -135t124 -340q0 -201 -129 -340.5t-316 -139.5q-168 0 -292 111q-152 135 -152 352zM231 1327q0 27 19.5 46.5t46.5 19.5q45 0 115 -86l194 -242h-86l-198 149q-90 68 -91 113zM254 477q0 -180 81 -295.5t206 -115.5
q119 0 194.5 102t75.5 264q0 180 -83 296t-210 116q-115 0 -189.5 -102.5t-74.5 -264.5z" />
    <glyph glyph-name="oacute" unicode="&#xf3;" horiz-adv-x="1064" 
d="M88 440q0 211 129 351.5t324 140.5q188 0 312 -135t124 -340q0 -201 -129 -340.5t-316 -139.5q-168 0 -292 111q-152 135 -152 352zM254 477q0 -180 81 -295.5t206 -115.5q119 0 194.5 102t75.5 264q0 180 -83 296t-210 116q-115 0 -189.5 -102.5t-74.5 -264.5zM479 1065
l195 242q70 86 114 86q27 0 46.5 -19.5t19.5 -46.5q0 -45 -90 -113l-199 -149h-86z" />
    <glyph glyph-name="ocircumflex" unicode="&#xf4;" horiz-adv-x="1064" 
d="M88 440q0 211 129 351.5t324 140.5q188 0 312 -135t124 -340q0 -201 -129 -340.5t-316 -139.5q-168 0 -292 111q-152 135 -152 352zM254 477q0 -180 81 -295.5t206 -115.5q119 0 194.5 102t75.5 264q0 180 -83 296t-210 116q-115 0 -189.5 -102.5t-74.5 -264.5zM264 1065
l232 328h100l231 -328h-73l-209 199l-207 -199h-74z" />
    <glyph glyph-name="otilde" unicode="&#xf5;" horiz-adv-x="1064" 
d="M88 440q0 211 129 351.5t324 140.5q188 0 312 -135t124 -340q0 -201 -129 -340.5t-316 -139.5q-168 0 -292 111q-152 135 -152 352zM254 477q0 -180 81 -295.5t206 -115.5q119 0 194.5 102t75.5 264q0 180 -83 296t-210 116q-115 0 -189.5 -102.5t-74.5 -264.5zM299 1124
q37 195 176 195q37 0 90 -23l101 -43q33 -14 61 -14q64 0 115 82h49q-10 -90 -56.5 -143.5t-113.5 -53.5q-45 0 -80 17l-102 47q-41 18 -86 18q-57 0 -103 -82h-51z" />
    <glyph glyph-name="odieresis" unicode="&#xf6;" horiz-adv-x="1064" 
d="M88 440q0 211 129 351.5t324 140.5q188 0 312 -135t124 -340q0 -201 -129 -340.5t-316 -139.5q-168 0 -292 111q-152 135 -152 352zM250 1223q0 51 29.5 84.5t72.5 33.5q45 0 75 -34.5t30 -85.5q0 -49 -30 -83t-75 -34q-43 0 -72.5 33.5t-29.5 85.5zM254 477
q0 -180 81 -295.5t206 -115.5q119 0 194.5 102t75.5 264q0 180 -83 296t-210 116q-115 0 -189.5 -102.5t-74.5 -264.5zM637 1223q0 51 29.5 84.5t74.5 33.5q43 0 73 -34.5t30 -85.5q0 -49 -30 -83t-73 -34q-45 0 -74.5 33.5t-29.5 85.5z" />
    <glyph glyph-name="divide" unicode="&#xf7;" 
d="M129 621v124h834v-124h-834zM444 307q0 43 30 73t73 30q41 0 70.5 -31t29.5 -72q0 -39 -29.5 -69.5t-70.5 -30.5t-72 29.5t-31 70.5zM444 1053q0 43 30 72.5t73 29.5q41 0 70.5 -30.5t29.5 -71.5q0 -39 -29.5 -70t-70.5 -31t-72 30t-31 71z" />
    <glyph glyph-name="oslash" unicode="&#xf8;" horiz-adv-x="1064" 
d="M88 442q0 207 130 348.5t323 141.5q113 0 223 -60l92 136l64 -45l-93 -136q150 -162 150 -364q0 -205 -129 -345.5t-316 -140.5q-121 0 -231 66l-92 -133l-62 39l91 139q-150 143 -150 354zM254 475q0 -135 68 -276l368 577q-82 68 -170 68q-119 0 -192.5 -102.5
t-73.5 -266.5zM375 135q63 -70 168 -69q119 0 193.5 103t74.5 265q0 146 -72 281z" />
    <glyph glyph-name="ugrave" unicode="&#xf9;" horiz-adv-x="1069" 
d="M39 793v49q158 45 242 92h55q-4 -63 -4 -211v-336q0 -154 39 -209q51 -72 166 -72q100 0 196 91v403q0 117 -4 131q-14 63 -88 64q-25 0 -41 -2v49l27 8l94 31q47 14 121 53h51v-606q0 -141 4 -162q10 -53 92 -53h33l-4 -45l-113.5 -37t-107.5 -43h-52v153
q-170 -164 -311 -164q-133 0 -209 99q-53 70 -53 217v307q0 133 -15.5 164t-80.5 31q-23 0 -37 -2zM233 1327q0 27 19.5 46.5t46.5 19.5q45 0 115 -86l194 -242h-86l-198 149q-90 68 -91 113z" />
    <glyph glyph-name="uacute" unicode="&#xfa;" horiz-adv-x="1069" 
d="M39 793v49q158 45 242 92h55q-4 -63 -4 -211v-336q0 -154 39 -209q51 -72 166 -72q100 0 196 91v403q0 117 -4 131q-14 63 -88 64q-25 0 -41 -2v49l27 8l94 31q47 14 121 53h51v-606q0 -141 4 -162q10 -53 92 -53h33l-4 -45l-113.5 -37t-107.5 -43h-52v153
q-170 -164 -311 -164q-133 0 -209 99q-53 70 -53 217v307q0 133 -15.5 164t-80.5 31q-23 0 -37 -2zM469 1065l195 242q70 86 114 86q27 0 46.5 -19.5t19.5 -46.5q0 -45 -90 -113l-199 -149h-86z" />
    <glyph glyph-name="ucircumflex" unicode="&#xfb;" horiz-adv-x="1069" 
d="M39 793v49q158 45 242 92h55q-4 -63 -4 -211v-336q0 -154 39 -209q51 -72 166 -72q100 0 196 91v403q0 117 -4 131q-14 63 -88 64q-25 0 -41 -2v49l27 8l94 31q47 14 121 53h51v-606q0 -141 4 -162q10 -53 92 -53h33l-4 -45l-113.5 -37t-107.5 -43h-52v153
q-170 -164 -311 -164q-133 0 -209 99q-53 70 -53 217v307q0 133 -15.5 164t-80.5 31q-23 0 -37 -2zM262 1065l232 328h100l231 -328h-73l-209 199l-207 -199h-74z" />
    <glyph glyph-name="udieresis" unicode="&#xfc;" horiz-adv-x="1069" 
d="M39 793v49q158 45 242 92h55q-4 -63 -4 -211v-336q0 -154 39 -209q51 -72 166 -72q100 0 196 91v403q0 117 -4 131q-14 63 -88 64q-25 0 -41 -2v49l27 8l94 31q47 14 121 53h51v-606q0 -141 4 -162q10 -53 92 -53h33l-4 -45l-113.5 -37t-107.5 -43h-52v153
q-170 -164 -311 -164q-133 0 -209 99q-53 70 -53 217v307q0 133 -15.5 164t-80.5 31q-23 0 -37 -2zM248 1223q0 51 29.5 84.5t72.5 33.5q45 0 75 -34.5t30 -85.5q0 -49 -30 -83t-75 -34q-43 0 -72.5 33.5t-29.5 85.5zM635 1223q0 51 29.5 84.5t74.5 33.5q43 0 73 -34.5
t30 -85.5q0 -49 -30 -83t-73 -34q-45 0 -74.5 33.5t-29.5 85.5z" />
    <glyph glyph-name="yacute" unicode="&#xfd;" horiz-adv-x="854" 
d="M2 860v49h381v-49q-59 -2 -61 -2q-39 -6 -39 -33q0 -25 32 -104l185 -455l151 455q29 86 29 102q0 29 -70 35l-24 2v49h270v-49q-47 -6 -64.5 -28.5t-54.5 -126.5l-268 -771q-68 -193 -127 -260t-162 -67q-78 0 -110.5 34.5t-32.5 120.5q0 78 78 78q49 0 64.5 -19.5
t19.5 -69.5t32 -50q47 0 95 92q14 27 96 240l-279 672q-41 100 -63.5 124.5t-77.5 30.5zM399 1065l195 242q70 86 115 86q27 0 46 -19.5t19 -46.5q0 -45 -90 -113l-199 -149h-86z" />
    <glyph glyph-name="thorn" unicode="&#xfe;" horiz-adv-x="1058" 
d="M14 -375q117 2 136.5 24.5t19.5 155.5v1160q0 229 -8 272t-43 53q-14 4 -76 4l2 47q49 14 121 41l125 64h45q-6 -213 -6 -510v-186q100 102 156.5 133.5t138.5 31.5q154 0 250 -117.5t96 -305.5q0 -211 -118 -355.5t-288 -144.5q-117 0 -235 100v-287q0 -133 20.5 -155.5
t145.5 -24.5v-49h-482v49zM330 209q94 -133 227 -133q109 0 177.5 92t68.5 242q0 166 -74 271t-192 105q-55 0 -97 -22t-110 -88v-467z" />
    <glyph glyph-name="ydieresis" unicode="&#xff;" horiz-adv-x="854" 
d="M2 860v49h381v-49q-59 -2 -61 -2q-39 -6 -39 -33q0 -25 32 -104l185 -455l151 455q29 86 29 102q0 29 -70 35l-24 2v49h270v-49q-47 -6 -64.5 -28.5t-54.5 -126.5l-268 -771q-68 -193 -127 -260t-162 -67q-78 0 -110.5 34.5t-32.5 120.5q0 78 78 78q49 0 64.5 -19.5
t19.5 -69.5t32 -50q47 0 95 92q14 27 96 240l-279 672q-41 100 -63.5 124.5t-77.5 30.5zM168 1223q0 51 29.5 84.5t72.5 33.5q45 0 75 -34.5t30 -85.5q0 -49 -30 -83t-75 -34q-43 0 -72.5 33.5t-29.5 85.5zM555 1223q0 51 29.5 84.5t74.5 33.5q43 0 73 -34.5t30 -85.5
q0 -49 -30 -83t-73 -34q-45 0 -74.5 33.5t-29.5 85.5z" />
    <glyph glyph-name="OE" unicode="&#x152;" horiz-adv-x="1914" 
d="M100 676q0 297 166 493q184 219 498 220q49 0 172 -17q47 -6 119 -6h698l21 -297l-50 -6q-39 139 -103.5 179t-254.5 40h-213v-526h197q137 0 176 31.5t49 150.5h45v-446h-45q-16 129 -50 154.5t-190 25.5h-182v-588h289q174 0 247.5 49t131.5 203l45 -6l-86 -330h-727
q-121 0 -209 -12q-74 -10 -131 -11q-262 0 -437.5 201t-175.5 498zM319 743q0 -272 146.5 -466.5t351.5 -194.5q100 0 123 59q8 23 8 209v750q0 117 -18 145q-37 55 -168 55q-207 0 -338 -182q-104 -145 -105 -375z" />
    <glyph glyph-name="oe" unicode="&#x153;" horiz-adv-x="1560" 
d="M88 457q0 211 113.5 343t294.5 132q193 0 309 -193q115 193 303 193q203 0 287 -156q45 -84 51 -229h-572q8 -178 68 -279q78 -133 221 -133q76 0 138.5 47t144.5 164l41 -20q-131 -348 -385 -349q-94 0 -161 43t-136 146q-76 -102 -147.5 -145.5t-170.5 -43.5
q-176 0 -287.5 134.5t-111.5 345.5zM254 559q0 -184 76 -332.5t213 -148.5q88 0 141 77.5t53 209.5q0 213 -74.5 348t-193.5 135q-94 0 -154.5 -82t-60.5 -207zM874 612h398q-8 90 -37 140q-55 96 -168 96q-98 0 -145 -70q-40 -57 -48 -166z" />
    <glyph glyph-name="Ydieresis" unicode="&#x178;" horiz-adv-x="1304" 
d="M-6 1317v49h528v-49l-73 -4q-51 -8 -52 -39q0 -25 60 -119l188 -297q45 -72 82 -137q16 27 94 149l178 285q55 88 56 117q0 45 -109 45h-24v49h397v-49q-72 -4 -101.5 -28.5t-119.5 -162.5l-318 -479v-371q0 -127 4 -160.5t23.5 -50t130.5 -16.5h16v-49h-553v49h27
q102 0 124.5 20.5t22.5 206.5v336l-342 514q-84 125 -121.5 156t-117.5 35zM395 1642q0 51 31 87t78 36q45 0 75.5 -36.5t30.5 -90.5q0 -47 -30.5 -80.5t-73.5 -33.5q-47 0 -79 33.5t-32 84.5zM813 1642q0 51 31 87t78 36q45 0 74.5 -36.5t29.5 -90.5q0 -47 -30.5 -80.5
t-73.5 -33.5q-47 0 -78 33.5t-31 84.5z" />
    <glyph glyph-name="circumflex" unicode="&#x2c6;" horiz-adv-x="1024" 
d="M231 1065l232 328h100l232 -328h-74l-209 199l-207 -199h-74z" />
    <glyph glyph-name="tilde" unicode="&#x2dc;" horiz-adv-x="1024" 
d="M217 1124q37 195 176 195q37 0 90 -23l101 -43q33 -14 61 -14q64 0 115 82h49q-10 -90 -56 -143.5t-114 -53.5q-45 0 -80 17l-102 47q-41 18 -86 18q-57 0 -103 -82h-51z" />
    <glyph glyph-name="uni2000" unicode="&#x2000;" horiz-adv-x="930" 
 />
    <glyph glyph-name="uni2001" unicode="&#x2001;" horiz-adv-x="1860" 
 />
    <glyph glyph-name="uni2002" unicode="&#x2002;" horiz-adv-x="930" 
 />
    <glyph glyph-name="uni2003" unicode="&#x2003;" horiz-adv-x="1860" 
 />
    <glyph glyph-name="uni2004" unicode="&#x2004;" horiz-adv-x="620" 
 />
    <glyph glyph-name="uni2005" unicode="&#x2005;" horiz-adv-x="465" 
 />
    <glyph glyph-name="uni2006" unicode="&#x2006;" horiz-adv-x="310" 
 />
    <glyph glyph-name="uni2007" unicode="&#x2007;" horiz-adv-x="310" 
 />
    <glyph glyph-name="uni2008" unicode="&#x2008;" horiz-adv-x="232" 
 />
    <glyph glyph-name="uni2009" unicode="&#x2009;" horiz-adv-x="372" 
 />
    <glyph glyph-name="uni200A" unicode="&#x200a;" horiz-adv-x="103" 
 />
    <glyph glyph-name="uni2010" unicode="&#x2010;" horiz-adv-x="409" 
d="M0 438v105h410v-105h-410z" />
    <glyph glyph-name="uni2011" unicode="&#x2011;" horiz-adv-x="409" 
d="M0 438v105h410v-105h-410z" />
    <glyph glyph-name="figuredash" unicode="&#x2012;" horiz-adv-x="409" 
d="M0 438v105h410v-105h-410z" />
    <glyph glyph-name="endash" unicode="&#x2013;" 
d="M188 438v105h713v-105h-713z" />
    <glyph glyph-name="emdash" unicode="&#x2014;" horiz-adv-x="1230" 
d="M0 438v105h1231v-105h-1231z" />
    <glyph glyph-name="quoteleft" unicode="&#x2018;" horiz-adv-x="548" 
d="M123 1044q0 242 299 336l12 -55q-188 -63 -198 -229q33 16 55 16q39 0 65.5 -29.5t26.5 -76.5q0 -57 -37 -96.5t-90 -39.5q-59 0 -96 49.5t-37 124.5z" />
    <glyph glyph-name="quoteright" unicode="&#x2019;" horiz-adv-x="548" 
d="M117 928q186 66 198 229q-31 -18 -55 -18q-39 0 -65.5 29.5t-26.5 76.5q0 57 37 96t90 39q59 0 96 -49t37 -125q0 -240 -299 -336z" />
    <glyph glyph-name="quotesinglbase" unicode="&#x201a;" horiz-adv-x="548" 
d="M117 -217q186 61 198 229q-31 -18 -55 -18q-39 0 -65.5 29.5t-26.5 76.5q0 57 37 96.5t90 39.5q59 0 96 -49.5t37 -125.5q0 -239 -299 -333z" />
    <glyph glyph-name="quotedblleft" unicode="&#x201c;" horiz-adv-x="931" 
d="M123 1044q0 242 299 336l12 -55q-188 -63 -198 -229q33 16 55 16q39 0 65.5 -29.5t26.5 -76.5q0 -57 -37 -96.5t-90 -39.5q-59 0 -96 49.5t-37 124.5zM504 1044q0 242 299 336l12 -55q-186 -61 -197 -229q33 16 54 16q41 0 67.5 -29.5t26.5 -76.5q0 -57 -37 -96.5
t-90 -39.5q-59 0 -97 48.5t-38 125.5z" />
    <glyph glyph-name="quotedblright" unicode="&#x201d;" horiz-adv-x="931" 
d="M117 928q186 66 198 229q-31 -18 -55 -18q-39 0 -65.5 29.5t-26.5 76.5q0 57 37 96t90 39q59 0 96 -49t37 -125q0 -240 -299 -336zM500 928q186 66 196 229q-31 -18 -53 -18q-41 0 -67.5 29.5t-26.5 76.5q0 57 37 96t90 39q59 0 96 -49t37 -125q0 -240 -299 -336z" />
    <glyph glyph-name="quotedblbase" unicode="&#x201e;" horiz-adv-x="931" 
d="M117 -217q186 61 198 229q-31 -18 -55 -18q-39 0 -65.5 29.5t-26.5 76.5q0 57 37 96.5t90 39.5q59 0 96 -49.5t37 -125.5q0 -239 -299 -333zM500 -217q186 61 196 229q-31 -18 -53 -18q-41 0 -67.5 29.5t-26.5 76.5q0 57 37 96.5t90 39.5q59 0 96 -49.5t37 -125.5
q0 -239 -299 -333z" />
    <glyph glyph-name="bullet" unicode="&#x2022;" horiz-adv-x="1366" 
d="M401 692q0 119 84 202t205 83q113 0 196 -84t83 -199q0 -119 -83 -201.5t-200 -82.5t-201 82.5t-84 199.5z" />
    <glyph glyph-name="ellipsis" unicode="&#x2026;" horiz-adv-x="1556" 
d="M152 104q0 57 30.5 93t81.5 36q104 0 105 -120q0 -57 -32 -93t-81 -36q-47 0 -75.5 33.5t-28.5 86.5zM670 104q0 57 30.5 93t81.5 36q106 0 107 -120q0 -57 -32 -93t-81 -36q-47 0 -76.5 33.5t-29.5 86.5zM1190 104q0 57 31 93t82 36q104 0 104 -120q0 -57 -32 -93
t-81 -36q-47 0 -75.5 33.5t-28.5 86.5z" />
    <glyph glyph-name="uni202F" unicode="&#x202f;" horiz-adv-x="372" 
 />
    <glyph glyph-name="guilsinglleft" unicode="&#x2039;" horiz-adv-x="587" 
d="M61 461q223 209 324 366h113q-80 -188 -258 -366q180 -181 258 -367h-113q-100 158 -324 367z" />
    <glyph glyph-name="guilsinglright" unicode="&#x203a;" horiz-adv-x="587" 
d="M88 94q78 184 260 367q-180 180 -260 366h113q109 -164 323 -366q-215 -203 -323 -367h-113z" />
    <glyph glyph-name="uni205F" unicode="&#x205f;" horiz-adv-x="465" 
 />
    <glyph glyph-name="Euro" unicode="&#x20ac;" horiz-adv-x="1480" 
d="M92 563l35 80h100v14l2 66h-137l35 80h113q41 264 214 425t414 161q106 0 224 -39q92 -31 129 -31q35 0 96 20l16 -446h-53q-59 217 -152.5 312t-242.5 95q-186 0 -304 -135t-132 -362h641l-33 -80h-611l7 -80h569l-35 -80h-520q27 -111 53 -170q63 -133 178 -214
t244 -81q211 0 397 236l50 -23q-195 -334 -523 -334q-254 0 -431 165t-204 421h-139z" />
    <glyph glyph-name="trademark" unicode="&#x2122;" horiz-adv-x="1806" 
d="M55 1165l11 201q41 -4 227 -4h246q100 0 174 4l-13 -201h-26q-8 102 -41 127t-160 25h-24v-574q0 -96 10 -112.5t71 -16.5h7v-28h-297v28q66 0 76 16.5t10 112.5v574q-135 2 -181.5 -27.5t-60.5 -124.5h-29zM797 588v28q66 4 76 17.5t12 91.5l8 528q0 59 -11.5 70.5
t-74.5 13.5v29h217l193 -469l47 -121q6 12 20 53q0 2 16 41l199 496h221v-29h-20q-41 0 -53 -16q-4 -4 -9 -29l2 -628q0 -31 14.5 -38.5t71.5 -9.5v-28h-299v28q57 2 73 12.5t16 127.5v512l-281 -680h-6l-281 680l-4 -555q0 -70 11.5 -82.5t74.5 -14.5v-28h-233z" />
    <glyph glyph-name="uni25FC" unicode="&#x25fc;" horiz-adv-x="911" 
d="M0 0v911h911v-911h-911z" />
    <glyph glyph-name="uniFB03" unicode="&#xfb03;" horiz-adv-x="1624" 
d="M45 834v75h145v127q0 236 111 344q86 84 215 84q170 0 170 -137q0 -88 -84 -88q-80 0 -82 98q-2 55 -51 56q-53 0 -82 -54q-37 -70 -37 -286v-144h395v127q0 236 129 342q104 86 254 86q109 0 172.5 -39t63.5 -108q0 -59 -27.5 -96t-72.5 -37q-86 0 -88 133q-2 80 -68 80
q-92 0 -143 -58q-43 -49 -56 -135q-4 -37 -4 -151v-144h254q76 0 248 31h55q-4 -166 -4 -322v-389q0 -131 15.5 -153.5t109.5 -26.5v-49h-409v49q94 4 109 26.5t15 153.5v439q0 147 -34 157q-23 8 -105 9h-254v-621q0 -119 21 -141q14 -16 38.5 -19.5t127.5 -3.5v-49h-478
v49q98 2 114.5 22.5t16.5 141.5v621h-395v-621q0 -119 21 -141q14 -16 38.5 -19.5t127.5 -3.5v-49h-478v49q98 2 114.5 22.5t16.5 141.5v621h-145z" />
    <glyph glyph-name="uniFB04" unicode="&#xfb04;" horiz-adv-x="1624" 
d="M45 834v75h145v127q0 236 111 344q86 84 215 84q170 0 170 -137q0 -88 -84 -88q-80 0 -82 98q-2 55 -51 56q-53 0 -82 -54q-37 -70 -37 -286v-144h395v127q0 428 394 428q49 0 139 -8q113 -10 125 -10h61q-6 -213 -6 -510v-707q0 -131 15.5 -153.5t109.5 -26.5v-49h-409
v49q94 4 109 26.5t15 153.5v736q0 223 -6 280q-4 43 -28 82q-41 68 -152 68q-98 0 -149 -58q-43 -47 -54 -135q-4 -37 -4 -149v-144h201v-75h-201v-621q0 -119 21 -141q14 -16 38.5 -19.5t127.5 -3.5v-49h-478v49q98 2 114.5 22.5t16.5 141.5v621h-395v-621q0 -119 21 -141
q14 -16 38.5 -19.5t127.5 -3.5v-49h-478v49q98 2 114.5 22.5t16.5 141.5v621h-145z" />
    </font>
</defs>
</svg>
