<?xml version="1.0" encoding="iso-8859-1"?>
<!-- Generator: Adobe Illustrator 18.0.0, SVG Export Plug-In . SVG Version: 6.00 Build 0)  -->
<!DOCTYPE svg PUBLIC "-//W3C//DTD SVG 1.1//EN" "http://www.w3.org/Graphics/SVG/1.1/DTD/svg11.dtd">
<svg version="1.1" id="Capa_1" xmlns="http://www.w3.org/2000/svg" xmlns:xlink="http://www.w3.org/1999/xlink" x="0px" y="0px"
	 viewBox="0 0 22 22" style="enable-background:new 0 0 22 22;" xml:space="preserve">
<g>
	<path style="fill-rule:evenodd;clip-rule:evenodd;" d="M22,11c0-6.075-4.925-11-11-11C4.925,0,0,4.925,0,11s4.925,11,11,11
		C17.075,22,22,17.075,22,11z M1,11C1,5.477,5.477,1,11,1c5.523,0,10,4.477,10,10c0,5.523-4.477,10-10,10C5.477,21,1,16.523,1,11z"
		/>
	<path style="fill-rule:evenodd;clip-rule:evenodd;" d="M11.422,17.349V11h2.095l0.331-2.104h-2.426V7.841
		c0-0.549,0.18-1.073,0.968-1.073h1.575v-2.1h-2.236c-1.88,0-2.393,1.238-2.393,2.954v1.273h-1.29V11h1.29v6.349H11.422z"/>
</g>
<g>
</g>
<g>
</g>
<g>
</g>
<g>
</g>
<g>
</g>
<g>
</g>
<g>
</g>
<g>
</g>
<g>
</g>
<g>
</g>
<g>
</g>
<g>
</g>
<g>
</g>
<g>
</g>
<g>
</g>
</svg>
