<?xml version="1.0" encoding="iso-8859-1"?>
<!-- Generator: Adobe Illustrator 18.0.0, SVG Export Plug-In . SVG Version: 6.00 Build 0)  -->
<!DOCTYPE svg PUBLIC "-//W3C//DTD SVG 1.1//EN" "http://www.w3.org/Graphics/SVG/1.1/DTD/svg11.dtd">
<svg version="1.1" id="Capa_1" xmlns="http://www.w3.org/2000/svg" xmlns:xlink="http://www.w3.org/1999/xlink" x="0px" y="0px"
	 viewBox="0 0 22 22" style="enable-background:new 0 0 22 22;" xml:space="preserve">
<g>
	<path style="fill-rule:evenodd;clip-rule:evenodd;" d="M12.551,14.46c0-1.079-0.625-1.611-1.313-2.19l-0.563-0.438
		c-0.172-0.14-0.406-0.328-0.406-0.672s0.235-0.563,0.438-0.766c0.656-0.516,1.313-1.063,1.313-2.22c0-1.189-0.751-1.814-1.11-2.111
		v0h0.969L12.879,5.5H9.658c-0.844,0-1.907,0.125-2.799,0.86C6.187,6.938,5.859,7.736,5.859,8.455c0,1.219,0.938,2.455,2.595,2.455
		c0.157,0,0.328-0.016,0.501-0.031c-0.078,0.188-0.156,0.344-0.156,0.61c0,0.484,0.25,0.782,0.469,1.063
		c-0.703,0.047-2.017,0.125-2.986,0.719c-0.923,0.547-1.204,1.345-1.204,1.908c0,1.157,1.095,2.236,3.362,2.236
		C11.128,17.415,12.551,15.929,12.551,14.46z M9.189,10.473c-1.345,0-1.955-1.736-1.955-2.783c0-0.407,0.078-0.828,0.344-1.157
		c0.25-0.313,0.688-0.517,1.095-0.517c1.298,0,1.97,1.752,1.97,2.877c0,0.282-0.031,0.782-0.391,1.142
		C10.002,10.285,9.58,10.472,9.189,10.473z M9.205,16.758c-1.673,0-2.752-0.797-2.752-1.907c0-1.11,1.001-1.485,1.345-1.61
		c0.657-0.219,1.501-0.251,1.642-0.251c0.156,0,0.234,0,0.359,0.016c1.189,0.844,1.704,1.266,1.704,2.064
		C11.503,16.039,10.706,16.758,9.205,16.758z"/>
	<polygon style="fill-rule:evenodd;clip-rule:evenodd;" points="12.692,11.423 14.385,11.423 14.385,13.115 15.231,13.115 
		15.231,11.423 16.923,11.423 16.923,10.577 15.231,10.577 15.231,8.885 14.385,8.885 14.385,10.577 12.692,10.577 	"/>
	<path style="fill-rule:evenodd;clip-rule:evenodd;" d="M22,11c0-6.075-4.925-11-11-11C4.925,0,0,4.925,0,11s4.925,11,11,11
		C17.075,22,22,17.075,22,11z M1,11C1,5.477,5.477,1,11,1c5.523,0,10,4.477,10,10c0,5.523-4.477,10-10,10C5.477,21,1,16.523,1,11z"
		/>
</g>
<g>
</g>
<g>
</g>
<g>
</g>
<g>
</g>
<g>
</g>
<g>
</g>
<g>
</g>
<g>
</g>
<g>
</g>
<g>
</g>
<g>
</g>
<g>
</g>
<g>
</g>
<g>
</g>
<g>
</g>
</svg>
