<?xml version="1.0" encoding="iso-8859-1"?>
<!-- Generator: Adobe Illustrator 18.0.0, SVG Export Plug-In . SVG Version: 6.00 Build 0)  -->
<!DOCTYPE svg PUBLIC "-//W3C//DTD SVG 1.1//EN" "http://www.w3.org/Graphics/SVG/1.1/DTD/svg11.dtd">
<svg version="1.1" id="Capa_1" xmlns="http://www.w3.org/2000/svg" xmlns:xlink="http://www.w3.org/1999/xlink" x="0px" y="0px"
	 viewBox="0 0 22 22" style="enable-background:new 0 0 22 22;" xml:space="preserve">
<g>
	<path style="fill-rule:evenodd;clip-rule:evenodd;" d="M15.717,8.813c0-0.111-0.002-0.221-0.007-0.33
		c0.475-0.354,0.887-0.797,1.213-1.304c-0.436,0.196-0.904,0.327-1.396,0.382c0.502-0.309,0.887-0.803,1.069-1.396
		c-0.47,0.285-0.99,0.489-1.543,0.595c-0.443-0.504-1.075-0.825-1.774-0.837c-1.342-0.022-2.43,1.112-2.43,2.533
		c0,0.202,0.021,0.398,0.063,0.587C8.891,8.913,7.1,7.861,5.902,6.275c-0.209,0.38-0.329,0.824-0.329,1.3
		c0,0.9,0.429,1.7,1.081,2.172C6.255,9.729,5.881,9.608,5.553,9.41c0,0.011,0,0.022,0,0.033c0,1.258,0.838,2.312,1.95,2.558
		c-0.204,0.058-0.419,0.088-0.64,0.087c-0.157-0.001-0.309-0.018-0.457-0.05c0.309,1.031,1.207,1.784,2.27,1.809
		c-0.832,0.69-1.88,1.102-3.018,1.099c-0.196,0-0.39-0.013-0.58-0.037c1.076,0.738,2.353,1.168,3.726,1.168
		C13.273,16.078,15.717,12.188,15.717,8.813z"/>
	<path style="fill-rule:evenodd;clip-rule:evenodd;" d="M22,11c0-6.075-4.925-11-11-11S0,4.925,0,11s4.925,11,11,11S22,17.075,22,11
		z M1,11C1,5.477,5.477,1,11,1c5.523,0,10,4.477,10,10c0,5.523-4.477,10-10,10C5.477,21,1,16.523,1,11z"/>
</g>
<g>
</g>
<g>
</g>
<g>
</g>
<g>
</g>
<g>
</g>
<g>
</g>
<g>
</g>
<g>
</g>
<g>
</g>
<g>
</g>
<g>
</g>
<g>
</g>
<g>
</g>
<g>
</g>
<g>
</g>
</svg>
