<?xml version="1.0" encoding="UTF-8" standalone="no"?>
<svg width="434px" height="765px" viewBox="0 0 434 765" version="1.1" xmlns="http://www.w3.org/2000/svg" xmlns:xlink="http://www.w3.org/1999/xlink">
    <!-- Generator: Sketch 3.8.3 (29802) - http://www.bohemiancoding.com/sketch -->
    <title>hero-illustration</title>
    <desc>Created with Sketch.</desc>
    <defs>
        <rect id="path-1" x="-2.55795385e-13" y="4.54747351e-13" width="156" height="91"></rect>
    </defs>
    <g id="Page-1" stroke="none" stroke-width="1" fill="none" fill-rule="evenodd">
        <g id="hero-illustration">
            <g id="Group-4" transform="translate(340.328658, 404.768589) rotate(10.000000) translate(-340.328658, -404.768589) translate(311.328658, 354.268589)">
                <rect id="Rectangle-path" stroke="#FFE6D0" stroke-width="2" fill="#FFFFFF" x="0.666190451" y="0.737258263" width="56.363" height="100.24" rx="5"></rect>
                <polygon id="Shape" fill="#FFE6D0" opacity="0.3" points="6.79819045 14.9292583 51.2041905 14.9292583 51.2041905 82.3332583 6.79819045 82.3332583"></polygon>
                <g id="Group-2" transform="translate(16.258733, 22.315714)" fill="#FFE6D0">
                    <path d="M0.0558659218,0.0558659218 L0.0558659218,24.9441341 L3.71494413,24.9441341 L21.2843575,24.9441341 L24.9441341,24.9441341 L24.9441341,0.0558659218 L0.0558659218,0.0558659218 L0.0558659218,0.0558659218 Z M22.7318436,22.7318436 L20.6981844,22.7318436 C19.8629888,21.8280726 17.8194134,21.1815642 16.3997207,20.5698324 C14.7703911,19.8680168 14.9927374,19.4421788 14.9340782,18.8603352 C14.9174581,18.6977654 14.9125698,18.5141061 14.9136872,18.3337989 C15.3905028,17.9384078 15.800838,17.4576816 16.0541899,16.8040503 C16.0541899,16.8040503 16.0696927,16.7653631 16.074162,16.7537709 C16.1367318,16.5878492 16.1627095,16.1072626 16.2101955,15.9307263 C16.5840782,15.8571229 16.8013966,15.4606145 16.8843575,15.0939944 C16.9684358,14.9458101 17.1431564,14.5796089 17.1027933,14.1648045 C17.0513966,13.6305866 16.8307263,13.3833799 16.5824022,13.2798883 C16.5829609,13.2477654 16.5829609,13.2173184 16.5829609,13.1875698 C16.5829609,13.0935754 16.5812849,13.0001397 16.5790503,12.9065642 C16.6493017,12.4127095 16.7101955,11.9231844 16.7101955,11.6444134 C16.7101955,11.2793296 16.6317039,10.5565642 16.3839385,9.89287709 L16.3889665,9.89734637 L16.0632682,9.20321229 L16.0062849,8.92388268 L15.7269553,8.8448324 C15.7120112,8.83100559 15.6959497,8.81885475 15.6804469,8.80558659 C15.7148045,8.73756983 15.4414804,8.53952514 15.6765363,8.4599162 C15.575838,8.31997207 15.0797486,8.40069832 15.0797486,8.40069832 C15.0797486,8.40069832 15.0050279,7.91843575 14.8844972,7.85377095 C14.8215084,7.94231844 14.5736034,7.9146648 14.3706704,7.89916201 C13.602514,7.79846369 14.0769553,7.1448324 13.2854749,7.07122905 C13.2888268,6.76145251 13.2821229,6.51312849 13.2821229,6.51312849 C13.2821229,6.51312849 12.8794693,6.85 12.7318436,6.71829609 C12.6412011,6.40698324 12.852933,6.01592179 12.852933,6.01592179 C12.852933,6.01592179 12.2727654,6.0226257 12.1350559,6.59944134 C12.0134078,6.43296089 12.1544693,6.17639665 12.2506983,6.04804469 C11.5150838,6.29692737 11.2794693,6.85 10.9858939,7.20391061 C10.9472067,7.25097765 10.8393855,7.0396648 10.8526536,6.91019553 C10.5662011,7.04455307 10.3913408,7.81885475 10.2625698,7.87416201 C10.1336592,7.92946927 9.87039106,7.7099162 9.85167598,7.62192737 C9.58170391,7.64078212 8.94581006,8.94106145 8.94581006,8.94106145 L8.31969274,9.56717877 C8.31969274,9.56717877 8.63659218,9.54343575 8.65265363,9.65782123 C8.66871508,9.77234637 8.18812849,10.6217877 8.18812849,10.6217877 C8.18812849,10.6217877 8.44860335,10.472486 8.47513966,10.5582402 C8.50223464,10.6439944 8.47011173,10.5870112 8.4674581,10.6013966 L8.08910615,11.6107542 L8.35349162,11.5089385 C8.32136872,11.8777933 8.30642458,12.2395251 8.30642458,12.5659218 C8.30642458,12.8794693 8.31857542,13.1217877 8.33798883,13.3192737 C8.12346369,13.4409218 7.94315642,13.6886872 7.8972067,14.1649441 C7.85740223,14.5803073 8.03156425,14.9458101 8.11564246,15.0941341 C8.20027933,15.4668994 8.42430168,15.8712291 8.80977654,15.9347765 C8.85796089,16.1117318 8.93589385,16.5459497 8.99888268,16.7135475 C9.0027933,16.724581 9.00712291,16.7350559 9.01159218,16.7456704 L9.01717877,16.7600559 C9.27430168,17.4226257 9.66871508,17.9043296 10.1388268,18.3013966 C10.1405028,18.4916201 10.1360335,18.6879888 10.1188547,18.8610335 C10.0601955,19.4428771 10.2317039,19.8687151 8.6023743,20.5705307 C7.18268156,21.1822626 5.13910615,21.8287709 4.30391061,22.7325419 L2.26815642,22.7325419 L2.26815642,2.26871508 L22.7318436,2.26871508 L22.7318436,22.7318436 L22.7318436,22.7318436 Z" id="Shape"></path>
                    <rect id="Rectangle-path" x="0.0558659218" y="39.3240223" width="2.2122905" height="2.2122905"></rect>
                    <rect id="Rectangle-path" x="5.58659218" y="39.3240223" width="19.3575419" height="2.2122905"></rect>
                    <rect id="Rectangle-path" x="0.0558659218" y="33.7932961" width="2.2122905" height="2.2122905"></rect>
                    <rect id="Rectangle-path" x="5.58659218" y="33.7932961" width="19.3575419" height="2.2122905"></rect>
                    <rect id="Rectangle-path" x="0.0558659218" y="44.8547486" width="2.2122905" height="2.2122905"></rect>
                    <rect id="Rectangle-path" x="5.58659218" y="44.8547486" width="19.3575419" height="2.2122905"></rect>
                </g>
                <path d="M32.4581905,91.0112583 C32.4581905,93.4012583 30.5551905,95.3372583 28.2111905,95.3372583 C25.8651905,95.3372583 23.9631905,93.4002583 23.9631905,91.0112583 C23.9631905,88.6232583 25.8651905,86.6862583 28.2111905,86.6862583 C30.5551905,86.6862583 32.4571905,88.6232583 32.4571905,91.0112583" id="Shape" fill="#FFE6D0"></path>
            </g>
            <g id="Group-4" opacity="0.4" transform="translate(428.552095, 48.496590) rotate(-10.000000) translate(-428.552095, -48.496590) translate(347.052095, -5.003410)">
                <rect id="Rectangle-path" stroke="#A749FF" stroke-width="2" fill="#FFFFFF" x="0.562098193" y="0.622061659" width="161.437902" height="105.690438" rx="2"></rect>
                <g id="Layout4" transform="translate(51.655581, 30.706673)" fill="#A749FF">
                    <g id="Layer_1" transform="translate(0.000000, 0.000000)">
                        <path d="M56.8449265,20.5716176 L56.8449265,24.7129412 L2.41610294,24.7129412 L2.41610294,20.5716176 L56.8449265,20.5716176 L56.8449265,20.5716176 Z M59.2113971,18.2051471 L0.0496323529,18.2051471 L0.0496323529,27.0794118 L59.2113971,27.0794118 L59.2113971,18.2051471 L59.2113971,18.2051471 L59.2113971,18.2051471 Z" id="Shape"></path>
                        <path d="M56.8449265,32.4039706 L56.8449265,36.5452941 L2.41610294,36.5452941 L2.41610294,32.4039706 L56.8449265,32.4039706 L56.8449265,32.4039706 Z M59.2113971,30.0375 L0.0496323529,30.0375 L0.0496323529,38.9117647 L59.2113971,38.9117647 L59.2113971,30.0375 L59.2113971,30.0375 L59.2113971,30.0375 Z" id="Shape"></path>
                        <rect id="Rectangle-path" x="11.8819853" y="0.456617647" width="35.4970588" height="8.87426471"></rect>
                    </g>
                </g>
                <path d="M7.62735188,5.89773603 C7.62735188,6.94669352 6.77679825,7.79639297 5.72913786,7.79639297 C4.68058356,7.79639297 3.83047688,6.94625462 3.83047688,5.89773603 C3.83047688,4.84965633 4.68058356,3.99951797 5.72913786,3.99951797 C6.77679825,3.99951797 7.62690493,4.84965633 7.62690493,5.89773603" id="Shape" fill="#A749FF"></path>
                <path d="M13.5336019,5.89773603 C13.5336019,6.94669352 12.6830482,7.79639297 11.6353879,7.79639297 C10.5868336,7.79639297 9.73672688,6.94625462 9.73672688,5.89773603 C9.73672688,4.84965633 10.5868336,3.99951797 11.6353879,3.99951797 C12.6830482,3.99951797 13.5331549,4.84965633 13.5331549,5.89773603" id="Shape" fill="#A749FF"></path>
                <path d="M19.4398519,5.89773603 C19.4398519,6.94669352 18.5892982,7.79639297 17.5416379,7.79639297 C16.4930836,7.79639297 15.6429769,6.94625462 15.6429769,5.89773603 C15.6429769,4.84965633 16.4930836,3.99951797 17.5416379,3.99951797 C18.5892982,3.99951797 19.4394049,4.84965633 19.4394049,5.89773603" id="Shape" fill="#A749FF"></path>
                <path d="M1.34082758,10.96875 L160.387703,10.96875" id="Line" stroke="#A749FF" stroke-width="2" stroke-linecap="square"></path>
            </g>
            <g id="Group-4-Copy-2" transform="translate(372.552009, 682.839541) rotate(-8.000000) translate(-372.552009, -682.839541) translate(291.052009, 629.339541)">
                <rect id="Rectangle-path" stroke="#E9E9EA" stroke-width="2" fill="#FFFFFF" x="0.562098193" y="0.622061659" width="161.437902" height="105.690438" rx="2"></rect>
                <path d="M7.62735188,5.89773603 C7.62735188,6.94669352 6.77679825,7.79639297 5.72913786,7.79639297 C4.68058356,7.79639297 3.83047688,6.94625462 3.83047688,5.89773603 C3.83047688,4.84965633 4.68058356,3.99951797 5.72913786,3.99951797 C6.77679825,3.99951797 7.62690493,4.84965633 7.62690493,5.89773603" id="Shape" fill="#E9E9EA"></path>
                <path d="M13.5336019,5.89773603 C13.5336019,6.94669352 12.6830482,7.79639297 11.6353879,7.79639297 C10.5868336,7.79639297 9.73672688,6.94625462 9.73672688,5.89773603 C9.73672688,4.84965633 10.5868336,3.99951797 11.6353879,3.99951797 C12.6830482,3.99951797 13.5331549,4.84965633 13.5331549,5.89773603" id="Shape" fill="#E9E9EA"></path>
                <path d="M19.4398519,5.89773603 C19.4398519,6.94669352 18.5892982,7.79639297 17.5416379,7.79639297 C16.4930836,7.79639297 15.6429769,6.94625462 15.6429769,5.89773603 C15.6429769,4.84965633 16.4930836,3.99951797 17.5416379,3.99951797 C18.5892982,3.99951797 19.4394049,4.84965633 19.4394049,5.89773603" id="Shape" fill="#E9E9EA"></path>
                <path d="M1.34082758,10.96875 L160.387703,10.96875" id="Line" stroke="#E9E9EA" stroke-width="2" stroke-linecap="square"></path>
                <g id="Layout11" transform="translate(4.000000, 15.000000)">
                    <mask id="mask-2" fill="white">
                        <use xlink:href="#path-1"></use>
                    </mask>
                    <g id="Mask"></g>
                    <g mask="url(#mask-2)" id="Layer_1">
                        <g transform="translate(33.120675, 9.991765)">
                            <g transform="translate(-0.000000, 0.000000)">
                                <rect id="Rectangle-path" fill="#E9E9EA" x="0.939998627" y="15.2799988" width="14.6399994" height="2.92799988"></rect>
                                <rect id="Rectangle-path" fill="#E9E9EA" x="0.939998627" y="22.5999985" width="14.6399994" height="2.92799988"></rect>
                                <rect id="Rectangle-path" fill="#E9E9EA" x="0.939998627" y="29.9199982" width="14.6399994" height="2.92799988"></rect>
                                <rect id="Rectangle-path" fill="#E9E9EA" x="0.939998627" y="74.5719963" width="14.6399994" height="2.92799988"></rect>
                                <rect id="Rectangle-path" fill="#E9E9EA" x="0.939998627" y="0.63999939" width="40.2599983" height="5.85599976"></rect>
                                <path d="M78.5319954,18.2079987 L78.5319954,37.9719978 L25.8279976,37.9719978 L25.8279976,18.2079987 L78.5319954,18.2079987 L78.5319954,18.2079987 Z M81.4599953,15.2799988 L22.8999977,15.2799988 L22.8999977,40.8999977 L81.4599953,40.8999977 L81.4599953,15.2799988 L81.4599953,15.2799988 L81.4599953,15.2799988 Z" id="Shape" fill="#E9E9EA"></path>
                                <path d="M78.5319954,76.7679962 L78.5319954,92.8719955 L25.8279976,92.8719955 L25.8279976,76.7679962 L78.5319954,76.7679962 L78.5319954,76.7679962 Z M81.4599953,73.8399963 L22.8999977,73.8399963 L22.8999977,95.7999954 L81.4599953,95.7999954 L81.4599953,73.8399963 L81.4599953,73.8399963 L81.4599953,73.8399963 Z" id="Shape" fill="#E9E9EA"></path>
                                <rect id="Rectangle-path" fill="#E9E9EA" x="22.8999977" y="44.5599976" width="58.5599976" height="2.92799988"></rect>
                                <rect id="Rectangle-path" fill="#E9E9EA" x="22.8999977" y="51.8799973" width="58.5599976" height="2.92799988"></rect>
                                <rect id="Rectangle-path" fill="#E9E9EA" x="22.8999977" y="59.1999969" width="58.5599976" height="2.92799988"></rect>
                                <rect id="Rectangle-path" fill="#E9E9EA" x="22.8999977" y="66.5199966" width="58.5599976" height="2.92799988"></rect>
                            </g>
                        </g>
                    </g>
                </g>
            </g>
            <g id="Group-4-Copy" opacity="0.4" transform="translate(162.914092, 200.294715) rotate(10.000000) translate(-162.914092, -200.294715) translate(81.414092, 146.794715)">
                <rect id="Rectangle-path" stroke="#1BD9A9" stroke-width="2" fill="#FFFFFF" x="0.562098193" y="0.622061659" width="161.437902" height="105.690438" rx="2"></rect>
                <path d="M7.62735188,5.89773603 C7.62735188,6.94669352 6.77679825,7.79639297 5.72913786,7.79639297 C4.68058356,7.79639297 3.83047688,6.94625462 3.83047688,5.89773603 C3.83047688,4.84965633 4.68058356,3.99951797 5.72913786,3.99951797 C6.77679825,3.99951797 7.62690493,4.84965633 7.62690493,5.89773603" id="Shape" fill="#1BD9A9"></path>
                <path d="M13.5336019,5.89773603 C13.5336019,6.94669352 12.6830482,7.79639297 11.6353879,7.79639297 C10.5868336,7.79639297 9.73672688,6.94625462 9.73672688,5.89773603 C9.73672688,4.84965633 10.5868336,3.99951797 11.6353879,3.99951797 C12.6830482,3.99951797 13.5331549,4.84965633 13.5331549,5.89773603" id="Shape" fill="#1BD9A9"></path>
                <path d="M19.4398519,5.89773603 C19.4398519,6.94669352 18.5892982,7.79639297 17.5416379,7.79639297 C16.4930836,7.79639297 15.6429769,6.94625462 15.6429769,5.89773603 C15.6429769,4.84965633 16.4930836,3.99951797 17.5416379,3.99951797 C18.5892982,3.99951797 19.4394049,4.84965633 19.4394049,5.89773603" id="Shape" fill="#1BD9A9"></path>
                <path d="M1.34082758,10.96875 L160.387703,10.96875" id="Line" stroke="#1BD9A9" stroke-width="2" stroke-linecap="square"></path>
                <g id="Layout38" transform="translate(23.820215, 26.142263)" fill="#1BD9A9">
                    <g id="Layer_1" transform="translate(0.199108, 0.225455)">
                        <rect id="Rectangle-path" x="33.75" y="6.75" width="47.25" height="2.7"></rect>
                        <rect id="Rectangle-path" x="27" y="3.69482223e-13" width="60.75" height="2.7"></rect>
                        <rect id="Rectangle-path" x="90.7875" y="64.125" width="2.7" height="2.7"></rect>
                        <rect id="Rectangle-path" x="97.875" y="64.125" width="14.175" height="2.7"></rect>
                        <ellipse id="Oval" cx="3.375" cy="37.125" rx="3.375" ry="3.375"></ellipse>
                        <path d="M19.0971,40.9428 L8.7561,37.495575 C8.691975,38.43585 8.3889,39.3093 7.9029,40.0572 L18.2439,43.504425 C18.308025,42.56415 18.6111,41.690025 19.0971,40.9428 L19.0971,40.9428 Z" id="Shape"></path>
                        <path d="M28.2717,41.1372 L37.762875,31.646025 C36.9765,31.18095 36.31905,30.5235 35.853975,29.737125 L26.3628,39.2283 C27.149175,39.693375 27.806625,40.350825 28.2717,41.1372 L28.2717,41.1372 Z" id="Shape"></path>
                        <ellipse id="Oval" cx="23.625" cy="43.875" rx="3.375" ry="3.375"></ellipse>
                        <ellipse id="Oval" cx="40.5" cy="27" rx="3.375" ry="3.375"></ellipse>
                        <path d="M52.1991,35.5941 C52.46235,34.706475 52.946325,33.91335 53.5896,33.279525 L45.675225,28.5309 C45.41265,29.418525 44.928675,30.21165 44.284725,30.845475 L52.1991,35.5941 Z" id="Shape"></path>
                        <path d="M69.3279,25.8336 L60.60825,32.809725 C61.335225,33.3558 61.92045,34.07805 62.297775,34.915725 L71.017425,27.9396 C70.29045,27.3942 69.705225,26.67195 69.3279,25.8336 L69.3279,25.8336 Z" id="Shape"></path>
                        <ellipse id="Oval" cx="57.375" cy="37.125" rx="3.375" ry="3.375"></ellipse>
                        <ellipse id="Oval" cx="74.25" cy="23.625" rx="3.375" ry="3.375"></ellipse>
                        <path d="M76.5558,28.500525 L86.7456,40.72815 C87.2775,39.9897 87.9903,39.393 88.8192,38.999475 L78.6294,26.77185 C78.0975,27.5103 77.3847,28.107 76.5558,28.500525 L76.5558,28.500525 Z" id="Shape"></path>
                        <ellipse id="Oval" cx="91.125" cy="43.875" rx="3.375" ry="3.375"></ellipse>
                        <path d="M96.0471,41.665725 L104.76675,34.6896 C104.039775,34.143525 103.455225,33.421275 103.077225,32.5836 L94.357575,39.559725 C95.08455,40.1058 95.669775,40.82805 96.0471,41.665725 L96.0471,41.665725 Z" id="Shape"></path>
                        <ellipse id="Oval" cx="108" cy="30.375" rx="3.375" ry="3.375"></ellipse>
                    </g>
                </g>
            </g>
            <circle id="Oval-17" stroke="#A749FF" stroke-width="2" opacity="0.1" cx="118.25" cy="414.25" r="5.25"></circle>
            <path d="M6.25,170.5 C9.14949494,170.5 11.5,168.149495 11.5,165.25 C11.5,162.350505 9.14949494,160 6.25,160 C3.35050506,160 1,162.350505 1,165.25 C1,168.149495 3.35050506,170.5 6.25,170.5 Z" id="Oval-17-Copy" stroke="#E9E9EA" stroke-width="2" opacity="0.6"></path>
            <circle id="Oval-17" stroke="#1BD9A9" stroke-width="2" opacity="0.7" cx="348.25" cy="264.25" r="5.25"></circle>
            <polygon id="Triangle-1" stroke="#FFE6D0" stroke-width="2" points="107.5 311 113 322 102 322"></polygon>
            <polygon id="Triangle-1-Copy" stroke="#A749FF" stroke-width="2" opacity="0.4" points="433.5 165 439 176 428 176"></polygon>
            <path d="M236.5,64.5 L224,80" id="Line" stroke="#FFE6D0" stroke-width="2"></path>
            <path d="M215.5,342.5 L203,358" id="Line-Copy-2" stroke="#E9E9EA" stroke-width="2" opacity="0.6"></path>
            <path d="M389.5,517.5 L402,530" id="Line-Copy" stroke="#A749FF" stroke-width="2" opacity="0.6"></path>
            <circle id="Oval-17" stroke="#FFE6D0" stroke-width="2" transform="translate(277.839926, 590.101900) scale(-1, 1) rotate(-99.000000) translate(-277.839926, -590.101900) " cx="277.839926" cy="590.1019" r="5.25"></circle>
            <polygon id="Triangle-1" stroke="#1BD9A9" stroke-width="2" opacity="0.3" transform="translate(211.823419, 688.396056) scale(-1, 1) rotate(-99.000000) translate(-211.823419, -688.396056) " points="211.823419 682.896056 217.323419 693.896056 206.323419 693.896056"></polygon>
            <g id="Group" opacity="0.4" transform="translate(258.500000, 486.500000) rotate(-30.000000) translate(-258.500000, -486.500000) translate(241.000000, 482.000000)" stroke="#1BD9A9" stroke-width="2" stroke-linecap="square">
                <path d="M9.5,8.5 L17.7462111,0.253788739" id="Line-Copy-3" transform="translate(13.500000, 4.500000) scale(-1, 1) translate(-13.500000, -4.500000) "></path>
                <path d="M17.5,8.5 L25.7462111,0.253788739" id="Line-Copy-4"></path>
                <path d="M26.5,8.5 L34.7462111,0.253788739" id="Line-Copy-5" transform="translate(30.500000, 4.500000) scale(-1, 1) translate(-30.500000, -4.500000) "></path>
                <path d="M0.5,8.5 L8.74621105,0.253788739" id="Line"></path>
            </g>
            <g id="Group-Copy" opacity="0.9" transform="translate(323.405445, 187.647114) rotate(20.000000) translate(-323.405445, -187.647114) translate(305.905445, 183.147114)" stroke="#E9E9EA" stroke-width="2" stroke-linecap="square">
                <path d="M9.5,8.5 L17.7462111,0.253788739" id="Line-Copy-3" transform="translate(13.500000, 4.500000) scale(-1, 1) translate(-13.500000, -4.500000) "></path>
                <path d="M17.5,8.5 L25.7462111,0.253788739" id="Line-Copy-4"></path>
                <path d="M26.5,8.5 L34.7462111,0.253788739" id="Line-Copy-5" transform="translate(30.500000, 4.500000) scale(-1, 1) translate(-30.500000, -4.500000) "></path>
                <path d="M0.5,8.5 L8.74621105,0.253788739" id="Line"></path>
            </g>
        </g>
    </g>
</svg>