<?xml version="1.0" encoding="utf-8"?>
<!-- Generator: Adobe Illustrator 17.1.0, SVG Export Plug-In . SVG Version: 6.00 Build 0)  -->
<!DOCTYPE svg PUBLIC "-//W3C//DTD SVG 1.1//EN" "http://www.w3.org/Graphics/SVG/1.1/DTD/svg11.dtd">
<svg version="1.1" xmlns="http://www.w3.org/2000/svg" xmlns:xlink="http://www.w3.org/1999/xlink" x="0px" y="0px"
	 viewBox="0 0 248.7 233.3" enable-background="new 0 0 248.7 233.3" xml:space="preserve">
<g id="Layer_5">
</g>
<g id="Layer_1">
	<g>
		<polygon fill="#CAC9C9" points="237.4,97.1 237.8,96.8 181.1,51.8 124.4,6.3 67.7,51.8 11,96.8 11,97.4 67.7,142.4 124.4,188 
			181.1,142.4 237.8,97.4 		"/>
		<rect x="33.9" y="40.5" fill="#FFFFFF" width="179.6" height="173.8"/>
		<g>
			<polygon fill="#DAD9D9" points="11,226.9 237.8,226.9 11,96.8 			"/>
			<polygon fill="#E3E4E4" points="237.8,226.9 11,226.9 237.8,96.8 			"/>
		</g>
	</g>
	<g id="Download_Icon">
	</g>
	<g>
		<g display="none">
			<polygon display="inline" fill="#3F9BD4" points="84.3,43.7 58.6,43.7 51.9,57.4 77.6,57.4 			"/>
			<polygon display="inline" fill="#E76155" points="126.6,43.7 100.9,43.7 94.2,57.4 119.9,57.4 			"/>
			<polygon display="inline" fill="#E76155" points="35.3,57.4 42,43.7 20.6,43.7 20.6,57.4 			"/>
			<polygon display="inline" fill="#3F9BD4" points="168.8,43.7 143.1,43.7 136.5,57.4 162.2,57.4 			"/>
			<polygon display="inline" fill="#E76155" points="200.2,57.4 200.2,43.7 185.4,43.7 178.8,57.4 			"/>
		</g>
	</g>
</g>
<g id="Layer_1_copy">
</g>
<g id="Layer_3">
	<g>
		<g>
			<path fill="#DC4C3F" d="M81.3,96.9c0-6,1.1-11.6,3.3-17c2.2-5.3,5.3-10,9.2-13.9c3.9-3.9,8.6-7,13.9-9.2c5.3-2.2,11-3.3,17-3.3
				c6,0,11.6,1.1,17,3.3c5.3,2.2,10,5.3,13.9,9.2c3.9,3.9,7,8.6,9.2,13.9c2.2,5.4,3.3,11,3.3,17c0,6-1.1,11.6-3.3,17
				c-2.2,5.4-5.3,10-9.2,13.9c-3.9,3.9-8.6,7-13.9,9.2c-5.4,2.2-11,3.3-17,3.3c-6,0-11.6-1.1-17-3.3c-5.4-2.2-10-5.3-13.9-9.2
				c-3.9-3.9-7-8.6-9.2-13.9C82.4,108.6,81.3,102.9,81.3,96.9z"/>
		</g>
		<g>
			<path fill="#FEFEFF" d="M140.5,109.6c-1.7,2.1-3.8,3.8-6.4,5c-2.6,1.2-5.2,1.7-8,1.7c-2.6,0-5.1-0.4-7.4-1.3
				c-2.3-0.8-4.3-2-6-3.6c-1.7-1.6-3-3.4-4-5.6c-1-2.2-1.5-4.6-1.5-7.3c0-2.7,0.5-5.1,1.5-7.3c1-2.2,2.3-4.1,4-5.6
				c1.7-1.6,3.7-2.8,6-3.6c2.3-0.8,4.8-1.3,7.4-1.3c2.4,0,4.6,0.4,6.6,1.3c2,0.8,3.7,2,5,3.6c1.4,1.6,2.4,3.4,3.2,5.6
				c0.7,2.2,1.1,4.6,1.1,7.3v3.3h-24.3c0.4,2,1.3,3.6,2.7,4.8c1.4,1.2,3.1,1.8,5.2,1.8c1.7,0,3.2-0.4,4.4-1.2c1.2-0.8,2.2-1.8,3.1-3
				L140.5,109.6z M131.6,94.7c0-1.8-0.5-3.3-1.7-4.5c-1.2-1.3-2.8-1.9-4.7-1.9c-1.2,0-2.2,0.2-3.1,0.6c-0.9,0.4-1.6,0.8-2.3,1.4
				c-0.6,0.6-1.1,1.3-1.5,2c-0.3,0.8-0.5,1.6-0.6,2.4H131.6z"/>
		</g>
	</g>
	<path fill="none" d="M118.6,175.4c-4.4,4.4-12.1,4.4-16.5,0L-4.6,68.7h229.9L118.6,175.4L118.6,175.4z"/>
</g>
<g id="Creative_Commons_License" display="none">
	
		<text id="Creative_Commons_License_1_" transform="matrix(1 0 0 1 -31.6667 265.3773)" display="inline" font-family="'MyriadPro-Regular'" font-size="12">With assets by Pixeden / CC BY</text>
</g>
</svg>
